<?xml version="1.0" encoding="utf-8"?>
<!-- Generator: Adobe Illustrator 16.0.4, SVG Export Plug-In . SVG Version: 6.00 Build 0)  -->
<!DOCTYPE svg PUBLIC "-//W3C//DTD SVG 1.1//EN" "http://www.w3.org/Graphics/SVG/1.1/DTD/svg11.dtd">
<svg version="1.1" id="Layer_1" xmlns="http://www.w3.org/2000/svg" xmlns:xlink="http://www.w3.org/1999/xlink" x="0px" y="0px"
	 width="471.293px" height="87.6px" viewBox="0 0 471.293 87.6" enable-background="new 0 0 471.293 87.6" xml:space="preserve">
<g>
	<path fill="#1C4387" d="M49.9,75.8c-6.268-4.733-12.635-7.1-19.1-7.1c-8.334,0-16.834,2.367-25.5,7.1l-1.2-1.9
		c0.533-0.266,1.116-0.615,1.75-1.05C6.483,72.417,7.2,71.9,8,71.3c6.2-4.466,9.4-9,9.6-13.6v-0.5c-0.134-1.8-0.75-3.366-1.85-4.7
		c-1.1-1.333-2.517-2-4.25-2c-0.934,0-1.834,0.2-2.7,0.6l-1-1.2c1.8-2,3.633-3,5.5-3c1.733,0,3.366,0.567,4.9,1.7
		c-0.2-6-2.667-9-7.4-9c-1.535,0-2.967,0.467-4.3,1.4l-1.2-1c2.465-3,5.1-4.533,7.9-4.6c1,0,1.866,0.1,2.6,0.3
		c0.266,0,0.7,0.1,1.3,0.3c0-0.4-0.034-1-0.1-1.8c-0.067-0.8-0.1-1.4-0.1-1.8c0-6.333,2.333-11.833,7-16.5l0.9-0.9
		c-4.067,0.935-6.9,1.4-8.5,1.4c-1.134,0-2.734-0.365-4.8-1.1h-0.3c-0.067-0.066-0.167-0.1-0.3-0.1c-1.535-0.6-2.935-0.9-4.2-0.9
		c-1.267,0-2.317,0.484-3.15,1.45C2.716,16.717,2.3,17.867,2.3,19.2c0,0.267,0.065,0.667,0.2,1.2v0.3c0.066,0.067,0.1,0.167,0.1,0.3
		l-1.8,0.6c-0.535-1.733-0.8-3.065-0.8-4c0-2.8,1.033-5.233,3.1-7.3C5.166,8.234,7.6,7.134,10.4,7c1.6,0,3.865,0.5,6.8,1.5
		c3,1,5.3,1.5,6.9,1.5c2.4,0,5.4-0.9,9-2.7L34,8.7c-0.134,0.134-0.317,0.3-0.55,0.5c-0.234,0.2-0.517,0.434-0.85,0.7
		c-2.467,2.067-4.2,3.967-5.2,5.7c-1.268,2.067-1.9,4.567-1.9,7.5c0,1.067,0.05,2.417,0.15,4.05c0.1,1.635,0.283,3.518,0.55,5.65
		c0.266,2.134,0.45,4,0.55,5.6c0.1,1.6,0.15,2.967,0.15,4.1c0,8-2.8,15.6-8.4,22.8c9.133-6.2,13.7-14.433,13.7-24.7
		c0-0.933-0.05-2.083-0.15-3.45c-0.1-1.365-0.285-2.982-0.55-4.85c-0.4-3.666-0.6-6.433-0.6-8.3c0-5.6,1.732-9.833,5.2-12.7
		c3.266-2.666,7.733-4,13.4-4l1.1,2.2C43.533,10.367,40,13.634,40,19.3c0,2,0.2,4.934,0.6,8.8c0.266,1.935,0.45,3.634,0.55,5.1
		c0.1,1.467,0.15,2.667,0.15,3.6c0,5.734-1.634,10.867-4.9,15.4c-1.135,1.667-2.65,3.467-4.55,5.4c-1.9,1.935-4.25,3.967-7.05,6.1
		c2.666-0.933,5.666-1.6,9-2c0.733-0.066,1.483-0.116,2.25-0.15c0.766-0.033,1.516-0.05,2.25-0.05c6.133,0,11.666,2.1,16.6,6.3
		l4.5-4.2l1.7,1.8L49.9,75.8z"/>
	<path fill="#1C4387" d="M72.6,75.8c-1.734-1.8-3.384-3.366-4.95-4.7c-1.567-1.333-3.084-2.433-4.55-3.3v-1
		c2.133-0.733,3.2-2.9,3.2-6.5V34.7l-3.5-3l8.3-6.5l8.3,6.8L76,35.1V66l2.8,2.5l3-2.5l1.2,1.7L72.6,75.8z M74.4,5.2l8.3,0.3
		l-8.3,11.3L72,16.6L74.4,5.2z"/>
	<path fill="#1C4387" d="M146.799,51l1.6,0.3c-1.734,7.134-5.535,12.934-11.4,17.4c-5.934,4.4-12.567,6.6-19.9,6.6
		c-8.334,0-15.467-2.766-21.4-8.3c-5.867-5.6-8.8-12.6-8.8-21c0-11.533,6.166-21.6,18.5-30.2c-0.334,0-0.685-0.016-1.05-0.05
		c-0.367-0.033-0.717-0.083-1.05-0.15c-0.4,0-0.767-0.033-1.1-0.1h-1.1c-8.534,0-14.667,4.267-18.4,12.8l-1.6-0.7
		c1.6-6.6,4.55-11.683,8.85-15.25c4.3-3.565,9.783-5.35,16.45-5.35c1.732,0,3.833,0.15,6.3,0.45c2.466,0.3,5.366,0.784,8.7,1.45
		c6.6,1.2,11.6,1.8,15,1.8c4.865,0,8.333-1.833,10.4-5.5l1.6,0.5c-0.4,4.4-2.117,7.8-5.15,10.2c-3.034,2.4-6.784,3.6-11.25,3.6
		c-0.4,0-1.034-0.033-1.9-0.1c-0.867-0.065-1.5-0.1-1.9-0.1V66C136.064,64.134,142.264,59.134,146.799,51z M99.199,26.4
		c-2.267,4.467-3.4,9.3-3.4,14.5c0,7.8,3.065,14.467,9.2,20c2.933-2.133,4.4-5.865,4.4-11.2V15.8
		C105.064,17.935,101.665,21.467,99.199,26.4z M124.549,18.6c-0.567-0.133-1.185-0.266-1.85-0.4c-0.667-0.133-1.284-0.25-1.85-0.35
		c-0.567-0.1-1.05-0.15-1.45-0.15v25.1c0,6.134-1.8,10.834-5.4,14.1c-0.067,0.067-0.667,0.55-1.8,1.45
		c-1.134,0.9-2.834,2.284-5.1,4.15c4.533,2.935,9.3,4.4,14.3,4.4h1.2c0.4,0,0.8-0.016,1.2-0.05c0.4-0.033,0.766-0.083,1.1-0.15
		c0.133-0.066,0.3-0.1,0.5-0.1c0.2,0,0.4-0.033,0.6-0.1V18.9C125.599,18.834,125.114,18.734,124.549,18.6z"/>
	<path fill="#1C4387" d="M192.098,75.8c-7.135-3.2-13.6-4.8-19.4-4.8c-4.867,0-9.067,0.967-12.6,2.9c-1.667,0.866-2.567,2.2-2.7,4
		c0,0.8,0.233,1.566,0.7,2.3l0.1,0.1c0,0.065,0.033,0.133,0.1,0.2l0.5,0.9c0.066,0.2,0.166,0.566,0.3,1.1c0,1.933-0.8,2.9-2.4,2.9
		c-1.934,0-3.034-1.2-3.3-3.6v-0.7c0-2,0.666-3.867,2-5.6c0.333-0.467,0.866-1.05,1.6-1.75c0.733-0.7,1.633-1.55,2.7-2.55
		c4.133-3.8,6.2-7.2,6.2-10.2c0-2.666-1.1-4-3.3-4c-1.535,0-2.9,1.234-4.1,3.7l-1.5-0.4c0.666-5.866,3.633-8.866,8.9-9
		c0-2.733-0.534-4.966-1.6-6.7c-1.334-2.2-3.167-3.3-5.5-3.3c-2.734,0-4.934,1.2-6.6,3.6l-1.5-0.7c1.066-3.2,2.766-5.466,5.1-6.8
		c2.133-1.133,5-1.7,8.6-1.7c0.065-4.6,0.733-8.4,2-11.4c1.466-3.4,3.9-6.333,7.3-8.8c-2.134,0.6-4.1,0.9-5.9,0.9
		c-1,0-2.634-0.266-4.9-0.8c-1.067-0.266-1.984-0.466-2.75-0.6c-0.767-0.133-1.417-0.2-1.95-0.2c-3.4,0-5.7,2-6.9,6l-1.8-0.6
		c0.733-3.533,2.1-6.4,4.1-8.6c2.266-2.533,5.065-3.866,8.4-4c1.465-0.065,3.7,0.3,6.7,1.1c2.866,0.8,5.1,1.2,6.7,1.2
		c3.133,0,6.933-1.065,11.4-3.2l0.8,2c-0.467,0.334-1.734,1.034-3.8,2.1c-3.534,1.934-6,3.9-7.4,5.9c-1.534,2.334-2.3,5.4-2.3,9.2
		v23.7c0,4.134-0.4,7.234-1.2,9.3c-0.4,0.8-0.9,1.8-1.5,3c-0.6,1.2-1.3,2.635-2.1,4.3c0.2-0.133,0.45-0.283,0.75-0.45
		c0.3-0.166,0.616-0.383,0.95-0.65c3.333-2.2,5.683-4.55,7.05-7.05c1.366-2.5,2.05-5.716,2.05-9.65V30.6c0-5.065,0.333-8.565,1-10.5
		c1-3.133,3.232-5.733,6.7-7.8c4.4-2.533,8.9-4.4,13.5-5.6l0.7,2c-1.667,0.734-3,1.317-4,1.75c-1,0.434-1.7,0.75-2.1,0.95
		c-2.134,1.2-3.834,2.567-5.1,4.1c-0.667,0.867-1.1,2.367-1.3,4.5c-0.067,0.334-0.1,0.734-0.1,1.2v12.7l16.6-13.9
		c0.465,0.334,1.065,0.785,1.8,1.35c0.733,0.567,1.566,1.217,2.5,1.95c3.733,3.134,6.233,6.667,7.5,10.6
		c0.933,3.135,1.4,7.5,1.4,13.1c0,4.4-0.267,7.834-0.8,10.3c-0.667,3.467-2.234,6.467-4.7,9c-1.067,1.2-4.6,4.2-10.6,9
		c-0.268,0.266-0.935,0.833-2,1.7c-0.667,0.666-1.234,1.333-1.7,2c-0.467,0.666-0.7,1.233-0.7,1.7c0,1,0.466,1.565,1.4,1.7
		c0.732,0,1.465-0.2,2.2-0.6h0.3c0.065,0,0.133-0.035,0.2-0.1c1.733,0,2.6,0.866,2.6,2.6c0,1.865-1.1,2.933-3.3,3.2
		c-0.135,0.066-0.3,0.1-0.5,0.1h-0.4c-1.467,0-2.734-0.55-3.8-1.65c-1.067-1.1-1.6-2.384-1.6-3.85c0-2.667,1.5-5.8,4.5-9.4
		c1.533-1.866,2.833-3.483,3.9-4.85c1.066-1.366,1.866-2.516,2.4-3.45c2-3.266,3-6.5,3-9.7c-3.734-1.4-7.067-2.1-10-2.1
		c-7.535,0-15.234,3.935-23.1,11.8c0.933,0,2.1,0.05,3.5,0.15c1.4,0.1,3.033,0.217,4.9,0.35c1.933,0.135,3.6,0.234,5,0.3
		c1.4,0.067,2.565,0.1,3.5,0.1c2.333,0,4.6-1.533,6.8-4.6l1.8,1.3L192.098,75.8z M199.698,41.4c3.933,0,7.333-0.833,10.2-2.5
		c-0.534-4.266-3.534-8.166-9-11.7l-11.5,9.4v2.5C192.598,40.634,196.031,41.4,199.698,41.4z M189.898,52.5
		c0.065-0.065,0.2-0.1,0.4-0.1c3.8-1.133,6.933-1.7,9.4-1.7c2.866,0,6.166,0.634,9.9,1.9c0-0.133,0-0.3,0-0.5
		c0-0.266,0.033-0.565,0.1-0.9v-1.4v-5.5V43c-0.067-0.333-0.1-0.6-0.1-0.8c0-0.266,0-0.466,0-0.6c-2.867,1.334-6.234,2-10.1,2
		c-3.134,0-6.5-0.666-10.1-2v10.9H189.898z"/>
	<path fill="#1C4387" d="M242.298,75.8c-5.734-3.333-10.867-5.4-15.4-6.2v-1.1c2.065-1,3.166-3.266,3.3-6.8v-1.1V40
		c0-2.533-1.1-3.8-3.3-3.8l-0.4-1.1c4-1.733,7.6-3.416,10.8-5.05c3.2-1.633,6.065-3.216,8.6-4.75l12.2,15.6l-18.1,15v9.2
		c3.6,1.8,6.5,3.3,8.7,4.5l7.1-5l1,1.4L242.298,75.8z M250.198,44.3l-10.2-13.1v21.4L250.198,44.3z"/>
	<path fill="#1C4387" d="M363.396,25l-10.7,7.9l12.1,5.8v1.4c-1.2,0.734-1.8,2.167-1.8,4.3v19.9c-11.135,1.734-20.167,5.6-27.1,11.6
		c-6.267-3.865-12.367-5.8-18.3-5.8c-3.534,0-6.734,0.435-9.6,1.3c-4.334,1.334-6.5,3.266-6.5,5.8c0,0.6,0.283,1.366,0.85,2.3
		c0.566,0.933,0.85,1.666,0.85,2.2c0,1.933-0.9,2.9-2.7,2.9c-2,0-3.135-1.2-3.4-3.6v-0.7c0-2,0.7-3.9,2.1-5.7
		c0.8-1,2.3-2.466,4.5-4.4c4.333-3.8,6.5-7.166,6.5-10.1c0-1.2-0.434-2.216-1.3-3.05c-0.867-0.833-1.9-1.25-3.1-1.25
		c-2.267,0-3.867,1.467-4.8,4.4l-1.8-0.1c0.266-6.2,3.866-9.6,10.8-10.2c0-6.266-2.435-9.4-7.3-9.4c-2.734,0-4.7,1.367-5.9,4.1
		l-1.9-0.5V44v-0.1c1.065-6.266,4.033-9.533,8.9-9.8c0.8-0.065,2.633,0.134,5.5,0.6c0.2-4.733,1.3-8.666,3.3-11.8
		c1.8-2.8,4.833-5.533,9.1-8.2c-3.6,1.134-6.7,1.7-9.3,1.7c-1.535,0-3.234-0.3-5.1-0.9c-0.134,0-0.467-0.065-1-0.2l-2-0.4
		c-0.334-0.065-0.667-0.115-1-0.15c-0.334-0.033-0.667-0.05-1-0.05c-3.2,0-5.034,2-5.5,6l-2.3-0.1c0.533-4,1.766-7.166,3.7-9.5
		c2.2-2.666,5.2-4,9-4c1.866,0,4.566,0.4,8.1,1.2c1.866,0.467,3.466,0.8,4.8,1c1.333,0.2,2.4,0.3,3.2,0.3c3.4,0,6.966-0.9,10.7-2.7
		l1.6,2.2c-0.134,0.134-0.934,0.534-2.4,1.2c-5.2,2.534-8.767,5.2-10.7,8c-2.2,3.134-3.3,7.4-3.3,12.8v17.4
		c0,4.134-0.467,7.4-1.4,9.8c-0.867,2.134-2.8,4.7-5.8,7.7c2.4-0.866,4.416-1.866,6.05-3c1.633-1.133,2.95-2.433,3.95-3.9
		c1-1.466,1.715-3.166,2.15-5.1c0.433-1.933,0.65-4.2,0.65-6.8V32.6c0-5.466,0.533-9.4,1.6-11.8c1.4-3.066,4.2-5.766,8.4-8.1
		c5.266-2.866,10.266-4.866,15-6V6.6L363.396,25z M340.695,27.2v12l14.2-10.6l-12.3-16.8c-3.134,1.134-5.267,2.7-6.4,4.7
		c-1,1.734-1.5,4.367-1.5,7.9v18.2c0,4.467-0.6,8.034-1.8,10.7c-1.267,2.867-3.7,5.5-7.3,7.9c-0.734,0.534-1.55,1.05-2.45,1.55
		s-1.85,1.017-2.85,1.55c3.666-0.8,6.733-1.2,9.2-1.2c2.865,0,5.865,0.5,9,1.5V27.2H340.695z M346.896,46.8
		c2.333,0,4.4-0.433,6.2-1.3v-2l-8.8-4.4l-3.6,2.7v3.8C342.695,46.4,344.761,46.8,346.896,46.8z M344.195,54.2
		c1-0.133,1.866-0.2,2.6-0.2c2.266,0,4.366,0.3,6.3,0.9v-7.1c-2.4,0.734-4.5,1.1-6.3,1.1c-1.667,0-3.7-0.333-6.1-1v6.9
		C342.028,54.535,343.195,54.334,344.195,54.2z M341.746,65.7c0.365,0.2,0.715,0.367,1.05,0.5l2,1c1.933-0.666,3-1.1,3.2-1.3h0.1
		c1.533-0.666,3.2-1.266,5-1.8v-6.9c-2.4-0.666-4.5-1-6.3-1c-1.734,0-3.767,0.367-6.1,1.1v7.9
		C341.028,65.334,341.378,65.5,341.746,65.7z"/>
	<path fill="#1C4387" d="M383.195,75.8c-3.4-3.466-7.435-5.8-12.1-7v-1.6c2.266-1.066,3.4-3.433,3.4-7.1V20.8
		c0-3.066-0.234-5.2-0.7-6.4c-0.734-2-2.135-3.533-4.2-4.6l0.5-1.6c3.2,1.4,5.8,3.034,7.8,4.9c2.733-3.065,6.433-5.2,11.1-6.4
		l0.5,1.5c-0.2,0.2-0.45,0.45-0.75,0.75c-0.3,0.3-0.684,0.617-1.15,0.95c-1.4,1.2-2.367,2.834-2.9,4.9c-0.267,1.067-0.4,3-0.4,5.8
		v44.1l4.9,3.4l2.1-1.6l1.4,1.6L383.195,75.8z"/>
	<path fill="#1C4387" d="M420.894,75.8c-0.267-0.268-0.584-0.55-0.95-0.85c-0.367-0.3-0.784-0.683-1.25-1.15
		c-2.067-2.266-3.3-5.133-3.7-8.6l-13.2,10.6c-5.134-3.933-7.7-8.066-7.7-12.4c0-5.465,2.666-11.166,8-17.1l1.4-1.6l-8.6-15.4
		c0,0.067,0.1,0.1,0.3,0.1h0.5c0.066,0.067,0.133,0.1,0.2,0.1h1.1c4.8,0,8.865-1.4,12.2-4.2c0.133,0.067,0.266,0.134,0.4,0.2
		c0.133,0.067,0.333,0.167,0.6,0.3c5,2.6,9.166,3.9,12.5,3.9c1.466,0,2.966-0.733,4.5-2.2l1.3,0.8c-2.268,3.467-3.435,6.767-3.5,9.9
		c-0.067,0.734-0.1,1.5-0.1,2.3c0,0.8,0,1.667,0,2.6v19.8v0.8c0.065,2.4,0.9,3.7,2.5,3.9c0.4,0,1.2-0.266,2.4-0.8l0.2-0.2l0.1-0.1
		c0.133,0,0.266-0.065,0.4-0.2l1,1.2L420.894,75.8z M398.094,31.1l7.4,13.4l9.5,4.1V36.7L398.094,31.1z M404.594,46.1
		c-0.2,0-0.534,1-1,3c-0.8,3.334-1.2,6-1.2,8c0,3.467,2.065,7.1,6.2,10.9l6.4-5.3V50.6l-5.4-2.3L404.594,46.1z M405.194,11.6
		c0-4.6,2.966-8.4,8.9-11.4l0.4-0.2c6.2,1.935,9.3,5.435,9.3,10.5c0,2-1.1,4.435-3.3,7.3c-2.2,2.934-4.2,4.4-6,4.4v-0.1
		C408.294,20.234,405.194,16.734,405.194,11.6z M419.994,13c0-2-0.967-3.965-2.9-5.9c-1.934-1.933-3.867-2.9-5.8-2.9
		c-1.067,1.067-1.8,2.434-2.2,4.1c-0.134,0.534-0.2,0.967-0.2,1.3c0,3.334,2.3,5.935,6.9,7.8c0.266,0.2,0.833,0.4,1.7,0.6v-0.1
		C419.16,16.634,419.994,15,419.994,13z"/>
	<path fill="#1C4387" d="M445.293,56.8l-9.3-5.1V34c3.133-0.933,5.6-2.033,7.4-3.3c0.866-0.666,2.766-2.466,5.7-5.4
		c4.8,2.4,9.133,3.6,13,3.6c1.2,0,2.233-0.232,3.1-0.7c1.2-0.6,1.8-1.433,1.8-2.5c0-0.866-0.334-1.633-1-2.3
		c-0.067,0-0.1-0.033-0.1-0.1c-0.734-0.733-1.1-1.633-1.1-2.7c0-1.933,0.965-2.9,2.9-2.9c2.4,0,3.6,1.4,3.6,4.2v0.9
		c-0.334,2-1.768,4.767-4.3,8.3l-8.4,11.6l10.2,5.9v19.5c-4.935,1.467-9.535,4.034-13.8,7.7c-4.067-2.466-7.767-3.7-11.1-3.7
		c-3.534,0-6.867,1.234-10,3.7l-1.3-1.1L445.293,56.8z M452.893,50.7l-10.6,15l2.5-0.7c0.333-0.065,0.633-0.133,0.9-0.2
		c0.266-0.066,0.565-0.133,0.9-0.2c0.133,0,0.3,0,0.5,0s0.466-0.033,0.8-0.1h1.3h0.6c0.266,0,0.465,0.035,0.6,0.1
		c2.133,0.067,4.9,1.034,8.3,2.9V53.9L452.893,50.7z M450.693,49.2l9.5-13.3c-0.867,0.268-1.834,0.4-2.9,0.4h-1.1
		c-0.734,0-1.417-0.05-2.05-0.15c-0.634-0.1-1.284-0.215-1.95-0.35c-2.467-0.666-4.6-1.566-6.4-2.7v13.3L450.693,49.2z"/>
</g>
<g>
</g>
<g>
</g>
<g>
</g>
<g>
</g>
<g>
</g>
<g>
</g>
<g>
</g>
<g>
</g>
<g>
</g>
<g>
</g>
<g>
</g>
<g>
</g>
<g>
</g>
<g>
</g>
<g>
</g>
</svg>
