<?xml version="1.0" encoding="utf-8"?>
<!-- Generator: Adobe Illustrator 16.0.4, SVG Export Plug-In . SVG Version: 6.00 Build 0)  -->
<!DOCTYPE svg PUBLIC "-//W3C//DTD SVG 1.1//EN" "http://www.w3.org/Graphics/SVG/1.1/DTD/svg11.dtd">
<svg version="1.1" xmlns="http://www.w3.org/2000/svg" xmlns:xlink="http://www.w3.org/1999/xlink" x="0px" y="0px" width="100px"
	 height="138px" viewBox="0 0 100 138" enable-background="new 0 0 100 138" xml:space="preserve">
<g id="Layer_2">
	<rect fill="#007DC5" width="100" height="138"/>
</g>
<g id="Layer_1" opacity="0.07">
	<g>
		<rect y="0.001" fill="none" width="100" height="138"/>
		<g>
			<g>
				<path d="M68.838,51.554c-1.266-1.307-2.782-0.736-4.247-0.186c-1.066,0.4-2.071,0.778-2.899,0.383l-0.382-0.184l0.417-0.085
					c3.625-0.728,3.923-2.394,3.935-2.852c-0.206-0.037-1.787-0.333-1.787-0.333c-1.67-0.235-2.36,0.178-3.027,0.579
					c-0.811,0.488-1.59,0.939-3.858,0.188c-0.037,0.044-0.082,0.093-0.082,0.12c0,0.003,0,0.01,0.001,0.012
					c0.018,0.101,0.272,0.207,0.382,0.25c1.176,0.569,1.992,0.393,2.78,0.221c0.539-0.118,1.096-0.241,1.74-0.117
					c-0.586-0.112-1.146,0.275-1.68,0.394c-0.835,0.184-1.699,0.372-2.957-0.239c-0.13-0.052-0.305-0.131-0.423-0.25
					c-0.17,0.362-0.347,0.964,0.135,1.332c1.102,1.146,3.38,1.389,4.67,1.602c0.871,0.145,1.296,0.224,1.444,0.432
					c-0.087-0.124-0.913-0.056-1.49-0.151c-1.291-0.212-3.14-0.323-4.317-1.457c0,0.499,1.653,1.954,2.957,2.39
					c2.379,0.774,3.668-0.086,4.914-0.916c0.504-0.337,0.98-0.654,1.505-0.839c0.824-0.293,1.342,0.036,1.576,0.255
					c0.382,0.36,0.558,0.929,0.429,1.381c-0.09,0.307-0.302,0.51-0.602,0.568l-0.158,0.03l-0.011-0.162
					c-0.031-0.433-0.202-0.715-0.466-0.767c-0.228-0.047-0.488,0.086-0.595,0.298c-0.117,0.233-0.031,0.498,0.243,0.745
					c0.349,0.364,0.815,0.314,1.062,0.253c0.614-0.152,1.158-0.663,1.322-1.243C69.481,52.815,69.479,52.215,68.838,51.554z"/>
			</g>
		</g>
		<g>
			<g>
				<path d="M43.249,49.454c-0.119,0.119-0.295,0.198-0.425,0.25c-1.256,0.611-2.121,0.423-2.956,0.239
					c-0.536-0.118-1.094-0.506-1.68-0.394c0.643-0.124,1.201-0.001,1.74,0.117c0.788,0.172,1.604,0.349,2.78-0.221
					c0.11-0.043,0.364-0.149,0.382-0.25c0-0.002,0-0.009,0-0.012c0-0.027-0.043-0.076-0.081-0.12
					c-2.269,0.752-3.049,0.301-3.859-0.188c-0.667-0.401-1.354-0.814-3.026-0.579c0,0-1.582,0.296-1.788,0.333
					c0.013,0.458,0.31,2.124,3.937,2.852l0.416,0.085l-0.383,0.184c-0.826,0.396-1.833,0.018-2.898-0.383
					c-1.464-0.551-2.98-1.121-4.248,0.186c-0.64,0.661-0.643,1.262-0.532,1.65c0.166,0.58,0.708,1.091,1.322,1.243
					c0.25,0.062,0.716,0.111,1.064-0.253c0.274-0.247,0.361-0.512,0.244-0.745c-0.107-0.212-0.37-0.345-0.595-0.298
					c-0.267,0.052-0.436,0.334-0.466,0.767l-0.011,0.162l-0.159-0.03c-0.299-0.059-0.514-0.262-0.601-0.568
					c-0.13-0.452,0.046-1.021,0.427-1.381c0.234-0.219,0.752-0.548,1.575-0.255c0.526,0.185,1.002,0.502,1.506,0.839
					c1.247,0.83,2.535,1.69,4.915,0.916c1.305-0.436,2.959-1.891,2.959-2.39c-1.179,1.134-3.029,1.245-4.318,1.457
					c-0.577,0.096-1.403,0.027-1.492,0.151c0.149-0.208,0.575-0.287,1.446-0.432c1.289-0.213,3.568-0.456,4.67-1.602
					C43.593,50.418,43.417,49.816,43.249,49.454z"/>
			</g>
		</g>
		<g>
			<g>
				<path d="M58.751,109.068c-1.042-1.768,2.722-3.171,0.523-6.119c0,0.716-3.587,3.094-2.512,5.478
					c1.819,2.949,0.928,4.497-0.418,4.39c-1.346-0.105,1.381-7.186-3.671-7.613c0.345,0.813-0.357,1.621,0.737,3.049
					c1.092,1.426,1.929,3.076,1.113,3.376c-0.817,0.301-0.622-2.535-2.694-2.737c0.008,1.142,1.445,2.284,1.911,3.651
					c0.465,1.369,0.346,3.337-1.315,3.367c-1.173-0.226-0.847-2.08-0.194-3.261c0.652-1.185-0.011-1.523-0.282-1.773
					c0.002,1.095-1.202,1.351-1.202,1.351c1.131-2.247-0.629-3.68-0.731-4.811h-0.033c-0.103,1.131-1.861,2.563-0.732,4.811
					c0,0-1.202-0.256-1.2-1.351c-0.272,0.25-0.936,0.589-0.282,1.773c0.652,1.181,0.979,3.035-0.193,3.261
					c-1.662-0.03-1.782-1.998-1.316-3.367c0.466-1.367,1.903-2.51,1.91-3.651c-2.073,0.202-1.876,3.038-2.694,2.737
					c-0.815-0.3,0.021-1.95,1.114-3.376c1.092-1.428,0.391-2.235,0.736-3.049c-5.052,0.428-2.325,7.508-3.67,7.613
					c-1.347,0.107-2.237-1.44-0.419-4.39c1.076-2.384-2.511-4.762-2.511-5.478c-2.198,2.948,1.566,4.352,0.522,6.119
					c-1.062-2.048-4.536-4.556-5.023-0.522c4.334,1.052,3.458,4.793,6.919,7.776c3.458,2.984,6.101,0.256,6.856,0.256
					c0.674,0,3.395,2.729,6.856-0.256c3.46-2.983,2.584-6.725,6.917-7.776C63.288,104.513,59.813,107.021,58.751,109.068z
					 M44.855,112.641c0-0.076,0-0.145-0.001-0.203C44.855,112.497,44.855,112.565,44.855,112.641
					c-0.001,0.148-0.003,0.329-0.002,0.526c0.008,1.289,0.156,3.361,1.772,3.418c1.988,0.073,3.374-3.3,3.374-3.3
					s1.385,3.373,3.373,3.3c1.617-0.057,1.766-2.129,1.772-3.415c0.001-0.2-0.001-0.38-0.002-0.529c0-0.076,0-0.144,0.001-0.203
					c-0.001,0.059-0.001,0.127-0.001,0.203c0.001,0.149,0.003,0.329,0.002,0.529c-0.007,1.326-0.149,3.532-1.772,3.593
					c-1.988,0.071-3.373-2.734-3.373-2.734s-1.386,2.806-3.374,2.734c-1.623-0.061-1.767-2.267-1.772-3.596
					C44.852,112.97,44.854,112.79,44.855,112.641z M55.319,116.821c-1.975,1.264-4.162,0.073-5.32-0.772
					c-1.16,0.846-3.346,2.036-5.319,0.772c-3.725-2.781-3.157-7.926-6.573-8.712c3.416,0.786,2.848,5.685,6.573,8.464
					c1.974,1.264,4.16,0.074,5.319-0.773c1.158,0.848,3.345,2.037,5.32,0.773c3.724-2.779,3.154-7.678,6.571-8.464
					C58.474,108.896,59.043,114.04,55.319,116.821z"/>
			</g>
		</g>
		<path fill="none" d="M60.822,23.961c0.473-0.005,0.932-0.15,1.269-0.452c0.084-0.078,0.162-0.162,0.229-0.258
			c0.121-0.947-1.978-3.731-3.506-2.063C58.111,22.927,59.521,23.976,60.822,23.961z"/>
		<path fill="none" d="M41.184,21.188c-1.528-1.668-3.625,1.116-3.506,2.063C38.759,24.786,42.206,23.718,41.184,21.188z"/>
		<path d="M56.458,33.708c2.438,0.893,2.58-0.734,1.662-1.47c-1.378,1.719-1.562-0.472-1.387-1.031
			C56.733,31.207,54.631,32.845,56.458,33.708z"/>
		<path d="M66.445,26.206c-0.567,0.027-1.387-0.055-1.387-0.055l-0.157,1.689c-2.979-0.941-6.511,3.29-2.146,4.998
			c2.121,0.578,2.854-1.808,2.146-2.476c-1.261-1.263-2.177,0.812-0.81,1.441c-1.592,2.355-4.233-3.584,0.954-3.224
			c4.915,0.825,2.211,8.807-3.703,7.256c-0.555-0.114,0.357,1.619-0.694,2.664c0.94,0.639,1.588,1.22,2.938,0.992
			c1.349-0.226,3.521-0.704,6.25,0.123c-2.927-2.707-7.408-0.97-6.911-2.607c0.43-0.343,3.938,1.001,6.533-0.247
			c2.595-1.248,3.967-3.098,3.971-6.672c-0.232-5.353-1.753-7.865,1.672-8.226c0.603-0.126,2.083-0.085,2.25,1.181
			c0.953-2.509-2.284-4.319-3.927-2.341c-1.339,1.751-1.667-0.015-1.289-0.4c-0.768-0.04-2.565,2.197-0.45,4.872
			c1.6,2.027-0.603,3.367-1.419,0.426c-0.817-2.939-2.139-2.145-2.139-2.145c0.858,0.744-0.294,2.089,1.754,3.196
			c2.05,1.109,2.669,2.552,2.623,3.274c-0.048,0.721-0.172,2.308-0.986,0.465c-0.816-1.847-1.348-1.918-2.402-1.971
			c-0.444,1.68,2.724,2.974,2.327,4.646c-0.412,3.724-4.653,2.95-2.387-0.063c1.167-1.966-1.23-2.458-1.06-4.054
			C68.168,27.358,68.801,26.09,66.445,26.206z"/>
		<path d="M65.174,20.007c-0.241-0.638-0.939-1.084-1.518-1.084C64.234,18.923,64.933,19.369,65.174,20.007z"/>
		<path d="M57.299,19.813c0.564-0.029,1.221,0.277,1.788,1.114C58.521,20.091,57.864,19.784,57.299,19.813z"/>
		<path d="M58.925,23.979c-0.422,0.009-0.973-0.115-1.438-0.132C57.952,23.864,58.503,23.988,58.925,23.979z"/>
		<path d="M60.822,23.961c-1.301,0.015-2.711-1.034-2.009-2.773C58.11,22.927,59.521,23.976,60.822,23.961z"/>
		<path d="M58.673,26.31c1.313-0.063,2.853-1.025,3.515-2.383C61.525,25.284,59.987,26.246,58.673,26.31z"/>
		<path d="M62.954,23.54c0.713,0.703,1.735,1.343,2.166,1.446C64.69,24.883,63.668,24.243,62.954,23.54z"/>
		<path d="M34.812,20.904c0.206,0.597,0.039,1.509,2.23,2.636c-0.712,0.703-1.734,1.343-2.162,1.446c0,0,2.137-0.43,2.929-1.06
			c1.18,2.415,5.127,3.575,5.652,0.661c0.051-1.458-2.253-0.229-2.9-0.742c0.914-1.236,2.855-0.683,3.367-1.983
			c0.644-1.63-1.507-3.164-3.017-0.935c1.302-3.492-2.068-4.657-3.121,1.479c0.165-0.979-0.697-0.128-0.585-2.327
			C37.318,17.878,34.225,19.198,34.812,20.904z M41.184,21.188c1.022,2.53-2.425,3.599-3.506,2.063
			C37.559,22.304,39.656,19.52,41.184,21.188z"/>
		<path d="M57.486,23.848c-0.542-0.021-0.972,0.102-0.949,0.74C56.516,23.949,56.944,23.827,57.486,23.848z"/>
		<path d="M62.091,23.509c-0.337,0.302-0.796,0.447-1.269,0.452C61.295,23.956,61.754,23.811,62.091,23.509z"/>
		<path d="M57.299,19.813c-0.943,0.05-1.632,1.03-1.23,2.049C55.667,20.844,56.357,19.863,57.299,19.813z"/>
		<path d="M62.793,20.079c-0.042-0.825,0.366-1.155,0.863-1.156C63.159,18.924,62.75,19.254,62.793,20.079
			c0.097,1.924-0.55,1.514-0.602,2.038C62.243,21.593,62.89,22.003,62.793,20.079z"/>
		<path d="M56.069,21.862c0.481,1.219,2.216,0.808,3.185,1.772C58.286,22.67,56.551,23.081,56.069,21.862z"/>
		<path d="M56.537,24.588c0.229,1.274,1.115,1.771,2.136,1.722C57.652,26.358,56.767,25.861,56.537,24.588z"/>
		<path d="M59.297,23.925c-0.105,0.038-0.231,0.054-0.373,0.055C59.066,23.979,59.192,23.963,59.297,23.925z"/>
		<path d="M57.299,19.813c-0.942,0.05-1.632,1.03-1.23,2.049c0.481,1.219,2.216,0.808,3.185,1.772
			c0.065,0.063,0.125,0.134,0.183,0.211c-0.041,0.032-0.087,0.059-0.14,0.079c-0.105,0.038-0.231,0.054-0.373,0.055
			c-0.422,0.009-0.973-0.115-1.438-0.132c-0.542-0.021-0.971,0.102-0.949,0.74c0.229,1.273,1.115,1.771,2.136,1.722
			c1.313-0.063,2.852-1.025,3.515-2.383c0.792,0.63,2.931,1.06,2.931,1.06c-0.431-0.104-1.452-0.743-2.166-1.446
			c2.192-1.127,2.026-2.039,2.231-2.636c0.11-0.319,0.091-0.626-0.012-0.897c-0.241-0.638-0.939-1.084-1.518-1.084
			c-0.497,0.001-0.904,0.331-0.863,1.156c0.097,1.924-0.55,1.514-0.602,2.038c-0.009,0.073-0.003,0.169,0.017,0.289
			c-1.052-6.136-4.423-4.971-3.121-1.479C58.521,20.091,57.864,19.784,57.299,19.813z M62.32,23.251
			c-0.067,0.096-0.145,0.18-0.229,0.258c-0.337,0.302-0.796,0.447-1.269,0.452c-1.301,0.015-2.712-1.034-2.009-2.773
			C60.342,19.52,62.44,22.304,62.32,23.251z"/>
		<path d="M57.751,27.739c0,0,0.411-0.483,0.539-0.597c0,0-0.844-0.271-2.19-0.378C57.019,26.884,57.751,27.739,57.751,27.739z"/>
		<path d="M52.767,19.231c2.302,0.506,2.363-2.268,1.426-2.522c-0.938-0.259-1.288,1.41-0.602,1.557
			c-3.078,0.838-2.625-4.368,1.771-2.427c1.495,0.517,2.501,2.002,2.501,2.002c-0.683-5.532-5.897-3.22-6.104-8.385
			c-2.916,4.579,3.15,3.678,3.062,5.167C50.683,13.554,49.292,18.502,52.767,19.231z"/>
		<path d="M95.923,71.365c-0.586-0.112,0.136-2.212-0.578-2.212c-1.41,1.569-0.008,4.624-1.452,6.292
			c-1.445,1.668-1.456-1.282-1.004-2.2c0.449-0.917,2.267-4.446,0.699-7.668c-0.856-1.794-1.435-0.052-1.167,0.534
			c0.268,0.585,0.994,4.633-0.236,2.889c-0.532-2.216-1.38-5.391-4.532-3.686c2.59-0.2,2.082,1.345,2.956,1.85
			c0.875,0.502,0.383,1.092,1.05,1.812c0.703,1.002,0.803,4.99-0.018,7.434c-0.693,1.236,0.614,2.11-1.458,3.719
			c-2.726,1.694-2.234,2.536-4.931,3.37c-2.397,0.222-0.404-1.613-0.229-1.733c1.409-1.569,5.694-0.468,5.266-4.794
			c-0.869,2.069-1.814,2.479-2.795,1.894c1.671-1.031,1.822-2.766,1.604-4.071c-0.681,2.046-1.824,0.957-2.702,3.313
			c-0.525,1.783-2.322,2.594-2.028,1.935c0.294-0.658,1.141-0.721,0.669-2.137c-1.703,0.082-2.338,3.551-5.179,4.735
			c2.362,0.593,3.334-1.776,5.445-2.006c-1.392,1.708-7.1,6.036-11.92,3.056c-0.635-0.488-0.501-1.268,0.341-1.378
			c0.841-0.114,1.922,1.935,3.86,1.486c1.908-0.682,1.125-1.578,1.8-1.857c-1.521,0.728-4.188-0.018-3.253-0.141
			c0.936-0.125,3.146,0.06,3.761-2.498c-0.911,1.023-5.168,2.304-7.978,1.2c0.24,0.729,0.739,2.713,0.149,3.647
			c1.574,0.746,9.8,3.942,9.8,3.942s0.124-0.876,0.722-1.383c-1.207-0.842-6.188-1.466-4.114-1.599
			c2.076-0.134,9.327-0.711,12.39-4.166c5.857-5.732,6.343-11.417,7.796-11.945C96.695,68.929,96.509,71.477,95.923,71.365z"/>
		<path d="M77.269,76.028c0.19-0.356-0.29-0.39-0.533-0.071c-0.725,1-1.367,0.465-1.708-0.679
			C74.555,77.818,76.735,77.385,77.269,76.028z"/>
		<path d="M75.987,73.531c0.19-0.36-0.289-0.392-0.533-0.073c-0.724,1.002-1.366,0.469-1.708-0.679
			C73.273,75.318,75.452,74.89,75.987,73.531z"/>
		<path d="M78.021,71.642c0.189-0.36-0.289-0.39-0.533-0.072c-0.725,1.003-1.365,0.467-1.707-0.678
			C75.308,73.431,77.486,73,78.021,71.642z"/>
		<path d="M79.244,74.053c0.191-0.359-0.29-0.391-0.534-0.074c-0.724,1.005-1.364,0.468-1.706-0.677
			C76.531,75.84,78.709,75.409,79.244,74.053z"/>
		<path d="M55.724,75.384c-0.922,0.216-3.386-0.79-2.898-1.952c0.098-0.172-0.306-0.696-0.691,0.356
			c-0.613,2.559,2.827,7.173,5.835,5.443c-2.516,0.047-4.923-1.062-5.194-4.385C53.746,75.718,54.437,76.076,55.724,75.384z"/>
		<path d="M55.169,85.224c1.3-3.482-0.478-4.868-1.499-5.399C52.446,82.084,54.868,81.5,55.169,85.224z"/>
		<path d="M60.692,95.139c-0.737,2.014-1.803,2.035-2.326,2.737c-0.79,1.059,0.084,3.158-2.253,2.942
			c-1.488-0.636-0.366-2.236,0.307-2.542c1.887-0.846,2.394-3.126,3.364-3.708c-3.493,0.035-3.602,2.813-4.403,2.871
			c-0.377,0.026-0.146-2.007,1.078-2.646c2.667-1.614,4.354-1.268,5.033-1.715c1.354-0.561,0.997-1.822,1.57-2.16
			c-2.567-0.518-2.83,1.445-4.273,0.97c1.406-2.497,3.597-1.762,4.274-2.399c0.587-0.412,1.521-1.107,0.615-2.728
			c-0.077,1.393-1.285,2.696-3.791,2.815c-2.507,0.117-3.398,0.57-5.219,2.096c-0.695-1.479,2.997-3.423,3.216-5.546
			c-4.243-0.057-4.076,5.876-4.32,6.907c-0.244,1.034-0.813,1.943-0.813,1.943c-1.107-0.808-1.542-1.392-1.602-2.218
			c-0.016-0.833-0.093-1.228,0.274-1.514c0.368-0.286,3.869-4.205,2.183-7.792c-1.725,0.99-2.939,1.343-2.939,1.343
			c0.803,1.394,0.061,2.801,0.213,3.591c0.787-0.342,1.586-2.21,1.734-2.349c0.4,0.686,0.668,2.889-1.885,4.441
			c-0.608,0.272-0.289,2.683-0.289,2.683c0.024,0.544,2.64,3.414,2.64,3.414c0.423-0.58,1.989-6.553,5.825-6.154
			c-0.48,1.229-0.713,1.998-2.211,2.174c1.193,0.223,1.48,0.946,0.366,1.331c-2.735,0.555-4.312,4.502-1.762,7
			c0.565,0.854,4.981,1.508,3.743-2.284C59.149,97.868,61.409,98.044,60.692,95.139z"/>
		<path d="M55.988,102.384c0.211,0.88,1.892,2.44,2.474-0.184C56.952,102.85,55.988,102.384,55.988,102.384z"/>
		<path d="M62.475,102.69c0.702-0.998,2.44-2.061,2.562-3.294c-0.165,0.547-1.213,1.616-2.015,2.033
			c-0.389-0.428,1.034-2.26,1.083-3.504c-0.871,0.066-1.604,1.356-2.134,2.021c-0.531,0.667-0.397,1.863-0.936,1.744
			c-0.54-0.119,0.322-1.877-0.315-3.103c-0.179-0.264-0.52-0.146-0.909,0.144c0.214,0.352,0.419,2.089-0.522,2.714
			c0,0,1.732,0.864,1.568,2.314C61.478,103.608,61.775,103.688,62.475,102.69z"/>
		<path d="M63.945,91.492c-0.839,0.493-0.676,2.09-3.402,2.521c0,0-0.067,0.749,0.594,0.353c0.172-0.145,0.657,1.01,0.863,0.053
			c0.219-1.22,0.445-0.227,1.356-0.348c3.514-0.418,2.092-1.827,2.566-2.555C65.362,91.78,64.784,91.001,63.945,91.492z"/>
		<path d="M73.662,97.325c-0.252-2.085-3.939-2.623-3.366-2.057c0.575,0.568,0.918,2.264,0.557,3.311
			c-0.247-6.73-7.909-4.271-8.579-2.984c4.489-0.595,4.382,1.66,4.38,2.897c-0.099,1.229,1.258,0.883,1.555-0.301
			c0.101-0.491-0.333-1.266,0.319-1.546c0.653-0.276,1.195,1.131,0.77,1.688c-1.095,1.073-0.069,3.247-1.057,4.234
			c4.425,0.534,3.594-3.404,3.216-4.832c1.185,0.153,1.026,2.366,2.398,3.398C73.267,99.379,73.914,99.412,73.662,97.325z"/>
		<path d="M65.945,97.991c-0.268-4.014-4.545-0.373-4.871,0.217c0,0,0.228,0.278,0.742,0.567c2.701-3.143,3.235-1.261,3.176-0.087
			C65.24,97.869,65.979,98.492,65.945,97.991z"/>
		<path d="M62.54,86.986c-1.217,1.591-2.973-0.181-4.836,1.928C59.147,88.675,61.054,89.422,62.54,86.986z"/>
		<path d="M54.211,120.436c1.434,0.763,2.57,1.804,2.612,2.845c1.398-0.944,1.77-3.867-1.627-5.085c1.053,0.928,0.941,1.7,0.941,1.7
			c-0.861-1.842-2.038-1.826-2.038-1.826l-1.451-0.093C53.941,118.756,52.778,119.672,54.211,120.436z"/>
		<path d="M60.801,120.61c0.53-1.024-1.087-4.62-4.205-3.014c1.261-0.168,3.172,0.959,3.486,1.536
			c-0.313-0.577-2.119-1.408-3.382-1.24C57.865,119.794,60.088,119.408,60.801,120.61z"/>
		<path d="M62.98,116.226c-0.853-1.412-2.858-2.909-5.087-0.327c0,0,1.434-1.088,3.123-0.582c-1.68-0.256-2.918,0.726-2.918,0.726
			C59.757,117.441,61.254,115.405,62.98,116.226z"/>
		<path d="M43.174,123.28c0.042-1.041,1.18-2.082,2.613-2.845c1.433-0.764,0.269-1.68,1.562-2.459l-1.452,0.093
			c0,0-1.176-0.016-2.038,1.826c0,0-0.11-0.772,0.942-1.7C41.404,119.413,41.777,122.336,43.174,123.28z"/>
		<path d="M43.298,117.893c-1.263-0.168-3.068,0.663-3.382,1.24c0.314-0.577,2.224-1.704,3.486-1.536
			c-3.12-1.606-4.736,1.989-4.206,3.014C39.911,119.408,42.133,119.794,43.298,117.893z"/>
		<path d="M41.901,116.042c0,0-1.239-0.981-2.919-0.726c1.689-0.506,3.123,0.582,3.123,0.582c-2.229-2.582-4.235-1.085-5.088,0.327
			C38.743,115.405,40.24,117.441,41.901,116.042z"/>
		<path d="M63.886,113.721c1.549,0.56,2.795,1.348,3.868,0.108c3.615-2.527,3.285-9.344-2.843-9.628
			c-1.713-0.011-2.955,0.68-3.903,1.423c1.037-0.089,3.532-0.275,3.654,2.805c1.452,0.901,2.301-0.592,0.807-2.539
			c-0.632-0.821,0.051-1.054,1.132-0.435c1.081,0.619-0.597,4.843,0.313,5.245c2.442,1.202,0.973-3.795,1.406-3.758
			c0.433,0.036,1.538,2.273,0.759,3.949c-0.776,1.676-1.478,0.339-2.836,0.854c-1.36,0.511-1.23,0.779-2.174,0.477
			c-0.943-0.302-1.051-1.479-0.64-1.965C62.274,110.887,62.338,113.166,63.886,113.721z"/>
		<path d="M95.581,64.287c-0.887-0.238-1.229-4.982-3.611-6.808c-2.383-1.83-7.386-1.88-8.311-3.473
			c-0.666,2.519,6.301,2.309,5.94,3.356c-0.362,1.049-2.754-0.849-5.646,1.035c7.632-0.585,9.822,2.484,9.237,2.92
			c-0.586,0.435-2.3-1.197-3.9-0.342c2.529,0.237,4.609,1.392,5.761,4.168c0.116,1.413-1.144,3.224,0.76,3.042
			c1.904-0.178,0.701-4.951,1.689-6.653C95.421,61.45,96.47,64.528,95.581,64.287z"/>
		<path d="M84.575,74.965c4.232-1.989,3.045-7.192,0.464-6.207c-2.581,0.985,1.268,4.191-1.623,5.003
			c-2.89,0.814-1.37-0.104-1.37-0.104c0.865-0.474,2.026-1.413,1.27-2.812c-0.267,0.678-3.041,2.901-4.266-2.578
			C78.444,70.498,80.341,76.955,84.575,74.965z"/>
		<path d="M84.276,59.213c-0.98-0.941-3.483-0.969-4.488-0.479c-1.006,0.492-1.994,0.777-3.448,2.532
			c-0.003-1.613,3.655-3.688,5.276-3.279c-0.515-0.994-2.06-1.008-4.247-0.289c-4.497-2.689-4.943,3.656-8.999,2.123
			c0.302,1.745,2.832,0.911,3.917,0.481c1.086-0.432,1.441-0.979,2.784-1.084c-3.467,0.859-6.698,7.104-6.698,7.104
			c1.707,0.487,1.581-0.994,2.442-2.041c0.37-0.975,3.298-2.579,3.883-1.939c1.273,2.616-2.87,3.664-3.175,5.136
			c-0.305,1.47,0.777,4.256,3.089,2.305c-0.986-0.438-1.262-0.904-1.262-0.904c1.015-0.42,0.919-1.691,2.196-2.291
			c1.277-0.597,1.27-1.278,1.27-1.278c-0.474-0.43-0.059-1.548,1.936-2.855c0.987-0.634,0.629-1.947,1.739-2.739
			c1.108-0.788,2.627-0.634,3.001,0.032c0.373,0.665-0.434,3.359-4.128,2.799c-1.084,0.559-3.041,1.89-2.323,2.764
			c0.462,0.173,1.259,0.116,2.233-0.216c0,0-1.955,1.403-2.348,1.667c-1.414,0.117-0.571,1.079-2.233,2.013
			c4.464,0.838,4.336-2.291,6.367-4.202c0.462,0.797-0.146,1.59-0.778,2.745c-0.633,1.157,0.505,4.364,1.886,3.466
			c1.38-0.896-0.409-3.088,1.663-5.222c2.074-2.132,2.608-4.453,1.358-5.422c0,0,0.26,3.045-2.315,4.121
			C84.172,63.404,85.256,60.155,84.276,59.213z"/>
		<path d="M16.167,65.56c2.074,2.134,0.286,4.326,1.665,5.222c1.382,0.898,2.519-2.309,1.887-3.466
			c-0.633-1.155-1.241-1.948-0.779-2.745c2.031,1.911,1.903,5.04,6.367,4.202c-1.661-0.934-0.821-1.896-2.233-2.013
			c-0.392-0.264-2.348-1.667-2.348-1.667c0.975,0.332,1.771,0.389,2.232,0.216c0.721-0.874-1.237-2.205-2.322-2.764
			c-3.695,0.561-4.5-2.134-4.126-2.799c0.372-0.666,1.893-0.82,3.001-0.032c1.109,0.792,0.75,2.105,1.739,2.739
			c1.993,1.308,2.409,2.426,1.933,2.855c0,0-0.007,0.682,1.271,1.278c1.277,0.6,1.18,1.871,2.195,2.291c0,0-0.275,0.466-1.262,0.904
			c2.311,1.951,3.394-0.835,3.087-2.305c-0.305-1.472-4.449-2.52-3.174-5.136c0.584-0.64,3.512,0.965,3.882,1.939
			c0.862,1.047,0.737,2.528,2.443,2.041c0,0-3.23-6.244-6.698-7.104c1.342,0.104,1.699,0.652,2.782,1.084
			c1.087,0.43,3.616,1.264,3.918-0.481c-4.057,1.533-4.502-4.812-8.999-2.123c-2.188-0.719-3.733-0.705-4.246,0.289
			c1.62-0.409,5.277,1.666,5.274,3.279c-1.455-1.755-2.442-2.04-3.448-2.532c-1.006-0.49-3.507-0.463-4.488,0.479
			c-0.981,0.942,0.104,4.191,1.402,5.046c-2.575-1.076-2.315-4.121-2.315-4.121C13.56,61.106,14.093,63.428,16.167,65.56z"/>
		<path d="M74.583,70.645c-2.494,1.116-3.457,0.314-3.709-0.509c-0.034-2.425-0.221-2.759-1.703-2.634
			c-1.483,0.125-0.442,3.132,1.442,3.885c-2.376,0.387-2.552-2.021-2.952-3.971c-0.4-1.946-1.588-1.218-1.068-3.215
			c-4.705,2.195,0.284,6.464,0.498,8.079c-1.01-0.08-2.205-2.637-4.706-1.59c3.668,1.298,2.516,4.453,7.44,2.302
			c-2.127-0.435-3.733-2.865-3.877-4.49c0.749,0.258,0.978,0.37,1.84,2.043C69.736,73.932,73.586,72.521,74.583,70.645z"/>
		<path d="M84.713,56.582c-2.543,0.194-4.969-1.412-5.474-1.99c-0.504-0.576-0.696-0.407-0.42,0.057
			C80.673,57.332,85.183,57.187,84.713,56.582z"/>
		<path d="M80.266,52.099c-0.139-1.055-1.826-1.401-2.064-2.657c-0.048,1.794-1.627,0.647-0.481,3.923
			C78.035,54.11,80.405,53.153,80.266,52.099z"/>
		<path d="M75.452,49.163c0.353-0.046,0.865,0.6,0.861,1.101c0.809-0.892,0.287-2.682-1.279-2.117
			c-1.569,0.566-1.162,2.015,0.096,2.346C74.335,49.885,75.102,49.21,75.452,49.163z"/>
		<path d="M71.701,51.021c1.781,1.05,1.797,3.331,3.163,3.938c1.393,0.618,2.548,0.377,2.501-1.046
			C77.309,52.137,73.389,50.296,71.701,51.021z"/>
		<path d="M59.994,41.769c-0.439,0.325-0.891,0.663-1.055,1.072c0,0.166-0.007,0.328-0.037,0.488
			c-0.537,2.488-2.092,3.277-3.26,3.198c-0.222-0.015-0.422-0.066-0.603-0.138c0.141,0.332,0.46,0.714,0.95,0.869l0.045-0.011
			c0.005,0.011,0.014,0.022,0.019,0.036c0.637,0.171,1.994,0.054,3.961-2.641c-1.005,2.152-2.865,3.06-3.745,2.967
			c0.164,0.156,0.368,0.248,0.545,0.289c0.888,0.205,2.497-0.268,3.725-1.551c0.527-0.552,0.863-1.113,1.066-1.666l-0.004-0.001
			c0.006-0.018,0.016-0.04,0.023-0.057c0.166-0.471,0.238-0.932,0.238-1.372c0-1.104-0.413-2.05-0.769-2.676
			C60.93,41.052,60.464,41.417,59.994,41.769z"/>
		<path d="M67.163,43.677c-0.17-0.099-0.369-0.101-0.519-0.004c-0.191,0.123-0.277,0.381-0.242,0.728
			c0.047,0.471,0.465,0.562,0.642,0.58c0.579,0.058,1.339-0.326,1.558-1.042c0.119-0.552,0.203-1.957-1.646-2.855
			c-0.629-0.266-1.297-0.253-1.981,0.043c-1.438,0.62-2.617,2.33-3.107,3.652l-0.005-0.002c-0.212,0.59-0.561,1.186-1.118,1.768
			c-0.717,0.749-1.634,1.296-2.5,1.541l0.005,0.002c-0.009,0.068,0.064,0.126,0.126,0.159c0.414,0.233,1.682,0.223,2.742-0.628
			c1.058-0.83,1.65-1.9,2.174-2.847c0.452-0.818,0.842-1.525,1.443-1.96c0.919-0.909,2.669-0.905,3.34-0.226
			c0.225,0.228,0.637,0.866-0.365,1.859l-0.263,0.26l0.022-0.369C67.484,44.041,67.372,43.801,67.163,43.677z"/>
		<path d="M41.096,43.329c-0.03-0.16-0.037-0.322-0.036-0.488c-0.165-0.409-0.617-0.747-1.057-1.072
			c-0.47-0.352-0.935-0.717-1.098-1.191c-0.357,0.626-0.77,1.572-0.77,2.676c0,0.44,0.072,0.901,0.237,1.372
			c0.007,0.017,0.016,0.039,0.022,0.057l-0.003,0.001c0.203,0.553,0.54,1.114,1.066,1.666c1.228,1.283,2.836,1.756,3.725,1.551
			c0.177-0.041,0.381-0.133,0.546-0.289c-0.88,0.093-2.741-0.814-3.747-2.967c1.967,2.694,3.325,2.812,3.961,2.641
			c0.006-0.014,0.015-0.025,0.02-0.036l0.043,0.011c0.492-0.155,0.812-0.537,0.952-0.869c-0.179,0.071-0.382,0.123-0.604,0.138
			C43.188,46.606,41.634,45.817,41.096,43.329z"/>
		<path d="M43.813,40.004c0.229-2.551-0.136-4.292-1.054-5.035c-0.678-0.547-1.521-0.446-2.11-0.262
			c-0.966,0.3-1.251,1.289-1.032,2.111c0.145,0.548,0.541,1.044,1.091,0.918c0.347-0.075,0.543-0.253,0.555-0.496
			c0.012-0.225-0.14-0.461-0.338-0.526c-0.175-0.059-0.356,0.032-0.508,0.253l-0.085,0.129L40.211,37
			c-0.288-0.234-0.382-0.529-0.266-0.836c0.195-0.514,0.946-0.921,1.643-0.89c0.657,0.028,1.144,0.438,1.334,1.118
			c0.318,1.136-0.237,2.455-0.775,3.73c-0.486,1.157-0.946,2.249-0.774,3.147c0.499,2.311,1.908,3.046,2.963,2.974
			c0.58-0.04,1.025-0.336,1.095-0.711c-0.879-0.544-2.029-1.79-1.789-4.547c0.106,3.012,1.274,3.949,2.091,4.396
			c1.065,0.585,2.232,0.527,2.745,0.135l0.076-0.059L50,46.371l1.443-0.912l0.077,0.059c0.513,0.393,1.679,0.45,2.744-0.135
			c0.818-0.447,1.986-1.385,2.092-4.396c0.24,2.757-0.91,4.003-1.79,4.547c0.071,0.375,0.516,0.671,1.095,0.711
			c1.057,0.072,2.465-0.663,2.964-2.974c0.172-0.898-0.288-1.99-0.774-3.147c-0.538-1.275-1.093-2.595-0.775-3.73
			c0.191-0.681,0.677-1.09,1.336-1.118c0.695-0.031,1.446,0.376,1.642,0.89c0.116,0.307,0.021,0.602-0.265,0.836l-0.119,0.096
			l-0.087-0.129c-0.15-0.221-0.332-0.312-0.508-0.253c-0.198,0.065-0.349,0.302-0.338,0.526c0.013,0.243,0.209,0.421,0.555,0.496
			c0.553,0.126,0.947-0.37,1.093-0.918c0.219-0.822-0.066-1.812-1.032-2.111c-0.589-0.185-1.434-0.285-2.111,0.262
			c-0.919,0.743-1.283,2.484-1.054,5.035c-1.034-1.841-2.217-2.271-2.651-2.417c0.115,0.232,0.18,0.443,0.18,0.635
			c0,0.132-0.017,0.26-0.033,0.396c-0.019,0.148-0.04,0.311-0.04,0.499c0,0.509,0.15,1.22,0.887,2.477
			c0.161,0.303,0.23,0.642,0.23,0.983c0,1.132-0.756,2.34-1.525,2.758c-0.614,0.331-1.188,0.156-1.534-0.473l-0.025-0.043
			l0.01-0.052c0.132-0.753,0.51-1.035,0.875-1.31c0.339-0.253,0.657-0.49,0.802-1.133c0.038-0.166,0.054-0.33,0.054-0.484
			c0-0.763-0.393-1.346-0.614-1.615c-0.086,0.188-0.212,0.354-0.371,0.509c-0.377,0.366-0.844,0.819-0.844,2.087
			c0,0.074,0.001,0.15,0.004,0.231c0.006,0.068,0.01,0.137,0.01,0.201c0,0.852-0.504,1.291-1.006,1.335
			c-0.396,0.036-0.564-0.232-0.595-0.577c-0.032,0.345-0.2,0.613-0.596,0.577c-0.503-0.044-1.006-0.483-1.006-1.335
			c0-0.064,0.004-0.133,0.009-0.201c0.002-0.081,0.004-0.157,0.004-0.231c0-1.268-0.465-1.721-0.843-2.087
			c-0.159-0.155-0.288-0.32-0.371-0.509c-0.221,0.27-0.614,0.853-0.614,1.615c0,0.154,0.017,0.318,0.054,0.484
			c0.144,0.643,0.463,0.88,0.802,1.133c0.365,0.274,0.742,0.557,0.875,1.31l0.01,0.052L48.3,44.861
			c-0.347,0.629-0.921,0.804-1.535,0.473c-0.77-0.418-1.527-1.626-1.527-2.758c0-0.342,0.072-0.681,0.233-0.983
			c0.735-1.257,0.886-1.968,0.886-2.477c0-0.188-0.021-0.351-0.04-0.499c-0.018-0.136-0.033-0.264-0.033-0.396
			c0-0.191,0.063-0.402,0.178-0.635C46.03,37.732,44.846,38.163,43.813,40.004z"/>
		<path d="M35.024,41.126c-0.685-0.296-1.354-0.309-1.981-0.043c-1.849,0.898-1.766,2.304-1.646,2.855
			c0.218,0.716,0.98,1.1,1.558,1.042c0.178-0.018,0.595-0.109,0.642-0.58c0.035-0.347-0.051-0.604-0.244-0.728
			c-0.15-0.097-0.347-0.095-0.517,0.004c-0.212,0.124-0.322,0.364-0.304,0.659l0.021,0.369l-0.262-0.26
			c-1.002-0.993-0.589-1.632-0.365-1.859c0.671-0.68,2.419-0.684,3.34,0.226c0.601,0.435,0.99,1.142,1.445,1.96
			c0.521,0.946,1.114,2.017,2.172,2.847c1.06,0.851,2.328,0.861,2.742,0.628c0.062-0.033,0.135-0.091,0.125-0.159l0.005-0.002
			c-0.868-0.245-1.783-0.792-2.5-1.541c-0.558-0.582-0.907-1.178-1.119-1.768l-0.006,0.002
			C37.642,43.456,36.461,41.746,35.024,41.126z"/>
		<path d="M50,37.309c-0.266,1.465-1.866-0.291,0,5.03C51.865,37.018,50.265,38.773,50,37.309z"/>
		<path d="M48.974,28.5c-1.489,0.195-0.896-2.941-2.83-3.162c-1.281,1.865,0.034,3.254,1.906,5.289
			c1.719,2.657-1.268,3.12-2.113-0.208c-0.463-2.17-4.141-3.229-3.839,0.42c2.682-3.003,3.933,3.712,6.484,2.764
			c1.675-0.778,0.332-3.915,1.417-3.271c1.084,0.643-0.258,2.492,1.415,3.271c2.552,0.948,3.804-5.767,6.484-2.764
			c0.303-3.649-3.375-2.59-3.838-0.42c-0.844,3.328-3.832,2.865-2.113,0.208c1.873-2.035,3.188-3.424,1.906-5.289
			c-1.934,0.221-1.341,3.357-2.829,3.162c-0.538-0.288,1.467-3.434-1.024-5.818C47.506,25.066,49.512,28.212,48.974,28.5z"/>
		<path d="M41.879,32.238c-0.919,0.735-0.777,2.362,1.66,1.47c1.828-0.863-0.275-2.501-0.275-2.501
			C43.44,31.767,43.257,33.957,41.879,32.238z"/>
		<path d="M26.571,20.704c-1.642-1.979-4.877-0.168-3.925,2.341c0.167-1.266,1.647-1.307,2.249-1.181
			c3.427,0.36,1.905,2.873,1.674,8.226c0.003,3.574,1.376,5.424,3.971,6.672c2.593,1.248,6.103-0.096,6.533,0.247
			c0.497,1.638-3.984-0.1-6.912,2.607c2.726-0.827,4.899-0.349,6.25-0.123c1.35,0.228,1.997-0.354,2.938-0.992
			c-1.051-1.045-0.141-2.778-0.695-2.664c-5.914,1.551-8.619-6.431-3.703-7.256c5.186-0.36,2.546,5.579,0.954,3.224
			c1.368-0.629,0.452-2.704-0.809-1.441c-0.706,0.668,0.024,3.054,2.146,2.476c4.366-1.708,0.833-5.939-2.145-4.998l-0.159-1.689
			c0,0-0.819,0.082-1.386,0.055C31.197,26.09,31.83,27.358,32,28.951c0.169,1.596-2.226,2.088-1.059,4.054
			c2.267,3.014-1.976,3.787-2.388,0.063c-0.397-1.673,2.771-2.967,2.327-4.646c-1.052,0.053-1.585,0.124-2.402,1.971
			c-0.814,1.843-0.937,0.256-0.984-0.465c-0.047-0.723,0.571-2.165,2.622-3.274c2.05-1.107,0.895-2.452,1.755-3.196
			c0,0-1.322-0.795-2.14,2.145c-0.818,2.941-3.018,1.602-1.419-0.426c2.115-2.675,0.317-4.912-0.449-4.872
			C28.239,20.689,27.91,22.455,26.571,20.704z"/>
		<path d="M43.899,26.765c-1.347,0.106-2.191,0.378-2.191,0.378c0.127,0.113,0.541,0.597,0.541,0.597S42.98,26.884,43.899,26.765z"
			/>
		<path d="M48.239,9.456c-0.208,5.165-5.421,2.853-6.105,8.385c0,0,1.005-1.485,2.501-2.002c4.396-1.941,4.848,3.265,1.773,2.427
			c0.684-0.146,0.335-1.815-0.604-1.557c-0.937,0.255-0.876,3.028,1.428,2.522c3.475-0.729,2.082-5.678-2.056-4.608
			C45.088,13.134,51.153,14.035,48.239,9.456z"/>
		<path d="M9.137,80.945c3.064,3.455,10.315,4.032,12.39,4.166c2.076,0.133-2.907,0.757-4.111,1.599
			c0.599,0.507,0.72,1.383,0.72,1.383s8.227-3.196,9.799-3.942c-0.588-0.935-0.089-2.919,0.151-3.647
			c-2.81,1.104-7.067-0.177-7.978-1.2c0.613,2.558,2.826,2.373,3.762,2.498c0.934,0.123-1.733,0.868-3.255,0.141
			c0.676,0.279-0.107,1.176,1.801,1.857c1.938,0.448,3.019-1.601,3.86-1.486c0.841,0.11,0.976,0.89,0.341,1.378
			c-4.819,2.98-10.527-1.348-11.92-3.056c2.111,0.229,3.083,2.599,5.445,2.006c-2.841-1.185-3.476-4.653-5.179-4.735
			c-0.473,1.416,0.375,1.479,0.668,2.137c0.294,0.659-1.501-0.151-2.027-1.935c-0.877-2.356-2.021-1.268-2.703-3.313
			c-0.221,1.306-0.069,3.04,1.603,4.071c-0.981,0.585-1.926,0.176-2.795-1.894c-0.429,4.326,3.856,3.225,5.267,4.794
			c0.174,0.12,2.167,1.955-0.23,1.733c-2.697-0.834-2.205-1.676-4.932-3.37c-2.071-1.608-0.766-2.482-1.459-3.719
			c-0.818-2.443-0.718-6.432-0.015-7.434c0.666-0.721,0.173-1.311,1.048-1.812c0.876-0.505,0.366-2.05,2.957-1.85
			c-3.153-1.705-4,1.47-4.532,3.686c-1.23,1.744-0.504-2.304-0.235-2.889c0.268-0.586-0.312-2.328-1.168-0.534
			c-1.567,3.222,0.25,6.751,0.7,7.668c0.448,0.918,0.439,3.868-1.005,2.2c-1.445-1.668-0.042-4.723-1.453-6.292
			c-0.714,0,0.009,2.1-0.577,2.212C3.489,71.477,3.302,68.929,1.342,69C2.796,69.528,3.28,75.213,9.137,80.945z"/>
		<path d="M24.968,75.278c-0.341,1.144-0.981,1.679-1.706,0.679c-0.243-0.318-0.723-0.285-0.533,0.071
			C23.263,77.385,25.442,77.818,24.968,75.278z"/>
		<path d="M26.251,72.779c-0.341,1.147-0.982,1.681-1.707,0.679c-0.244-0.318-0.724-0.287-0.534,0.073
			C24.545,74.89,26.725,75.318,26.251,72.779z"/>
		<path d="M22.51,71.569c-0.242-0.317-0.724-0.288-0.533,0.072c0.534,1.358,2.713,1.789,2.239-0.75
			C23.875,72.036,23.234,72.572,22.51,71.569z"/>
		<path d="M22.994,73.302c-0.341,1.145-0.982,1.682-1.706,0.677c-0.245-0.316-0.725-0.285-0.535,0.074
			C21.289,75.409,23.467,75.84,22.994,73.302z"/>
		<path d="M51.819,68.519c-0.64-0.202-1.021,0.913-1.819,1.021c-0.8,0.108-1.18-1.223-1.82-1.021
			c-1.197,0.412-0.978,2.536-2.309,2.884c1.562,1.328,2.334-1.284,2.827-0.863c0.595,0.723-1.417,1.739,1.303,4.385
			c2.718-2.646,0.707-3.662,1.302-4.385c0.491-0.421,1.264,2.191,2.824,0.863C52.798,71.055,53.015,68.931,51.819,68.519z"/>
		<path d="M47.862,73.788c-0.383-1.053-0.79-0.528-0.69-0.356c0.488,1.162-1.978,2.168-2.897,1.952
			c1.287,0.692,1.976,0.334,2.948-0.537c-0.272,3.322-2.679,4.432-5.194,4.385C45.034,80.961,48.476,76.347,47.862,73.788z"/>
		<path d="M50,81.371c-0.265,0.013-1.394-1.864-2.651-1.889c1.203,1.519-1.222,3.07,2.651,4.368c3.872-1.298,1.448-2.85,2.65-4.368
			C51.392,79.507,50.263,81.358,50,81.371z"/>
		<path d="M44.828,85.224c0.301-3.724,2.724-3.14,1.499-5.399C45.306,80.355,43.528,81.741,44.828,85.224z"/>
		<path d="M46.919,96.577c0,0,2.616-2.87,2.64-3.414c0,0,0.318-2.41-0.288-2.683c-2.555-1.553-2.287-3.756-1.886-4.441
			c0.148,0.139,0.948,2.007,1.734,2.349c0.151-0.79-0.59-2.197,0.215-3.591c0,0-1.216-0.353-2.94-1.343
			c-1.688,3.587,1.815,7.506,2.18,7.792c0.367,0.286,0.292,0.681,0.277,1.514c-0.061,0.826-0.497,1.41-1.602,2.218
			c0,0-0.569-0.909-0.813-1.943c-0.244-1.031-0.079-6.964-4.32-6.907c0.218,2.123,3.91,4.067,3.215,5.546
			c-1.819-1.525-2.711-1.979-5.217-2.096c-2.507-0.119-3.714-1.423-3.791-2.815c-0.904,1.62,0.026,2.315,0.614,2.728
			c0.676,0.638,2.867-0.098,4.274,2.399c-1.442,0.476-1.706-1.487-4.272-0.97c0.573,0.338,0.216,1.6,1.57,2.16
			c0.678,0.447,2.365,0.101,5.031,1.715c1.224,0.639,1.455,2.672,1.079,2.646c-0.803-0.058-0.911-2.836-4.403-2.871
			c0.97,0.582,1.478,2.862,3.363,3.708c0.674,0.306,1.794,1.906,0.306,2.542c-2.335,0.216-1.463-1.884-2.25-2.942
			c-0.523-0.702-1.591-0.724-2.328-2.737c-0.717,2.905,1.542,2.729,1.654,3.505c-1.238,3.792,3.178,3.139,3.743,2.284
			c2.549-2.498,0.971-6.445-1.762-7c-1.114-0.385-0.829-1.108,0.367-1.331c-1.5-0.176-1.731-0.944-2.211-2.174
			C44.931,90.024,46.497,95.997,46.919,96.577z"/>
		<path d="M50,100.641c2.194,1.305,2.7-0.988,3.278-1.66c-1.208-1.033-2.437,1.18-2.991,0.584c-0.275-0.271,1.053-2.206-0.287-3.528
			c-1.341,1.322-0.014,3.258-0.288,3.528c-0.554,0.596-1.784-1.617-2.991-0.584C47.298,99.652,47.804,101.945,50,100.641z"/>
		<path d="M55.579,104.511c-0.002-1.453-0.659-2.462-2.265-2.916c-2.476-0.553-2.7,2.695-3.314-0.004v0.033
			c-0.617,2.7-0.839-0.582-3.316-0.029c-1.606,0.454-2.262,1.463-2.265,2.916c3.301-2.471,3.551,0.591,5.581,0.591
			C52.043,105.102,52.279,102.04,55.579,104.511z"/>
		<path d="M44.011,102.384c0,0-0.967,0.466-2.475-0.184C42.118,104.824,43.798,103.264,44.011,102.384z"/>
		<path d="M40.708,101.446c-0.94-0.625-0.735-2.362-0.521-2.714c-0.391-0.29-0.731-0.407-0.909-0.144
			c-0.637,1.226,0.225,2.983-0.315,3.103c-0.539,0.119-0.404-1.077-0.935-1.744c-0.531-0.665-1.264-1.955-2.136-2.021
			c0.048,1.244,1.472,3.076,1.083,3.504c-0.802-0.417-1.851-1.486-2.015-2.033c0.123,1.233,1.861,2.296,2.562,3.294
			s0.996,0.918,1.619,1.07C38.976,102.311,40.708,101.446,40.708,101.446z"/>
		<path d="M36.64,94.07c0.912,0.121,1.137-0.872,1.357,0.348c0.206,0.957,0.693-0.197,0.864-0.053
			c0.661,0.396,0.594-0.353,0.594-0.353c-2.727-0.431-2.563-2.027-3.403-2.521c-0.838-0.491-1.417,0.288-1.976,0.023
			C34.55,92.243,33.127,93.652,36.64,94.07z"/>
		<path d="M37.722,95.595c-0.669-1.286-8.33-3.746-8.577,2.984c-0.362-1.047-0.019-2.742,0.556-3.311
			c0.574-0.566-3.112-0.028-3.364,2.057c-0.252,2.087,0.395,2.054-0.194,3.81c1.374-1.032,1.214-3.245,2.399-3.398
			c-0.379,1.428-1.209,5.366,3.216,4.832c-0.987-0.987,0.037-3.161-1.058-4.234c-0.426-0.558,0.116-1.965,0.77-1.688
			c0.653,0.28,0.218,1.055,0.32,1.546c0.294,1.184,1.654,1.529,1.553,0.301C33.34,97.255,33.234,95,37.722,95.595z"/>
		<path d="M35.007,98.688c-0.059-1.174,0.476-3.056,3.176,0.087c0.514-0.289,0.741-0.567,0.741-0.567
			c-0.325-0.59-4.604-4.23-4.872-0.217C34.018,98.492,34.757,97.869,35.007,98.688z"/>
		<path d="M37.458,86.986c1.487,2.436,3.394,1.688,4.836,1.928C40.431,86.806,38.675,88.577,37.458,86.986z"/>
		<path d="M36.57,110.257c0.411,0.485,0.304,1.663-0.641,1.965c-0.945,0.303-0.814,0.034-2.173-0.477
			c-1.36-0.515-2.06,0.822-2.836-0.854c-0.779-1.676,0.326-3.913,0.759-3.949c0.434-0.037-1.035,4.96,1.406,3.758
			c0.91-0.402-0.768-4.626,0.313-5.245c1.081-0.619,1.763-0.387,1.131,0.435c-1.494,1.947-0.646,3.44,0.807,2.539
			c0.122-3.08,2.618-2.894,3.652-2.805c-0.948-0.743-2.188-1.434-3.903-1.423c-6.126,0.284-6.459,7.101-2.842,9.628
			c1.073,1.239,2.319,0.451,3.867-0.108C37.66,113.166,37.724,110.887,36.57,110.257z"/>
		<path d="M50,117.429c-0.099,2.178-2.711,2.496-2.752,4.97c0.093,1.822,1.698,2.276,2.044,5.418
			c0.065,0.578,0.094,1.443,0.708,1.443c0.613,0,0.64-0.865,0.707-1.443c0.345-3.142,1.951-3.596,2.043-5.418
			C52.708,119.925,50.097,119.606,50,117.429z"/>
		<path d="M4.186,68.187c1.904,0.182,0.644-1.629,0.76-3.042c1.152-2.776,3.232-3.931,5.761-4.168
			c-1.6-0.855-3.314,0.776-3.899,0.342c-0.585-0.436,1.605-3.505,9.237-2.92c-2.891-1.884-5.283,0.014-5.644-1.035
			c-0.361-1.048,6.605-0.838,5.94-3.356c-0.924,1.593-5.928,1.643-8.311,3.473c-2.383,1.825-2.724,6.569-3.612,6.808
			c-0.889,0.241,0.162-2.837-1.919-2.754C3.486,63.235,2.284,68.009,4.186,68.187z"/>
		<path d="M15.422,74.965c4.234,1.99,6.131-4.467,5.526-6.698c-1.225,5.479-4,3.256-4.267,2.578
			c-0.756,1.399,0.405,2.339,1.269,2.812c0,0,1.521,0.918-1.37,0.104c-2.89-0.812,0.959-4.018-1.622-5.003
			S11.189,72.976,15.422,74.965z"/>
		<path d="M32.209,70.545c0.863-1.673,1.092-1.785,1.841-2.043c-0.144,1.625-1.75,4.056-3.876,4.49
			c4.925,2.151,3.772-1.004,7.44-2.302c-2.501-1.047-3.696,1.51-4.705,1.59c0.213-1.615,5.202-5.884,0.498-8.079
			c0.52,1.997-0.668,1.269-1.068,3.215c-0.4,1.949-0.576,4.357-2.952,3.971c1.884-0.753,2.924-3.76,1.441-3.885
			s-1.669,0.209-1.705,2.634c-0.251,0.823-1.214,1.625-3.706,0.509C26.412,72.521,30.262,73.932,32.209,70.545z"/>
		<path d="M15.285,56.582c-0.47,0.604,4.041,0.75,5.896-1.934c0.274-0.464,0.083-0.633-0.422-0.057
			C20.254,55.17,17.829,56.776,15.285,56.582z"/>
		<path d="M19.732,52.099c-0.139,1.055,2.232,2.012,2.544,1.266c1.147-3.275-0.431-2.129-0.479-3.923
			C21.559,50.697,19.872,51.044,19.732,52.099z"/>
		<path d="M24.868,50.492c1.258-0.331,1.663-1.779,0.096-2.346c-1.566-0.564-2.088,1.226-1.279,2.117
			c-0.006-0.501,0.508-1.146,0.859-1.101C24.896,49.21,25.664,49.885,24.868,50.492z"/>
		<path d="M22.631,53.912c-0.045,1.423,1.109,1.664,2.504,1.046c1.364-0.606,1.381-2.888,3.162-3.938
			C26.608,50.296,22.688,52.137,22.631,53.912z"/>
		<circle cx="50" cy="35.248" r="1.039"/>
		<circle cx="50.022" cy="67.245" r="1.015"/>
		<ellipse cx="50" cy="79.05" rx="0.991" ry="0.732"/>
		<path d="M52.358,46.676c-0.159,0.022-0.313,0.06-0.465,0.115c1.551,0.939,1.377,8.957,3.003,10.457
			c1.199,0.15,2.052,0.334,2.642,0.653c0,0,1.261-1.068-0.717-2.617c0.348-0.069,0.835-0.175,1.153-0.178
			c-2.063-3.384-1.558-4.044-2.426-5.876c-0.933-1.903-1.958-2.558-2.884-2.573c2.317,1.337,1.74,5.796,3.37,7.867
			C54.404,52.453,54.675,48.012,52.358,46.676z"/>
		<path d="M57.206,61.233c-0.306,0.714-0.212,1.562-0.418,2.704C58.053,63.144,57.771,61.901,57.206,61.233z"/>
		<path d="M61.296,63.545c0.993-1.134,1.304-0.387,2.915-2.244c1.003-1.313,0.139-2.734,0.919-3.837
			c-1.408,0.688-2.666,1.425-3.051,2.833c0.083-3.155-1.647-5.303-4.735-4.895c1.865,1.683,0.595,2.728,0.595,2.728
			c0.495,0.41,0.68,1.134,0.468,1.918c-0.093-1.595-0.749-2.117-3.175-2.466c0.007,0.068,0.033,0.128,0.033,0.197
			c0,0.202-0.02,0.411-0.041,0.616c-0.022,0.202-0.041,0.397-0.041,0.582c0,0.299-0.106,0.441,0.088,0.608
			c1.041-0.228,2.214,0.599,2.622,0.775c-0.241,0.191-0.414,0.389-0.543,0.596c0.603,0.621,1.073,2.419-0.612,3.22
			c-0.048,0.229-0.109,0.467-0.19,0.719c2.054-0.129,3.892-0.807,4.689-3.415C60.97,62.158,61.296,63.545,61.296,63.545z"/>
		<path d="M50.188,48.655v7.649c0,0,1.7,1.573,1.674,3.004c0.166-0.447,0.405-0.354,0.868-0.63c0.304,0.78,0.581,1.385,0.629,1.984
			c0.607-0.515,1.126-0.82,1.588-0.982c-0.273-0.594,0.152-1.338-0.042-2.223c-1.948-1.717-1.665-9.645-3.216-10.583
			c-0.121,0.055-0.237,0.12-0.349,0.189c0.827,3.647,0.431,5.963,0.969,7.881c-0.541-1.927-0.356-4.044-1.2-7.72
			C50.623,47.59,50.422,48.226,50.188,48.655z"/>
		<path d="M51.798,59.947l0.694-0.684C52.067,59.521,51.93,59.473,51.798,59.947z"/>
		<path d="M50,64.089c0.078,2.037,6.414,3.2,6.396-0.181c0.028-3.029,1.031-3.544,1.031-3.544c-1.176-0.437-2.204-1.184-4.097,0.688
			c-0.016,1.264-0.606,2.236-1.151,2.63c0.886-1.229,1.216-2.836,0.314-4.419l-0.694,0.684C51.555,57.917,50,56.771,50,56.771
			V64.089z"/>
		<path d="M72.205,76.962c-2.861-0.048-3.256-2.498-3.256-2.498s-0.683,0.231-1.473,0.195c-0.665,1.446,0.451,3.941,0.451,3.941
			c-0.873-1.742-3.711-1.081-4.384-1.847c-3.023-2.89-4.736-5.592-7.305-9.894c1.007-0.492,2.902,1.973,4.349,0.494
			c-3.385,0.243-2.809-1.673-4.073-2.352c-0.276,0.675-0.871,1.091-1.604,1.297c2.065,9.372,8.511,13.713,4.376,16.589
			c3.375,0.696,2.937-1.53,2.888-2.455c0.434,0.587,0.921-0.047,1.583,0.65c-0.216-3.259-2.041-1.944-4.188-5.232
			c-1.542-1.941-0.035-2.427,1.254-1.311c1.289,1.115,0.503,2.721,2.989,3.177c1.608,0.286-0.348,2.761,3.98,4.188
			c-0.55-0.928,0.202-1.169-0.722-2.761c3.238,2.355,1.354,6.467-0.357,6.478c-1.192,0.157-1.153-1.705-1.744-0.77
			c-0.901,3.977,5.519,3.412,4.823-1.854c0,0,0.833-0.182,1.312,1.826c1.729-4.729-3.26-5.213-2.787-9.206
			C69.952,77.19,70.408,79.559,72.205,76.962z"/>
		<path d="M47.334,46.657c-0.926,0.016-1.952,0.67-2.885,2.573c-0.868,1.832-0.363,2.492-2.426,5.876
			c0.319,0.003,0.805,0.108,1.153,0.178c-1.977,1.549-0.717,2.617-0.717,2.617c0.59-0.319,1.444-0.503,2.643-0.653
			c1.626-1.5,1.451-9.518,3.002-10.457c-0.15-0.056-0.305-0.093-0.464-0.115c-2.318,1.336-2.047,5.777-3.676,7.849
			C45.592,52.453,45.017,47.994,47.334,46.657z"/>
		<path d="M43.212,63.938c-0.208-1.142-0.116-1.99-0.421-2.704C42.228,61.901,41.945,63.144,43.212,63.938z"/>
		<path d="M43.448,64.896c-0.081-0.252-0.14-0.49-0.19-0.719c-1.684-0.801-1.213-2.599-0.611-3.22
			c-0.128-0.207-0.301-0.404-0.542-0.596c0.406-0.177,1.579-1.003,2.621-0.775c0.193-0.167,0.089-0.31,0.089-0.608
			c0-0.185-0.02-0.38-0.041-0.582c-0.02-0.205-0.041-0.414-0.041-0.616c0-0.069,0.028-0.129,0.034-0.197
			c-2.428,0.349-3.084,0.871-3.176,2.466c-0.212-0.784-0.027-1.508,0.469-1.918c0,0-1.27-1.045,0.593-2.728
			c-3.087-0.408-4.817,1.739-4.734,4.895c-0.385-1.408-1.644-2.146-3.051-2.833c0.781,1.103-0.084,2.523,0.919,3.837
			c1.61,1.857,1.922,1.11,2.915,2.244c0,0,0.327-1.387,0.059-2.064C39.558,64.089,41.395,64.767,43.448,64.896z"/>
		<path d="M48.31,46.875c-1.552,0.938-1.269,8.866-3.217,10.583c-0.195,0.885,0.229,1.629-0.042,2.223
			c0.461,0.162,0.982,0.468,1.59,0.982c0.048-0.6,0.324-1.204,0.627-1.984c0.463,0.275,0.703,0.183,0.868,0.63
			c-0.024-1.431,1.674-3.004,1.674-3.004v-7.649c-0.234-0.43-0.434-1.065-0.919-1.43c-0.844,3.676-0.661,5.793-1.201,7.72
			c0.538-1.918,0.141-4.233,0.969-7.881C48.546,46.995,48.429,46.93,48.31,46.875z"/>
		<path d="M48.2,59.947l-0.694-0.684c-0.903,1.583-0.573,3.189,0.313,4.419c-0.544-0.394-1.135-1.366-1.15-2.63
			c-1.893-1.872-2.921-1.125-4.097-0.688c0,0,1.003,0.515,1.031,3.544c-0.02,3.381,6.317,2.218,6.397,0.181v-7.317
			C50,56.771,48.442,57.917,48.2,59.947z"/>
		<path d="M31.681,75.619c0.472,3.993-4.517,4.477-2.788,9.206c0.481-2.008,1.312-1.826,1.312-1.826
			c-0.696,5.266,5.724,5.83,4.822,1.854c-0.589-0.936-0.551,0.927-1.742,0.77c-1.711-0.011-3.596-4.122-0.357-6.478
			c-0.924,1.592-0.172,1.833-0.723,2.761c4.329-1.427,2.372-3.901,3.981-4.188c2.485-0.456,1.698-2.062,2.988-3.177
			c1.289-1.116,2.794-0.631,1.253,1.311c-2.147,3.288-3.972,1.974-4.188,5.232c0.663-0.697,1.15-0.063,1.584-0.65
			c-0.051,0.925-0.488,3.151,2.887,2.455c-4.134-2.876,2.311-7.217,4.376-16.589c-0.732-0.206-1.329-0.622-1.604-1.297
			c-1.265,0.679-0.688,2.595-4.072,2.352c1.445,1.479,3.343-0.986,4.347-0.494c-2.566,4.302-4.282,7.004-7.303,9.894
			c-0.671,0.766-3.511,0.104-4.383,1.847c0,0,1.114-2.495,0.45-3.941c-0.791,0.036-1.474-0.195-1.474-0.195s-0.396,2.45-3.257,2.498
			C29.59,79.559,30.046,77.19,31.681,75.619z"/>
		<path d="M19.371,122.206c0.111-0.392,0.109-0.991-0.531-1.652c-1.267-1.307-2.783-0.737-4.248-0.186
			c-1.066,0.4-2.072,0.778-2.899,0.381l-0.382-0.183l0.416-0.084c3.626-0.726,3.924-2.393,3.934-2.853
			c-0.203-0.038-1.786-0.333-1.786-0.333c-1.67-0.236-2.358,0.178-3.025,0.58c-0.812,0.488-1.591,0.937-3.86,0.186
			c-0.037,0.046-0.081,0.095-0.081,0.122c0,0.002,0,0.007,0,0.011c0.018,0.102,0.272,0.206,0.382,0.248
			c1.177,0.574,1.992,0.396,2.779,0.223c0.54-0.118,1.098-0.239,1.74-0.117c-0.585-0.112-1.145,0.275-1.679,0.395
			c-0.835,0.183-1.698,0.371-2.957-0.239c-0.131-0.054-0.306-0.132-0.424-0.251c-0.17,0.36-0.347,0.963,0.134,1.333
			c1.103,1.145,3.381,1.388,4.671,1.602c0.872,0.145,1.296,0.222,1.445,0.431c-0.087-0.123-0.915-0.056-1.49-0.151
			c-1.292-0.211-3.141-0.323-4.318-1.455c0,0.496,1.654,1.952,2.959,2.388c2.378,0.774,3.667-0.086,4.914-0.916
			c0.504-0.335,0.981-0.655,1.505-0.839c0.825-0.291,1.341,0.035,1.576,0.255c0.381,0.36,0.556,0.929,0.428,1.382
			c-0.088,0.307-0.302,0.51-0.602,0.566l-0.157,0.033l-0.012-0.161c-0.03-0.435-0.2-0.716-0.466-0.769
			c-0.227-0.046-0.487,0.085-0.595,0.298c-0.117,0.232-0.031,0.498,0.243,0.744c0.349,0.364,0.815,0.313,1.063,0.251
			C18.661,123.293,19.205,122.782,19.371,122.206z"/>
		<path d="M83.014,123.193c0.272-0.246,0.36-0.512,0.241-0.744c-0.107-0.213-0.368-0.344-0.594-0.298
			c-0.266,0.053-0.436,0.334-0.467,0.769l-0.011,0.161l-0.157-0.033c-0.3-0.057-0.514-0.26-0.602-0.566
			c-0.129-0.453,0.047-1.021,0.428-1.382c0.234-0.22,0.751-0.546,1.575-0.255c0.525,0.184,1.001,0.504,1.506,0.839
			c1.246,0.83,2.536,1.69,4.914,0.916c1.304-0.436,2.958-1.892,2.958-2.388c-1.177,1.132-3.027,1.244-4.319,1.455
			c-0.575,0.096-1.402,0.028-1.49,0.151c0.149-0.209,0.574-0.286,1.444-0.431c1.29-0.214,3.57-0.457,4.671-1.602
			c0.48-0.37,0.305-0.973,0.134-1.333c-0.118,0.119-0.292,0.197-0.423,0.251c-1.257,0.61-2.122,0.422-2.958,0.239
			c-0.533-0.119-1.092-0.507-1.678-0.395c0.643-0.122,1.2-0.001,1.74,0.117c0.788,0.173,1.603,0.352,2.779-0.223
			c0.11-0.042,0.364-0.146,0.381-0.248c0.001-0.004,0.001-0.009,0.001-0.011c0-0.027-0.045-0.076-0.082-0.122
			c-2.268,0.751-3.047,0.303-3.859-0.186c-0.666-0.402-1.354-0.816-3.025-0.58c0,0-1.583,0.295-1.787,0.333
			c0.011,0.46,0.309,2.127,3.935,2.853l0.416,0.084l-0.382,0.183c-0.827,0.397-1.833,0.02-2.899-0.381
			c-1.464-0.552-2.98-1.121-4.247,0.186c-0.64,0.661-0.644,1.261-0.53,1.652c0.165,0.576,0.708,1.087,1.322,1.238
			C82.198,123.507,82.665,123.558,83.014,123.193z"/>
		<path fill="none" d="M66.583,4.762c2.889,0.812,1.369-0.104,1.369-0.104c-0.865-0.474-2.026-1.413-1.27-2.814
			c0.255,0.647,2.779,2.688,4.078-1.842h-0.963c-0.269,1.202-1.063,2.367-1.965,1.782c-0.597-0.387-0.6-1.02-0.581-1.782h-1.837
			C67.023,1.189,63.896,4.01,66.583,4.762z"/>
		<path fill="none" d="M79.385,2.387c1.746,0.282,2.303-0.942,2.635-2.385h-0.588C81.171,0.916,80.405,1.979,79.385,2.387z"/>
		<path fill="none" d="M99.123,0.002c0.25,0.242,0.521,0.492,0.877,0.539V0.002H99.123z"/>
		<path fill="none" d="M91.183,90.188c-1.527-1.669-3.625,1.114-3.506,2.061c0.068,0.097,0.146,0.183,0.229,0.26
			c0.337,0.304,0.795,0.448,1.27,0.453C90.476,92.974,91.887,91.924,91.183,90.188z"/>
		<path fill="none" d="M10.822,92.961c0.474-0.005,0.932-0.149,1.27-0.453c0.084-0.077,0.162-0.163,0.229-0.26
			c0.12-0.946-1.979-3.729-3.506-2.061C8.112,91.924,9.522,92.974,10.822,92.961z"/>
		<path fill="none" d="M83.164,138h0.798c0.041-0.172,0.073-0.341,0.087-0.499C83.671,137.631,83.426,137.725,83.164,138z"/>
		<path fill="none" d="M0,0.002v0.539c0.354-0.047,0.626-0.297,0.876-0.539H0z"/>
		<path fill="none" d="M16.036,138h0.798c-0.261-0.275-0.507-0.369-0.885-0.499C15.963,137.659,15.995,137.828,16.036,138z"/>
		<path d="M36.394,9.107c-0.525,1.786-2.321,2.595-2.028,1.937c0.293-0.659,1.142-0.723,0.67-2.137
			c-1.703,0.081-2.338,3.548-5.179,4.734c2.362,0.594,3.333-1.775,5.445-2.007c-1.392,1.709-7.1,6.038-11.921,3.056
			c-0.635-0.487-0.5-1.269,0.342-1.378c0.842-0.112,1.922,1.935,3.862,1.487c1.907-0.681,1.123-1.578,1.799-1.858
			c-1.521,0.728-4.189-0.015-3.254-0.14c0.936-0.123,3.147,0.06,3.761-2.5c-0.912,1.025-5.167,2.306-7.977,1.2
			c0.239,0.732,0.739,2.716,0.148,3.649c1.574,0.745,9.799,3.94,9.799,3.94s0.124-0.873,0.722-1.381
			c-1.206-0.841-6.188-1.466-4.113-1.6c2.077-0.131,9.327-0.712,12.391-4.166c5.858-5.731,6.341-11.417,7.796-11.943
			c-1.962-0.073-2.148,2.476-2.734,2.363s0.136-2.208-0.578-2.208c-1.41,1.566-0.007,4.62-1.452,6.29
			c-1.445,1.667-1.455-1.286-1.004-2.201c0.289-0.592,1.142-2.267,1.297-4.244h-1.315c-0.036,0.492-0.224,0.656-0.685,0h-0.513
			c0.689,1.037,0.782,4.983-0.031,7.409c-0.692,1.236,0.613,2.111-1.46,3.719c-2.725,1.695-2.232,2.534-4.93,3.369
			c-2.397,0.223-0.404-1.614-0.229-1.734c1.41-1.566,5.695-0.468,5.266-4.794c-0.868,2.071-1.813,2.48-2.795,1.896
			c1.672-1.031,1.824-2.764,1.604-4.07C38.415,7.84,37.272,6.751,36.394,9.107z"/>
		<path d="M27.27,7.029c0.19-0.357-0.29-0.391-0.533-0.072c-0.724,1.002-1.366,0.468-1.708-0.678
			C24.555,8.821,26.736,8.388,27.27,7.029z"/>
		<path d="M23.747,3.781c-0.474,2.54,1.706,2.108,2.24,0.751c0.19-0.36-0.29-0.391-0.533-0.072
			C24.729,5.461,24.089,4.926,23.747,3.781z"/>
		<path d="M28.021,2.644c0.189-0.36-0.29-0.393-0.532-0.072c-0.725,1.001-1.367,0.466-1.707-0.68
			C25.308,4.433,27.487,3.999,28.021,2.644z"/>
		<path d="M27.004,4.302c-0.473,2.54,1.705,2.108,2.241,0.749c0.19-0.355-0.291-0.388-0.533-0.07
			C27.988,5.982,27.346,5.447,27.004,4.302z"/>
		<path d="M2.827,4.435C2.924,4.261,2.52,3.737,2.135,4.789c-0.613,2.559,2.828,7.176,5.834,5.442
			C5.454,10.28,3.048,9.17,2.775,5.846c0.971,0.871,1.662,1.233,2.949,0.538C4.802,6.603,2.337,5.596,2.827,4.435z"/>
		<path d="M3.671,10.826c-1.224,2.258,1.197,1.676,1.5,5.397C6.471,12.741,4.691,11.355,3.671,10.826z"/>
		<path d="M7.058,24.931c-2.734,0.553-4.311,4.5-1.762,6.999c0.565,0.853,4.981,1.507,3.743-2.286
			c0.111-0.774,2.37-0.598,1.653-3.503c-0.736,2.014-1.804,2.035-2.326,2.736c-0.788,1.058,0.083,3.156-2.252,2.943
			c-1.488-0.637-0.367-2.237,0.306-2.542c1.887-0.847,2.395-3.127,3.364-3.707c-3.494,0.033-3.602,2.809-4.404,2.868
			c-0.377,0.026-0.146-2.005,1.077-2.644c2.668-1.616,4.354-1.269,5.033-1.717c1.353-0.56,0.996-1.821,1.57-2.162
			c-2.567-0.514-2.831,1.449-4.272,0.974c1.406-2.498,3.596-1.764,4.274-2.399c0.587-0.412,1.519-1.107,0.615-2.729
			c-0.078,1.396-1.286,2.699-3.791,2.816c-2.508,0.118-3.398,0.568-5.219,2.095c-0.696-1.479,2.996-3.422,3.215-5.546
			c-4.243-0.058-4.076,5.876-4.32,6.908c-0.244,1.032-0.814,1.941-0.814,1.941c-1.106-0.806-1.54-1.389-1.602-2.216
			c-0.015-0.832-0.091-1.228,0.275-1.514c0.367-0.287,3.87-4.205,2.181-7.793c-1.725,0.991-2.938,1.343-2.938,1.343
			C1.467,17.19,0.726,18.6,0.878,19.39c0.787-0.343,1.587-2.212,1.735-2.352c0.4,0.687,0.667,2.891-1.886,4.442
			c-0.607,0.272-0.29,2.684-0.29,2.684c0.025,0.544,2.64,3.413,2.64,3.413c0.423-0.579,1.989-6.552,5.825-6.154
			c-0.479,1.229-0.712,1.999-2.21,2.174C7.887,23.82,8.173,24.544,7.058,24.931z"/>
		<path d="M8.462,33.198c-1.509,0.652-2.474,0.187-2.474,0.187C6.2,34.264,7.88,35.826,8.462,33.198z"/>
		<path d="M9.29,32.446c0,0,1.732,0.866,1.568,2.316c0.622-0.152,0.917-0.072,1.619-1.071c0.7-0.997,2.439-2.062,2.561-3.293
			c-0.164,0.547-1.213,1.614-2.016,2.03c-0.389-0.426,1.034-2.258,1.083-3.503c-0.871,0.067-1.605,1.356-2.135,2.021
			c-0.53,0.666-0.396,1.864-0.934,1.746c-0.541-0.122,0.322-1.879-0.317-3.104c-0.177-0.263-0.519-0.147-0.908,0.143
			C10.025,30.086,10.23,31.821,9.29,32.446z"/>
		<path d="M13.945,22.491c-0.839,0.495-0.675,2.093-3.402,2.522c0,0-0.067,0.748,0.594,0.353c0.171-0.144,0.657,1.009,0.864,0.053
			c0.219-1.22,0.446-0.228,1.358-0.348c3.513-0.418,2.09-1.825,2.564-2.556C15.363,22.781,14.785,22,13.945,22.491z"/>
		<path d="M12.275,26.595c4.49-0.596,4.382,1.66,4.38,2.899c-0.099,1.226,1.259,0.88,1.555-0.303
			c0.102-0.489-0.334-1.267,0.319-1.543c0.654-0.277,1.195,1.128,0.769,1.686c-1.095,1.073-0.069,3.247-1.056,4.235
			c4.424,0.534,3.592-3.404,3.214-4.831c1.186,0.151,1.026,2.364,2.4,3.396c-0.589-1.754,0.058-1.722-0.195-3.807
			c-0.251-2.087-3.938-2.624-3.364-2.058c0.575,0.568,0.917,2.263,0.557,3.312C20.606,22.85,12.944,25.31,12.275,26.595z"/>
		<path d="M15.947,28.991c-0.27-4.015-4.546-0.373-4.873,0.215c0,0,0.229,0.281,0.741,0.57c2.702-3.145,3.236-1.262,3.177-0.088
			C15.24,28.869,15.98,29.493,15.947,28.991z"/>
		<path d="M12.541,17.987c-1.218,1.588-2.973-0.18-4.836,1.926C9.148,19.676,11.055,20.423,12.541,17.987z"/>
		<path d="M4.1,49.071l-1.45-0.095c1.292,0.78,0.13,1.697,1.562,2.46c1.434,0.763,2.57,1.804,2.613,2.845
			c1.397-0.946,1.769-3.868-1.629-5.087c1.053,0.932,0.943,1.702,0.943,1.702C5.277,49.056,4.1,49.071,4.1,49.071z"/>
		<path d="M6.7,48.894c1.166,1.898,3.388,1.517,4.102,2.717c0.53-1.022-1.087-4.619-4.206-3.013
			c1.263-0.171,3.173,0.958,3.487,1.537C9.769,49.556,7.962,48.726,6.7,48.894z"/>
		<path d="M12.981,47.226c-0.853-1.412-2.859-2.909-5.088-0.325c0,0,1.435-1.089,3.123-0.584c-1.68-0.254-2.919,0.728-2.919,0.728
			C9.757,48.444,11.255,46.406,12.981,47.226z"/>
		<path d="M13.887,44.725c1.548,0.557,2.794,1.345,3.868,0.106c3.614-2.529,3.284-9.345-2.844-9.629
			c-1.714-0.012-2.955,0.679-3.904,1.423c1.037-0.09,3.533-0.278,3.654,2.803c1.452,0.902,2.3-0.591,0.807-2.536
			c-0.633-0.823,0.05-1.055,1.131-0.436c1.083,0.619-0.597,4.845,0.313,5.246c2.443,1.201,0.973-3.799,1.407-3.76
			c0.434,0.037,1.538,2.275,0.759,3.948c-0.778,1.675-1.478,0.339-2.836,0.854c-1.359,0.515-1.229,0.78-2.174,0.478
			c-0.944-0.302-1.053-1.479-0.64-1.963C12.275,41.888,12.337,44.167,13.887,44.725z"/>
		<path d="M34.575,5.966c3.206-1.507,3.302-4.854,2.039-5.964h-2.029c-1.61,1.188,1.517,4.008-1.168,4.76
			c-2.89,0.812-1.37-0.104-1.37-0.104c0.865-0.474,2.027-1.413,1.271-2.814c-0.255,0.647-2.779,2.688-4.078-1.842h-0.293
			C28.824,2.645,30.742,7.769,34.575,5.966z"/>
		<path d="M32.167,1.784c0.596-0.387,0.6-1.02,0.58-1.782h-2.546C30.47,1.204,31.265,2.369,32.167,1.784z"/>
		<path d="M24.612,0.785c-0.679-0.305-1.017-0.616-1.165-0.783h-1.824C21.986,1.197,22.999,2.145,24.612,0.785z"/>
		<path d="M24.583,1.646c-2.493,1.115-3.456,0.313-3.707-0.51c-0.006-0.445-0.019-0.819-0.042-1.134h-2.267
			c0.261,0.914,1.028,1.978,2.046,2.385c-1.745,0.282-2.303-0.942-2.634-2.385h-1.144c0.255,0.271,0.528,0.716,0.955,1.544
			C19.735,4.931,23.586,3.521,24.583,1.646z"/>
		<path d="M19.826,3.991c-1.918-0.391-3.41-2.405-3.79-3.989h-0.771c0.709,1.34,1.732,2.567,1.825,3.278
			c-1.008-0.079-2.203-2.637-4.705-1.59C16.054,2.99,14.9,6.145,19.826,3.991z"/>
		<path d="M1.302,1.54c0.491-0.422,1.265,2.189,2.826,0.863C3.09,2.132,2.992,0.781,2.431,0.002H0.876
			C0.626,0.244,0.354,0.494,0,0.541v5.383C2.718,3.276,0.707,2.262,1.302,1.54z"/>
		<path d="M2.651,10.484C1.393,10.509,0.263,12.358,0,12.371v2.48C3.873,13.552,1.447,12.002,2.651,10.484z"/>
		<path d="M3.277,29.98c-1.206-1.03-2.436,1.18-2.99,0.588C0.013,30.295,1.339,28.358,0,27.034v4.607
			C2.194,32.946,2.699,30.652,3.277,29.98z"/>
		<path d="M5.579,35.512c-0.001-1.454-0.659-2.464-2.266-2.916C0.839,32.042,0.613,35.29,0,32.593v0.033v3.477
			C2.043,36.103,2.278,33.041,5.579,35.512z"/>
		<path d="M0.707,58.816c0.346-3.142,1.951-3.595,2.043-5.416C2.709,50.927,0.097,50.608,0,48.428v11.833
			C0.613,60.261,0.642,59.396,0.707,58.816z"/>
		<path d="M0.99,10.052C0.99,9.648,0.546,9.32,0,9.32v1.463C0.546,10.783,0.99,10.457,0.99,10.052z"/>
		<path d="M9.287,13.891c3.375,0.696,2.938-1.532,2.887-2.453c0.436,0.585,0.921-0.051,1.585,0.646
			c-0.216-3.255-2.041-1.942-4.188-5.231c-1.542-1.939-0.035-2.425,1.254-1.31c1.289,1.114,0.503,2.719,2.989,3.178
			c1.608,0.286-0.348,2.76,3.979,4.187c-0.551-0.928,0.202-1.169-0.722-2.761c3.239,2.356,1.354,6.465-0.357,6.478
			c-1.191,0.159-1.153-1.704-1.743-0.77c-0.901,3.979,5.52,3.412,4.822-1.854c0,0,0.832-0.181,1.312,1.826
			c1.73-4.729-3.259-5.212-2.788-9.204c1.636,1.568,2.091,3.938,3.889,1.342c-2.861-0.05-3.255-2.499-3.255-2.499
			s-0.684,0.234-1.474,0.197c-0.665,1.444,0.451,3.94,0.451,3.94c-0.873-1.74-3.711-1.078-4.383-1.849
			c-2.488-2.375-4.09-4.628-6.01-7.751H5.661C8.178,7.536,13.001,11.306,9.287,13.891z"/>
		<path d="M59.138,11.945c3.063,3.454,10.315,4.035,12.391,4.166c2.075,0.134-2.908,0.759-4.115,1.6
			c0.6,0.508,0.722,1.381,0.722,1.381s8.226-3.195,9.799-3.94c-0.589-0.934-0.09-2.917,0.15-3.649
			c-2.81,1.105-7.066-0.175-7.977-1.2c0.613,2.56,2.826,2.377,3.76,2.5c0.936,0.125-1.732,0.867-3.253,0.14
			c0.676,0.28-0.108,1.178,1.8,1.858c1.939,0.447,3.02-1.6,3.86-1.487c0.843,0.109,0.977,0.891,0.343,1.378
			c-4.821,2.982-10.529-1.347-11.92-3.056c2.11,0.231,3.083,2.601,5.444,2.007c-2.841-1.187-3.477-4.653-5.179-4.734
			c-0.471,1.414,0.376,1.478,0.67,2.137c0.293,0.658-1.503-0.15-2.028-1.937c-0.879-2.356-2.021-1.268-2.702-3.312
			c-0.221,1.307-0.069,3.039,1.603,4.07c-0.982,0.585-1.927,0.176-2.794-1.896c-0.43,4.326,3.855,3.228,5.265,4.794
			c0.175,0.12,2.168,1.957-0.229,1.734c-2.698-0.835-2.206-1.674-4.931-3.369c-2.072-1.607-0.767-2.482-1.46-3.719
			c-0.813-2.426-0.72-6.372-0.031-7.409h-0.512c-0.463,0.656-0.648,0.492-0.686,0h-1.314c0.155,1.978,1.006,3.652,1.296,4.244
			c0.45,0.915,0.44,3.868-1.005,2.201c-1.445-1.67-0.042-4.724-1.452-6.29c-0.713,0,0.008,2.096-0.577,2.208
			c-0.586,0.112-0.772-2.437-2.733-2.363C52.796,0.528,53.28,6.214,59.138,11.945z"/>
		<path d="M73.262,6.957c-0.244-0.318-0.723-0.285-0.533,0.072c0.534,1.358,2.715,1.792,2.242-0.75
			C74.628,7.425,73.985,7.959,73.262,6.957z"/>
		<path d="M74.011,4.532c0.534,1.357,2.713,1.789,2.24-0.751c-0.341,1.145-0.983,1.68-1.707,0.679
			C74.301,4.142,73.821,4.172,74.011,4.532z"/>
		<path d="M74.217,1.892c-0.341,1.146-0.983,1.681-1.707,0.68c-0.244-0.32-0.723-0.288-0.534,0.072
			C72.511,3.999,74.689,4.433,74.217,1.892z"/>
		<path d="M70.754,5.051c0.534,1.359,2.713,1.791,2.24-0.749c-0.341,1.146-0.982,1.681-1.707,0.679
			C71.044,4.663,70.562,4.695,70.754,5.051z"/>
		<path d="M94.273,6.384c1.288,0.695,1.979,0.333,2.949-0.538c-0.271,3.324-2.678,4.435-5.193,4.386
			c3.006,1.733,6.448-2.884,5.834-5.442c-0.385-1.052-0.79-0.528-0.691-0.354C97.661,5.596,95.195,6.603,94.273,6.384z"/>
		<path d="M94.828,16.224c0.302-3.722,2.723-3.14,1.5-5.397C95.306,11.355,93.529,12.741,94.828,16.224z"/>
		<path d="M96.395,14.454c-1.688,3.588,1.814,7.506,2.181,7.793c0.368,0.286,0.291,0.682,0.276,1.514
			c-0.061,0.827-0.496,1.41-1.602,2.216c0,0-0.57-0.909-0.814-1.941c-0.244-1.032-0.078-6.966-4.32-6.908
			c0.218,2.124,3.911,4.066,3.215,5.546c-1.82-1.526-2.71-1.977-5.219-2.095c-2.505-0.117-3.713-1.421-3.79-2.816
			c-0.905,1.622,0.027,2.317,0.615,2.729c0.676,0.636,2.867-0.099,4.273,2.399c-1.443,0.476-1.706-1.487-4.273-0.974
			c0.574,0.341,0.217,1.603,1.57,2.162c0.679,0.448,2.365,0.101,5.032,1.717c1.224,0.639,1.455,2.67,1.078,2.644
			c-0.801-0.06-0.909-2.835-4.402-2.868c0.969,0.58,1.477,2.86,3.363,3.707c0.674,0.305,1.794,1.905,0.307,2.542
			c-2.335,0.213-1.464-1.886-2.252-2.943c-0.523-0.701-1.589-0.723-2.326-2.736c-0.717,2.905,1.542,2.729,1.652,3.503
			c-1.237,3.793,3.178,3.139,3.744,2.286c2.55-2.499,0.972-6.446-1.762-6.999c-1.115-0.387-0.829-1.11,0.367-1.334
			c-1.5-0.175-1.731-0.944-2.211-2.174c3.835-0.397,5.401,5.575,5.824,6.154c0,0,2.616-2.869,2.641-3.413
			c0,0,0.318-2.411-0.288-2.684c-2.555-1.552-2.287-3.756-1.886-4.442c0.147,0.14,0.947,2.009,1.734,2.352
			c0.152-0.79-0.588-2.199,0.213-3.593C99.333,15.797,98.119,15.445,96.395,14.454z"/>
		<path d="M91.537,33.198c0.582,2.628,2.263,1.065,2.474,0.187C94.011,33.385,93.045,33.851,91.537,33.198z"/>
		<path d="M89.277,29.59c-0.638,1.225,0.224,2.981-0.314,3.104c-0.539,0.118-0.406-1.08-0.936-1.746
			c-0.53-0.665-1.265-1.954-2.135-2.021c0.048,1.245,1.473,3.077,1.083,3.503c-0.802-0.416-1.851-1.483-2.016-2.03
			c0.123,1.23,1.861,2.296,2.562,3.293c0.7,0.999,0.997,0.919,1.617,1.071c-0.165-1.45,1.567-2.316,1.567-2.316
			c-0.94-0.625-0.734-2.36-0.521-2.714C89.797,29.442,89.456,29.327,89.277,29.59z"/>
		<path d="M89.455,25.014c-2.727-0.43-2.562-2.027-3.402-2.522c-0.839-0.491-1.416,0.29-1.978,0.024
			c0.475,0.73-0.949,2.138,2.565,2.556c0.912,0.12,1.138-0.872,1.356,0.348c0.207,0.956,0.693-0.196,0.864-0.053
			C89.521,25.762,89.455,25.014,89.455,25.014z"/>
		<path d="M76.337,28.327c-0.252,2.085,0.394,2.053-0.195,3.807c1.374-1.031,1.213-3.244,2.4-3.396
			c-0.378,1.427-1.209,5.365,3.214,4.831c-0.987-0.988,0.039-3.162-1.057-4.235c-0.425-0.558,0.116-1.963,0.77-1.686
			c0.654,0.276,0.218,1.054,0.319,1.543c0.296,1.183,1.654,1.528,1.555,0.303c-0.002-1.239-0.109-3.495,4.38-2.899
			c-0.67-1.285-8.332-3.745-8.58,2.986c-0.36-1.049-0.018-2.743,0.559-3.312C80.275,25.703,76.588,26.24,76.337,28.327z"/>
		<path d="M88.182,29.776c0.514-0.289,0.742-0.57,0.742-0.57c-0.327-0.588-4.604-4.229-4.873-0.215
			c-0.033,0.502,0.707-0.122,0.954,0.697C84.947,28.515,85.481,26.632,88.182,29.776z"/>
		<path d="M87.458,17.987c1.485,2.436,3.392,1.688,4.835,1.926C90.43,17.808,88.674,19.575,87.458,17.987z"/>
		<path d="M94.802,49.194c-3.397,1.219-3.025,4.141-1.626,5.087c0.042-1.041,1.177-2.082,2.611-2.845
			c1.433-0.763,0.27-1.68,1.562-2.46l-1.45,0.095c0,0-1.177-0.016-2.039,1.825C93.86,50.896,93.75,50.126,94.802,49.194z"/>
		<path d="M93.402,48.598c-3.119-1.606-4.737,1.99-4.205,3.013c0.713-1.2,2.934-0.818,4.1-2.717
			c-1.262-0.168-3.069,0.662-3.382,1.241C90.229,49.556,92.141,48.427,93.402,48.598z"/>
		<path d="M92.104,46.9c-2.229-2.584-4.234-1.087-5.088,0.325c1.728-0.819,3.225,1.219,4.883-0.182c0,0-1.238-0.981-2.918-0.728
			C90.67,45.812,92.104,46.9,92.104,46.9z"/>
		<path d="M86.569,41.259c0.413,0.484,0.304,1.661-0.64,1.963c-0.944,0.303-0.813,0.037-2.174-0.478
			c-1.358-0.515-2.06,0.821-2.837-0.854c-0.777-1.673,0.326-3.911,0.76-3.948c0.434-0.039-1.036,4.961,1.406,3.76
			c0.911-0.401-0.767-4.627,0.313-5.246c1.082-0.619,1.765-0.388,1.133,0.436c-1.494,1.945-0.644,3.438,0.806,2.536
			c0.123-3.081,2.619-2.893,3.653-2.803c-0.948-0.744-2.189-1.435-3.903-1.423c-6.127,0.284-6.458,7.1-2.843,9.629
			c1.073,1.238,2.319,0.45,3.867-0.106C87.661,44.167,87.724,41.888,86.569,41.259z"/>
		<path d="M65.424,5.966c3.832,1.803,5.749-3.321,5.628-5.964h-0.292c-1.298,4.53-3.823,2.489-4.078,1.842
			c-0.756,1.401,0.405,2.341,1.27,2.814c0,0,1.52,0.915-1.369,0.104c-2.686-0.752,0.44-3.572-1.168-4.76h-2.03
			C62.122,1.111,62.218,4.459,65.424,5.966z"/>
		<path d="M67.832,1.784c0.901,0.585,1.696-0.58,1.965-1.782h-2.545C67.231,0.765,67.234,1.397,67.832,1.784z"/>
		<path d="M78.374,0.002H76.55c-0.147,0.167-0.485,0.479-1.164,0.783C77,2.145,78.012,1.197,78.374,0.002z"/>
		<path d="M80.172,3.991c4.925,2.153,3.772-1.001,7.441-2.301c-2.5-1.047-3.696,1.511-4.705,1.59
			c0.093-0.711,1.114-1.938,1.825-3.278h-0.771C83.582,1.586,82.091,3.601,80.172,3.991z"/>
		<path d="M75.415,1.646c0.996,1.875,4.847,3.285,6.794-0.1c0.426-0.828,0.7-1.273,0.955-1.544H82.02
			c-0.332,1.442-0.889,2.667-2.635,2.385c1.02-0.407,1.786-1.471,2.046-2.385h-2.267c-0.024,0.314-0.036,0.688-0.042,1.134
			C78.872,1.959,77.909,2.761,75.415,1.646z"/>
		<path d="M97.567,0.002c-0.56,0.779-0.658,2.13-1.697,2.401c1.562,1.326,2.334-1.285,2.826-0.863
			C99.292,2.262,97.28,3.276,100,5.924V0.541c-0.356-0.047-0.628-0.297-0.877-0.539H97.567z"/>
		<path d="M97.347,10.484c1.203,1.518-1.221,3.067,2.653,4.367v-2.48C99.736,12.358,98.605,10.509,97.347,10.484z"/>
		<path d="M99.711,30.568c-0.553,0.592-1.785-1.618-2.99-0.588c0.577,0.672,1.083,2.966,3.279,1.661v-4.607
			C98.659,28.358,99.985,30.295,99.711,30.568z"/>
		<path d="M96.685,32.596c-1.606,0.452-2.264,1.462-2.266,2.916c3.301-2.471,3.535,0.591,5.581,0.591v-3.477v-0.033
			C99.385,35.29,99.16,32.042,96.685,32.596z"/>
		<path d="M97.248,53.4c0.091,1.821,1.699,2.274,2.043,5.416c0.066,0.579,0.094,1.444,0.708,1.444V48.428
			C99.901,50.608,97.289,50.927,97.248,53.4z"/>
		<path d="M99.008,10.052c0,0.405,0.444,0.731,0.992,0.731V9.32C99.452,9.32,99.008,9.648,99.008,10.052z"/>
		<path d="M86.456,7.753c-0.672,0.771-3.511,0.108-4.384,1.849c0,0,1.115-2.496,0.45-3.94c-0.791,0.037-1.475-0.197-1.475-0.197
			s-0.394,2.449-3.255,2.499c1.798,2.596,2.253,0.227,3.889-1.342c0.472,3.992-4.518,4.475-2.788,9.204
			c0.479-2.007,1.312-1.826,1.312-1.826c-0.695,5.267,5.724,5.834,4.823,1.854c-0.59-0.935-0.552,0.929-1.744,0.77
			c-1.712-0.013-3.595-4.121-0.356-6.478c-0.925,1.592-0.172,1.833-0.722,2.761c4.327-1.427,2.371-3.9,3.979-4.187
			c2.486-0.459,1.7-2.063,2.989-3.178c1.289-1.115,2.796-0.63,1.254,1.31c-2.147,3.289-3.972,1.977-4.188,5.231
			c0.663-0.696,1.149-0.061,1.584-0.646c-0.05,0.921-0.488,3.149,2.888,2.453c-3.715-2.585,1.108-6.354,3.624-13.889h-1.871
			C90.544,3.125,88.942,5.378,86.456,7.753z"/>
		<path d="M6.458,102.708c2.439,0.893,2.58-0.735,1.662-1.47c-1.378,1.719-1.561-0.473-1.386-1.032
			C6.734,100.206,4.631,101.845,6.458,102.708z"/>
		<path d="M19.459,105.763c2.595-1.25,3.968-3.1,3.971-6.674c-0.231-5.352-1.753-7.865,1.672-8.224
			c0.603-0.127,2.083-0.087,2.25,1.179c0.954-2.508-2.283-4.32-3.926-2.338c-1.339,1.747-1.667-0.019-1.289-0.401
			c-0.768-0.04-2.564,2.196-0.451,4.87c1.601,2.026-0.601,3.368-1.418,0.426c-0.817-2.94-2.139-2.144-2.139-2.144
			c0.859,0.743-0.294,2.087,1.754,3.195c2.051,1.109,2.669,2.554,2.623,3.273c-0.048,0.722-0.173,2.31-0.986,0.465
			c-0.815-1.848-1.348-1.917-2.401-1.97c-0.444,1.68,2.724,2.975,2.328,4.646c-0.412,3.723-4.654,2.951-2.387-0.065
			c1.167-1.964-1.229-2.454-1.06-4.052c0.17-1.594,0.803-2.86-1.552-2.745c-0.567,0.025-1.388-0.056-1.388-0.056l-0.156,1.688
			c-2.98-0.938-6.512,3.293-2.146,5.001c2.121,0.577,2.853-1.807,2.146-2.474c-1.261-1.264-2.176,0.811-0.809,1.438
			c-1.592,2.356-4.232-3.582,0.954-3.222c4.914,0.826,2.211,8.807-3.703,7.256c-0.557-0.117,0.356,1.618-0.694,2.663
			c0.94,0.639,1.587,1.22,2.938,0.993c1.35-0.227,3.522-0.704,6.249,0.124c-2.928-2.709-7.407-0.972-6.911-2.609
			C13.356,105.664,16.865,107.01,19.459,105.763z"/>
		<path d="M12.955,92.541c0.712,0.701,1.734,1.341,2.165,1.444C14.69,93.882,13.668,93.242,12.955,92.541z"/>
		<path d="M9.086,89.927c-0.565-0.838-1.221-1.144-1.787-1.113C7.864,88.783,8.521,89.091,9.086,89.927z"/>
		<path d="M9.174,95.245c1.184-0.246,2.435-1.13,3.015-2.319C11.609,94.115,10.358,94.999,9.174,95.245z"/>
		<path d="M8.815,90.188c-0.704,1.736,0.707,2.786,2.007,2.773C9.522,92.974,8.112,91.924,8.815,90.188z"/>
		<path d="M12.793,89.077c-0.042-0.825,0.366-1.153,0.862-1.155C13.16,87.924,12.75,88.252,12.793,89.077
			c0.073,1.443-0.271,1.575-0.473,1.77C12.522,90.652,12.867,90.521,12.793,89.077z"/>
		<path d="M7.487,92.847c-0.544-0.021-0.972,0.104-0.95,0.741C6.516,92.95,6.943,92.826,7.487,92.847z"/>
		<path d="M7.299,88.813c-0.847,0.043-1.491,0.844-1.317,1.744C5.809,89.657,6.452,88.856,7.299,88.813z"/>
		<path d="M6.07,90.862c0.45,1.144,2.004,0.854,2.994,1.605C8.075,91.716,6.522,92.006,6.07,90.862z"/>
		<path d="M9.174,95.245c1.184-0.246,2.435-1.13,3.015-2.319c0.792,0.633,2.931,1.06,2.931,1.06
			c-0.431-0.104-1.452-0.743-2.165-1.444c2.192-1.128,2.026-2.041,2.231-2.64c0.109-0.318,0.091-0.623-0.013-0.896
			c-0.241-0.636-0.939-1.083-1.518-1.083c-0.496,0.002-0.905,0.33-0.862,1.155c0.073,1.443-0.271,1.575-0.473,1.77
			c-0.066,0.067-0.116,0.138-0.13,0.269c-0.007,0.076-0.003,0.169,0.018,0.291c-1.052-6.136-4.423-4.97-3.122-1.479
			c-0.565-0.836-1.222-1.144-1.787-1.113c-0.847,0.043-1.49,0.844-1.317,1.744C6,90.658,6.03,90.76,6.07,90.862
			c0.452,1.144,2.005,0.854,2.994,1.605c0.066,0.051,0.129,0.105,0.19,0.167c0.064,0.063,0.126,0.133,0.183,0.212
			c-0.041,0.03-0.087,0.058-0.14,0.076c-0.104,0.038-0.231,0.055-0.372,0.056c-0.422,0.007-0.972-0.116-1.438-0.132
			c-0.544-0.021-0.972,0.104-0.95,0.741c0.033,0.182,0.08,0.347,0.137,0.497c0.349,0.907,1.124,1.266,2,1.224
			C8.839,95.3,9.006,95.278,9.174,95.245z M8.815,90.188c1.527-1.669,3.626,1.114,3.506,2.061c-0.067,0.097-0.145,0.183-0.229,0.26
			c-0.338,0.304-0.796,0.448-1.27,0.453C9.521,92.974,8.111,91.924,8.815,90.188z"/>
		<path d="M15.174,89.005c-0.241-0.636-0.938-1.083-1.518-1.083C14.235,87.922,14.933,88.369,15.174,89.005z"/>
		<path d="M6.1,95.766c0.919,0.116,1.651,0.971,1.651,0.971s0.413-0.481,0.54-0.593C8.29,96.144,7.447,95.872,6.1,95.766z"/>
		<path d="M5.363,84.838c1.496,0.518,2.501,2.003,2.501,2.003c-0.684-5.529-5.897-3.22-6.104-8.386
			c-2.916,4.58,3.151,3.682,3.062,5.167c-4.14-1.069-5.531,3.878-2.055,4.609c2.302,0.504,2.364-2.269,1.425-2.525
			c-0.938-0.255-1.287,1.411-0.602,1.559C0.513,88.103,0.967,82.897,5.363,84.838z"/>
		<path d="M42.42,135.11c0.167,0.365,0.513,2.076,0.45,2.89h1.315c0.086-1.093-0.04-2.275-0.598-3.423
			C42.731,132.784,42.153,134.527,42.42,135.11z"/>
		<path d="M37.653,134.313c2.589-0.198,2.081,1.345,2.956,1.848c0.875,0.504,0.381,1.095,1.048,1.813
			c0.005,0.009,0.009,0.019,0.015,0.025h0.513C41.653,135.784,40.805,132.609,37.653,134.313z"/>
		<path d="M45.581,133.287c-0.887-0.239-1.228-4.983-3.611-6.809c-2.383-1.83-7.386-1.88-8.311-3.472
			c-0.666,2.517,6.301,2.308,5.941,3.355c-0.362,1.048-2.753-0.85-5.646,1.034c7.632-0.584,9.822,2.485,9.237,2.921
			c-0.585,0.435-2.3-1.197-3.899-0.341c2.529,0.238,4.608,1.39,5.762,4.168c0.115,1.413-1.145,3.226,0.759,3.04
			c1.903-0.178,0.701-4.95,1.69-6.652C45.421,130.45,46.47,133.527,45.581,133.287z"/>
		<path d="M28.946,138h0.293c-0.065-0.229-0.129-0.471-0.188-0.734C28.993,137.476,28.958,137.725,28.946,138z"/>
		<path d="M35.038,137.758c-0.182,0.069-0.331,0.152-0.454,0.242h2.029C36.208,137.646,35.666,137.519,35.038,137.758z"/>
		<path d="M35.188,129.135c0,0,0.259,3.048-2.314,4.122c1.298-0.854,2.383-4.104,1.402-5.047c-0.981-0.939-3.483-0.967-4.489-0.473
			c-1.004,0.488-1.993,0.774-3.447,2.527c-0.003-1.612,3.654-3.687,5.275-3.275c-0.514-0.997-2.06-1.011-4.247-0.292
			c-4.498-2.689-4.942,3.656-8.999,2.123c0.302,1.747,2.833,0.909,3.917,0.481c1.085-0.431,1.441-0.978,2.785-1.084
			c-3.469,0.86-6.698,7.104-6.698,7.104c1.706,0.488,1.581-0.995,2.442-2.04c0.37-0.976,3.298-2.579,3.882-1.942
			c1.273,2.617-2.871,3.668-3.175,5.136c-0.091,0.444-0.055,1.009,0.101,1.525h1.824c-0.065-0.073-0.097-0.124-0.097-0.124
			c1.015-0.419,0.918-1.692,2.195-2.289s1.271-1.279,1.271-1.279c-0.475-0.43-0.06-1.547,1.935-2.857
			c0.987-0.632,0.63-1.947,1.738-2.737c1.108-0.789,2.628-0.634,3.002,0.03c0.375,0.668-0.435,3.362-4.128,2.8
			c-1.084,0.561-3.041,1.893-2.322,2.765c0.462,0.174,1.259,0.117,2.232-0.216c0,0-1.955,1.401-2.348,1.669
			c-1.412,0.114-0.571,1.076-2.232,2.01c4.465,0.839,4.337-2.289,6.367-4.201c0.463,0.796-0.145,1.589-0.778,2.747
			c-0.22,0.4-0.222,1.048-0.08,1.684h2.546c-0.026-1-0.094-2.229,1.083-3.44C35.905,132.426,36.438,130.105,35.188,129.135z"/>
		<path d="M19.171,136.504c-0.68,0.058-0.824,0.723-0.604,1.496h2.267C20.727,136.604,20.381,136.401,19.171,136.504z"/>
		<path d="M16.593,133.2c-2.63,1.229-2.23,3.104-1.329,4.8h0.771c-0.041-0.172-0.073-0.341-0.087-0.499
			c0.378,0.13,0.624,0.224,0.885,0.499h1.144c-0.12-0.52-0.21-1.067-0.317-1.583C17.261,134.47,16.073,135.199,16.593,133.2z"/>
		<path d="M34.714,125.581c-2.543,0.194-4.97-1.412-5.474-1.99c-0.504-0.574-0.697-0.408-0.421,0.057
			C30.673,126.332,35.184,126.186,34.714,125.581z"/>
		<path d="M30.267,121.098c-0.139-1.054-1.827-1.4-2.064-2.657c-0.048,1.793-1.628,0.646-0.482,3.922
			C28.034,123.109,30.406,122.151,30.267,121.098z"/>
		<path d="M25.453,118.163c0.352-0.046,0.864,0.6,0.86,1.1c0.809-0.892,0.287-2.683-1.279-2.115
			c-1.568,0.565-1.162,2.011,0.095,2.345C24.335,118.883,25.103,118.21,25.453,118.163z"/>
		<path d="M24.863,123.958c1.394,0.618,2.549,0.376,2.502-1.047c-0.057-1.775-3.976-3.618-5.665-2.894
			C23.482,121.068,23.499,123.352,24.863,123.958z"/>
		<path d="M6.269,116.608c0.166,0.158,0.369,0.248,0.545,0.289c0.889,0.204,2.497-0.268,3.726-1.551
			c0.526-0.551,0.863-1.112,1.067-1.664l-0.006-0.002c0.007-0.02,0.017-0.038,0.023-0.057c0.166-0.47,0.238-0.932,0.238-1.374
			c0-1.101-0.413-2.046-0.77-2.673c-0.164,0.472-0.628,0.842-1.1,1.189c-0.438,0.328-0.89,0.664-1.054,1.072
			c0.001,0.165-0.007,0.331-0.037,0.488c-0.537,2.488-2.092,3.28-3.26,3.199c-0.223-0.017-0.424-0.066-0.604-0.137
			c0.14,0.332,0.461,0.712,0.951,0.87l0.045-0.015c0.004,0.015,0.013,0.022,0.019,0.037c0.635,0.172,1.993,0.056,3.96-2.639
			C9.01,115.795,7.148,116.701,6.269,116.608z"/>
		<path d="M17.163,112.676c-0.169-0.096-0.369-0.099-0.519-0.003c-0.191,0.121-0.278,0.379-0.242,0.728
			c0.048,0.469,0.465,0.562,0.642,0.579c0.579,0.057,1.338-0.324,1.558-1.043c0.119-0.552,0.204-1.956-1.646-2.854
			c-0.628-0.268-1.297-0.254-1.981,0.043c-1.436,0.619-2.617,2.327-3.106,3.652l-0.006-0.002c-0.212,0.588-0.56,1.186-1.117,1.768
			c-0.717,0.749-1.634,1.294-2.501,1.542h0.005c-0.008,0.069,0.065,0.126,0.125,0.16c0.415,0.232,1.683,0.223,2.742-0.628
			c1.058-0.831,1.65-1.902,2.172-2.848c0.452-0.817,0.844-1.524,1.444-1.959c0.92-0.91,2.67-0.905,3.341-0.227
			c0.223,0.229,0.637,0.866-0.365,1.859l-0.264,0.262l0.022-0.371C17.484,113.04,17.373,112.799,17.163,112.676z"/>
		<path d="M1.52,114.518c0.513,0.394,1.679,0.449,2.743-0.136c0.817-0.448,1.986-1.385,2.092-4.397
			c0.241,2.756-0.909,4.006-1.79,4.549c0.072,0.376,0.516,0.67,1.097,0.709c1.054,0.073,2.465-0.662,2.964-2.973
			c0.172-0.897-0.288-1.989-0.775-3.147c-0.537-1.275-1.093-2.595-0.775-3.729c0.19-0.681,0.678-1.091,1.336-1.12
			c0.695-0.031,1.447,0.376,1.642,0.89c0.116,0.307,0.021,0.604-0.266,0.836l-0.119,0.098l-0.086-0.13
			c-0.151-0.221-0.331-0.312-0.508-0.253c-0.198,0.065-0.349,0.302-0.338,0.526c0.011,0.242,0.209,0.42,0.553,0.497
			c0.552,0.122,0.949-0.371,1.093-0.92c0.219-0.822-0.066-1.81-1.032-2.11c-0.589-0.185-1.434-0.286-2.111,0.262
			c-0.919,0.744-1.284,2.485-1.055,5.035c-1.033-1.84-2.216-2.271-2.649-2.418c0.116,0.234,0.179,0.444,0.179,0.636
			c0,0.133-0.016,0.259-0.033,0.395c-0.019,0.152-0.04,0.312-0.04,0.501c0,0.51,0.151,1.22,0.887,2.475
			c0.161,0.306,0.23,0.643,0.23,0.984c0,1.132-0.755,2.342-1.525,2.758c-0.614,0.331-1.187,0.155-1.534-0.473l-0.025-0.043
			l0.01-0.05c0.133-0.757,0.511-1.038,0.875-1.312c0.338-0.252,0.657-0.49,0.802-1.134c0.038-0.166,0.054-0.329,0.054-0.483
			c0-0.761-0.393-1.346-0.614-1.616c-0.084,0.19-0.21,0.354-0.37,0.511c-0.378,0.366-0.844,0.819-0.844,2.089
			c0,0.073,0.002,0.147,0.005,0.228c0.005,0.068,0.008,0.137,0.008,0.2c0,0.854-0.503,1.293-1.006,1.337
			c-0.395,0.034-0.563-0.232-0.594-0.578v2.36l1.442-0.911L1.52,114.518z"/>
		<path d="M0,106.307v5.033C1.866,106.018,0.265,107.773,0,106.307z"/>
		<path d="M1.414,102.603c2.552,0.947,3.804-5.768,6.484-2.765c0.303-3.648-3.375-2.591-3.837-0.42
			c-0.845,3.327-3.832,2.865-2.114,0.209c1.874-2.035,3.187-3.426,1.905-5.291c-1.932,0.222-1.34,3.357-2.828,3.162
			C0.487,97.212,2.491,94.065,0,91.682v7.65C1.084,99.973-0.258,101.823,1.414,102.603z"/>
		<path d="M1.819,137.518c-0.355-0.112-0.632,0.182-0.943,0.482h1.555C2.273,137.784,2.082,137.608,1.819,137.518z"/>
		<path d="M1.037,104.249c0-0.574-0.465-1.041-1.037-1.041v2.08C0.572,105.288,1.037,104.821,1.037,104.249z"/>
		<path d="M0.023,135.229c-0.008,0-0.017,0.004-0.023,0.004v2.023c0.007,0,0.015,0.004,0.023,0.004c0.56,0,1.013-0.455,1.013-1.018
			C1.037,135.683,0.583,135.229,0.023,135.229z"/>
		<path d="M5.549,118.229c-0.933-1.902-1.961-2.557-2.885-2.572c2.317,1.335,1.741,5.796,3.371,7.867
			c-1.63-2.071-1.36-6.512-3.677-7.848c-0.159,0.021-0.314,0.061-0.465,0.113c1.551,0.939,1.375,8.958,3.003,10.457
			c1.199,0.15,2.053,0.334,2.642,0.653c0,0,1.261-1.069-0.717-2.617c0.348-0.069,0.833-0.176,1.153-0.179
			C5.912,120.724,6.417,120.062,5.549,118.229z"/>
		<path d="M7.207,130.231c-0.306,0.716-0.213,1.564-0.419,2.705C8.054,132.141,7.771,130.903,7.207,130.231z"/>
		<path d="M12.08,129.297c0.083-3.156-1.647-5.305-4.735-4.896c1.865,1.68,0.594,2.729,0.594,2.729
			c0.496,0.409,0.68,1.133,0.47,1.917c-0.093-1.596-0.749-2.117-3.176-2.466c0.005,0.069,0.034,0.129,0.034,0.199
			c0,0.2-0.021,0.411-0.042,0.615c-0.021,0.2-0.04,0.398-0.04,0.582c0,0.298-0.107,0.438,0.087,0.608
			c1.042-0.229,2.215,0.599,2.622,0.774c-0.241,0.191-0.414,0.388-0.542,0.597c0.602,0.62,1.073,2.42-0.611,3.22
			c-0.049,0.229-0.11,0.466-0.19,0.719c2.054-0.13,3.891-0.81,4.688-3.417c-0.267,0.68,0.059,2.066,0.059,2.066
			c0.993-1.133,1.305-0.389,2.916-2.246c1.003-1.311,0.137-2.732,0.919-3.837C13.724,127.148,12.465,127.887,12.08,129.297z"/>
		<path d="M4.904,126.457c-1.948-1.718-1.665-9.644-3.216-10.584c-0.121,0.057-0.236,0.121-0.348,0.191
			c0.825,3.647,0.43,5.962,0.968,7.88c-0.541-1.929-0.357-4.044-1.2-7.72c-0.485,0.364-0.686,1.002-0.92,1.428v7.653
			c0,0,1.699,1.57,1.674,3.003c0.165-0.447,0.404-0.354,0.868-0.631c0.304,0.782,0.58,1.385,0.629,1.985
			c0.606-0.514,1.127-0.821,1.588-0.982C4.675,128.086,5.1,127.341,4.904,126.457z"/>
		<path d="M1.798,128.947l0.695-0.682C2.068,128.52,1.931,128.471,1.798,128.947z"/>
		<path d="M6.396,132.909c0.027-3.031,1.031-3.543,1.031-3.543c-1.175-0.44-2.204-1.187-4.096,0.685
			c-0.017,1.265-0.607,2.237-1.153,2.631c0.887-1.231,1.217-2.836,0.315-4.416l-0.695,0.682C1.557,126.918,0,125.771,0,125.771
			v7.314C0.078,135.123,6.415,136.287,6.396,132.909z"/>
		<path d="M6.514,134.003c-0.274,0.674-0.871,1.089-1.602,1.297c0.209,0.952,0.465,1.849,0.75,2.7h1.872
			c-0.413-0.67-0.84-1.379-1.294-2.142c1.005-0.491,2.901,1.974,4.348,0.495C7.202,136.598,7.778,134.679,6.514,134.003z"/>
		<path d="M91.878,101.238c-0.918,0.734-0.777,2.362,1.661,1.47c1.828-0.863-0.275-2.502-0.275-2.502
			C93.44,100.766,93.256,102.957,91.878,101.238z"/>
		<path d="M88.654,104.837c-5.915,1.551-8.618-6.43-3.705-7.256c5.188-0.36,2.547,5.578,0.956,3.222
			c1.367-0.628,0.452-2.702-0.811-1.438c-0.706,0.667,0.026,3.051,2.147,2.474c4.366-1.708,0.834-5.938-2.146-5.001l-0.156-1.688
			c0,0-0.821,0.081-1.388,0.056c-2.356-0.115-1.722,1.151-1.554,2.745c0.17,1.598-2.227,2.088-1.059,4.052
			c2.266,3.017-1.975,3.788-2.387,0.065c-0.397-1.672,2.771-2.967,2.327-4.646c-1.052,0.053-1.586,0.122-2.401,1.97
			c-0.814,1.845-0.939,0.257-0.985-0.465c-0.049-0.72,0.571-2.164,2.622-3.273c2.05-1.108,0.896-2.452,1.754-3.195
			c0,0-1.322-0.797-2.139,2.144c-0.817,2.942-3.019,1.601-1.418-0.426c2.114-2.674,0.316-4.91-0.451-4.87
			c0.378,0.383,0.05,2.148-1.289,0.401c-1.642-1.982-4.878-0.17-3.926,2.338c0.167-1.266,1.647-1.306,2.25-1.179
			c3.425,0.358,1.903,2.872,1.672,8.224c0.003,3.574,1.376,5.424,3.97,6.674c2.595,1.247,6.105-0.099,6.534,0.245
			c0.497,1.638-3.983-0.1-6.911,2.609c2.726-0.828,4.899-0.351,6.249-0.124c1.351,0.227,1.998-0.354,2.939-0.993
			C88.297,106.455,89.208,104.72,88.654,104.837z"/>
		<path d="M84.878,93.985c0.43-0.104,1.452-0.743,2.165-1.444C86.33,93.242,85.308,93.882,84.878,93.985z"/>
		<path d="M92.699,88.813c-0.565-0.03-1.222,0.275-1.788,1.113C91.478,89.091,92.133,88.783,92.699,88.813z"/>
		<path d="M87.81,92.926c0.662,1.359,2.201,2.32,3.514,2.383C90.011,95.246,88.472,94.285,87.81,92.926z"/>
		<path d="M89.176,92.961c1.3,0.013,2.711-1.037,2.007-2.773C91.887,91.924,90.476,92.974,89.176,92.961z"/>
		<path d="M90.934,92.468c0.99-0.752,2.544-0.462,2.995-1.605C93.477,92.006,91.923,91.716,90.934,92.468z"/>
		<path d="M87.205,89.077c-0.072,1.443,0.272,1.575,0.473,1.77C87.478,90.652,87.132,90.521,87.205,89.077
			c0.043-0.825-0.366-1.153-0.862-1.155C86.838,87.924,87.247,88.252,87.205,89.077z"/>
		<path d="M94.018,90.558c0.15-0.788-0.323-1.5-1.012-1.693C93.694,89.058,94.167,89.77,94.018,90.558z"/>
		<path d="M93.461,93.588c0.021-0.638-0.406-0.763-0.95-0.741C93.055,92.826,93.482,92.95,93.461,93.588z"/>
		<path d="M93.928,90.862c0.041-0.103,0.07-0.204,0.089-0.305c0.15-0.788-0.323-1.5-1.012-1.693
			c-0.098-0.028-0.201-0.046-0.307-0.051c-0.565-0.03-1.221,0.277-1.788,1.113c1.302-3.49-2.069-4.656-3.121,1.479
			c0.02-0.122,0.024-0.215,0.017-0.291c-0.007-0.073-0.028-0.131-0.055-0.178c-0.021-0.032-0.046-0.062-0.075-0.091
			c-0.2-0.194-0.545-0.326-0.473-1.77c0.042-0.825-0.366-1.153-0.862-1.155c-0.496,0-1.08,0.328-1.389,0.824
			c-0.205,0.327-0.288,0.73-0.141,1.155c0.204,0.599,0.039,1.512,2.23,2.64c-0.712,0.701-1.734,1.341-2.165,1.444
			c0,0,2.138-0.427,2.932-1.06c0.662,1.359,2.201,2.32,3.514,2.383c0.875,0.042,1.651-0.316,1.999-1.224
			c0.058-0.15,0.105-0.315,0.138-0.497c0.021-0.638-0.406-0.762-0.95-0.741c-0.465,0.016-1.015,0.139-1.438,0.132
			c-0.141-0.001-0.268-0.018-0.372-0.056c-0.053-0.019-0.099-0.046-0.14-0.076c0.057-0.079,0.118-0.148,0.183-0.212
			c0.061-0.062,0.124-0.116,0.19-0.167C91.923,91.716,93.477,92.006,93.928,90.862z M89.176,92.961
			c-0.474-0.005-0.932-0.149-1.27-0.453c-0.084-0.077-0.161-0.163-0.229-0.26c-0.12-0.946,1.979-3.729,3.506-2.061
			C91.887,91.924,90.477,92.974,89.176,92.961z"/>
		<path d="M93.898,95.766c-1.347,0.106-2.191,0.378-2.191,0.378c0.128,0.111,0.54,0.593,0.54,0.593S92.979,95.882,93.898,95.766z"/>
		<path d="M98.237,78.455c-0.206,5.166-5.42,2.856-6.104,8.386c0,0,1.005-1.485,2.501-2.003c4.397-1.94,4.85,3.265,1.771,2.427
			c0.687-0.147,0.336-1.813-0.601-1.559c-0.938,0.257-0.877,3.029,1.425,2.525c3.477-0.731,2.084-5.679-2.054-4.609
			C95.087,82.137,101.153,83.035,98.237,78.455z"/>
		<path d="M56.411,134.577c-0.558,1.147-0.683,2.33-0.597,3.423h1.314c-0.062-0.813,0.283-2.524,0.449-2.89
			C57.845,134.527,57.266,132.784,56.411,134.577z"/>
		<path d="M57.813,138h0.512c0.006-0.007,0.01-0.017,0.016-0.025c0.667-0.719,0.173-1.31,1.048-1.813
			c0.875-0.503,0.366-2.046,2.957-1.848C59.193,132.609,58.345,135.784,57.813,138z"/>
		<path d="M54.944,134.145c1.153-2.778,3.233-3.93,5.762-4.168c-1.6-0.856-3.313,0.775-3.899,0.341
			c-0.585-0.436,1.605-3.505,9.237-2.921c-2.892-1.884-5.283,0.014-5.645-1.034s6.605-0.839,5.939-3.355
			c-0.924,1.592-5.926,1.642-8.31,3.472c-2.383,1.825-2.724,6.569-3.611,6.809c-0.889,0.24,0.16-2.837-1.92-2.755
			c0.988,1.702-0.213,6.475,1.688,6.652C56.089,137.37,54.83,135.558,54.944,134.145z"/>
		<path d="M63.384,138h2.03c-0.123-0.09-0.272-0.173-0.455-0.242C64.333,137.519,63.79,137.646,63.384,138z"/>
		<path d="M70.759,138h0.292c-0.013-0.275-0.046-0.524-0.104-0.734C70.889,137.529,70.825,137.771,70.759,138z"/>
		<path d="M81.628,128.82c-4.056,1.533-4.501-4.812-8.998-2.123c-2.188-0.719-3.733-0.705-4.247,0.292
			c1.62-0.411,5.278,1.663,5.274,3.275c-1.456-1.753-2.443-2.039-3.448-2.527c-1.006-0.494-3.508-0.467-4.488,0.473
			c-0.981,0.943,0.103,4.193,1.403,5.047c-2.576-1.074-2.315-4.122-2.315-4.122c-1.25,0.971-0.717,3.291,1.356,5.425
			c1.177,1.212,1.109,2.44,1.084,3.44h2.545c0.143-0.636,0.141-1.283-0.079-1.684c-0.633-1.158-1.24-1.951-0.778-2.747
			c2.031,1.912,1.902,5.04,6.366,4.201c-1.659-0.934-0.819-1.896-2.232-2.01c-0.393-0.268-2.348-1.669-2.348-1.669
			c0.975,0.333,1.772,0.39,2.233,0.216c0.719-0.872-1.237-2.204-2.321-2.765c-3.696,0.562-4.502-2.132-4.128-2.8
			c0.374-0.664,1.893-0.819,3.001-0.03c1.109,0.79,0.751,2.105,1.739,2.737c1.994,1.311,2.408,2.428,1.935,2.857
			c0,0-0.008,0.683,1.27,1.279c1.278,0.597,1.18,1.87,2.195,2.289c0,0-0.032,0.051-0.098,0.124h1.824
			c0.157-0.517,0.194-1.081,0.102-1.525c-0.306-1.468-4.45-2.519-3.175-5.136c0.583-0.637,3.512,0.967,3.882,1.942
			c0.861,1.045,0.737,2.528,2.442,2.04c0,0-3.229-6.243-6.697-7.104c1.342,0.106,1.698,0.653,2.784,1.084
			C78.796,129.729,81.327,130.567,81.628,128.82z"/>
		<path d="M83.405,133.2c0.52,1.999-0.667,1.27-1.068,3.217c-0.105,0.516-0.196,1.063-0.316,1.583h1.144
			c0.262-0.275,0.507-0.369,0.885-0.499c-0.014,0.158-0.046,0.327-0.087,0.499h0.771C85.635,136.304,86.036,134.429,83.405,133.2z"
			/>
		<path d="M80.828,136.504c-1.211-0.103-1.558,0.101-1.663,1.496h2.267C81.652,137.227,81.508,136.562,80.828,136.504z"/>
		<path d="M65.284,125.581c-0.47,0.604,4.041,0.751,5.895-1.934c0.274-0.465,0.083-0.631-0.421-0.057
			C70.253,124.169,67.828,125.775,65.284,125.581z"/>
		<path d="M72.276,122.362c1.147-3.275-0.433-2.129-0.48-3.922c-0.238,1.257-1.925,1.604-2.064,2.657
			C69.592,122.151,71.964,123.109,72.276,122.362z"/>
		<path d="M74.869,119.492c1.258-0.334,1.664-1.779,0.096-2.345c-1.567-0.567-2.088,1.224-1.279,2.115
			c-0.005-0.5,0.508-1.146,0.859-1.1C74.896,118.21,75.663,118.883,74.869,119.492z"/>
		<path d="M75.135,123.958c1.364-0.606,1.381-2.89,3.162-3.94c-1.688-0.725-5.607,1.118-5.664,2.894
			C72.586,124.334,73.741,124.576,75.135,123.958z"/>
		<path d="M91.098,112.327c-0.032-0.157-0.039-0.323-0.039-0.488c-0.165-0.408-0.616-0.744-1.055-1.072
			c-0.47-0.348-0.936-0.718-1.099-1.189c-0.357,0.627-0.77,1.572-0.77,2.673c0,0.442,0.072,0.904,0.238,1.374
			c0.006,0.019,0.017,0.037,0.023,0.057l-0.005,0.002c0.203,0.552,0.539,1.113,1.067,1.664c1.229,1.283,2.836,1.755,3.726,1.551
			c0.177-0.041,0.38-0.131,0.545-0.289c-0.88,0.093-2.741-0.813-3.746-2.965c1.967,2.694,3.324,2.811,3.96,2.639
			c0.006-0.015,0.015-0.022,0.02-0.037l0.045,0.015c0.49-0.158,0.811-0.538,0.951-0.87c-0.18,0.07-0.381,0.12-0.604,0.137
			C93.188,115.607,91.633,114.815,91.098,112.327z"/>
		<path d="M85.265,111.812c0.601,0.435,0.992,1.142,1.444,1.959c0.523,0.945,1.115,2.017,2.173,2.848
			c1.059,0.851,2.327,0.86,2.741,0.628c0.062-0.034,0.134-0.091,0.126-0.16h0.006c-0.867-0.248-1.784-0.793-2.501-1.542
			c-0.558-0.582-0.905-1.18-1.118-1.768l-0.005,0.002c-0.49-1.325-1.671-3.033-3.107-3.652c-0.684-0.297-1.353-0.311-1.981-0.043
			c-1.85,0.897-1.766,2.302-1.647,2.854c0.221,0.719,0.979,1.1,1.559,1.043c0.177-0.017,0.594-0.11,0.641-0.579
			c0.037-0.349-0.05-0.606-0.241-0.728c-0.151-0.096-0.349-0.093-0.519,0.003c-0.209,0.123-0.322,0.364-0.304,0.659l0.022,0.371
			l-0.264-0.262c-1.003-0.993-0.589-1.631-0.364-1.859C82.598,110.906,84.346,110.901,85.265,111.812z"/>
		<path d="M99.404,113.587c-0.503-0.044-1.006-0.482-1.006-1.337c0-0.063,0.003-0.132,0.009-0.2c0.002-0.08,0.005-0.154,0.005-0.228
			c0-1.27-0.466-1.723-0.845-2.089c-0.159-0.156-0.286-0.32-0.37-0.511c-0.22,0.271-0.614,0.855-0.614,1.616
			c0,0.154,0.016,0.317,0.055,0.483c0.145,0.644,0.463,0.882,0.801,1.134c0.365,0.273,0.743,0.555,0.875,1.312l0.009,0.05
			l-0.024,0.043c-0.347,0.628-0.92,0.804-1.535,0.473c-0.77-0.416-1.524-1.626-1.524-2.758c0-0.342,0.068-0.679,0.23-0.984
			c0.736-1.255,0.887-1.965,0.887-2.475c0-0.189-0.021-0.349-0.04-0.501c-0.015-0.136-0.033-0.262-0.033-0.395
			c0-0.191,0.064-0.401,0.179-0.636c-0.433,0.146-1.617,0.578-2.65,2.418c0.229-2.55-0.137-4.291-1.055-5.035
			c-0.677-0.548-1.522-0.446-2.111-0.262c-0.964,0.301-1.251,1.288-1.032,2.11c0.146,0.549,0.541,1.042,1.094,0.92
			c0.346-0.077,0.542-0.255,0.553-0.497c0.011-0.225-0.14-0.461-0.338-0.526c-0.178-0.06-0.357,0.032-0.509,0.253l-0.086,0.13
			l-0.12-0.098c-0.286-0.231-0.381-0.529-0.265-0.836c0.195-0.514,0.947-0.921,1.641-0.89c0.659,0.029,1.145,0.439,1.337,1.12
			c0.316,1.135-0.239,2.454-0.776,3.729c-0.487,1.158-0.947,2.25-0.774,3.147c0.5,2.311,1.909,3.046,2.964,2.973
			c0.581-0.039,1.025-0.333,1.095-0.709c-0.88-0.543-2.029-1.793-1.79-4.549c0.107,3.013,1.275,3.949,2.092,4.397
			c1.064,0.585,2.231,0.529,2.745,0.136l0.077-0.06l1.444,0.911v-2.36C99.968,113.354,99.799,113.621,99.404,113.587z"/>
		<path d="M100,111.34v-5.033C99.733,107.773,98.132,106.018,100,111.34z"/>
		<path d="M98.975,97.498c-1.488,0.195-0.896-2.94-2.83-3.162c-1.281,1.865,0.034,3.256,1.906,5.291
			c1.717,2.656-1.269,3.118-2.113-0.209c-0.463-2.171-4.141-3.229-3.837,0.42c2.68-3.003,3.931,3.712,6.483,2.765
			c1.672-0.779,0.331-2.63,1.417-3.271v-7.65C97.506,94.065,99.513,97.212,98.975,97.498z"/>
		<path d="M98.179,137.518c-0.262,0.091-0.454,0.267-0.612,0.482h1.556C98.812,137.699,98.534,137.405,98.179,137.518z"/>
		<path d="M98.96,104.249c0,0.572,0.465,1.039,1.04,1.039v-2.08C99.426,103.208,98.96,103.675,98.96,104.249z"/>
		<path d="M98.962,136.242c0,0.562,0.453,1.018,1.013,1.018c0.008,0,0.015-0.004,0.025-0.004v-2.023
			c-0.01,0-0.017-0.004-0.025-0.004C99.415,135.229,98.962,135.683,98.962,136.242z"/>
		<path d="M97.333,115.657c-0.925,0.016-1.951,0.67-2.884,2.572c-0.868,1.833-0.363,2.494-2.425,5.875
			c0.318,0.003,0.803,0.109,1.153,0.179c-1.978,1.548-0.718,2.617-0.718,2.617c0.59-0.319,1.442-0.503,2.642-0.653
			c1.625-1.499,1.451-9.518,3.002-10.457c-0.15-0.053-0.305-0.093-0.463-0.113c-2.318,1.336-2.047,5.776-3.678,7.848
			C95.593,121.453,95.016,116.992,97.333,115.657z"/>
		<path d="M93.211,132.937c-0.208-1.141-0.115-1.989-0.419-2.705C92.228,130.903,91.945,132.141,93.211,132.937z"/>
		<path d="M93.448,133.896c-0.08-0.253-0.142-0.49-0.19-0.719c-1.684-0.8-1.212-2.6-0.611-3.22
			c-0.129-0.209-0.303-0.405-0.543-0.597c0.407-0.176,1.58-1.004,2.622-0.774c0.194-0.17,0.089-0.311,0.089-0.608
			c0-0.184-0.021-0.382-0.042-0.582c-0.022-0.204-0.042-0.415-0.042-0.615c0-0.07,0.027-0.13,0.034-0.199
			c-2.427,0.349-3.082,0.87-3.176,2.466c-0.211-0.784-0.026-1.508,0.468-1.917c0,0-1.271-1.049,0.595-2.729
			c-3.088-0.409-4.817,1.739-4.735,4.896c-0.384-1.41-1.643-2.148-3.052-2.835c0.783,1.104-0.083,2.526,0.921,3.837
			c1.61,1.857,1.922,1.113,2.915,2.246c0,0,0.326-1.387,0.059-2.066C89.557,133.086,91.394,133.766,93.448,133.896z"/>
		<path d="M98.31,115.873c-1.551,0.94-1.269,8.866-3.215,10.584c-0.194,0.884,0.229,1.629-0.043,2.224
			c0.462,0.161,0.981,0.469,1.588,0.982c0.049-0.601,0.325-1.203,0.63-1.985c0.464,0.276,0.702,0.184,0.868,0.631
			c-0.025-1.433,1.674-3.003,1.674-3.003v-7.653c-0.235-0.426-0.436-1.063-0.92-1.428c-0.843,3.676-0.66,5.791-1.2,7.72
			c0.538-1.918,0.142-4.232,0.968-7.88C98.547,115.994,98.43,115.93,98.31,115.873z"/>
		<path d="M97.506,128.266l0.693,0.682C98.067,128.471,97.931,128.52,97.506,128.266z"/>
		<path d="M98.2,128.947l-0.693-0.682c-0.903,1.58-0.574,3.185,0.313,4.416c-0.545-0.394-1.136-1.366-1.152-2.631
			c-1.892-1.871-2.919-1.125-4.094-0.685c0,0,1.002,0.512,1.03,3.543c-0.019,3.378,6.317,2.214,6.397,0.177v-7.314
			C100,125.771,98.442,126.918,98.2,128.947z"/>
		<path d="M93.484,134.003c-1.265,0.676-0.688,2.595-4.073,2.351c1.446,1.479,3.343-0.986,4.348-0.495
			c-0.454,0.763-0.881,1.472-1.293,2.142h1.871c0.285-0.852,0.541-1.748,0.751-2.7C94.354,135.092,93.759,134.677,93.484,134.003z"
			/>
	</g>
	<g>
	</g>
	<g>
	</g>
	<g>
	</g>
	<g>
	</g>
	<g>
	</g>
</g>
</svg>
