<?xml version="1.0" encoding="utf-8"?>
<!-- Generator: Adobe Illustrator 16.0.4, SVG Export Plug-In . SVG Version: 6.00 Build 0)  -->
<!DOCTYPE svg PUBLIC "-//W3C//DTD SVG 1.1//EN" "http://www.w3.org/Graphics/SVG/1.1/DTD/svg11.dtd">
<svg version="1.1" id="Layer_1" xmlns="http://www.w3.org/2000/svg" xmlns:xlink="http://www.w3.org/1999/xlink" x="0px" y="0px"
	 width="200.533px" height="169.167px" viewBox="0 0 200.533 169.167" enable-background="new 0 0 200.533 169.167"
	 xml:space="preserve">
<path d="M64.683,169.167c-0.177-4.79,0.078-21.077-1.25-41.917c-0.888-13.943-2.754-27.646-4.596-35.999
	c-1.509-6.841-4.151-16.395-6.542-21.349c-5.5-11.397-22.839-41.49-39.031-39.921c-4.106,0.396-4.937-0.401-6.486,1.758
	c-1.549,2.16-6.321,0.864-6.611-2.122c-0.289-2.986-1.482-12.023,11.096-16.396c7.318-2.544,23.772-6.218,44.742-9.05
	c37.794-5.104,90.253-7.463,130.013,4.552c23.286,7.037,13.237,17.825,6.206,19.994c-17.803,5.493-34.103,14.893-44.474,38.719
	c-4.108,9.439-6.628,26.051-7.034,35.242c-0.69,15.635-1.213,23.647-1.231,29.821c-0.016,5.262-0.137,2.898-0.011,15.558
	c0.21,21.11,0.179,14.906,0.21,21.11"/>
<path fill="#FFF271" d="M118.516,169.167c2.75,0,17.229,0,17.229,0s-0.125-10.729-0.062-24.229
	c0.037-8.079,0.311-30.368,1.471-43.633h-72.04c0.233,1.406,0.446,2.724,0.653,3.963c2.228,13.295,3.058,47.295,3.103,55.108
	c0.05,8.792,0.069,8.179,0.05,8.792H118.516z M137.153,101.304c0.599-6.873,1.275-13.195,1.865-17.702
	c2.387-18.22,8.287-41.491,47.842-58.385c9.822-4.195,7.208-5.973,0.007-10.298c-7.2-4.326-19.361-5.409-32.839-7.117
	c-19.662-2.492-60.365-1.77-98.396,2.582c-15.509,1.773-30.563,4.148-43.575,7.154c-8.745,2.02-12.313,7.723,2.361,8.813
	c14.674,1.09,25.816,9.806,35.788,27.176c7.303,12.721,11.09,27.602,13.459,39.75c0.556,2.854,1.03,5.56,1.45,8.026H137.153z"/>
<g id="Detaljer">
	<g id="Vänster_öga">
		<path d="M74.148,37.519c6.097-0.591,9.728,1.147,15.87,4.365c3.44,1.802,3.247,2.483,5.911,2.693
			c4.304,0.336,3.348,3.482,2.834,4.623c-0.826,1.838-0.079,1.766-0.035,3.52c0.092,3.625,2.977,19.052-6.059,20.429
			c-11.262,1.717-16.102-1.579-17.25-12.143c-1.149-10.563,1.712-14.734,3.008-15.613c1.296-0.879,4.771-2.597,1.717-4.31
			c-2.268-1.274-1.316-0.626-3.568-0.534C74.325,40.642,71.286,37.795,74.148,37.519z"/>
		<path fill="#FFFFFF" d="M89.894,45.789c5.316,2.647,7.435,1.297,7.855,9.789c0.526,10.622-0.693,14.886-7.885,15.834
			c-7.193,0.947-12.402-3.571-13.078-10.538c-0.654-6.762-0.41-10.672,2.131-13.016C82.26,44.771,82.503,42.11,89.894,45.789z"/>
		<path d="M93.113,58.287c0.659,3.693-2.207,5.739-3.836,5.771c-1.63,0.032-4.849-0.786-5.073-4.405
			c-0.226-3.62,1.051-6.005,3.787-6.271C90.729,53.118,92.563,55.201,93.113,58.287z"/>
		<path fill="#FFFFFF" d="M91.436,57.821c0.205,2.115,0.165,2.999-1.315,3.268c-1.481,0.269-2.697-1.125-3.039-2.845
			c-0.244-1.232,1.088-1.738,1.834-1.812C90.552,56.274,91.376,57.2,91.436,57.821z"/>
	</g>
	<g id="Höger_öga">
		<path d="M134.106,54.943c0.567,9.74-2.932,15.104-11.043,15.637c-8.111,0.535-11.363-5.806-11.732-10.918
			c-0.37-5.113,0.105-11.466,2.494-14.433c5.045-6.266,12.826-4.951,16.504,0.536C132.384,48.831,133.933,51.945,134.106,54.943z"/>
		<path fill="#FFFFFF" d="M120.708,43.683c6.41-1.249,10.574,4.754,11.496,11.068c1.121,7.678-2.153,12.767-8.45,13.88
			c-7.034,1.242-10.135-4.795-10.356-9.672C113.177,54.083,112.603,45.261,120.708,43.683z"/>
		<path d="M124.21,57.786c0.604,2.167-1.605,4.174-3.62,4.117c-2.015-0.056-4.471-2.078-4.427-4.217
			c0.044-2.14,0.807-3.344,3.17-3.573C121.696,53.884,123.632,55.707,124.21,57.786z"/>
		<path fill="#FFFFFF" d="M121.461,57.926c-0.052,1.13-0.925,1.471-1.497,1.401c-1-0.124-1.556-0.297-1.714-0.84
			c-0.282-0.977-0.032-1.629,1.2-1.873C120.308,56.443,121.501,57.043,121.461,57.926z"/>
		<path d="M122.469,23.606c2.292-0.329,6.95,0.894,7.959,4.378c0.283,0.978-0.22,2.91-1.03,2.989c-0.808,0.078-0.75-0.618-0.81-1.24
			c-0.192-1.991-2.788-3.498-5.208-3.201c-2.421,0.298-3.24,2.198-4.673,4.912c-1.433,2.713-3.153,1.812-2.499-0.512
			S118.442,24.185,122.469,23.606z"/>
	</g>
	<path id="Skäggstubb" d="M113.585,77.748c0.292-0.028,0.553,0.185,0.58,0.477c0.027,0.291-0.186,0.551-0.477,0.579
		s-0.551-0.187-0.579-0.478S113.295,77.775,113.585,77.748z M107.009,77.849c0.033,0.341,0.336,0.59,0.676,0.557
		c0.341-0.033,0.59-0.335,0.557-0.676c-0.033-0.34-0.336-0.589-0.676-0.556S106.976,77.509,107.009,77.849z M104.345,81.97
		c0.031,0.314,0.312,0.546,0.627,0.516c0.315-0.031,0.547-0.312,0.517-0.627c-0.031-0.316-0.312-0.548-0.628-0.517
		C104.545,81.373,104.314,81.654,104.345,81.97z M95.347,82.967c0.041,0.412,0.406,0.715,0.82,0.675s0.717-0.407,0.676-0.82
		c-0.039-0.413-0.407-0.716-0.82-0.676C95.608,82.186,95.308,82.554,95.347,82.967z M98.271,79.701
		c0.032,0.34,0.336,0.59,0.676,0.557c0.341-0.033,0.589-0.336,0.556-0.676c-0.033-0.341-0.334-0.59-0.675-0.557
		S98.238,79.36,98.271,79.701z M96.73,78.563c0.03,0.315,0.312,0.547,0.627,0.516c0.315-0.03,0.548-0.311,0.517-0.627
		c-0.031-0.314-0.312-0.547-0.627-0.517C96.931,77.966,96.7,78.248,96.73,78.563z M85.096,79.534
		c0.028,0.29,0.288,0.504,0.577,0.477c0.293-0.028,0.507-0.288,0.479-0.579c-0.029-0.291-0.288-0.505-0.58-0.478
		C85.28,78.982,85.066,79.242,85.096,79.534z M90.747,82.91c0.03,0.316,0.312,0.547,0.627,0.516
		c0.315-0.029,0.547-0.311,0.516-0.626c-0.029-0.315-0.311-0.548-0.627-0.517C90.947,82.313,90.716,82.595,90.747,82.91z
		 M120.435,79.532c0.03,0.315,0.312,0.546,0.627,0.517c0.315-0.031,0.547-0.312,0.517-0.628c-0.031-0.315-0.312-0.548-0.628-0.517
		C120.635,78.935,120.403,79.216,120.435,79.532z M109.554,83.379c0.033,0.341,0.336,0.59,0.676,0.557
		c0.341-0.033,0.59-0.335,0.557-0.677c-0.033-0.339-0.335-0.589-0.676-0.556C109.771,82.737,109.521,83.039,109.554,83.379z
		 M103.104,80.833c0.031,0.315,0.311,0.546,0.627,0.517c0.314-0.031,0.547-0.312,0.517-0.627s-0.313-0.547-0.628-0.517
		C103.304,80.237,103.073,80.518,103.104,80.833z M69.268,94.536c0.031,0.315,0.312,0.546,0.627,0.517
		c0.316-0.031,0.548-0.312,0.517-0.628c-0.03-0.314-0.312-0.547-0.628-0.517C69.469,93.939,69.238,94.22,69.268,94.536z
		 M78.516,103.656c0.028,0.29,0.288,0.504,0.579,0.476c0.291-0.027,0.505-0.288,0.477-0.578c-0.027-0.292-0.287-0.506-0.58-0.478
		C78.702,103.104,78.487,103.364,78.516,103.656z M75.226,106.767c0.03,0.316,0.311,0.548,0.627,0.517
		c0.314-0.03,0.547-0.312,0.518-0.626c-0.031-0.316-0.313-0.548-0.628-0.517C75.426,106.17,75.195,106.453,75.226,106.767z
		 M83.603,118.294c0.023,0.243,0.239,0.421,0.482,0.397c0.242-0.023,0.42-0.239,0.396-0.482s-0.238-0.421-0.482-0.397
		C83.757,117.835,83.579,118.052,83.603,118.294z M85.03,116.461c0.029,0.291,0.288,0.505,0.579,0.477
		c0.292-0.028,0.506-0.289,0.478-0.579c-0.028-0.291-0.289-0.506-0.58-0.478C85.217,115.911,85.003,116.169,85.03,116.461z
		 M85.171,118.425c0.027,0.267,0.264,0.463,0.531,0.438c0.268-0.026,0.463-0.264,0.438-0.531c-0.026-0.267-0.264-0.463-0.531-0.438
		C85.342,117.92,85.146,118.159,85.171,118.425z M90.812,116.247c0.035,0.364,0.359,0.631,0.725,0.596
		c0.363-0.036,0.631-0.36,0.596-0.724c-0.037-0.364-0.36-0.631-0.725-0.596C91.042,115.557,90.775,115.881,90.812,116.247z
		 M97.898,117.569c0.026,0.268,0.263,0.463,0.53,0.437s0.464-0.263,0.438-0.53c-0.025-0.267-0.264-0.463-0.531-0.437
		S97.872,117.302,97.898,117.569z M92.888,121.069c0.018,0.17,0.17,0.294,0.34,0.278c0.17-0.017,0.294-0.169,0.277-0.339
		s-0.168-0.294-0.338-0.278C92.997,120.748,92.872,120.898,92.888,121.069z M92.016,123.225c0.03,0.316,0.312,0.547,0.627,0.517
		s0.548-0.312,0.517-0.627s-0.312-0.548-0.628-0.518C92.216,122.628,91.985,122.911,92.016,123.225z M97.599,123.814
		c0.031,0.316,0.311,0.547,0.627,0.517c0.314-0.03,0.547-0.312,0.517-0.626c-0.03-0.316-0.312-0.548-0.628-0.518
		C97.8,123.217,97.568,123.5,97.599,123.814z M102.025,128.001c0.019,0.193,0.19,0.336,0.385,0.316
		c0.195-0.018,0.337-0.19,0.318-0.385c-0.019-0.195-0.191-0.337-0.386-0.318C102.148,127.634,102.007,127.806,102.025,128.001z
		 M103.579,128.542c0.042,0.437,0.432,0.758,0.869,0.715c0.438-0.042,0.757-0.432,0.715-0.869c-0.043-0.438-0.431-0.757-0.867-0.714
		C103.858,127.715,103.537,128.104,103.579,128.542z M104.591,115.099c0.022,0.219,0.217,0.379,0.436,0.358
		c0.219-0.021,0.379-0.216,0.357-0.434c-0.021-0.22-0.215-0.379-0.435-0.358C104.731,114.687,104.57,114.88,104.591,115.099z
		 M108.193,119.618c0.028,0.291,0.288,0.505,0.579,0.477c0.291-0.029,0.505-0.288,0.477-0.579c-0.027-0.292-0.288-0.506-0.58-0.477
		C108.38,119.066,108.165,119.327,108.193,119.618z M102.31,120.595c0.031,0.316,0.312,0.547,0.627,0.516
		c0.316-0.029,0.548-0.311,0.517-0.627c-0.03-0.314-0.312-0.547-0.627-0.517C102.511,119.999,102.279,120.281,102.31,120.595z
		 M113.804,115.306c0.028,0.291,0.287,0.505,0.578,0.477c0.292-0.028,0.506-0.288,0.477-0.578c-0.027-0.292-0.287-0.506-0.578-0.479
		C113.989,114.755,113.774,115.014,113.804,115.306z M118.655,114.836c0.029,0.291,0.289,0.505,0.578,0.476
		c0.293-0.027,0.507-0.288,0.479-0.577c-0.027-0.292-0.288-0.507-0.58-0.479C118.841,114.285,118.627,114.544,118.655,114.836z
		 M129.432,108.612c0.026,0.267,0.263,0.463,0.53,0.437c0.268-0.025,0.463-0.263,0.438-0.531c-0.026-0.267-0.265-0.463-0.531-0.437
		C129.601,108.107,129.405,108.344,129.432,108.612z M119.841,118.771c0.03,0.316,0.311,0.548,0.626,0.517
		c0.316-0.031,0.548-0.312,0.517-0.627c-0.029-0.315-0.312-0.547-0.627-0.518C120.041,118.174,119.81,118.456,119.841,118.771z
		 M118.874,121c0.04,0.413,0.406,0.715,0.82,0.675c0.412-0.04,0.716-0.407,0.676-0.82s-0.408-0.716-0.821-0.676
		S118.834,120.587,118.874,121z M113.122,120.992c0.036,0.364,0.36,0.632,0.725,0.596c0.364-0.035,0.631-0.359,0.596-0.724
		s-0.359-0.632-0.725-0.597C113.354,120.303,113.087,120.627,113.122,120.992z M119.813,125.995c0.025,0.268,0.263,0.463,0.53,0.437
		c0.267-0.026,0.464-0.263,0.438-0.53c-0.026-0.267-0.265-0.463-0.531-0.437C119.981,125.491,119.787,125.728,119.813,125.995z
		 M114.356,128.565c0.048,0.485,0.479,0.84,0.965,0.793s0.841-0.478,0.794-0.964c-0.048-0.486-0.478-0.842-0.966-0.794
		C114.664,127.647,114.31,128.079,114.356,128.565z M128.317,115.25c0.025,0.268,0.262,0.463,0.529,0.437
		c0.268-0.025,0.463-0.263,0.438-0.53c-0.026-0.267-0.264-0.462-0.53-0.437C128.485,114.746,128.291,114.983,128.317,115.25z
		 M123.011,112.122c0.045,0.462,0.455,0.8,0.918,0.755c0.461-0.044,0.799-0.455,0.754-0.917c-0.045-0.461-0.455-0.799-0.916-0.754
		S122.967,111.661,123.011,112.122z M116.677,82.721c0.016,0.17,0.168,0.295,0.338,0.278s0.295-0.168,0.277-0.339
		c-0.016-0.17-0.167-0.294-0.337-0.278C116.785,82.4,116.66,82.551,116.677,82.721z M121.3,76.779
		c0.02,0.194,0.191,0.336,0.385,0.318c0.195-0.019,0.338-0.192,0.319-0.386c-0.019-0.195-0.192-0.337-0.387-0.318
		S121.28,76.583,121.3,76.779z M78.518,78.254c0.026,0.269,0.263,0.464,0.53,0.438c0.267-0.026,0.463-0.263,0.438-0.531
		c-0.027-0.267-0.265-0.462-0.531-0.437C78.687,77.75,78.491,77.988,78.518,78.254z M102.829,77.47
		c0.021,0.218,0.217,0.379,0.436,0.356c0.219-0.021,0.379-0.216,0.357-0.434c-0.021-0.219-0.216-0.379-0.435-0.358
		C102.97,77.056,102.808,77.251,102.829,77.47z M99.376,83.8c0.018,0.194,0.19,0.338,0.385,0.318
		c0.194-0.019,0.336-0.191,0.318-0.386c-0.02-0.195-0.191-0.337-0.387-0.317C99.498,83.434,99.356,83.606,99.376,83.8z
		 M116.813,77.402c0.023,0.243,0.24,0.421,0.482,0.397s0.42-0.239,0.396-0.482s-0.239-0.421-0.482-0.397
		C116.968,76.943,116.79,77.159,116.813,77.402z M108.567,131.26c0.029,0.291,0.287,0.505,0.578,0.477
		c0.293-0.027,0.507-0.288,0.479-0.579c-0.029-0.292-0.289-0.505-0.58-0.477S108.539,130.969,108.567,131.26z M110.063,126.72
		c0.019,0.194,0.191,0.336,0.386,0.317c0.194-0.02,0.337-0.191,0.317-0.386c-0.019-0.194-0.19-0.337-0.385-0.317
		C110.187,126.352,110.045,126.525,110.063,126.72z"/>
	<g id="Mun">
		<path d="M65.554,69.371c2.296,0.704,2.963,3.355,4.123,6.257s3.035,4.102,4.933,5.55c1.899,1.448,6.042,5.317,13.253,5.875
			c7.212,0.557,4.597,1.418,8.54,1.307c14.654-0.415,30.703,1.923,33.812-10.057c1.605-6.182,1.01-6.731,3.078-9.718
			c0.605-0.875,1.162-1.619,3.551-2.228c3.848-0.979,2.385,1.276,0.43,1.842c-1.953,0.566-3.527,0.296-4.826,8.505
			c-0.547,3.444-1.129,3.249-0.748,6.54c0.096,0.828,0.162,1.681,0.672,1.756c0.451,0.067,0.781,0.93,0.779,1.558
			c-0.006,2.249,0.707,4.704-1.5,6.55c-2.207,1.847-2.707,1.883-2.44,4.632c0.169,1.742-1.238,3.725-2.998,4.058
			c-4.069,0.771-3.796,0.996-4.414,3.693c-0.459,2.009-0.758,3.841-4.378,4.065c-3.619,0.227-5.013,0.109-7.213-0.557
			c-2.199-0.666-0.943-0.662-2.238,0.217c-1.297,0.879-10.504,1.771-12.551,0.086c-2.047-1.685-3.492-1.043-5.383-1.11
			c-1.89-0.068-4.973-0.774-5.606-4.732c-0.636-3.957-1.879-3.836-3.481-4.811c-1.601-0.975-3.528-2.007-3.267-5.21
			c0.259-3.164,1.667-6.127-2.237-8.825c-3.859-2.668-5.459-4.495-6.398-6.413s-2.372-5.045-3.986-6.144
			C63.447,70.957,59.341,67.461,65.554,69.371z"/>
		<path d="M90.036,108.191c-2.573,0-4.973-0.774-5.606-4.732"/>
		<path fill="#FFFFFF" d="M106.511,90.269c6.504-0.081,8.957-0.868,12.653-1.604c3.696-0.734,4.308-0.92,5.8-1.064
			c1.493-0.145,2.115-0.204,2.625,3.765s1.418,8.15-2.029,8.862c-3.447,0.711-2.963,0.538-3.244-1.067
			c-0.28-1.606-1.404-4.134-1.056-0.526c0.351,3.608,0.808,8.336-4.915,8.892c-3.981,0.385-6.236,1.733-7.148-5.085
			c-1.044-7.808-2.533-7.16-1.811-1.834c0.877,6.445-0.084,6.916-5.071,7.272c-4.989,0.358-7.839,0.761-8.763-6.183
			c-0.924-6.944-1.377-1.249-1.356,0.257c0.021,1.505,0.562,3.21-2.585,3.138c-3.146-0.071-4.361-0.958-4.656-6.58
			c-0.293-5.624-1.01-6.162-1.369-3.762c-0.075,0.51-0.051,0.759-1.283,1.004s-2.501,0.116-2.766-2.621
			c-0.266-2.736-0.521-2.041-0.42-3.036c0.129-1.269,1.455-1.835,3.568-1.412c1.965,0.393,4.825-0.091,8.814,0.903
			C95.489,90.583,97.604,90.377,106.511,90.269z"/>
		<path fill="#FFFFFF" d="M131.843,87.312c0.497,1.811,0.381,3.144-1.518,3.789c-2.066,0.702-2.299-0.405-2.379-2.533
			c-0.053-3.134,0.469-2.935,1.89-3.825C131.112,83.943,130.871,83.764,131.843,87.312z"/>
	</g>
</g>
<g>
</g>
<g>
</g>
<g>
</g>
<g>
</g>
<g>
</g>
<g>
</g>
</svg>
