<?xml version="1.0" encoding="utf-8"?>
<!-- Generator: Adobe Illustrator 16.0.4, SVG Export Plug-In . SVG Version: 6.00 Build 0)  -->
<!DOCTYPE svg PUBLIC "-//W3C//DTD SVG 1.1//EN" "http://www.w3.org/Graphics/SVG/1.1/DTD/svg11.dtd">
<svg version="1.1" id="Layer_1" xmlns="http://www.w3.org/2000/svg" xmlns:xlink="http://www.w3.org/1999/xlink" x="0px" y="0px"
	 width="208px" height="208px" viewBox="0 0 208 208" enable-background="new 0 0 208 208" xml:space="preserve">
<path d="M68.208,213.083c-0.177-4.79-0.047-26.16-1.375-47c-0.888-13.943-2.754-27.646-4.596-35.999
	c-1.509-6.841-4.151-16.395-6.542-21.349c-5.5-11.397-22.839-41.49-39.031-39.921c-4.106,0.396-4.937-0.401-6.486,1.758
	c-1.549,2.16-6.321,0.864-6.611-2.122c-0.289-2.986-1.482-12.023,11.096-16.396c7.318-2.544,23.772-6.218,44.742-9.05
	c37.794-5.104,90.253-7.463,130.013,4.552c23.286,7.037,13.237,17.825,6.206,19.994c-17.803,5.493-34.103,14.893-44.474,38.719
	c-4.108,9.439-6.628,26.051-7.034,35.242c-0.69,15.635-1.213,23.647-1.231,29.821c-0.016,5.262-0.008,2.897-0.011,15.558
	c-0.005,20.778-0.22,44.694,2.71,52.069"/>
<path fill="#FFF271" d="M125.334,216.083c-0.062-0.242,14.068-4.283,14-7.667c-0.105-5.253-0.062-11.042,0-24.542
	c0.037-8.079,0.06-30.472,1.22-43.738h-72.04c0.233,1.406,0.446,2.724,0.653,3.963c2.228,13.295,3.166,47.295,3.103,55.108
	c-0.101,12.568,0.414,13.888,0.395,14.5L125.334,216.083z M140.554,140.138c0.599-6.873,1.275-13.195,1.865-17.702
	c2.387-18.22,8.287-41.491,47.842-58.385c9.822-4.195,7.208-5.973,0.007-10.298c-7.2-4.326-19.361-5.409-32.839-7.117
	c-19.662-2.492-60.365-1.77-98.396,2.582c-15.509,1.773-30.563,4.148-43.575,7.154c-8.745,2.02-12.313,7.723,2.361,8.813
	c14.674,1.09,25.816,9.806,35.788,27.176c7.303,12.721,11.09,27.602,13.459,39.75c0.556,2.854,1.03,5.56,1.45,8.026H140.554z"/>
<g id="Detaljer">
	<g id="Vänster_öga">
		<path d="M77.548,76.352c6.097-0.591,9.728,1.147,15.87,4.365c3.44,1.802,3.247,2.483,5.911,2.693
			c4.304,0.336,3.348,3.482,2.834,4.623c-0.826,1.838-0.079,1.766-0.035,3.52c0.092,3.625,2.977,19.052-6.059,20.429
			c-11.262,1.717-16.102-1.579-17.25-12.143c-1.149-10.563,1.712-14.734,3.008-15.613c1.296-0.879,4.771-2.597,1.717-4.31
			c-2.268-1.274-1.316-0.626-3.568-0.534C77.725,79.475,74.686,76.629,77.548,76.352z"/>
		<path fill="#FFFFFF" d="M93.294,84.622c5.316,2.647,7.435,1.297,7.855,9.789c0.526,10.622-0.693,14.886-7.885,15.834
			c-7.193,0.947-12.402-3.571-13.078-10.538c-0.654-6.762-0.41-10.672,2.131-13.016C85.66,83.604,85.903,80.943,93.294,84.622z"/>
		<path d="M96.514,97.12c0.659,3.693-2.207,5.739-3.836,5.771c-1.63,0.032-4.849-0.786-5.073-4.405
			c-0.226-3.62,1.051-6.005,3.787-6.271C94.129,91.951,95.964,94.034,96.514,97.12z"/>
		<path fill="#FFFFFF" d="M94.836,96.654c0.205,2.115,0.165,2.999-1.315,3.268c-1.481,0.269-2.697-1.125-3.039-2.845
			c-0.244-1.232,1.088-1.738,1.834-1.812C93.952,95.107,94.776,96.033,94.836,96.654z"/>
	</g>
	<g id="Höger_öga">
		<path d="M137.507,93.776c0.567,9.74-2.932,15.104-11.043,15.637c-8.111,0.535-11.363-5.806-11.732-10.918
			c-0.37-5.113,0.105-11.466,2.494-14.433c5.045-6.266,12.826-4.951,16.504,0.536C135.784,87.664,137.333,90.778,137.507,93.776z"/>
		<path fill="#FFFFFF" d="M124.108,82.516c6.41-1.249,10.574,4.754,11.496,11.068c1.121,7.678-2.153,12.767-8.45,13.88
			c-7.034,1.242-10.135-4.795-10.356-9.672C116.577,92.916,116.003,84.095,124.108,82.516z"/>
		<path d="M127.61,96.619c0.604,2.167-1.605,4.174-3.62,4.117c-2.015-0.056-4.471-2.078-4.427-4.217
			c0.044-2.14,0.807-3.344,3.17-3.573C125.097,92.718,127.032,94.54,127.61,96.619z"/>
		<path fill="#FFFFFF" d="M124.861,96.76c-0.052,1.13-0.925,1.471-1.497,1.401c-1-0.124-1.556-0.297-1.714-0.84
			c-0.282-0.977-0.032-1.629,1.2-1.873C123.708,95.276,124.901,95.877,124.861,96.76z"/>
		<path d="M125.869,62.439c2.292-0.329,6.95,0.894,7.959,4.378c0.283,0.978-0.22,2.91-1.03,2.989c-0.808,0.078-0.75-0.618-0.81-1.24
			c-0.192-1.991-2.788-3.498-5.208-3.201c-2.421,0.298-3.24,2.198-4.673,4.912c-1.433,2.713-3.153,1.812-2.499-0.512
			S121.843,63.019,125.869,62.439z"/>
	</g>
	<path id="Skäggstubb" d="M116.985,116.581c0.292-0.028,0.553,0.185,0.58,0.477c0.027,0.291-0.186,0.551-0.477,0.579
		s-0.551-0.187-0.579-0.478S116.695,116.608,116.985,116.581z M110.409,116.683c0.033,0.341,0.336,0.59,0.676,0.557
		c0.341-0.033,0.59-0.335,0.557-0.676c-0.033-0.34-0.336-0.589-0.676-0.556S110.376,116.343,110.409,116.683z M107.745,120.804
		c0.031,0.314,0.312,0.546,0.627,0.516c0.315-0.031,0.547-0.312,0.517-0.627c-0.031-0.316-0.312-0.548-0.628-0.517
		C107.945,120.206,107.715,120.487,107.745,120.804z M98.747,121.801c0.041,0.412,0.406,0.715,0.82,0.675s0.717-0.407,0.676-0.82
		c-0.039-0.413-0.407-0.716-0.82-0.676C99.009,121.02,98.708,121.388,98.747,121.801z M101.672,118.534
		c0.032,0.34,0.336,0.59,0.676,0.557c0.341-0.033,0.589-0.336,0.556-0.676c-0.033-0.341-0.334-0.59-0.675-0.557
		S101.639,118.193,101.672,118.534z M100.131,117.396c0.03,0.315,0.312,0.547,0.627,0.516c0.315-0.03,0.548-0.311,0.517-0.627
		c-0.031-0.314-0.312-0.547-0.627-0.517C100.331,116.8,100.101,117.081,100.131,117.396z M88.496,118.367
		c0.028,0.29,0.288,0.504,0.577,0.477c0.293-0.028,0.507-0.288,0.479-0.579c-0.029-0.291-0.288-0.505-0.58-0.478
		C88.681,117.815,88.467,118.075,88.496,118.367z M94.147,121.743c0.03,0.316,0.312,0.547,0.627,0.516
		c0.315-0.029,0.547-0.311,0.516-0.626c-0.029-0.315-0.311-0.548-0.627-0.517C94.348,121.146,94.116,121.429,94.147,121.743z
		 M123.835,118.365c0.03,0.315,0.312,0.546,0.627,0.517c0.315-0.031,0.547-0.312,0.517-0.628c-0.031-0.315-0.312-0.548-0.628-0.517
		C124.035,117.769,123.804,118.05,123.835,118.365z M112.954,122.213c0.033,0.341,0.336,0.59,0.676,0.557
		c0.341-0.033,0.59-0.335,0.557-0.677c-0.033-0.339-0.335-0.589-0.676-0.556C113.171,121.57,112.921,121.872,112.954,122.213z
		 M106.505,119.667c0.031,0.315,0.311,0.546,0.627,0.517c0.314-0.031,0.547-0.312,0.517-0.627s-0.313-0.547-0.628-0.517
		C106.704,119.07,106.474,119.352,106.505,119.667z M72.668,133.369c0.031,0.315,0.312,0.546,0.627,0.517
		c0.316-0.031,0.548-0.312,0.517-0.628c-0.03-0.314-0.312-0.547-0.628-0.517C72.869,132.772,72.638,133.054,72.668,133.369z
		 M81.916,142.489c0.028,0.29,0.288,0.504,0.579,0.476c0.291-0.027,0.505-0.288,0.477-0.578c-0.027-0.292-0.287-0.506-0.58-0.478
		C82.103,141.938,81.888,142.197,81.916,142.489z M78.626,145.601c0.03,0.316,0.311,0.548,0.627,0.517
		c0.314-0.03,0.547-0.312,0.518-0.626c-0.031-0.316-0.313-0.548-0.628-0.517C78.826,145.004,78.595,145.286,78.626,145.601z
		 M87.003,157.128c0.023,0.243,0.239,0.421,0.482,0.397c0.242-0.023,0.42-0.239,0.396-0.482s-0.238-0.421-0.482-0.397
		C87.157,156.669,86.979,156.886,87.003,157.128z M88.431,155.295c0.029,0.291,0.288,0.505,0.579,0.477
		c0.292-0.028,0.506-0.289,0.478-0.579c-0.028-0.291-0.289-0.506-0.58-0.478C88.617,154.744,88.403,155.003,88.431,155.295z
		 M88.571,157.259c0.027,0.267,0.264,0.463,0.531,0.438c0.268-0.026,0.463-0.264,0.438-0.531c-0.026-0.267-0.264-0.463-0.531-0.438
		C88.742,156.754,88.547,156.992,88.571,157.259z M94.212,155.08c0.035,0.364,0.359,0.631,0.725,0.596
		c0.363-0.036,0.631-0.36,0.596-0.724c-0.037-0.364-0.36-0.631-0.725-0.596C94.442,154.391,94.176,154.715,94.212,155.08z
		 M101.299,156.402c0.026,0.268,0.263,0.463,0.53,0.437s0.464-0.263,0.438-0.53c-0.025-0.267-0.264-0.463-0.531-0.437
		S101.272,156.136,101.299,156.402z M96.288,159.902c0.018,0.17,0.17,0.294,0.34,0.278c0.17-0.017,0.294-0.169,0.277-0.339
		s-0.168-0.294-0.338-0.278C96.397,159.581,96.272,159.731,96.288,159.902z M95.416,162.059c0.03,0.316,0.312,0.547,0.627,0.517
		s0.548-0.312,0.517-0.627s-0.312-0.548-0.628-0.518C95.616,161.462,95.386,161.744,95.416,162.059z M100.999,162.647
		c0.031,0.316,0.311,0.547,0.627,0.517c0.314-0.03,0.547-0.312,0.517-0.626c-0.03-0.316-0.312-0.548-0.628-0.518
		C101.2,162.051,100.969,162.333,100.999,162.647z M105.426,166.835c0.019,0.193,0.19,0.336,0.385,0.316
		c0.195-0.018,0.337-0.19,0.318-0.385c-0.019-0.195-0.191-0.337-0.386-0.318C105.549,166.468,105.407,166.64,105.426,166.835z
		 M106.979,167.375c0.042,0.437,0.432,0.758,0.869,0.715c0.438-0.042,0.757-0.432,0.715-0.869c-0.043-0.438-0.431-0.757-0.867-0.714
		C107.259,166.549,106.938,166.938,106.979,167.375z M107.991,153.933c0.022,0.219,0.217,0.379,0.436,0.358
		c0.219-0.021,0.379-0.216,0.357-0.434c-0.021-0.22-0.215-0.379-0.435-0.358C108.132,153.521,107.971,153.714,107.991,153.933z
		 M111.594,158.451c0.028,0.291,0.288,0.505,0.579,0.477c0.291-0.029,0.505-0.288,0.477-0.579c-0.027-0.292-0.288-0.506-0.58-0.477
		C111.78,157.899,111.565,158.16,111.594,158.451z M105.71,159.429c0.031,0.316,0.312,0.547,0.627,0.516
		c0.316-0.029,0.548-0.311,0.517-0.627c-0.03-0.314-0.312-0.547-0.627-0.517C105.911,158.832,105.68,159.114,105.71,159.429z
		 M117.204,154.14c0.028,0.291,0.287,0.505,0.578,0.477c0.292-0.028,0.506-0.288,0.477-0.578c-0.027-0.292-0.287-0.506-0.578-0.479
		C117.39,153.589,117.175,153.848,117.204,154.14z M122.056,153.67c0.029,0.291,0.289,0.505,0.578,0.476
		c0.293-0.027,0.507-0.288,0.479-0.577c-0.027-0.292-0.288-0.507-0.58-0.479C122.241,153.118,122.027,153.378,122.056,153.67z
		 M132.832,147.445c0.026,0.267,0.263,0.463,0.53,0.437c0.268-0.025,0.463-0.263,0.438-0.531c-0.026-0.267-0.265-0.463-0.531-0.437
		C133.001,146.94,132.806,147.178,132.832,147.445z M123.241,157.604c0.03,0.316,0.311,0.548,0.626,0.517
		c0.316-0.031,0.548-0.312,0.517-0.627c-0.029-0.315-0.312-0.547-0.627-0.518C123.441,157.008,123.21,157.289,123.241,157.604z
		 M122.274,159.834c0.04,0.413,0.406,0.715,0.82,0.675c0.412-0.04,0.716-0.407,0.676-0.82s-0.408-0.716-0.821-0.676
		S122.234,159.421,122.274,159.834z M116.522,159.825c0.036,0.364,0.36,0.632,0.725,0.596c0.364-0.035,0.631-0.359,0.596-0.724
		s-0.359-0.632-0.725-0.597C116.755,159.137,116.487,159.461,116.522,159.825z M123.214,164.828c0.025,0.268,0.263,0.463,0.53,0.437
		c0.267-0.026,0.464-0.263,0.438-0.53c-0.026-0.267-0.265-0.463-0.531-0.437C123.382,164.324,123.188,164.562,123.214,164.828z
		 M117.757,167.398c0.048,0.485,0.479,0.84,0.965,0.793s0.841-0.478,0.794-0.964c-0.048-0.486-0.478-0.842-0.966-0.794
		C118.064,166.48,117.71,166.912,117.757,167.398z M131.718,154.083c0.025,0.268,0.262,0.463,0.529,0.437
		c0.268-0.025,0.463-0.263,0.438-0.53c-0.026-0.267-0.264-0.462-0.53-0.437C131.886,153.579,131.691,153.816,131.718,154.083z
		 M126.411,150.955c0.045,0.462,0.455,0.8,0.918,0.755c0.461-0.044,0.799-0.455,0.754-0.917c-0.045-0.461-0.455-0.799-0.916-0.754
		S126.367,150.494,126.411,150.955z M120.077,121.555c0.016,0.17,0.168,0.295,0.338,0.278s0.295-0.168,0.277-0.339
		c-0.016-0.17-0.167-0.294-0.337-0.278C120.186,121.233,120.061,121.385,120.077,121.555z M124.7,115.612
		c0.02,0.194,0.191,0.336,0.385,0.318c0.195-0.019,0.338-0.192,0.319-0.386c-0.019-0.195-0.192-0.337-0.387-0.318
		S124.681,115.417,124.7,115.612z M81.918,117.088c0.026,0.269,0.263,0.464,0.53,0.438c0.267-0.026,0.463-0.263,0.438-0.531
		c-0.027-0.267-0.265-0.462-0.531-0.437C82.087,116.583,81.892,116.821,81.918,117.088z M106.229,116.304
		c0.021,0.218,0.217,0.379,0.436,0.356c0.219-0.021,0.379-0.216,0.357-0.434c-0.021-0.219-0.216-0.379-0.435-0.358
		C106.37,115.89,106.208,116.085,106.229,116.304z M102.776,122.634c0.018,0.194,0.19,0.338,0.385,0.318
		c0.194-0.019,0.336-0.191,0.318-0.386c-0.02-0.195-0.191-0.337-0.387-0.317C102.898,122.268,102.757,122.439,102.776,122.634z
		 M120.214,116.235c0.023,0.243,0.24,0.421,0.482,0.397s0.42-0.239,0.396-0.482s-0.239-0.421-0.482-0.397
		C120.368,115.776,120.19,115.992,120.214,116.235z M111.968,170.094c0.029,0.291,0.287,0.505,0.578,0.477
		c0.293-0.027,0.507-0.288,0.479-0.579c-0.029-0.292-0.289-0.505-0.58-0.477S111.939,169.803,111.968,170.094z M113.464,165.554
		c0.019,0.194,0.191,0.336,0.386,0.317c0.194-0.02,0.337-0.191,0.317-0.386c-0.019-0.194-0.19-0.337-0.385-0.317
		C113.587,165.186,113.445,165.358,113.464,165.554z"/>
	<g id="Mun">
		<path d="M68.954,108.204c2.296,0.704,2.963,3.355,4.123,6.257s3.035,4.102,4.933,5.55c1.899,1.448,6.042,5.317,13.253,5.875
			c7.212,0.557,4.597,1.418,8.54,1.307c14.654-0.415,30.703,1.923,33.812-10.057c1.605-6.182,1.01-6.731,3.078-9.718
			c0.605-0.875,1.162-1.619,3.551-2.228c3.848-0.979,2.385,1.276,0.43,1.842c-1.953,0.566-3.527,0.296-4.826,8.505
			c-0.547,3.444-1.129,3.249-0.748,6.54c0.096,0.828,0.162,1.681,0.672,1.756c0.451,0.067,0.781,0.93,0.779,1.558
			c-0.006,2.249,0.707,4.704-1.5,6.55c-2.207,1.847-2.707,1.883-2.44,4.632c0.169,1.742-1.238,3.725-2.998,4.058
			c-4.069,0.771-3.796,0.996-4.414,3.693c-0.459,2.009-0.758,3.841-4.378,4.065c-3.619,0.227-5.013,0.109-7.213-0.557
			c-2.199-0.666-0.943-0.662-2.238,0.217c-1.297,0.879-10.504,1.771-12.551,0.086c-2.047-1.685-3.492-1.043-5.383-1.11
			c-1.89-0.068-4.973-0.774-5.606-4.732c-0.636-3.957-1.879-3.836-3.481-4.811c-1.601-0.975-3.528-2.007-3.267-5.21
			c0.259-3.164,1.667-6.127-2.237-8.825c-3.859-2.668-5.459-4.495-6.398-6.413s-2.372-5.045-3.986-6.144
			C66.847,109.79,62.741,106.295,68.954,108.204z"/>
		<path d="M93.437,147.024c-2.573,0-4.973-0.774-5.606-4.732"/>
		<path fill="#FFFFFF" d="M109.911,129.103c6.504-0.081,8.957-0.868,12.653-1.604c3.696-0.734,4.308-0.92,5.8-1.064
			c1.493-0.145,2.115-0.204,2.625,3.765s1.418,8.15-2.029,8.862c-3.447,0.711-2.963,0.538-3.244-1.067
			c-0.28-1.606-1.404-4.134-1.056-0.526c0.351,3.608,0.808,8.336-4.915,8.892c-3.981,0.385-6.236,1.733-7.148-5.085
			c-1.044-7.808-2.533-7.16-1.811-1.834c0.877,6.445-0.084,6.916-5.071,7.272c-4.989,0.358-7.839,0.761-8.763-6.183
			c-0.924-6.944-1.377-1.249-1.356,0.257c0.021,1.505,0.562,3.21-2.585,3.138c-3.146-0.071-4.361-0.958-4.656-6.58
			c-0.293-5.624-1.01-6.162-1.369-3.762c-0.075,0.51-0.051,0.759-1.283,1.004s-2.501,0.116-2.766-2.621
			c-0.266-2.736-0.521-2.041-0.42-3.036c0.129-1.269,1.455-1.835,3.568-1.412c1.965,0.393,4.825-0.091,8.814,0.903
			C98.89,129.416,101.005,129.211,109.911,129.103z"/>
		<path fill="#FFFFFF" d="M135.243,126.146c0.497,1.811,0.381,3.144-1.518,3.789c-2.066,0.702-2.299-0.405-2.379-2.533
			c-0.053-3.134,0.469-2.935,1.89-3.825C134.513,122.776,134.271,122.598,135.243,126.146z"/>
	</g>
</g>
</svg>
