<?xml version="1.0" encoding="utf-8"?>
<!-- Generator: Adobe Illustrator 16.0.4, SVG Export Plug-In . SVG Version: 6.00 Build 0)  -->
<!DOCTYPE svg PUBLIC "-//W3C//DTD SVG 1.1//EN" "http://www.w3.org/Graphics/SVG/1.1/DTD/svg11.dtd">
<svg version="1.1" id="Layer_1" xmlns="http://www.w3.org/2000/svg" xmlns:xlink="http://www.w3.org/1999/xlink" x="0px" y="0px"
	 width="896.118px" height="193.904px" viewBox="0 0 896.118 193.904" enable-background="new 0 0 896.118 193.904"
	 xml:space="preserve">
<g>
	<g>
		<path fill="#FFF26E" d="M117.47,133.895l-21.93,21.038c-6.009-4.733-12.155-8.173-18.445-10.328
			c-6.29-2.151-12.949-3.23-19.975-3.23c-6.574,0-13.403,0.964-20.485,2.89c-7.084,1.928-14.253,4.648-21.505,8.16l-1.53-2.72
			c7.026-5.326,11.73-9.35,14.11-12.07c4.872-5.552,7.31-11.502,7.31-17.85c0-4.532-1.503-8.187-4.505-10.965
			c-3.004-2.776-7.169-4.447-12.495-5.015c2.721-2.72,6.006-4.08,9.86-4.08c1.926,0,4.306,0.284,7.14,0.85v-0.85
			c0-5.326-1.274-9.151-3.824-11.475c-2.551-2.321-6.773-3.485-12.665-3.485c-2.269,0-4.024,0-5.271,0
			c1.132-2.778,3.031-4.888,5.695-6.333c2.661-1.445,5.581-2.167,8.755-2.167c2.04,0,4.08,0.284,6.12,0.85
			c0-9.86,1.076-18.19,3.229-24.99c2.152-6.8,6.176-13.43,12.07-19.89c-3.174,1.929-6.319,3.344-9.435,4.25
			c-3.119,0.909-5.81,1.36-8.075,1.36c-2.834,0-6.234-0.481-10.2-1.445c-3.969-0.961-6.519-1.445-7.65-1.445
			c-2.268,0-4.278,0.568-6.034,1.7c-1.759,1.134-3.6,3.344-5.525,6.63L0,41.754c1.472-6.46,4.021-11.501,7.65-15.13
			c4.08-4.08,9.35-6.12,15.81-6.12h1.53c3.852,0,7.649,0.51,11.39,1.53c8.271,2.269,12.636,3.4,13.09,3.4
			c2.04,0,4.165-0.282,6.375-0.85c2.21-0.565,5.241-1.7,9.096-3.4l1.02,1.36c-6.12,5.1-10.314,10.54-12.58,16.32
			c-1.814,4.648-2.72,10.598-2.72,17.85c0,4.535,0.056,8.389,0.17,11.56c0.111,3.174,0.226,6.179,0.34,9.01
			c0,15.414-0.879,26.549-2.635,33.405c-1.759,6.858-6.264,15.895-13.516,27.115c10.54-8.386,17.851-16.66,21.931-24.82
			c3.399-6.8,5.1-15.071,5.1-24.82c0-4.191-0.114-8.33-0.34-12.41c-0.794-14.051-1.19-21.42-1.19-22.1
			c0-11.56,2.806-19.861,8.415-24.905c5.61-5.042,14.477-7.565,26.605-7.565l0.34,2.21c-6.8,0.909-11.674,3.289-14.62,7.14
			c-2.494,3.174-3.74,7.48-3.74,12.92c0,3.628,0.112,6.914,0.341,9.86c0.791,10.429,1.189,16.548,1.189,18.36
			c0,13.374-2.04,24.198-6.12,32.47c-4.42,8.954-12.354,17.625-23.8,26.01c5.212-1.586,9.972-2.832,14.28-3.74
			c5.666-1.246,10.54-1.87,14.62-1.87c4.191,0,8.781,1.079,13.77,3.23c5.212,2.495,10.426,4.93,15.641,7.31
			c0.791,0,2.945-1.472,6.46-4.42L117.47,133.895z"/>
		<path fill="#FFF26E" d="M159.117,136.073l-17.85,15.629c-4.303-2.601-7.419-5.652-9.348-9.159
			c-1.928-3.506-2.893-7.576-2.893-12.213v-3.562V74.862l-5.609-6.447l14.619-13.061l15.131,13.6l-4.931,5.95v55.25
			c0.229,1.134,0.69,2.183,1.382,3.145c0.69,0.964,1.729,1.843,3.11,2.635l3.195-2.72L159.117,136.073z M156.228,25.945
			l-14.96,21.76h-1.36l4.591-21.76H156.228z"/>
		<path fill="#FFF26E" d="M286.445,19.995c0,9.751-3.345,17.035-10.03,21.853c-5.895,4.245-13.658,6.367-23.29,6.367l-2.21-0.51
			v86.19c7.479-2.266,13.882-5.61,19.21-10.03c4.76-3.966,9.462-9.52,14.11-16.66l1.699,1.018
			c-2.268,8.016-4.988,14.734-8.159,20.153c-3.969,6.547-9.011,11.855-15.131,15.919c-3.854,2.372-8.5,4.208-13.939,5.503
			c-5.44,1.296-10.88,1.947-16.32,1.947c-8.5,0-16.49-1.246-23.97-3.735c-11.22-4.186-20.004-10.747-26.35-19.688
			c-6.349-8.941-9.521-19.011-9.521-30.215c0-10.75,3.286-21.33,9.86-31.742c5.892-9.278,14.052-17.935,24.479-25.97
			c-3.288-0.34-6.29-0.51-9.01-0.51c-6.8,0-12.639,1.275-17.51,3.825c-4.874,2.55-9.805,7.284-14.79,14.195h-1.36
			c1.926-13.032,7.48-22.61,16.66-28.73c7.932-5.326,18.246-7.99,30.94-7.99c5.551,0,14.449,1.53,26.689,4.59s21.42,4.59,27.54,4.59
			c4.08,0,7.706-0.792,10.88-2.38c3.172-1.585,5.836-4.25,7.99-7.99H286.445z M214.195,106.524v-64.77l-2.551-0.51
			c-6.46,6.914-11.22,13.658-14.279,20.23c-3.4,7.48-5.101,15.754-5.101,24.82c0,13.829,5.212,25.84,15.641,36.04
			c2.491-2.38,4.165-4.702,5.015-6.97C213.77,113.099,214.195,110.153,214.195,106.524z M246.325,134.405V47.529l-12.07-2.375V84.86
			c0,9.05-1.814,16.628-5.439,22.735c-2.721,4.638-8.104,10.577-16.15,17.815c4.76,3.734,9.802,6.279,15.13,7.637
			c3.512,0.906,7.82,1.357,12.92,1.357C243.32,134.405,245.19,134.405,246.325,134.405z"/>
		<path fill="#FFF26E" d="M423.125,95.475c0,11.448-0.855,19.778-2.562,24.99c-2.505,7.594-7.796,14.509-15.876,20.74
			c-4.893,3.514-8.933,6.574-12.12,9.18c-6.261,4.986-9.675,8.896-10.243,11.73v0.85c0,0.906,0.511,1.642,1.53,2.21
			c1.021,0.565,2.21,0.85,3.57,0.85l0.85-0.51c4.08,0,6.12,1.246,6.12,3.74c0,1.36-0.935,2.805-2.805,4.335
			c-1.87,1.53-3.884,2.295-6.035,2.295c-1.249,0-2.579-0.313-3.995-0.935c-1.419-0.625-2.749-1.673-3.995-3.145
			c-1.588-2.154-2.38-4.309-2.38-6.46c0-2.04,0.68-4.42,2.04-7.14c1.02-2.154,2.321-4.25,3.91-6.29
			c4.306-6.346,8.611-12.691,12.92-19.04c3.626-6.346,6.176-13.656,7.649-21.93c-2.608-1.02-5.214-1.756-7.819-2.21
			c-2.608-0.451-5.271-0.68-7.99-0.68c-7.48,0-15.019,1.928-22.61,5.78c-6.46,3.289-13.204,8.16-20.229,14.62h4.25
			c2.04,0,4.59,0.17,7.649,0.51c7.026,0.794,11.446,1.19,13.261,1.19c3.739,0,7.11-0.566,10.114-1.7
			c3.002-1.131,5.637-3.116,7.905-5.95l2.72,3.06l-18.02,27.88c-5.44-3.4-11.475-5.892-18.105-7.48
			c-6.63-1.585-13.573-2.38-20.824-2.38c-4.989,0-10.654,1.275-17,3.825c-6.349,2.55-9.521,5.466-9.521,8.755
			c0,0.906,0.226,2.151,0.68,3.74c1.021,3.625,1.53,5.892,1.53,6.8c0,1.131-0.454,2.21-1.359,3.23c-0.909,1.02-1.984,1.53-3.23,1.53
			h-0.85c-1.7-0.114-3.034-0.85-3.995-2.21c-0.965-1.36-1.445-2.834-1.445-4.42c0-1.474,0.366-3.288,1.105-5.44
			c0.735-2.154,1.784-4.534,3.145-7.14c1.7-2.268,4.42-5.496,8.16-9.69c6.346-7.026,10.2-12.976,11.56-17.85
			c0.681-1.585,1.021-2.832,1.021-3.74c0-1.472-0.51-2.521-1.53-3.145c-1.02-0.622-2.324-0.935-3.91-0.935
			c-1.813,0-3.798,0.51-5.95,1.53c-2.153,1.02-4.023,2.55-5.609,4.59c-0.114-0.566-0.17-1.472-0.17-2.72
			c0-4.76,1.402-8.641,4.207-11.645c2.806-3.001,6.843-5.071,12.112-6.205c0-1.132,0-1.926,0-2.38c0-4.646-1.418-8.045-4.25-10.2
			c-2.834-2.152-6.348-3.23-10.54-3.23c-4.534,0-8.84,0.964-12.92,2.89c0.906-5.551,3.711-9.916,8.415-13.09
			c4.702-3.171,9.945-4.76,15.726-4.76c0-8.5,1.586-15.356,4.76-20.57c1.812-2.946,6.571-8.216,14.28-15.81
			c-4.874,1.7-8.444,2.55-10.71,2.55c-1.589,0-5.725-1.076-12.41-3.23c-3.515-1.132-6.12-1.7-7.82-1.7c-2.72,0-5.1,0.709-7.14,2.125
			c-2.04,1.418-3.854,3.485-5.44,6.205h-0.85c1.132-6.346,3.796-11.73,7.99-16.15c4.646-4.872,10.142-7.31,16.489-7.31
			c4.532,0,11.446,0.738,20.74,2.21c4.986,0.794,8.84,1.19,11.561,1.19c4.985,0,10.481-0.792,16.489-2.38l0.17,1.19
			c-9.634,5.554-16.264,10.938-19.89,16.15c-4.194,6.12-6.29,14.508-6.29,25.16v30.77c0,9.974-0.993,18.02-2.975,24.14
			c-1.984,6.12-5.979,13.148-11.985,21.08c8.726-6.006,14.901-11.671,18.53-17c4.42-6.46,6.63-14.45,6.63-23.97v-34.68
			c0-12.92,3.981-22.95,11.947-30.09c6.827-6.12,17.009-10.54,30.55-13.26l0.343,0.34c-9.748,5.894-16.123,11.023-19.125,15.385
			c-3.004,4.364-4.505,9.324-4.505,14.875v0.51v20.57l31.96-26.52c8.16,6.574,13.94,13.969,17.34,22.185
			C421.425,73.858,423.125,83.803,423.125,95.475z M401.704,80.509c-1.251-5.222-2.842-9.366-4.771-12.431
			c-2.273-3.631-5.453-6.468-9.541-8.513l-18.628,15.897l-0.04,5.068c6.571,1.578,12.352,2.364,17.34,2.364
			c2.605,0,5.1-0.17,7.48-0.51C395.925,82.044,398.645,81.417,401.704,80.509z M401.704,106.524v-21.76
			c-5.439,1.249-10.824,1.87-16.149,1.87c-5.215,0-10.824-0.566-16.83-1.7v21.08c5.78-1.7,11.105-2.55,15.979-2.55
			C389.576,103.464,395.244,104.484,401.704,106.524z"/>
		<path fill="#FFF26E" d="M485.346,82.212c-5.926,4.42-11.396,8.67-16.407,12.75c-5.927,4.874-11.281,9.464-16.065,13.77v20.062
			l14.88,7.14l12.484-8.5l2.896,3.225c-4.988,3.506-9.689,6.901-14.109,10.182c-5.895,4.638-10.314,8.088-13.261,10.351
			c-4.534-2.826-8.784-5.089-12.75-6.787c-3.968-1.697-8.559-3.113-13.77-4.245c2.04-1.923,3.484-4.072,4.335-6.447
			c0.85-2.375,1.274-5.092,1.274-8.146V71.603c8.16-4.187,16.774-9.56,25.843-16.121L485.346,82.212z M469.345,88.69l-16.981-18.917
			v33.521L469.345,88.69z"/>
		<path fill="#FFF26E" d="M688.318,130.609c-9.634,2.045-18.418,4.887-26.35,8.521c-4.988,2.274-13.034,6.707-24.14,13.295
			c-10.88-3.966-18.7-6.431-23.46-7.395c-4.761-0.962-9.86-1.445-15.301-1.445c-5.439,0-10.539,0.739-15.3,2.21
			c-6.688,2.04-10.313,5.1-10.88,9.18l-0.68,1.36c0,1.02,0.226,2.322,0.68,3.91c1.021,3.512,1.53,5.78,1.53,6.8
			c0,2.152-1.249,3.23-3.74,3.23c-1.7,0-3.288-0.568-4.76-1.7c-1.475-1.134-2.21-2.55-2.21-4.25c0-2.04,0.621-4.394,1.87-7.055
			c1.245-2.664,2.436-4.789,3.569-6.375c3.626-4.08,7.252-8.216,10.881-12.41c4.306-5.326,6.855-10.312,7.649-14.96v-1.7
			c-0.568-0.792-1.02-1.36-1.36-1.7c-1.359-1.246-2.948-1.87-4.76-1.87c-1.359,0-2.863,0.37-4.505,1.105
			c-1.645,0.739-3.429,1.955-5.354,3.655c-0.114-0.452-0.17-1.19-0.17-2.21c0-4.192,2.661-8.33,7.989-12.41
			c1.7-1.36,4.42-3.001,8.16-4.93c0.68-0.906,1.021-1.981,1.021-3.23c0-2.38-0.88-4.9-2.636-7.565
			c-1.758-2.662-3.628-4.42-5.609-5.27c-1.984-0.85-4.279-1.275-6.886-1.275c-2.039,0-4.278,0.34-6.715,1.02
			c-2.438,0.68-4.675,1.474-6.715,2.38c1.021-5.551,3.852-9.916,8.5-13.09c4.646-3.171,9.86-4.76,15.641-4.76
			c0-7.932,1.529-14.62,4.59-20.06c3.06-5.44,7.932-10.88,14.62-16.32c-4.875,1.7-8.5,2.55-10.881,2.55
			c-1.474,0-5.498-1.076-12.069-3.23c-3.4-1.132-6.179-1.7-8.33-1.7c-2.38,0-4.59,0.709-6.63,2.125
			c-2.04,1.418-3.969,3.485-5.78,6.205c0.792-6.46,3.371-11.985,7.735-16.575c4.361-4.59,9.774-6.885,16.234-6.885
			c3.172,0,7.82,0.908,13.94,2.72c6.12,1.814,10.71,2.72,13.77,2.72h1.19c2.72,0,5.836-0.481,9.35-1.445
			c3.512-0.962,6.912-1.955,10.2-2.975l0.51,1.19c-9.859,5.44-16.548,10.824-20.06,16.15c-4.08,6.008-6.12,14.394-6.12,25.16v30.77
			c0,9.86-1.02,17.879-3.06,24.055c-2.04,6.179-6.179,13.233-12.41,21.165c8.046-5.113,14.307-11.053,18.785-17.815
			c4.476-6.763,6.715-14.519,6.715-23.271V62.962c0-11.932,2.236-20.883,6.715-26.849c4.476-5.966,12.606-10.938,24.395-14.917
			c2.946-0.909,5.892-1.706,8.841-2.388c2.945-0.68,5.665-1.022,8.159-1.022c3.626,0,6.687,0.797,9.181,2.385
			c3.399,2.045,5.921,4.717,7.564,8.011c1.642,3.296,2.465,6.933,2.465,10.907c0,4.547-1.02,8.808-3.06,12.782
			c-1.929,3.182-4.818,6.818-8.67,10.909c-3.288,3.411-6.574,6.76-9.86,10.054c8.271,0.797,14.392,2.558,18.36,5.284
			c5.1,3.522,7.649,8.978,7.649,16.362V130.609z M664.349,51.955c0-5.326-1.134-10.256-3.399-14.79
			c-2.835-5.666-6.688-8.5-11.561-8.5c-4.534,0-8.133,1.729-10.795,5.185c-2.664,3.458-3.995,7.849-3.995,13.175v38.25
			c0,12.128-1.729,20.854-5.185,26.18c-3.459,5.329-10.684,10.994-21.675,17c4.871-0.68,8.415-1.131,10.625-1.36
			c2.21-0.226,4.675-0.34,7.395-0.34c5.212,0,10.651,0.68,16.32,2.04v-65.79h3.91v15.47c5.665-3.06,10.142-6.97,13.43-11.73
			C662.705,61.984,664.349,57.055,664.349,51.955z M666.049,92.584v-1.36c0-3.852-0.51-6.686-1.53-8.5
			c-1.02-1.812-3.628-3.626-7.819-5.44c-1.929,1.02-3.799,2.154-5.61,3.4c-2.269,1.814-3.969,3.174-5.1,4.08v9.18
			c3.06,0.68,5.892,1.02,8.5,1.02C658.114,94.964,661.969,94.173,666.049,92.584z M666.049,112.305v-14.28
			c-3.06,0.455-5.299,0.709-6.715,0.765c-1.419,0.059-2.523,0.085-3.315,0.085c-2.948,0-5.158-0.111-6.63-0.34
			c-1.474-0.226-2.608-0.396-3.399-0.51v14.28c3.399-0.68,6.686-1.02,9.859-1.02C659.021,111.285,662.42,111.625,666.049,112.305z
			 M666.049,129.135v-12.58c-3.4-1.132-6.858-1.7-10.37-1.7c-1.474,0-3.004,0.114-4.59,0.34c-1.589,0.228-3.288,0.51-5.1,0.85v14.45
			l10.369,3.4c1.472-0.906,3.031-1.727,4.676-2.465C662.676,130.694,664.349,129.929,666.049,129.135z"/>
		<path fill="#FFF26E" d="M739.488,134.566c-2.948,2.829-5.895,5.6-8.84,8.314c-4.988,4.749-7.935,7.52-8.84,8.311
			c-3.629-3.397-7.68-6.37-12.155-8.919c-4.479-2.55-9.549-4.845-15.215-6.885c2.04-1.926,3.456-4.051,4.25-6.372
			c0.791-2.322,1.189-5.126,1.189-8.413V40.899c0-2.263-0.68-4.587-2.04-6.967c-0.908-1.586-2.438-3.567-4.59-5.948l0.681-0.51
			c4.646,1.02,8.951,3.119,12.92,6.29h1.529c3.061-3.06,6.12-5.44,9.181-7.14c3.06-1.7,6.46-2.776,10.199-3.23l0.511,0.85
			c-3.061,2.269-5.385,4.903-6.971,7.905c-1.588,3.004-2.38,6.319-2.38,9.945v84.15l13.09,9.18l4.421-4.08L739.488,134.566z"/>
		<path fill="#FFF26E" d="M813.098,135.929l-16.83,15.263c-7.819-4.638-11.729-11.99-11.729-22.057l-24.65,22.057h-1.53
			c-4.308-4.303-7.479-8.21-9.52-11.722c-2.72-4.643-4.08-9.568-4.08-14.779c0-6.795,1.756-13.364,5.27-19.707
			c2.946-5.323,7.311-10.758,13.091-16.309l-9.011-25.67l2.891,0.17c7.478,0,13.82-2.601,19.032-7.802l26.39,9.252l5.578-4.17
			l1.02,1.19c-1.7,2.834-3.089,5.469-4.165,7.905c-1.078,2.438-1.899,5.015-2.465,7.735v52.36c0.452,1.36,1.047,2.55,1.785,3.57
			c0.735,1.02,1.671,1.759,2.805,2.21l3.23-2.21L813.098,135.929z M784.538,98.2V76.604l-25.991-10.192l7.602,21.665L784.538,98.2z
			 M784.538,123.432v-21.157l-18.53-10.2c-1.589,3.055-2.89,6.221-3.91,9.499c-1.02,3.278-1.53,6.388-1.53,9.329
			c0,9.159,3.368,17.47,10.11,24.932L784.538,123.432z M796.948,36.995c0,3.514-1.53,6.434-4.591,8.755
			c-3.06,2.324-6.348,3.485-9.859,3.485c-2.721,0-4.988-0.735-6.8-2.21c-1.814-1.471-2.721-3.74-2.721-6.8
			c0-1.812,0.282-3.57,0.851-5.27c1.472-2.832,2.975-4.957,4.505-6.375c1.53-1.416,3.2-2.465,5.015-3.145
			c1.586-0.226,2.832-0.34,3.74-0.34c2.831,0,5.041,0.738,6.63,2.21C795.869,29.345,796.948,32.575,796.948,36.995z M785.388,28.665
			c-1.814,0-3.399,1.164-4.76,3.485c-1.36,2.324-2.04,4.845-2.04,7.565c0,1.814,0.366,3.344,1.104,4.59
			c0.736,1.249,1.955,1.984,3.655,2.21c2.492,0.229,4.476-0.736,5.95-2.89c1.472-2.151,2.21-4.702,2.21-7.65
			c0-2.38-0.483-4.25-1.445-5.61C789.099,29.004,787.539,28.439,785.388,28.665z"/>
		<path fill="#FFF26E" d="M888.746,50.945c0,2.837-1.856,7.095-5.567,12.769l-16.994,24.48L883.646,99.4v37.868
			c-3.969,1.36-7.99,3.283-12.07,5.772c-3.399,2.04-7.198,4.757-11.39,8.152c-3.175-2.024-6.319-3.487-9.436-4.388
			c-3.115-0.898-6.146-1.35-9.092-1.35c-5.78,0-12.129,1.588-19.04,4.76l-3.23-2.207l22.777-34.173l-18.02-10.54v-31.79
			c4.191-1.926,8.216-4.306,12.069-7.14c3.852-2.832,7.536-6.006,11.051-9.52c3.852,2.268,7.932,4.223,12.239,5.865
			c4.307,1.645,8.216,2.465,11.73,2.465l4.59-0.51c1.586,0,3.087-0.651,4.505-1.955c1.416-1.301,2.125-2.861,2.125-4.675
			c0-1.132-0.483-2.295-1.444-3.485c-0.965-1.19-1.844-2.351-2.636-3.485l-0.85-2.38c0-1.131,0.451-2.04,1.36-2.72
			c0.905-0.68,2.096-1.02,3.569-1.02c1.586,0,3.031,0.709,4.335,2.127C888.093,46.491,888.746,48.448,888.746,50.945z
			 M867.666,134.532v-25.787l-11.177-6.277l-20.438,28.202c1.586-0.34,3.371-0.738,5.353-1.193c1.981-0.454,4.051-0.683,6.205-0.683
			c3.171,0,6.346,0.479,9.517,1.435C860.298,131.185,863.812,132.62,867.666,134.532z M869.732,74.923
			c-1.816,0.223-3.716,0.475-5.7,0.754c-1.986,0.279-3.432,0.417-4.34,0.417c-2.948,0-5.87-0.396-8.763-1.19
			c-2.894-0.792-5.985-1.926-9.273-3.4v22.478l10.452,6.13L869.732,74.923z"/>
	</g>
</g>
<g>
</g>
<g>
</g>
<g>
</g>
<g>
</g>
<g>
</g>
</svg>
