<?xml version="1.0" encoding="utf-8"?>
<!-- Generator: Adobe Illustrator 16.0.4, SVG Export Plug-In . SVG Version: 6.00 Build 0)  -->
<!DOCTYPE svg PUBLIC "-//W3C//DTD SVG 1.1//EN" "http://www.w3.org/Graphics/SVG/1.1/DTD/svg11.dtd">
<svg version="1.1" xmlns="http://www.w3.org/2000/svg" xmlns:xlink="http://www.w3.org/1999/xlink" x="0px" y="0px" width="100px"
	 height="138px" viewBox="0 0 100 138" enable-background="new 0 0 100 138" xml:space="preserve">
<g id="Layer_2">
	<rect x="-0.061" fill="#FFF6A5" width="100" height="138"/>
</g>
<g id="Layer_1">
	<g opacity="0.05">
		<rect x="-0.061" y="0.001" fill="none" width="100" height="137.999"/>
		<g>
			<g>
				<path d="M68.777,51.553c-1.266-1.306-2.782-0.735-4.247-0.185c-1.066,0.4-2.071,0.778-2.899,0.383l-0.382-0.185l0.417-0.084
					c3.625-0.729,3.923-2.394,3.935-2.852c-0.206-0.038-1.787-0.334-1.787-0.334c-1.67-0.235-2.36,0.179-3.027,0.58
					c-0.811,0.488-1.59,0.938-3.858,0.188c-0.037,0.043-0.082,0.093-0.082,0.12c0,0.003,0,0.01,0.001,0.012
					c0.018,0.101,0.272,0.206,0.382,0.25c1.176,0.569,1.992,0.393,2.78,0.22c0.539-0.117,1.096-0.24,1.74-0.116
					c-0.586-0.112-1.146,0.275-1.68,0.393c-0.835,0.185-1.699,0.372-2.957-0.238c-0.13-0.053-0.305-0.131-0.423-0.25
					c-0.17,0.361-0.347,0.964,0.135,1.332c1.102,1.145,3.38,1.389,4.67,1.602c0.871,0.145,1.296,0.223,1.444,0.432
					c-0.087-0.124-0.913-0.057-1.49-0.151c-1.291-0.212-3.14-0.324-4.317-1.457c0,0.499,1.653,1.953,2.957,2.39
					c2.379,0.773,3.668-0.086,4.914-0.916c0.504-0.338,0.98-0.654,1.505-0.839c0.824-0.294,1.342,0.036,1.576,0.254
					c0.382,0.361,0.558,0.929,0.429,1.382c-0.09,0.307-0.302,0.509-0.602,0.568l-0.158,0.03l-0.011-0.162
					c-0.031-0.433-0.202-0.715-0.466-0.768c-0.228-0.046-0.488,0.087-0.595,0.298c-0.117,0.233-0.031,0.499,0.243,0.746
					c0.349,0.364,0.815,0.313,1.062,0.253c0.614-0.152,1.158-0.663,1.322-1.243C69.42,52.815,69.418,52.214,68.777,51.553z"/>
			</g>
		</g>
		<g>
			<g>
				<path d="M43.188,49.454c-0.119,0.119-0.295,0.197-0.425,0.25c-1.256,0.61-2.121,0.423-2.956,0.238
					c-0.536-0.117-1.094-0.505-1.68-0.393c0.643-0.124,1.201-0.001,1.74,0.116c0.788,0.173,1.604,0.35,2.78-0.22
					c0.11-0.044,0.364-0.149,0.382-0.25c0-0.002,0-0.009,0-0.012c0-0.027-0.043-0.077-0.081-0.12
					c-2.269,0.751-3.049,0.301-3.859-0.188c-0.667-0.401-1.354-0.815-3.026-0.58c0,0-1.582,0.296-1.788,0.334
					c0.013,0.458,0.31,2.123,3.937,2.852l0.416,0.084l-0.383,0.185c-0.826,0.396-1.833,0.018-2.898-0.383
					c-1.464-0.551-2.98-1.121-4.248,0.185c-0.64,0.661-0.643,1.263-0.532,1.651c0.166,0.58,0.708,1.091,1.322,1.243
					c0.25,0.061,0.716,0.111,1.064-0.253c0.274-0.247,0.361-0.513,0.244-0.746c-0.107-0.211-0.37-0.344-0.595-0.298
					c-0.267,0.053-0.436,0.335-0.466,0.768l-0.011,0.162l-0.159-0.03c-0.299-0.06-0.514-0.262-0.601-0.568
					c-0.13-0.453,0.046-1.021,0.427-1.382c0.234-0.218,0.752-0.548,1.575-0.254c0.526,0.185,1.002,0.501,1.506,0.839
					c1.247,0.83,2.535,1.689,4.915,0.916c1.305-0.437,2.959-1.891,2.959-2.39c-1.179,1.133-3.029,1.245-4.318,1.457
					c-0.577,0.095-1.403,0.027-1.492,0.151c0.149-0.209,0.575-0.287,1.446-0.432c1.289-0.213,3.568-0.457,4.67-1.602
					C43.532,50.418,43.356,49.815,43.188,49.454z"/>
			</g>
		</g>
		<g>
			<g>
				<path d="M58.69,109.067c-1.042-1.768,2.722-3.171,0.523-6.118c0,0.715-3.587,3.094-2.512,5.477
					c1.819,2.949,0.928,4.498-0.418,4.391c-1.346-0.106,1.381-7.186-3.671-7.614c0.345,0.813-0.357,1.621,0.737,3.049
					c1.092,1.427,1.929,3.077,1.113,3.376c-0.817,0.301-0.622-2.535-2.694-2.736c0.008,1.141,1.445,2.284,1.911,3.651
					c0.465,1.368,0.346,3.337-1.315,3.367c-1.173-0.227-0.847-2.081-0.194-3.261c0.652-1.185-0.011-1.524-0.282-1.774
					c0.002,1.096-1.202,1.351-1.202,1.351c1.131-2.246-0.629-3.68-0.731-4.81h-0.033c-0.103,1.13-1.861,2.563-0.732,4.81
					c0,0-1.202-0.255-1.2-1.351c-0.271,0.25-0.936,0.59-0.282,1.774c0.652,1.18,0.979,3.034-0.193,3.261
					c-1.662-0.03-1.782-1.999-1.316-3.367c0.466-1.367,1.903-2.511,1.911-3.651c-2.073,0.201-1.877,3.037-2.694,2.736
					c-0.815-0.299,0.021-1.949,1.114-3.376c1.092-1.428,0.391-2.235,0.736-3.049c-5.052,0.429-2.325,7.508-3.67,7.614
					c-1.347,0.107-2.237-1.441-0.419-4.391c1.076-2.383-2.511-4.762-2.511-5.477c-2.198,2.947,1.566,4.351,0.522,6.118
					c-1.062-2.047-4.536-4.556-5.023-0.522c4.334,1.052,3.458,4.794,6.919,7.776c3.458,2.984,6.101,0.257,6.856,0.257
					c0.674,0,3.395,2.728,6.856-0.257c3.46-2.982,2.584-6.725,6.917-7.776C63.227,104.512,59.752,107.021,58.69,109.067z
					 M44.794,112.64c0-0.076,0-0.145-0.001-0.203C44.794,112.496,44.794,112.564,44.794,112.64
					c-0.001,0.149-0.003,0.329-0.002,0.526c0.008,1.289,0.156,3.361,1.772,3.419c1.988,0.072,3.374-3.301,3.374-3.301
					s1.385,3.373,3.373,3.301c1.617-0.058,1.766-2.13,1.772-3.416c0.001-0.2-0.001-0.379-0.002-0.529c0-0.076,0-0.144,0.001-0.203
					c-0.001,0.059-0.001,0.127-0.001,0.203c0.001,0.15,0.003,0.329,0.002,0.529c-0.007,1.326-0.149,3.533-1.772,3.593
					c-1.988,0.072-3.373-2.733-3.373-2.733s-1.386,2.806-3.374,2.733c-1.623-0.06-1.767-2.267-1.772-3.596
					C44.791,112.969,44.792,112.79,44.794,112.64z M55.258,116.821c-1.975,1.263-4.162,0.072-5.32-0.772
					c-1.16,0.845-3.346,2.035-5.319,0.772c-3.725-2.782-3.157-7.926-6.573-8.713c3.416,0.787,2.848,5.685,6.573,8.465
					c1.974,1.263,4.16,0.073,5.319-0.774c1.158,0.848,3.345,2.037,5.32,0.774c3.724-2.78,3.154-7.678,6.571-8.465
					C58.413,108.896,58.982,114.039,55.258,116.821z"/>
			</g>
		</g>
		<path fill="none" d="M60.761,23.961c0.473-0.005,0.932-0.15,1.269-0.453c0.084-0.077,0.162-0.161,0.229-0.258
			c0.121-0.947-1.978-3.73-3.506-2.062C58.05,22.927,59.46,23.976,60.761,23.961z"/>
		<path fill="none" d="M41.123,21.188c-1.528-1.668-3.625,1.115-3.506,2.062C38.698,24.786,42.145,23.718,41.123,21.188z"/>
		<path d="M56.397,33.708c2.438,0.893,2.58-0.734,1.662-1.47c-1.378,1.719-1.562-0.472-1.387-1.032
			C56.672,31.206,54.57,32.845,56.397,33.708z"/>
		<path d="M66.384,26.205c-0.567,0.028-1.387-0.054-1.387-0.054L64.84,27.84c-2.979-0.94-6.511,3.291-2.146,4.999
			c2.121,0.578,2.854-1.808,2.146-2.476c-1.261-1.263-2.177,0.812-0.81,1.441c-1.592,2.354-4.233-3.584,0.954-3.224
			c4.915,0.825,2.211,8.806-3.703,7.256c-0.555-0.114,0.357,1.619-0.694,2.664c0.94,0.638,1.588,1.22,2.938,0.992
			c1.349-0.226,3.521-0.704,6.25,0.123c-2.927-2.707-7.408-0.97-6.911-2.608c0.43-0.342,3.938,1.002,6.533-0.246
			c2.595-1.249,3.967-3.098,3.971-6.672c-0.232-5.354-1.753-7.865,1.672-8.226c0.603-0.126,2.083-0.085,2.25,1.181
			c0.953-2.509-2.284-4.319-3.927-2.341c-1.339,1.751-1.667-0.016-1.289-0.4c-0.768-0.04-2.565,2.197-0.45,4.872
			c1.6,2.027-0.603,3.367-1.419,0.426c-0.817-2.939-2.139-2.145-2.139-2.145c0.858,0.744-0.294,2.088,1.754,3.196
			c2.05,1.109,2.669,2.552,2.623,3.274c-0.048,0.72-0.172,2.308-0.986,0.464c-0.816-1.846-1.348-1.917-2.402-1.97
			c-0.444,1.68,2.724,2.974,2.327,4.646c-0.412,3.724-4.653,2.95-2.387-0.063c1.167-1.966-1.23-2.458-1.06-4.054
			C68.107,27.358,68.74,26.09,66.384,26.205z"/>
		<path d="M65.113,20.006c-0.241-0.637-0.939-1.083-1.518-1.083C64.173,18.923,64.872,19.369,65.113,20.006z"/>
		<path d="M57.238,19.813c0.564-0.029,1.222,0.277,1.788,1.114C58.46,20.091,57.803,19.784,57.238,19.813z"/>
		<path d="M58.864,23.979c-0.422,0.009-0.973-0.115-1.438-0.132C57.891,23.864,58.442,23.988,58.864,23.979z"/>
		<path d="M60.761,23.961c-1.301,0.015-2.711-1.034-2.008-2.773C58.049,22.927,59.46,23.976,60.761,23.961z"/>
		<path d="M58.612,26.31c1.313-0.063,2.853-1.025,3.515-2.384C61.464,25.284,59.926,26.246,58.612,26.31z"/>
		<path d="M62.893,23.54c0.713,0.703,1.735,1.343,2.166,1.446C64.629,24.883,63.607,24.243,62.893,23.54z"/>
		<path d="M34.75,20.904c0.206,0.596,0.039,1.509,2.23,2.636c-0.712,0.703-1.734,1.343-2.162,1.446c0,0,2.137-0.43,2.929-1.061
			c1.18,2.415,5.127,3.576,5.652,0.661c0.051-1.457-2.253-0.228-2.9-0.741c0.914-1.236,2.855-0.683,3.367-1.983
			c0.644-1.63-1.507-3.164-3.017-0.935c1.302-3.492-2.068-4.657-3.121,1.479c0.165-0.979-0.697-0.128-0.585-2.327
			C37.257,17.878,34.164,19.197,34.75,20.904z M41.123,21.188c1.022,2.53-2.425,3.599-3.506,2.062
			C37.498,22.303,39.595,19.52,41.123,21.188z"/>
		<path d="M57.425,23.848c-0.542-0.021-0.972,0.102-0.949,0.739C56.455,23.949,56.883,23.827,57.425,23.848z"/>
		<path d="M62.03,23.508c-0.337,0.303-0.796,0.448-1.269,0.453C61.234,23.956,61.693,23.811,62.03,23.508z"/>
		<path d="M57.238,19.813c-0.943,0.05-1.632,1.03-1.23,2.049C55.606,20.844,56.296,19.863,57.238,19.813z"/>
		<path d="M62.732,20.079c-0.042-0.825,0.366-1.155,0.863-1.156C63.098,18.924,62.689,19.254,62.732,20.079
			c0.097,1.924-0.55,1.514-0.602,2.038C62.182,21.593,62.829,22.003,62.732,20.079z"/>
		<path d="M56.008,21.862c0.481,1.219,2.216,0.808,3.185,1.772C58.225,22.67,56.49,23.081,56.008,21.862z"/>
		<path d="M56.476,24.587c0.229,1.275,1.115,1.771,2.136,1.723C57.591,26.358,56.706,25.861,56.476,24.587z"/>
		<path d="M59.236,23.924c-0.105,0.039-0.231,0.055-0.373,0.056C59.005,23.979,59.131,23.963,59.236,23.924z"/>
		<path d="M57.238,19.813c-0.942,0.05-1.632,1.03-1.23,2.049c0.481,1.219,2.216,0.808,3.185,1.772
			c0.065,0.063,0.125,0.134,0.183,0.211c-0.041,0.032-0.087,0.059-0.14,0.078c-0.105,0.039-0.231,0.055-0.373,0.056
			c-0.422,0.009-0.973-0.115-1.438-0.132c-0.542-0.021-0.971,0.102-0.949,0.739c0.229,1.274,1.115,1.771,2.136,1.723
			c1.313-0.063,2.852-1.025,3.515-2.384c0.792,0.631,2.931,1.061,2.931,1.061c-0.431-0.104-1.452-0.743-2.166-1.446
			c2.192-1.127,2.026-2.04,2.231-2.636c0.11-0.319,0.091-0.627-0.012-0.898c-0.241-0.637-0.939-1.083-1.518-1.083
			c-0.497,0.001-0.904,0.331-0.863,1.156c0.097,1.924-0.55,1.514-0.602,2.038c-0.009,0.073-0.003,0.169,0.017,0.289
			c-1.052-6.136-4.423-4.971-3.121-1.479C58.46,20.091,57.803,19.784,57.238,19.813z M62.259,23.25
			c-0.067,0.097-0.145,0.181-0.229,0.258c-0.337,0.303-0.796,0.448-1.269,0.453c-1.301,0.015-2.712-1.034-2.008-2.773
			C60.281,19.52,62.379,22.303,62.259,23.25z"/>
		<path d="M57.69,27.739c0,0,0.411-0.483,0.539-0.597c0,0-0.844-0.271-2.19-0.378C56.958,26.883,57.69,27.739,57.69,27.739z"/>
		<path d="M52.706,19.231c2.302,0.505,2.363-2.268,1.426-2.522c-0.938-0.259-1.288,1.409-0.602,1.556
			c-3.078,0.839-2.625-4.367,1.771-2.427c1.495,0.518,2.501,2.003,2.501,2.003c-0.683-5.532-5.897-3.221-6.104-8.385
			c-2.916,4.579,3.15,3.678,3.062,5.166C50.622,13.554,49.231,18.502,52.706,19.231z"/>
		<path d="M95.862,71.364c-0.586-0.112,0.136-2.211-0.578-2.211c-1.41,1.569-0.007,4.623-1.452,6.292
			c-1.445,1.668-1.456-1.283-1.004-2.201c0.449-0.917,2.267-4.446,0.699-7.668c-0.856-1.793-1.435-0.051-1.167,0.534
			c0.268,0.586,0.994,4.634-0.236,2.89c-0.532-2.217-1.38-5.391-4.532-3.687c2.59-0.199,2.082,1.345,2.956,1.85
			c0.875,0.503,0.383,1.092,1.05,1.813c0.703,1.002,0.803,4.99-0.018,7.434c-0.693,1.236,0.614,2.109-1.458,3.718
			c-2.726,1.695-2.234,2.536-4.931,3.37c-2.397,0.223-0.404-1.613-0.229-1.733c1.409-1.568,5.694-0.468,5.266-4.793
			c-0.869,2.068-1.814,2.478-2.795,1.894c1.671-1.032,1.822-2.767,1.604-4.071c-0.681,2.046-1.824,0.957-2.702,3.312
			c-0.525,1.784-2.322,2.595-2.028,1.936c0.294-0.658,1.141-0.722,0.669-2.137c-1.703,0.081-2.338,3.55-5.179,4.735
			c2.362,0.592,3.334-1.776,5.445-2.007c-1.392,1.709-7.1,6.037-11.92,3.057c-0.635-0.489-0.501-1.269,0.341-1.378
			c0.841-0.114,1.922,1.935,3.86,1.486c1.908-0.682,1.125-1.578,1.8-1.857c-1.521,0.727-4.188-0.018-3.253-0.141
			c0.936-0.125,3.146,0.059,3.761-2.499c-0.911,1.024-5.168,2.304-7.978,1.2c0.24,0.729,0.739,2.713,0.149,3.647
			c1.574,0.747,9.8,3.942,9.8,3.942s0.124-0.875,0.722-1.383c-1.207-0.841-6.188-1.466-4.114-1.599
			c2.076-0.134,9.327-0.711,12.39-4.166c5.857-5.731,6.343-11.416,7.796-11.944C96.634,68.928,96.448,71.476,95.862,71.364z"/>
		<path d="M77.208,76.028c0.19-0.357-0.29-0.39-0.533-0.072c-0.725,1.001-1.367,0.466-1.708-0.679
			C74.494,77.817,76.674,77.385,77.208,76.028z"/>
		<path d="M75.926,73.53c0.19-0.359-0.289-0.391-0.533-0.072c-0.724,1.001-1.366,0.468-1.708-0.679
			C73.212,75.318,75.391,74.889,75.926,73.53z"/>
		<path d="M77.96,71.641c0.189-0.359-0.289-0.39-0.533-0.071c-0.725,1.002-1.365,0.466-1.707-0.678
			C75.247,73.431,77.425,72.999,77.96,71.641z"/>
		<path d="M79.183,74.052c0.191-0.358-0.29-0.391-0.534-0.073c-0.724,1.004-1.364,0.467-1.706-0.677
			C76.47,75.84,78.648,75.408,79.183,74.052z"/>
		<path d="M55.663,75.383c-0.922,0.217-3.386-0.79-2.898-1.951c0.098-0.173-0.306-0.696-0.691,0.355
			c-0.613,2.559,2.827,7.174,5.835,5.444c-2.516,0.046-4.923-1.062-5.194-4.386C53.685,75.718,54.375,76.075,55.663,75.383z"/>
		<path d="M55.108,85.223c1.3-3.482-0.478-4.868-1.499-5.399C52.385,82.084,54.807,81.5,55.108,85.223z"/>
		<path d="M60.631,95.139c-0.737,2.014-1.803,2.035-2.326,2.736c-0.79,1.06,0.084,3.158-2.253,2.943
			c-1.488-0.637-0.366-2.237,0.307-2.543c1.887-0.845,2.395-3.125,3.364-3.708c-3.493,0.036-3.602,2.813-4.403,2.872
			c-0.377,0.025-0.146-2.007,1.078-2.646c2.667-1.614,4.354-1.267,5.033-1.715c1.354-0.561,0.997-1.821,1.57-2.16
			c-2.567-0.517-2.83,1.445-4.273,0.971c1.406-2.498,3.597-1.762,4.274-2.399c0.587-0.412,1.52-1.107,0.614-2.728
			c-0.077,1.393-1.285,2.696-3.791,2.814c-2.507,0.117-3.398,0.571-5.219,2.096c-0.695-1.479,2.997-3.422,3.216-5.545
			c-4.243-0.058-4.076,5.875-4.32,6.906c-0.244,1.035-0.813,1.943-0.813,1.943c-1.107-0.808-1.542-1.392-1.602-2.218
			c-0.016-0.832-0.093-1.227,0.274-1.513c0.368-0.286,3.869-4.205,2.183-7.793c-1.725,0.99-2.939,1.344-2.939,1.344
			c0.803,1.393,0.061,2.801,0.213,3.591c0.787-0.343,1.586-2.211,1.735-2.35c0.4,0.686,0.668,2.89-1.885,4.441
			c-0.608,0.272-0.289,2.683-0.289,2.683c0.024,0.544,2.64,3.414,2.64,3.414c0.423-0.58,1.989-6.552,5.825-6.153
			c-0.48,1.229-0.713,1.998-2.211,2.174c1.194,0.222,1.48,0.946,0.366,1.331c-2.735,0.555-4.312,4.501-1.762,7
			c0.565,0.854,4.981,1.508,3.743-2.284C59.088,97.867,61.348,98.043,60.631,95.139z"/>
		<path d="M55.927,102.383c0.211,0.88,1.892,2.441,2.474-0.184C56.891,102.85,55.927,102.383,55.927,102.383z"/>
		<path d="M62.415,102.69c0.701-0.999,2.439-2.062,2.562-3.295c-0.165,0.547-1.213,1.616-2.015,2.033
			c-0.389-0.428,1.034-2.259,1.083-3.504c-0.871,0.067-1.604,1.356-2.134,2.021c-0.531,0.667-0.397,1.863-0.936,1.744
			c-0.54-0.119,0.322-1.877-0.315-3.103c-0.179-0.264-0.52-0.146-0.909,0.144c0.214,0.352,0.419,2.09-0.522,2.714
			c0,0,1.732,0.865,1.568,2.315C61.417,103.608,61.714,103.688,62.415,102.69z"/>
		<path d="M63.884,91.492c-0.839,0.492-0.676,2.089-3.402,2.52c0,0-0.067,0.75,0.594,0.353c0.172-0.144,0.657,1.01,0.863,0.053
			c0.219-1.22,0.445-0.226,1.356-0.347c3.514-0.418,2.092-1.828,2.566-2.555C65.301,91.78,64.723,91,63.884,91.492z"/>
		<path d="M73.601,97.325c-0.252-2.086-3.939-2.624-3.366-2.057c0.575,0.568,0.918,2.263,0.557,3.31
			c-0.247-6.73-7.909-4.27-8.579-2.984c4.489-0.594,4.382,1.66,4.38,2.898c-0.099,1.229,1.258,0.882,1.555-0.302
			c0.101-0.49-0.333-1.266,0.319-1.545c0.653-0.276,1.195,1.13,0.77,1.688c-1.095,1.073-0.069,3.247-1.057,4.235
			c4.425,0.534,3.594-3.404,3.216-4.833c1.185,0.153,1.026,2.366,2.398,3.398C73.206,99.378,73.853,99.411,73.601,97.325z"/>
		<path d="M65.884,97.991c-0.268-4.015-4.545-0.374-4.871,0.216c0,0,0.228,0.279,0.742,0.568c2.701-3.144,3.235-1.262,3.176-0.088
			C65.179,97.868,65.918,98.492,65.884,97.991z"/>
		<path d="M62.479,86.985c-1.217,1.591-2.973-0.18-4.836,1.928C59.086,88.675,60.993,89.421,62.479,86.985z"/>
		<path d="M54.15,120.435c1.434,0.763,2.57,1.805,2.612,2.845c1.398-0.944,1.77-3.866-1.627-5.084
			c1.053,0.928,0.941,1.699,0.941,1.699c-0.861-1.841-2.038-1.825-2.038-1.825l-1.451-0.094
			C53.88,118.755,52.717,119.672,54.15,120.435z"/>
		<path d="M60.74,120.61c0.53-1.025-1.087-4.621-4.205-3.015c1.261-0.168,3.172,0.959,3.486,1.537
			c-0.313-0.578-2.119-1.409-3.382-1.241C57.804,119.794,60.027,119.408,60.74,120.61z"/>
		<path d="M62.919,116.225c-0.853-1.411-2.858-2.908-5.087-0.326c0,0,1.434-1.088,3.123-0.583c-1.68-0.256-2.918,0.727-2.918,0.727
			C59.696,117.44,61.193,115.404,62.919,116.225z"/>
		<path d="M43.113,123.279c0.042-1.04,1.18-2.082,2.613-2.845c1.433-0.763,0.269-1.68,1.562-2.459l-1.452,0.094
			c0,0-1.176-0.016-2.038,1.825c0,0-0.11-0.771,0.942-1.699C41.343,119.413,41.716,122.335,43.113,123.279z"/>
		<path d="M43.237,117.892c-1.263-0.168-3.068,0.663-3.382,1.241c0.314-0.578,2.224-1.705,3.486-1.537
			c-3.12-1.606-4.736,1.989-4.206,3.015C39.85,119.408,42.072,119.794,43.237,117.892z"/>
		<path d="M41.84,116.042c0,0-1.239-0.982-2.919-0.727c1.689-0.505,3.123,0.583,3.123,0.583c-2.229-2.582-4.235-1.085-5.088,0.326
			C38.682,115.404,40.179,117.44,41.84,116.042z"/>
		<path d="M63.825,113.721c1.549,0.56,2.795,1.347,3.868,0.107c3.615-2.526,3.285-9.344-2.843-9.628
			c-1.713-0.01-2.955,0.68-3.903,1.423c1.037-0.088,3.532-0.275,3.654,2.805c1.452,0.901,2.301-0.592,0.807-2.539
			c-0.632-0.821,0.051-1.053,1.132-0.435c1.081,0.62-0.597,4.843,0.313,5.245c2.442,1.202,0.973-3.795,1.406-3.758
			s1.538,2.273,0.759,3.95c-0.776,1.675-1.478,0.338-2.836,0.853c-1.36,0.512-1.23,0.78-2.174,0.477
			c-0.943-0.302-1.051-1.479-0.64-1.964C62.213,110.886,62.277,113.165,63.825,113.721z"/>
		<path d="M95.52,64.287c-0.888-0.238-1.229-4.982-3.612-6.809c-2.383-1.829-7.386-1.88-8.311-3.472
			c-0.666,2.518,6.301,2.309,5.94,3.355c-0.362,1.049-2.754-0.849-5.646,1.035c7.632-0.584,9.822,2.485,9.237,2.921
			c-0.586,0.435-2.3-1.197-3.9-0.343c2.529,0.238,4.609,1.393,5.761,4.168c0.116,1.414-1.144,3.224,0.76,3.043
			c1.904-0.179,0.701-4.951,1.689-6.654C95.36,61.45,96.409,64.528,95.52,64.287z"/>
		<path d="M84.514,74.965c4.232-1.99,3.045-7.192,0.464-6.207c-2.581,0.984,1.268,4.19-1.623,5.002
			c-2.89,0.814-1.37-0.104-1.37-0.104c0.865-0.473,2.026-1.412,1.27-2.812c-0.267,0.678-3.041,2.902-4.266-2.578
			C78.383,70.498,80.28,76.955,84.514,74.965z"/>
		<path d="M84.215,59.212c-0.98-0.941-3.483-0.968-4.488-0.478c-1.006,0.491-1.994,0.776-3.448,2.531
			c-0.003-1.613,3.655-3.688,5.276-3.278c-0.515-0.994-2.06-1.008-4.247-0.289c-4.497-2.689-4.943,3.656-8.999,2.123
			c0.302,1.745,2.832,0.91,3.917,0.48c1.086-0.431,1.441-0.979,2.784-1.084c-3.467,0.86-6.698,7.104-6.698,7.104
			c1.707,0.487,1.581-0.994,2.442-2.041c0.37-0.975,3.298-2.579,3.883-1.94c1.273,2.617-2.87,3.665-3.175,5.137
			c-0.305,1.469,0.777,4.255,3.089,2.305c-0.986-0.439-1.262-0.904-1.262-0.904c1.015-0.42,0.919-1.692,2.196-2.291
			c1.277-0.598,1.27-1.279,1.27-1.279c-0.474-0.43-0.059-1.547,1.936-2.855c0.987-0.633,0.629-1.946,1.739-2.738
			c1.108-0.788,2.627-0.635,3.001,0.031c0.373,0.666-0.434,3.36-4.128,2.8c-1.084,0.559-3.041,1.89-2.323,2.763
			c0.462,0.174,1.259,0.116,2.233-0.215c0,0-1.955,1.402-2.348,1.666c-1.414,0.118-0.571,1.079-2.233,2.013
			c4.464,0.838,4.336-2.291,6.367-4.201c0.462,0.797-0.146,1.59-0.778,2.744c-0.633,1.158,0.505,4.365,1.886,3.467
			c1.38-0.896-0.409-3.089,1.663-5.223c2.074-2.132,2.608-4.453,1.358-5.421c0,0,0.26,3.045-2.315,4.121
			C84.111,63.403,85.195,60.154,84.215,59.212z"/>
		<path d="M16.106,65.559c2.074,2.134,0.286,4.326,1.665,5.223c1.382,0.898,2.519-2.309,1.887-3.467
			c-0.633-1.154-1.241-1.947-0.779-2.744c2.031,1.91,1.903,5.039,6.367,4.201c-1.661-0.934-0.821-1.895-2.233-2.013
			c-0.392-0.264-2.348-1.666-2.348-1.666c0.975,0.331,1.771,0.389,2.232,0.215c0.721-0.873-1.237-2.204-2.322-2.763
			c-3.695,0.561-4.5-2.134-4.126-2.8c0.372-0.666,1.893-0.819,3.001-0.031c1.109,0.792,0.75,2.105,1.739,2.738
			c1.993,1.309,2.409,2.426,1.933,2.855c0,0-0.007,0.682,1.271,1.279c1.277,0.599,1.18,1.871,2.195,2.291
			c0,0-0.275,0.465-1.262,0.904c2.311,1.95,3.394-0.836,3.087-2.305c-0.305-1.472-4.449-2.52-3.174-5.137
			c0.584-0.639,3.512,0.966,3.882,1.94c0.862,1.047,0.737,2.528,2.443,2.041c0,0-3.23-6.244-6.698-7.104
			c1.342,0.105,1.699,0.653,2.782,1.084c1.087,0.43,3.616,1.265,3.918-0.48c-4.057,1.533-4.502-4.812-8.999-2.123
			c-2.188-0.719-3.733-0.705-4.246,0.289c1.62-0.409,5.277,1.665,5.274,3.278c-1.455-1.755-2.443-2.04-3.448-2.531
			c-1.006-0.49-3.507-0.464-4.488,0.478c-0.981,0.942,0.104,4.191,1.402,5.047c-2.575-1.076-2.315-4.121-2.315-4.121
			C13.499,61.105,14.032,63.427,16.106,65.559z"/>
		<path d="M74.522,70.645c-2.494,1.115-3.457,0.313-3.709-0.51c-0.034-2.425-0.222-2.758-1.703-2.633
			c-1.483,0.125-0.442,3.132,1.442,3.884c-2.376,0.387-2.552-2.021-2.952-3.97c-0.4-1.946-1.588-1.218-1.068-3.216
			c-4.705,2.195,0.284,6.464,0.498,8.079c-1.01-0.079-2.205-2.636-4.706-1.59c3.668,1.299,2.516,4.453,7.44,2.302
			c-2.127-0.435-3.733-2.865-3.877-4.49c0.749,0.259,0.978,0.371,1.84,2.043C69.675,73.931,73.525,72.521,74.522,70.645z"/>
		<path d="M84.652,56.582c-2.543,0.194-4.969-1.413-5.474-1.99c-0.503-0.576-0.696-0.407-0.42,0.056
			C80.612,57.331,85.122,57.186,84.652,56.582z"/>
		<path d="M80.205,52.098c-0.139-1.054-1.826-1.4-2.064-2.656c-0.048,1.794-1.627,0.647-0.481,3.923
			C77.974,54.109,80.344,53.152,80.205,52.098z"/>
		<path d="M75.391,49.163c0.353-0.047,0.865,0.6,0.861,1.101c0.809-0.893,0.287-2.682-1.279-2.117
			c-1.569,0.565-1.162,2.015,0.096,2.346C74.274,49.885,75.041,49.21,75.391,49.163z"/>
		<path d="M71.64,51.02c1.781,1.05,1.797,3.332,3.163,3.938c1.393,0.617,2.548,0.376,2.501-1.046
			C77.248,52.137,73.328,50.296,71.64,51.02z"/>
		<path d="M59.933,41.769c-0.439,0.325-0.891,0.663-1.055,1.072c0,0.166-0.007,0.328-0.037,0.487
			c-0.537,2.489-2.092,3.278-3.26,3.199c-0.222-0.015-0.422-0.066-0.603-0.138c0.141,0.332,0.46,0.713,0.95,0.869l0.045-0.012
			c0.005,0.012,0.014,0.023,0.019,0.037c0.637,0.171,1.994,0.054,3.961-2.641c-1.005,2.152-2.865,3.06-3.745,2.967
			c0.164,0.155,0.368,0.248,0.545,0.288c0.888,0.206,2.497-0.268,3.725-1.55c0.527-0.552,0.863-1.113,1.066-1.667l-0.004-0.001
			c0.006-0.018,0.016-0.039,0.023-0.056c0.166-0.471,0.238-0.932,0.238-1.372c0-1.104-0.413-2.05-0.769-2.676
			C60.869,41.051,60.403,41.417,59.933,41.769z"/>
		<path d="M67.102,43.677c-0.17-0.099-0.369-0.101-0.519-0.004c-0.191,0.123-0.277,0.381-0.242,0.727
			c0.047,0.472,0.465,0.563,0.642,0.581c0.579,0.058,1.339-0.326,1.558-1.042c0.119-0.552,0.203-1.958-1.646-2.855
			c-0.629-0.266-1.297-0.253-1.981,0.043c-1.438,0.62-2.617,2.329-3.107,3.652L61.8,44.776c-0.212,0.589-0.561,1.186-1.118,1.767
			c-0.717,0.75-1.634,1.297-2.5,1.542l0.005,0.002c-0.009,0.068,0.064,0.126,0.126,0.159c0.414,0.233,1.682,0.222,2.741-0.628
			c1.058-0.83,1.65-1.9,2.174-2.847c0.452-0.818,0.842-1.525,1.443-1.96c0.919-0.909,2.669-0.905,3.34-0.226
			c0.225,0.228,0.637,0.865-0.365,1.859l-0.263,0.26l0.022-0.369C67.423,44.041,67.311,43.801,67.102,43.677z"/>
		<path d="M41.035,43.328c-0.03-0.159-0.037-0.321-0.036-0.487c-0.165-0.409-0.617-0.747-1.057-1.072
			c-0.47-0.352-0.935-0.718-1.098-1.191c-0.357,0.626-0.77,1.572-0.77,2.676c0,0.44,0.072,0.901,0.237,1.372
			c0.007,0.017,0.016,0.038,0.022,0.056l-0.003,0.001c0.203,0.554,0.54,1.115,1.066,1.667c1.228,1.282,2.836,1.756,3.725,1.55
			c0.177-0.04,0.381-0.133,0.546-0.288c-0.88,0.093-2.741-0.814-3.747-2.967c1.967,2.694,3.325,2.812,3.961,2.641
			c0.006-0.014,0.015-0.025,0.02-0.037l0.043,0.012c0.492-0.156,0.812-0.537,0.952-0.869c-0.179,0.071-0.382,0.123-0.604,0.138
			C43.128,46.606,41.573,45.817,41.035,43.328z"/>
		<path d="M43.752,40.004c0.229-2.551-0.136-4.292-1.054-5.036c-0.678-0.547-1.521-0.445-2.11-0.262
			c-0.966,0.301-1.251,1.29-1.032,2.112c0.145,0.548,0.541,1.044,1.091,0.918c0.347-0.076,0.543-0.253,0.555-0.496
			c0.012-0.225-0.14-0.461-0.338-0.527c-0.175-0.058-0.356,0.033-0.508,0.254l-0.085,0.129l-0.12-0.097
			c-0.288-0.233-0.382-0.528-0.266-0.835c0.195-0.515,0.946-0.922,1.643-0.89c0.657,0.028,1.144,0.438,1.334,1.118
			c0.318,1.135-0.237,2.455-0.775,3.73c-0.486,1.157-0.946,2.248-0.774,3.147c0.499,2.311,1.908,3.046,2.963,2.974
			c0.58-0.04,1.025-0.336,1.095-0.711c-0.879-0.544-2.029-1.791-1.789-4.547c0.106,3.011,1.274,3.948,2.091,4.396
			c1.065,0.585,2.232,0.527,2.745,0.135l0.076-0.059l1.444,0.912l1.443-0.912l0.077,0.059c0.513,0.393,1.679,0.45,2.744-0.135
			c0.818-0.448,1.986-1.386,2.092-4.396c0.24,2.756-0.91,4.003-1.79,4.547c0.071,0.375,0.516,0.671,1.095,0.711
			c1.057,0.072,2.465-0.663,2.964-2.974c0.172-0.899-0.288-1.99-0.774-3.147c-0.538-1.275-1.093-2.596-0.775-3.73
			c0.191-0.681,0.677-1.09,1.336-1.118c0.695-0.032,1.446,0.375,1.642,0.89c0.116,0.307,0.021,0.602-0.265,0.835l-0.119,0.097
			l-0.087-0.129c-0.15-0.221-0.332-0.312-0.508-0.254c-0.198,0.066-0.349,0.303-0.338,0.527c0.013,0.243,0.209,0.42,0.555,0.496
			c0.553,0.126,0.947-0.37,1.093-0.918c0.219-0.822-0.066-1.812-1.032-2.112c-0.589-0.184-1.434-0.285-2.111,0.262
			c-0.919,0.744-1.283,2.485-1.054,5.036c-1.034-1.841-2.217-2.271-2.651-2.417c0.115,0.232,0.18,0.443,0.18,0.634
			c0,0.132-0.017,0.26-0.033,0.396c-0.019,0.149-0.04,0.312-0.04,0.5c0,0.509,0.15,1.22,0.887,2.476
			c0.161,0.304,0.23,0.642,0.23,0.984c0,1.132-0.756,2.34-1.525,2.757c-0.614,0.332-1.188,0.156-1.534-0.472l-0.025-0.044
			l0.01-0.051c0.132-0.754,0.51-1.036,0.875-1.311c0.339-0.253,0.657-0.489,0.802-1.132c0.038-0.166,0.054-0.331,0.054-0.485
			c0-0.762-0.393-1.346-0.614-1.615c-0.086,0.189-0.212,0.354-0.371,0.51c-0.377,0.366-0.844,0.819-0.844,2.087
			c0,0.074,0.002,0.15,0.004,0.23c0.006,0.069,0.01,0.137,0.01,0.202c0,0.852-0.504,1.29-1.006,1.335
			c-0.396,0.036-0.564-0.232-0.595-0.578c-0.032,0.346-0.2,0.614-0.596,0.578c-0.502-0.045-1.006-0.483-1.006-1.335
			c0-0.065,0.004-0.133,0.009-0.202c0.002-0.08,0.004-0.156,0.004-0.23c0-1.268-0.465-1.721-0.843-2.087
			c-0.159-0.155-0.288-0.32-0.371-0.51c-0.221,0.27-0.614,0.854-0.614,1.615c0,0.154,0.017,0.319,0.054,0.485
			c0.144,0.643,0.463,0.879,0.802,1.132c0.365,0.274,0.742,0.557,0.875,1.311l0.01,0.051l-0.024,0.044
			c-0.347,0.628-0.921,0.804-1.535,0.472c-0.77-0.417-1.527-1.625-1.527-2.757c0-0.343,0.072-0.681,0.233-0.984
			c0.735-1.256,0.886-1.967,0.886-2.476c0-0.188-0.021-0.351-0.04-0.5c-0.018-0.136-0.033-0.264-0.033-0.396
			c0-0.19,0.063-0.401,0.178-0.634C45.969,37.732,44.785,38.163,43.752,40.004z"/>
		<path d="M34.963,41.126c-0.685-0.296-1.354-0.309-1.981-0.043c-1.849,0.897-1.766,2.304-1.646,2.855
			c0.218,0.716,0.98,1.1,1.558,1.042c0.178-0.018,0.595-0.109,0.642-0.581c0.035-0.346-0.051-0.604-0.244-0.727
			c-0.15-0.097-0.347-0.095-0.517,0.004c-0.212,0.124-0.322,0.364-0.304,0.659l0.021,0.369l-0.262-0.26
			c-1.002-0.994-0.589-1.632-0.365-1.859c0.671-0.68,2.419-0.684,3.34,0.226c0.601,0.435,0.99,1.142,1.445,1.96
			c0.521,0.946,1.114,2.017,2.172,2.847c1.06,0.85,2.328,0.861,2.742,0.628c0.062-0.033,0.135-0.091,0.125-0.159l0.005-0.002
			c-0.868-0.245-1.783-0.792-2.5-1.542c-0.558-0.581-0.907-1.178-1.119-1.767l-0.006,0.002C37.581,43.455,36.4,41.746,34.963,41.126
			z"/>
		<path d="M49.938,37.309c-0.266,1.465-1.866-0.291,0,5.03C51.804,37.018,50.204,38.773,49.938,37.309z"/>
		<path d="M48.913,28.499c-1.489,0.196-0.896-2.94-2.83-3.161c-1.281,1.865,0.034,3.254,1.906,5.289
			c1.719,2.657-1.268,3.119-2.113-0.208c-0.463-2.17-4.141-3.229-3.839,0.42c2.682-3.004,3.933,3.712,6.484,2.764
			c1.675-0.779,0.332-3.915,1.417-3.271c1.084,0.643-0.258,2.491,1.415,3.271c2.552,0.948,3.804-5.768,6.484-2.764
			c0.303-3.649-3.375-2.59-3.838-0.42c-0.844,3.327-3.832,2.865-2.113,0.208c1.873-2.035,3.188-3.424,1.906-5.289
			c-1.934,0.221-1.341,3.357-2.829,3.161c-0.538-0.287,1.467-3.433-1.024-5.817C47.445,25.066,49.451,28.212,48.913,28.499z"/>
		<path d="M41.818,32.238c-0.919,0.735-0.777,2.362,1.66,1.47c1.828-0.863-0.275-2.502-0.275-2.502
			C43.379,31.767,43.196,33.957,41.818,32.238z"/>
		<path d="M26.51,20.704c-1.642-1.979-4.877-0.168-3.925,2.341c0.167-1.266,1.647-1.307,2.249-1.181
			c3.427,0.36,1.905,2.872,1.674,8.226c0.003,3.574,1.376,5.423,3.971,6.672c2.593,1.248,6.103-0.096,6.533,0.246
			c0.497,1.639-3.984-0.099-6.912,2.608c2.726-0.827,4.899-0.349,6.25-0.123c1.35,0.228,1.997-0.354,2.938-0.992
			c-1.051-1.045-0.141-2.778-0.695-2.664c-5.914,1.55-8.619-6.431-3.703-7.256c5.186-0.36,2.546,5.578,0.954,3.224
			c1.368-0.629,0.452-2.704-0.809-1.441c-0.706,0.668,0.024,3.054,2.146,2.476c4.366-1.708,0.833-5.939-2.145-4.999l-0.159-1.688
			c0,0-0.819,0.082-1.386,0.054c-2.355-0.115-1.722,1.153-1.553,2.746c0.169,1.596-2.226,2.088-1.059,4.054
			c2.267,3.014-1.976,3.787-2.388,0.063c-0.397-1.673,2.771-2.967,2.327-4.646c-1.052,0.053-1.585,0.124-2.402,1.97
			c-0.814,1.844-0.937,0.256-0.984-0.464c-0.047-0.723,0.571-2.165,2.622-3.274c2.05-1.108,0.895-2.452,1.755-3.196
			c0,0-1.322-0.795-2.14,2.145c-0.818,2.941-3.018,1.602-1.419-0.426c2.115-2.675,0.317-4.912-0.449-4.872
			C28.178,20.688,27.849,22.455,26.51,20.704z"/>
		<path d="M43.838,26.765c-1.347,0.106-2.191,0.378-2.191,0.378c0.127,0.113,0.541,0.597,0.541,0.597S42.919,26.883,43.838,26.765z"
			/>
		<path d="M48.178,9.456c-0.208,5.164-5.421,2.853-6.105,8.385c0,0,1.005-1.485,2.501-2.003c4.396-1.94,4.848,3.266,1.773,2.427
			c0.684-0.146,0.335-1.814-0.604-1.556c-0.937,0.255-0.876,3.027,1.428,2.522c3.475-0.729,2.082-5.678-2.056-4.609
			C45.027,13.134,51.092,14.035,48.178,9.456z"/>
		<path d="M9.076,80.944c3.064,3.455,10.315,4.032,12.39,4.166c2.076,0.133-2.907,0.758-4.111,1.599
			c0.599,0.508,0.72,1.383,0.72,1.383s8.227-3.195,9.799-3.942c-0.588-0.935-0.089-2.918,0.151-3.647
			c-2.81,1.104-7.067-0.176-7.978-1.2c0.613,2.558,2.826,2.374,3.762,2.499c0.934,0.123-1.733,0.867-3.255,0.141
			c0.676,0.279-0.107,1.176,1.801,1.857c1.938,0.448,3.019-1.601,3.86-1.486c0.841,0.109,0.976,0.889,0.341,1.378
			c-4.819,2.98-10.527-1.348-11.92-3.057c2.111,0.23,3.083,2.599,5.444,2.007c-2.84-1.186-3.476-4.654-5.179-4.735
			c-0.473,1.415,0.375,1.479,0.668,2.137c0.294,0.659-1.501-0.151-2.027-1.936c-0.877-2.355-2.021-1.267-2.703-3.312
			c-0.221,1.305-0.069,3.039,1.603,4.071c-0.981,0.584-1.926,0.175-2.795-1.894c-0.429,4.325,3.856,3.225,5.267,4.793
			c0.174,0.12,2.167,1.956-0.23,1.733c-2.697-0.834-2.205-1.675-4.932-3.37c-2.071-1.608-0.766-2.481-1.459-3.718
			c-0.818-2.443-0.718-6.432-0.015-7.434c0.666-0.722,0.173-1.311,1.048-1.813c0.876-0.505,0.366-2.049,2.957-1.85
			c-3.153-1.704-4,1.47-4.532,3.687c-1.23,1.744-0.504-2.304-0.235-2.89c0.268-0.585-0.312-2.327-1.168-0.534
			c-1.567,3.222,0.25,6.751,0.7,7.668c0.448,0.918,0.439,3.869-1.005,2.201c-1.445-1.669-0.042-4.723-1.453-6.292
			c-0.714,0,0.009,2.099-0.577,2.211C3.428,71.476,3.241,68.928,1.282,69C2.735,69.528,3.219,75.213,9.076,80.944z"/>
		<path d="M24.907,75.277c-0.341,1.145-0.981,1.68-1.706,0.679c-0.243-0.317-0.723-0.285-0.533,0.072
			C23.202,77.385,25.381,77.817,24.907,75.277z"/>
		<path d="M26.19,72.779c-0.341,1.146-0.982,1.68-1.707,0.679c-0.244-0.318-0.724-0.287-0.534,0.072
			C24.484,74.889,26.664,75.318,26.19,72.779z"/>
		<path d="M22.449,71.569c-0.242-0.318-0.724-0.288-0.533,0.071c0.534,1.358,2.713,1.79,2.239-0.749
			C23.814,72.035,23.173,72.571,22.449,71.569z"/>
		<path d="M22.933,73.302c-0.341,1.144-0.982,1.681-1.706,0.677c-0.245-0.317-0.725-0.285-0.535,0.073
			C21.228,75.408,23.406,75.84,22.933,73.302z"/>
		<path d="M51.758,68.518c-0.64-0.201-1.021,0.914-1.819,1.021c-0.8,0.108-1.18-1.223-1.82-1.021
			c-1.197,0.412-0.978,2.537-2.309,2.885c1.562,1.327,2.334-1.285,2.827-0.864c0.595,0.724-1.417,1.739,1.303,4.386
			c2.718-2.646,0.707-3.662,1.302-4.386c0.491-0.421,1.264,2.191,2.825,0.864C52.737,71.055,52.954,68.93,51.758,68.518z"/>
		<path d="M47.801,73.787c-0.383-1.052-0.79-0.528-0.69-0.355c0.488,1.161-1.978,2.168-2.897,1.951
			c1.287,0.692,1.976,0.335,2.948-0.537c-0.272,3.323-2.679,4.432-5.194,4.386C44.973,80.961,48.415,76.346,47.801,73.787z"/>
		<path d="M49.938,81.371c-0.265,0.013-1.394-1.864-2.651-1.889c1.203,1.519-1.222,3.069,2.651,4.368
			c3.872-1.299,1.448-2.85,2.65-4.368C51.331,79.507,50.202,81.357,49.938,81.371z"/>
		<path d="M44.767,85.223c0.301-3.723,2.724-3.139,1.499-5.399C45.245,80.354,43.467,81.74,44.767,85.223z"/>
		<path d="M46.858,96.576c0,0,2.616-2.87,2.64-3.414c0,0,0.318-2.41-0.288-2.683c-2.555-1.552-2.287-3.756-1.886-4.441
			c0.148,0.139,0.948,2.007,1.734,2.35c0.151-0.79-0.59-2.198,0.215-3.591c0,0-1.216-0.354-2.94-1.344
			c-1.688,3.588,1.815,7.507,2.18,7.793c0.367,0.286,0.292,0.681,0.277,1.513c-0.061,0.826-0.497,1.41-1.602,2.218
			c0,0-0.569-0.908-0.813-1.943c-0.244-1.031-0.079-6.964-4.32-6.906c0.218,2.123,3.91,4.066,3.215,5.545
			c-1.819-1.524-2.711-1.979-5.217-2.096c-2.507-0.118-3.714-1.422-3.791-2.814c-0.904,1.62,0.026,2.315,0.614,2.728
			c0.676,0.638,2.867-0.099,4.274,2.399c-1.442,0.475-1.706-1.487-4.272-0.971c0.573,0.339,0.216,1.6,1.57,2.16
			c0.678,0.448,2.365,0.101,5.031,1.715c1.224,0.64,1.455,2.672,1.079,2.646c-0.803-0.059-0.911-2.836-4.403-2.872
			c0.97,0.583,1.478,2.863,3.363,3.708c0.674,0.306,1.794,1.906,0.306,2.543c-2.335,0.215-1.463-1.884-2.25-2.943
			c-0.523-0.701-1.591-0.723-2.328-2.736c-0.717,2.904,1.542,2.729,1.654,3.505c-1.238,3.792,3.178,3.138,3.743,2.284
			c2.549-2.499,0.971-6.445-1.763-7c-1.114-0.385-0.829-1.109,0.367-1.331c-1.5-0.176-1.731-0.944-2.211-2.174
			C44.87,90.024,46.436,95.996,46.858,96.576z"/>
		<path d="M49.938,100.64c2.194,1.305,2.7-0.988,3.278-1.66c-1.208-1.032-2.437,1.18-2.991,0.585
			c-0.275-0.271,1.053-2.207-0.287-3.529c-1.341,1.322-0.014,3.258-0.288,3.529c-0.554,0.595-1.784-1.617-2.991-0.585
			C47.237,99.651,47.743,101.944,49.938,100.64z"/>
		<path d="M55.518,104.51c-0.002-1.453-0.659-2.462-2.265-2.915c-2.476-0.554-2.7,2.695-3.314-0.004v0.033
			c-0.617,2.7-0.839-0.583-3.316-0.029c-1.606,0.453-2.262,1.462-2.265,2.915c3.301-2.47,3.551,0.592,5.581,0.592
			C51.982,105.102,52.218,102.04,55.518,104.51z"/>
		<path d="M43.95,102.383c0,0-0.967,0.467-2.475-0.184C42.057,104.824,43.737,103.263,43.95,102.383z"/>
		<path d="M40.647,101.445c-0.94-0.624-0.735-2.362-0.521-2.714c-0.391-0.29-0.731-0.407-0.909-0.144
			c-0.637,1.226,0.225,2.983-0.315,3.103c-0.539,0.119-0.404-1.077-0.935-1.744c-0.531-0.665-1.264-1.954-2.136-2.021
			c0.048,1.245,1.472,3.076,1.083,3.504c-0.802-0.417-1.851-1.486-2.015-2.033c0.123,1.233,1.861,2.296,2.562,3.295
			c0.701,0.997,0.996,0.918,1.619,1.07C38.915,102.311,40.647,101.445,40.647,101.445z"/>
		<path d="M36.579,94.07c0.912,0.121,1.137-0.873,1.357,0.347c0.206,0.957,0.693-0.196,0.864-0.053
			c0.661,0.397,0.594-0.353,0.594-0.353c-2.727-0.431-2.563-2.027-3.403-2.52c-0.838-0.492-1.417,0.288-1.976,0.023
			C34.489,92.242,33.066,93.652,36.579,94.07z"/>
		<path d="M37.661,95.594c-0.669-1.285-8.33-3.746-8.577,2.984c-0.362-1.047-0.019-2.741,0.556-3.31
			c0.574-0.567-3.112-0.029-3.364,2.057c-0.252,2.086,0.395,2.053-0.194,3.809c1.374-1.032,1.214-3.245,2.399-3.398
			c-0.379,1.429-1.209,5.367,3.216,4.833c-0.987-0.988,0.037-3.162-1.058-4.235c-0.426-0.558,0.116-1.964,0.77-1.688
			c0.653,0.279,0.217,1.055,0.319,1.545c0.294,1.184,1.654,1.53,1.553,0.302C33.279,97.254,33.173,95,37.661,95.594z"/>
		<path d="M34.946,98.688c-0.059-1.174,0.476-3.056,3.176,0.088c0.514-0.289,0.741-0.568,0.741-0.568
			c-0.325-0.59-4.604-4.23-4.872-0.216C33.957,98.492,34.696,97.868,34.946,98.688z"/>
		<path d="M37.397,86.985c1.487,2.436,3.394,1.689,4.836,1.928C40.37,86.806,38.614,88.576,37.397,86.985z"/>
		<path d="M36.509,110.257c0.411,0.484,0.304,1.662-0.641,1.964c-0.945,0.304-0.814,0.035-2.173-0.477
			c-1.36-0.515-2.06,0.822-2.836-0.853c-0.779-1.677,0.326-3.913,0.759-3.95c0.434-0.037-1.035,4.96,1.406,3.758
			c0.91-0.402-0.768-4.625,0.313-5.245c1.081-0.618,1.763-0.387,1.131,0.435c-1.494,1.947-0.646,3.44,0.807,2.539
			c0.122-3.08,2.618-2.893,3.652-2.805c-0.948-0.743-2.188-1.433-3.903-1.423c-6.126,0.284-6.459,7.102-2.842,9.628
			c1.073,1.239,2.319,0.452,3.867-0.107C37.599,113.165,37.663,110.886,36.509,110.257z"/>
		<path d="M49.938,117.428c-0.099,2.178-2.711,2.497-2.752,4.97c0.093,1.822,1.698,2.276,2.045,5.418
			c0.064,0.578,0.093,1.443,0.708,1.443c0.613,0,0.64-0.865,0.707-1.443c0.345-3.142,1.951-3.596,2.043-5.418
			C52.647,119.925,50.036,119.605,49.938,117.428z"/>
		<path d="M4.125,68.187c1.904,0.181,0.644-1.629,0.76-3.043c1.152-2.775,3.232-3.93,5.761-4.168
			c-1.6-0.854-3.314,0.777-3.899,0.343c-0.585-0.436,1.605-3.505,9.237-2.921c-2.891-1.884-5.283,0.014-5.644-1.035
			c-0.361-1.047,6.605-0.838,5.94-3.355c-0.924,1.592-5.928,1.643-8.311,3.472c-2.383,1.826-2.724,6.57-3.612,6.809
			c-0.889,0.241,0.162-2.837-1.919-2.755C3.425,63.235,2.223,68.008,4.125,68.187z"/>
		<path d="M15.361,74.965c4.234,1.99,6.131-4.467,5.526-6.699c-1.225,5.48-4,3.256-4.267,2.578c-0.756,1.4,0.405,2.34,1.269,2.812
			c0,0,1.521,0.918-1.37,0.104c-2.89-0.812,0.959-4.018-1.622-5.002C12.316,67.772,11.128,72.975,15.361,74.965z"/>
		<path d="M32.148,70.544c0.863-1.672,1.092-1.784,1.841-2.043c-0.144,1.625-1.75,4.056-3.876,4.49
			c4.925,2.151,3.772-1.003,7.44-2.302c-2.501-1.046-3.696,1.511-4.705,1.59c0.213-1.615,5.202-5.884,0.498-8.079
			c0.52,1.998-0.668,1.27-1.068,3.216c-0.4,1.949-0.576,4.356-2.952,3.97c1.884-0.752,2.924-3.759,1.441-3.884
			s-1.669,0.208-1.705,2.633c-0.251,0.823-1.214,1.625-3.706,0.51C26.351,72.521,30.201,73.931,32.148,70.544z"/>
		<path d="M15.224,56.582c-0.47,0.604,4.041,0.749,5.896-1.935c0.274-0.463,0.083-0.632-0.422-0.056
			C20.193,55.169,17.768,56.776,15.224,56.582z"/>
		<path d="M19.671,52.098c-0.139,1.055,2.232,2.012,2.544,1.267c1.147-3.275-0.431-2.129-0.479-3.923
			C21.498,50.697,19.811,51.044,19.671,52.098z"/>
		<path d="M24.807,50.492c1.258-0.331,1.663-1.78,0.096-2.346c-1.566-0.564-2.088,1.225-1.279,2.117
			c-0.006-0.501,0.508-1.147,0.859-1.101C24.835,49.21,25.603,49.885,24.807,50.492z"/>
		<path d="M22.571,53.912c-0.045,1.422,1.109,1.663,2.503,1.046c1.364-0.606,1.381-2.889,3.162-3.938
			C26.547,50.296,22.627,52.137,22.571,53.912z"/>
		<circle cx="49.938" cy="35.248" r="1.039"/>
		<circle cx="49.961" cy="67.244" r="1.015"/>
		<ellipse cx="49.938" cy="79.05" rx="0.991" ry="0.732"/>
		<path d="M52.297,46.676c-0.159,0.021-0.313,0.06-0.465,0.115c1.551,0.939,1.377,8.956,3.003,10.457
			c1.199,0.15,2.052,0.334,2.642,0.652c0,0,1.261-1.067-0.717-2.616c0.348-0.069,0.835-0.175,1.153-0.178
			c-2.063-3.384-1.558-4.044-2.426-5.876c-0.933-1.903-1.958-2.558-2.884-2.573c2.317,1.337,1.74,5.796,3.37,7.866
			C54.343,52.453,54.614,48.012,52.297,46.676z"/>
		<path d="M57.145,61.232c-0.306,0.714-0.212,1.563-0.418,2.704C57.992,63.143,57.709,61.9,57.145,61.232z"/>
		<path d="M61.235,63.544c0.993-1.133,1.304-0.387,2.915-2.243c1.003-1.313,0.139-2.735,0.919-3.838
			c-1.408,0.688-2.666,1.426-3.051,2.833c0.083-3.154-1.647-5.302-4.735-4.894c1.865,1.682,0.595,2.727,0.595,2.727
			c0.495,0.41,0.68,1.135,0.468,1.918c-0.093-1.594-0.749-2.116-3.175-2.465c0.007,0.068,0.033,0.128,0.033,0.197
			c0,0.202-0.02,0.411-0.041,0.616c-0.022,0.202-0.041,0.397-0.041,0.581c0,0.3-0.106,0.442,0.088,0.609
			c1.041-0.229,2.214,0.598,2.622,0.775c-0.241,0.19-0.414,0.389-0.543,0.595c0.603,0.622,1.073,2.42-0.612,3.221
			c-0.048,0.229-0.109,0.466-0.19,0.718c2.054-0.129,3.892-0.807,4.689-3.414C60.909,62.158,61.235,63.544,61.235,63.544z"/>
		<path d="M50.127,48.655v7.649c0,0,1.7,1.572,1.674,3.004c0.166-0.447,0.405-0.355,0.868-0.631
			c0.304,0.781,0.581,1.386,0.629,1.985c0.607-0.516,1.126-0.82,1.588-0.982c-0.273-0.595,0.152-1.338-0.042-2.224
			c-1.948-1.717-1.665-9.644-3.216-10.582c-0.121,0.055-0.237,0.12-0.349,0.189c0.827,3.647,0.431,5.962,0.969,7.881
			c-0.541-1.928-0.356-4.044-1.2-7.721C50.562,47.59,50.361,48.226,50.127,48.655z"/>
		<path d="M51.737,59.947l0.694-0.684C52.006,59.521,51.869,59.473,51.737,59.947z"/>
		<path d="M49.938,64.088c0.078,2.037,6.414,3.2,6.396-0.18c0.028-3.029,1.031-3.544,1.031-3.544
			c-1.176-0.438-2.204-1.184-4.097,0.688c-0.016,1.263-0.606,2.235-1.151,2.629c0.886-1.229,1.216-2.836,0.314-4.418l-0.694,0.684
			c-0.243-2.03-1.799-3.176-1.799-3.176V64.088z"/>
		<path d="M72.144,76.962c-2.861-0.049-3.256-2.499-3.256-2.499s-0.683,0.232-1.473,0.196c-0.665,1.445,0.451,3.941,0.451,3.941
			c-0.873-1.743-3.711-1.081-4.384-1.848c-3.023-2.889-4.736-5.591-7.305-9.893c1.007-0.493,2.902,1.973,4.349,0.494
			c-3.385,0.242-2.809-1.674-4.073-2.353c-0.276,0.675-0.871,1.091-1.604,1.298c2.065,9.371,8.511,13.712,4.376,16.589
			c3.375,0.696,2.937-1.531,2.888-2.455c0.434,0.587,0.921-0.048,1.583,0.649c-0.216-3.259-2.041-1.943-4.188-5.231
			c-1.542-1.942-0.035-2.427,1.254-1.311c1.289,1.114,0.503,2.72,2.989,3.176c1.608,0.287-0.348,2.762,3.98,4.188
			c-0.55-0.928,0.202-1.169-0.722-2.762c3.238,2.356,1.354,6.467-0.357,6.478c-1.192,0.157-1.153-1.705-1.744-0.77
			c-0.901,3.978,5.519,3.413,4.823-1.853c0,0,0.833-0.183,1.312,1.825c1.729-4.729-3.26-5.212-2.787-9.205
			C69.891,77.19,70.347,79.558,72.144,76.962z"/>
		<path d="M47.273,46.657c-0.926,0.016-1.952,0.67-2.885,2.573c-0.868,1.832-0.363,2.492-2.426,5.876
			c0.319,0.003,0.805,0.108,1.153,0.178c-1.977,1.549-0.717,2.616-0.717,2.616c0.59-0.318,1.444-0.502,2.643-0.652
			c1.626-1.501,1.451-9.518,3.002-10.457c-0.15-0.056-0.305-0.094-0.464-0.115c-2.318,1.336-2.047,5.777-3.676,7.848
			C45.531,52.453,44.956,47.994,47.273,46.657z"/>
		<path d="M43.151,63.937c-0.208-1.141-0.116-1.99-0.421-2.704C42.167,61.9,41.884,63.143,43.151,63.937z"/>
		<path d="M43.387,64.895c-0.081-0.252-0.14-0.489-0.19-0.718c-1.684-0.801-1.213-2.599-0.611-3.221
			c-0.128-0.206-0.301-0.404-0.542-0.595c0.406-0.178,1.579-1.004,2.621-0.775c0.193-0.167,0.089-0.31,0.089-0.609
			c0-0.184-0.02-0.379-0.041-0.581c-0.02-0.205-0.041-0.414-0.041-0.616c0-0.069,0.028-0.129,0.034-0.197
			c-2.428,0.349-3.084,0.871-3.176,2.465c-0.212-0.783-0.027-1.508,0.469-1.918c0,0-1.27-1.045,0.593-2.727
			c-3.087-0.408-4.817,1.739-4.734,4.894c-0.385-1.407-1.644-2.146-3.051-2.833c0.781,1.103-0.084,2.524,0.919,3.838
			c1.61,1.856,1.922,1.11,2.915,2.243c0,0,0.327-1.386,0.059-2.063C39.497,64.088,41.333,64.766,43.387,64.895z"/>
		<path d="M48.249,46.875c-1.552,0.938-1.269,8.865-3.216,10.582c-0.195,0.886,0.229,1.629-0.043,2.224
			c0.461,0.162,0.982,0.467,1.59,0.982c0.048-0.6,0.324-1.204,0.627-1.985c0.463,0.275,0.703,0.184,0.868,0.631
			c-0.024-1.432,1.674-3.004,1.674-3.004v-7.649c-0.234-0.43-0.434-1.065-0.919-1.431c-0.844,3.677-0.661,5.793-1.201,7.721
			c0.538-1.919,0.141-4.233,0.969-7.881C48.485,46.995,48.368,46.93,48.249,46.875z"/>
		<path d="M48.139,59.947l-0.694-0.684c-0.903,1.582-0.573,3.188,0.313,4.418c-0.544-0.394-1.135-1.366-1.15-2.629
			c-1.893-1.872-2.921-1.126-4.097-0.688c0,0,1.003,0.515,1.031,3.544c-0.02,3.38,6.317,2.217,6.397,0.18v-7.316
			C49.938,56.771,48.381,57.917,48.139,59.947z"/>
		<path d="M31.62,75.619c0.472,3.993-4.517,4.476-2.788,9.205c0.481-2.008,1.312-1.825,1.312-1.825
			c-0.696,5.266,5.724,5.83,4.822,1.853c-0.589-0.936-0.551,0.927-1.742,0.77c-1.711-0.011-3.596-4.121-0.357-6.478
			c-0.924,1.593-0.172,1.834-0.723,2.762c4.329-1.427,2.372-3.901,3.981-4.188c2.485-0.456,1.698-2.062,2.988-3.176
			c1.289-1.116,2.794-0.632,1.253,1.311c-2.147,3.288-3.972,1.973-4.188,5.231c0.663-0.697,1.15-0.062,1.584-0.649
			c-0.051,0.924-0.488,3.151,2.887,2.455c-4.134-2.877,2.311-7.218,4.376-16.589c-0.732-0.207-1.329-0.623-1.604-1.298
			c-1.265,0.679-0.688,2.595-4.072,2.353c1.445,1.479,3.343-0.987,4.347-0.494c-2.566,4.302-4.282,7.004-7.303,9.893
			c-0.671,0.767-3.511,0.104-4.383,1.848c0,0,1.114-2.496,0.45-3.941c-0.791,0.036-1.474-0.196-1.474-0.196s-0.396,2.45-3.257,2.499
			C29.529,79.558,29.985,77.19,31.62,75.619z"/>
		<path d="M19.31,122.205c0.111-0.391,0.109-0.991-0.531-1.652c-1.267-1.307-2.783-0.736-4.248-0.186
			c-1.066,0.4-2.072,0.779-2.899,0.382l-0.382-0.184l0.416-0.083c3.626-0.727,3.924-2.394,3.934-2.853
			c-0.203-0.039-1.786-0.334-1.786-0.334c-1.67-0.236-2.358,0.178-3.025,0.58c-0.812,0.488-1.591,0.937-3.86,0.187
			c-0.037,0.045-0.081,0.094-0.081,0.122c0,0.002,0,0.007,0,0.011c0.018,0.101,0.272,0.205,0.382,0.248
			c1.177,0.573,1.992,0.395,2.779,0.222c0.54-0.118,1.098-0.239,1.74-0.117c-0.585-0.112-1.145,0.275-1.679,0.395
			c-0.835,0.184-1.698,0.371-2.957-0.239c-0.131-0.054-0.306-0.132-0.424-0.25c-0.17,0.359-0.347,0.963,0.134,1.332
			c1.103,1.145,3.381,1.388,4.671,1.602c0.872,0.145,1.296,0.222,1.445,0.432c-0.087-0.123-0.915-0.057-1.49-0.152
			c-1.292-0.211-3.141-0.323-4.318-1.454c0,0.495,1.654,1.951,2.959,2.387c2.378,0.774,3.667-0.085,4.914-0.915
			c0.504-0.336,0.981-0.655,1.505-0.84c0.825-0.291,1.341,0.036,1.576,0.255c0.381,0.36,0.556,0.929,0.428,1.382
			c-0.088,0.307-0.302,0.51-0.602,0.567l-0.157,0.032l-0.012-0.16c-0.03-0.435-0.2-0.717-0.466-0.77
			c-0.227-0.045-0.487,0.086-0.595,0.298c-0.117,0.232-0.031,0.498,0.243,0.744c0.349,0.364,0.815,0.313,1.063,0.252
			C18.6,123.293,19.144,122.782,19.31,122.205z"/>
		<path d="M82.953,123.192c0.272-0.246,0.36-0.512,0.241-0.744c-0.107-0.212-0.368-0.343-0.594-0.298
			c-0.266,0.053-0.436,0.335-0.467,0.77l-0.011,0.16l-0.157-0.032c-0.3-0.058-0.514-0.261-0.602-0.567
			c-0.129-0.453,0.047-1.021,0.428-1.382c0.234-0.219,0.751-0.546,1.575-0.255c0.525,0.185,1.001,0.504,1.506,0.84
			c1.246,0.83,2.536,1.689,4.914,0.915c1.304-0.436,2.958-1.892,2.958-2.387c-1.177,1.131-3.027,1.243-4.319,1.454
			c-0.575,0.096-1.402,0.029-1.49,0.152c0.149-0.21,0.574-0.287,1.444-0.432c1.29-0.214,3.57-0.457,4.671-1.602
			c0.48-0.369,0.305-0.973,0.134-1.332c-0.118,0.118-0.292,0.196-0.423,0.25c-1.257,0.61-2.122,0.423-2.958,0.239
			c-0.533-0.119-1.092-0.507-1.678-0.395c0.643-0.122,1.2-0.001,1.74,0.117c0.788,0.173,1.603,0.352,2.779-0.222
			c0.11-0.043,0.364-0.147,0.381-0.248c0.001-0.004,0.001-0.009,0.001-0.011c0-0.028-0.045-0.077-0.082-0.122
			c-2.268,0.75-3.047,0.302-3.859-0.187c-0.666-0.402-1.354-0.816-3.025-0.58c0,0-1.583,0.295-1.787,0.334
			c0.011,0.459,0.309,2.126,3.935,2.853l0.416,0.083l-0.382,0.184c-0.827,0.397-1.833,0.019-2.899-0.382
			c-1.464-0.551-2.98-1.121-4.247,0.186c-0.64,0.661-0.644,1.262-0.53,1.652c0.165,0.577,0.708,1.088,1.322,1.239
			C82.137,123.506,82.604,123.557,82.953,123.192z"/>
		<path fill="none" d="M66.521,4.762c2.889,0.812,1.369-0.104,1.369-0.104c-0.865-0.474-2.026-1.413-1.27-2.814
			c0.255,0.647,2.779,2.688,4.078-1.842h-0.963c-0.269,1.202-1.063,2.367-1.965,1.782c-0.597-0.387-0.6-1.02-0.581-1.782h-1.837
			C66.962,1.189,63.835,4.01,66.521,4.762z"/>
		<path fill="none" d="M79.324,2.387c1.746,0.282,2.303-0.942,2.635-2.385h-0.588C81.11,0.916,80.344,1.979,79.324,2.387z"/>
		<path fill="none" d="M99.062,0.002c0.25,0.242,0.521,0.492,0.877,0.539V0.002H99.062z"/>
		<path fill="none" d="M91.122,90.187c-1.527-1.668-3.625,1.114-3.506,2.061c0.068,0.097,0.146,0.184,0.229,0.26
			c0.337,0.304,0.795,0.448,1.27,0.454C90.415,92.974,91.826,91.924,91.122,90.187z"/>
		<path fill="none" d="M10.761,92.961c0.474-0.006,0.932-0.15,1.27-0.454c0.084-0.076,0.162-0.163,0.229-0.26
			c0.12-0.946-1.979-3.729-3.506-2.061C8.051,91.924,9.461,92.974,10.761,92.961z"/>
		<path fill="none" d="M83.103,138h0.798c0.041-0.173,0.073-0.342,0.087-0.5C83.61,137.63,83.365,137.725,83.103,138z"/>
		<path fill="none" d="M-0.061,0.002v0.539c0.354-0.047,0.626-0.297,0.876-0.539H-0.061z"/>
		<path fill="none" d="M15.975,138h0.798c-0.261-0.275-0.507-0.37-0.885-0.5C15.902,137.658,15.934,137.827,15.975,138z"/>
		<path d="M36.333,9.107c-0.525,1.786-2.321,2.595-2.028,1.937c0.293-0.659,1.142-0.723,0.67-2.137
			c-1.703,0.081-2.338,3.548-5.179,4.734c2.362,0.594,3.333-1.775,5.445-2.007c-1.392,1.709-7.1,6.038-11.921,3.056
			c-0.635-0.487-0.5-1.269,0.342-1.378c0.842-0.112,1.922,1.935,3.862,1.487c1.907-0.681,1.123-1.578,1.799-1.858
			c-1.521,0.728-4.189-0.015-3.254-0.14c0.936-0.123,3.147,0.06,3.761-2.5c-0.911,1.025-5.167,2.306-7.977,1.2
			c0.239,0.732,0.739,2.715,0.148,3.649c1.574,0.745,9.799,3.94,9.799,3.94s0.124-0.873,0.722-1.381
			c-1.206-0.841-6.188-1.467-4.113-1.6c2.077-0.131,9.327-0.712,12.391-4.166c5.858-5.731,6.341-11.417,7.796-11.943
			c-1.962-0.073-2.147,2.476-2.733,2.363s0.136-2.208-0.578-2.208c-1.41,1.566-0.007,4.62-1.452,6.29
			c-1.445,1.667-1.455-1.286-1.004-2.202c0.289-0.591,1.142-2.266,1.297-4.243H42.81c-0.036,0.492-0.224,0.656-0.685,0h-0.513
			c0.689,1.037,0.782,4.983-0.031,7.409c-0.692,1.236,0.613,2.111-1.46,3.719c-2.725,1.695-2.232,2.534-4.93,3.369
			c-2.397,0.223-0.404-1.614-0.229-1.734c1.41-1.566,5.695-0.468,5.266-4.794c-0.868,2.07-1.813,2.48-2.795,1.896
			c1.672-1.031,1.824-2.764,1.604-4.07C38.354,7.84,37.211,6.751,36.333,9.107z"/>
		<path d="M27.208,7.029c0.19-0.358-0.29-0.391-0.533-0.072c-0.724,1.002-1.366,0.468-1.708-0.678
			C24.494,8.821,26.675,8.388,27.208,7.029z"/>
		<path d="M23.686,3.781c-0.474,2.54,1.706,2.108,2.24,0.751c0.19-0.36-0.29-0.391-0.533-0.072
			C24.668,5.461,24.028,4.926,23.686,3.781z"/>
		<path d="M27.96,2.644c0.189-0.36-0.29-0.393-0.532-0.072c-0.725,1-1.367,0.466-1.707-0.68C25.247,4.433,27.426,3.999,27.96,2.644z
			"/>
		<path d="M26.943,4.302c-0.473,2.54,1.705,2.108,2.241,0.749c0.19-0.355-0.291-0.388-0.533-0.07
			C27.927,5.982,27.285,5.447,26.943,4.302z"/>
		<path d="M2.766,4.435c0.097-0.174-0.307-0.697-0.692,0.354c-0.613,2.558,2.828,7.176,5.834,5.442
			C5.393,10.28,2.987,9.17,2.714,5.846c0.971,0.871,1.662,1.232,2.949,0.538C4.741,6.603,2.276,5.595,2.766,4.435z"/>
		<path d="M3.61,10.826c-1.224,2.258,1.197,1.676,1.5,5.397C6.41,12.74,4.63,11.355,3.61,10.826z"/>
		<path d="M6.997,24.931c-2.734,0.553-4.311,4.5-1.762,6.999c0.565,0.853,4.981,1.507,3.743-2.286
			c0.111-0.774,2.37-0.599,1.653-3.503c-0.736,2.014-1.804,2.035-2.326,2.736c-0.788,1.058,0.083,3.156-2.252,2.943
			c-1.488-0.637-0.367-2.238,0.306-2.542c1.887-0.847,2.395-3.127,3.364-3.707c-3.494,0.033-3.602,2.809-4.404,2.868
			c-0.377,0.026-0.146-2.005,1.077-2.644c2.668-1.616,4.354-1.269,5.033-1.717c1.353-0.561,0.996-1.821,1.57-2.162
			c-2.567-0.514-2.831,1.449-4.272,0.974c1.406-2.498,3.596-1.764,4.274-2.399c0.587-0.412,1.519-1.107,0.615-2.729
			c-0.078,1.396-1.286,2.699-3.791,2.816c-2.508,0.118-3.398,0.568-5.219,2.095c-0.696-1.479,2.996-3.422,3.215-5.546
			c-4.243-0.058-4.076,5.876-4.32,6.908c-0.244,1.032-0.814,1.941-0.814,1.941c-1.106-0.806-1.54-1.39-1.602-2.216
			c-0.015-0.832-0.091-1.228,0.275-1.514c0.367-0.287,3.87-4.205,2.181-7.793c-1.725,0.991-2.938,1.343-2.938,1.343
			c0.802,1.393,0.061,2.803,0.213,3.593c0.787-0.343,1.587-2.213,1.735-2.352c0.4,0.686,0.667,2.891-1.886,4.442
			c-0.607,0.272-0.29,2.684-0.29,2.684c0.025,0.544,2.64,3.413,2.64,3.413c0.423-0.579,1.989-6.552,5.825-6.154
			c-0.479,1.229-0.712,1.999-2.21,2.174C7.826,23.82,8.112,24.544,6.997,24.931z"/>
		<path d="M8.401,33.198c-1.509,0.652-2.474,0.187-2.474,0.187C6.139,34.264,7.819,35.826,8.401,33.198z"/>
		<path d="M9.229,32.446c0,0,1.732,0.866,1.568,2.316c0.622-0.152,0.917-0.073,1.619-1.071c0.7-0.998,2.439-2.062,2.561-3.294
			c-0.164,0.548-1.213,1.614-2.016,2.031c-0.389-0.427,1.034-2.258,1.083-3.503c-0.871,0.067-1.605,1.356-2.135,2.021
			c-0.53,0.665-0.396,1.863-0.934,1.745c-0.541-0.121,0.322-1.878-0.317-3.104c-0.177-0.262-0.519-0.147-0.908,0.144
			C9.964,30.086,10.169,31.821,9.229,32.446z"/>
		<path d="M13.884,22.491c-0.839,0.494-0.675,2.093-3.402,2.522c0,0-0.067,0.748,0.594,0.353c0.171-0.144,0.657,1.009,0.864,0.053
			c0.219-1.221,0.446-0.228,1.358-0.348c3.513-0.418,2.09-1.826,2.564-2.556C15.302,22.781,14.724,22,13.884,22.491z"/>
		<path d="M12.214,26.595c4.49-0.596,4.382,1.66,4.38,2.899c-0.099,1.226,1.259,0.88,1.555-0.303
			c0.102-0.489-0.334-1.267,0.319-1.543c0.654-0.277,1.195,1.127,0.769,1.686c-1.095,1.073-0.069,3.247-1.056,4.235
			c4.424,0.534,3.592-3.404,3.214-4.831c1.186,0.151,1.026,2.364,2.4,3.395c-0.589-1.754,0.058-1.721-0.195-3.806
			c-0.251-2.087-3.938-2.624-3.364-2.058c0.575,0.568,0.917,2.263,0.557,3.311C20.545,22.849,12.883,25.31,12.214,26.595z"/>
		<path d="M15.886,28.991c-0.27-4.015-4.546-0.373-4.873,0.215c0,0,0.229,0.281,0.741,0.57c2.702-3.145,3.236-1.262,3.177-0.088
			C15.179,28.869,15.919,29.493,15.886,28.991z"/>
		<path d="M12.479,17.986c-1.218,1.589-2.973-0.179-4.836,1.927C9.087,19.676,10.994,20.422,12.479,17.986z"/>
		<path d="M4.039,49.071l-1.45-0.096c1.292,0.781,0.13,1.698,1.562,2.461c1.434,0.763,2.57,1.804,2.613,2.845
			c1.397-0.946,1.769-3.868-1.629-5.087c1.053,0.932,0.943,1.702,0.943,1.702C5.216,49.056,4.039,49.071,4.039,49.071z"/>
		<path d="M6.639,48.894c1.166,1.898,3.388,1.517,4.102,2.717c0.53-1.023-1.087-4.619-4.206-3.014
			c1.263-0.17,3.173,0.959,3.487,1.538C9.708,49.556,7.901,48.725,6.639,48.894z"/>
		<path d="M12.92,47.225c-0.853-1.411-2.859-2.908-5.088-0.324c0,0,1.435-1.089,3.123-0.584c-1.68-0.254-2.919,0.728-2.919,0.728
			C9.696,48.443,11.194,46.406,12.92,47.225z"/>
		<path d="M13.826,44.725c1.548,0.557,2.794,1.345,3.868,0.106c3.614-2.529,3.284-9.345-2.844-9.629
			c-1.714-0.012-2.955,0.679-3.904,1.423c1.037-0.09,3.533-0.278,3.654,2.802c1.452,0.903,2.3-0.59,0.807-2.535
			c-0.633-0.823,0.05-1.055,1.131-0.437c1.083,0.62-0.597,4.845,0.313,5.246c2.443,1.202,0.973-3.798,1.407-3.76
			s1.538,2.275,0.759,3.949c-0.778,1.675-1.478,0.339-2.836,0.854c-1.359,0.515-1.229,0.78-2.174,0.478
			c-0.944-0.303-1.053-1.479-0.64-1.963C12.214,41.888,12.276,44.167,13.826,44.725z"/>
		<path d="M34.514,5.966c3.206-1.507,3.302-4.854,2.039-5.964h-2.029c-1.61,1.188,1.517,4.008-1.168,4.76
			c-2.89,0.812-1.37-0.104-1.37-0.104c0.865-0.474,2.027-1.413,1.271-2.814C33,2.491,30.477,4.532,29.178,0.002h-0.293
			C28.763,2.645,30.681,7.769,34.514,5.966z"/>
		<path d="M32.106,1.784c0.596-0.387,0.6-1.02,0.58-1.782H30.14C30.409,1.204,31.204,2.369,32.106,1.784z"/>
		<path d="M24.551,0.785c-0.679-0.305-1.017-0.616-1.165-0.783h-1.824C21.925,1.197,22.938,2.145,24.551,0.785z"/>
		<path d="M24.521,1.646c-2.493,1.115-3.456,0.313-3.707-0.51c-0.006-0.445-0.019-0.819-0.042-1.134h-2.267
			c0.261,0.914,1.028,1.978,2.046,2.385c-1.745,0.282-2.303-0.942-2.634-2.385h-1.144c0.255,0.271,0.528,0.716,0.955,1.544
			C19.674,4.931,23.525,3.521,24.521,1.646z"/>
		<path d="M19.765,3.991c-1.918-0.391-3.41-2.405-3.79-3.989h-0.771c0.709,1.34,1.732,2.567,1.825,3.278
			c-1.008-0.079-2.203-2.637-4.705-1.59C15.993,2.99,14.839,6.145,19.765,3.991z"/>
		<path d="M1.241,1.54c0.491-0.422,1.265,2.189,2.826,0.863C3.029,2.132,2.931,0.781,2.37,0.002H0.815
			c-0.25,0.242-0.521,0.492-0.876,0.539v5.383C2.657,3.276,0.646,2.262,1.241,1.54z"/>
		<path d="M2.59,10.484c-1.258,0.024-2.388,1.874-2.651,1.887v2.48C3.812,13.552,1.386,12.002,2.59,10.484z"/>
		<path d="M3.216,29.979C2.01,28.95,0.78,31.16,0.226,30.568c-0.274-0.273,1.052-2.211-0.287-3.534v4.607
			C2.133,32.945,2.638,30.651,3.216,29.979z"/>
		<path d="M5.518,35.511c-0.001-1.453-0.659-2.463-2.266-2.915c-2.474-0.554-2.7,2.694-3.313-0.003v0.033v3.477
			C1.982,36.103,2.217,33.041,5.518,35.511z"/>
		<path d="M0.646,58.815c0.346-3.141,1.951-3.594,2.043-5.415c-0.041-2.474-2.653-2.793-2.75-4.973v11.833
			C0.552,60.261,0.581,59.396,0.646,58.815z"/>
		<path d="M0.929,10.052c0-0.403-0.443-0.731-0.99-0.731v1.463C0.485,10.783,0.929,10.457,0.929,10.052z"/>
		<path d="M9.226,13.891c3.375,0.696,2.938-1.532,2.887-2.453c0.436,0.585,0.921-0.052,1.585,0.646
			c-0.216-3.256-2.041-1.942-4.188-5.231c-1.542-1.939-0.035-2.425,1.254-1.31c1.289,1.114,0.503,2.719,2.989,3.178
			c1.608,0.286-0.348,2.76,3.979,4.187c-0.551-0.928,0.202-1.169-0.722-2.761c3.239,2.356,1.354,6.465-0.357,6.478
			c-1.191,0.158-1.153-1.704-1.743-0.77c-0.901,3.979,5.52,3.412,4.822-1.854c0,0,0.832-0.182,1.312,1.826
			c1.73-4.729-3.259-5.212-2.788-9.204c1.636,1.568,2.091,3.938,3.889,1.342c-2.861-0.05-3.255-2.499-3.255-2.499
			s-0.684,0.234-1.474,0.197c-0.665,1.444,0.451,3.94,0.451,3.94c-0.873-1.74-3.711-1.078-4.383-1.85
			c-2.488-2.374-4.09-4.627-6.01-7.75H5.6C8.117,7.536,12.94,11.306,9.226,13.891z"/>
		<path d="M59.077,11.945c3.063,3.454,10.315,4.035,12.391,4.166c2.075,0.133-2.908,0.759-4.115,1.6
			c0.6,0.508,0.722,1.381,0.722,1.381s8.226-3.195,9.799-3.94c-0.589-0.935-0.09-2.917,0.15-3.649
			c-2.81,1.105-7.066-0.175-7.977-1.2c0.613,2.56,2.826,2.377,3.76,2.5c0.936,0.125-1.732,0.867-3.253,0.14
			c0.676,0.28-0.108,1.178,1.8,1.858c1.939,0.447,3.02-1.6,3.86-1.487c0.843,0.109,0.977,0.891,0.343,1.378
			c-4.821,2.982-10.528-1.347-11.92-3.056c2.11,0.231,3.083,2.601,5.445,2.007c-2.841-1.187-3.478-4.653-5.18-4.734
			c-0.471,1.414,0.376,1.478,0.67,2.137c0.293,0.658-1.503-0.15-2.028-1.937c-0.879-2.356-2.021-1.268-2.702-3.312
			c-0.221,1.307-0.069,3.039,1.603,4.07c-0.982,0.585-1.927,0.175-2.794-1.896c-0.43,4.326,3.855,3.228,5.265,4.794
			c0.175,0.12,2.168,1.957-0.229,1.734c-2.698-0.835-2.206-1.674-4.931-3.369c-2.072-1.607-0.767-2.482-1.46-3.719
			c-0.813-2.426-0.72-6.372-0.031-7.409h-0.513c-0.463,0.656-0.648,0.492-0.686,0h-1.314c0.155,1.978,1.006,3.652,1.296,4.243
			c0.45,0.916,0.44,3.869-1.005,2.202c-1.445-1.67-0.042-4.724-1.452-6.29c-0.713,0,0.008,2.096-0.577,2.208
			c-0.586,0.112-0.772-2.437-2.733-2.363C52.735,0.528,53.219,6.214,59.077,11.945z"/>
		<path d="M73.201,6.957c-0.244-0.318-0.723-0.286-0.533,0.072c0.534,1.358,2.715,1.792,2.242-0.75
			C74.567,7.425,73.924,7.959,73.201,6.957z"/>
		<path d="M73.95,4.532c0.534,1.357,2.713,1.789,2.24-0.751c-0.341,1.145-0.982,1.68-1.707,0.679
			C74.24,4.142,73.76,4.172,73.95,4.532z"/>
		<path d="M74.156,1.892c-0.341,1.146-0.983,1.68-1.707,0.68c-0.244-0.32-0.723-0.288-0.534,0.072
			C72.45,3.999,74.628,4.433,74.156,1.892z"/>
		<path d="M70.693,5.051c0.534,1.359,2.713,1.791,2.24-0.749c-0.341,1.146-0.982,1.681-1.707,0.679
			C70.983,4.663,70.501,4.695,70.693,5.051z"/>
		<path d="M94.212,6.384c1.288,0.694,1.979,0.333,2.949-0.538c-0.271,3.324-2.678,4.435-5.193,4.386
			c3.006,1.733,6.448-2.885,5.834-5.442c-0.385-1.052-0.79-0.528-0.691-0.354C97.6,5.595,95.134,6.603,94.212,6.384z"/>
		<path d="M94.767,16.224c0.302-3.722,2.723-3.14,1.5-5.397C95.245,11.355,93.468,12.74,94.767,16.224z"/>
		<path d="M96.333,14.454c-1.688,3.588,1.814,7.506,2.181,7.793c0.368,0.286,0.291,0.682,0.276,1.514
			c-0.061,0.826-0.496,1.41-1.602,2.216c0,0-0.57-0.909-0.814-1.941c-0.244-1.032-0.078-6.966-4.32-6.908
			c0.218,2.124,3.911,4.066,3.215,5.546c-1.82-1.526-2.71-1.977-5.219-2.095c-2.505-0.117-3.713-1.421-3.79-2.816
			c-0.905,1.622,0.027,2.317,0.615,2.729c0.676,0.636,2.867-0.099,4.273,2.399c-1.443,0.476-1.706-1.487-4.273-0.974
			c0.574,0.341,0.217,1.602,1.57,2.162c0.679,0.448,2.365,0.101,5.032,1.717c1.224,0.639,1.455,2.67,1.078,2.644
			c-0.801-0.06-0.909-2.835-4.402-2.868c0.969,0.58,1.477,2.86,3.363,3.707c0.674,0.304,1.794,1.905,0.307,2.542
			c-2.335,0.213-1.464-1.886-2.252-2.943c-0.523-0.701-1.589-0.723-2.326-2.736c-0.717,2.904,1.542,2.729,1.652,3.503
			c-1.237,3.793,3.178,3.139,3.744,2.286c2.549-2.499,0.971-6.446-1.763-6.999c-1.115-0.387-0.829-1.11,0.367-1.334
			c-1.5-0.175-1.731-0.944-2.211-2.174c3.835-0.397,5.401,5.575,5.824,6.154c0,0,2.616-2.869,2.641-3.413
			c0,0,0.319-2.411-0.288-2.684c-2.555-1.552-2.287-3.757-1.886-4.442c0.147,0.139,0.947,2.009,1.734,2.352
			c0.152-0.79-0.588-2.2,0.213-3.593C99.272,15.797,98.058,15.445,96.333,14.454z"/>
		<path d="M91.476,33.198c0.582,2.628,2.263,1.065,2.474,0.187C93.95,33.385,92.984,33.851,91.476,33.198z"/>
		<path d="M89.216,29.589c-0.638,1.226,0.224,2.982-0.314,3.104c-0.539,0.118-0.406-1.08-0.936-1.745
			c-0.53-0.665-1.265-1.954-2.135-2.021c0.048,1.245,1.473,3.076,1.083,3.503c-0.802-0.417-1.851-1.483-2.016-2.031
			c0.123,1.231,1.861,2.296,2.562,3.294c0.7,0.998,0.997,0.919,1.617,1.071c-0.165-1.45,1.567-2.316,1.567-2.316
			c-0.94-0.625-0.734-2.36-0.521-2.714C89.736,29.441,89.395,29.327,89.216,29.589z"/>
		<path d="M89.394,25.014c-2.727-0.43-2.562-2.028-3.402-2.522c-0.839-0.491-1.416,0.29-1.978,0.024
			c0.475,0.729-0.949,2.138,2.565,2.556c0.912,0.12,1.138-0.873,1.356,0.348c0.207,0.956,0.693-0.196,0.864-0.053
			C89.459,25.762,89.394,25.014,89.394,25.014z"/>
		<path d="M76.276,28.327c-0.252,2.085,0.394,2.052-0.195,3.806c1.374-1.03,1.213-3.243,2.4-3.395
			c-0.378,1.427-1.209,5.365,3.214,4.831c-0.987-0.988,0.039-3.162-1.057-4.235c-0.425-0.559,0.116-1.963,0.77-1.686
			c0.654,0.276,0.218,1.054,0.319,1.543c0.296,1.183,1.654,1.528,1.555,0.303c-0.002-1.239-0.109-3.495,4.38-2.899
			c-0.67-1.285-8.332-3.746-8.58,2.985c-0.36-1.048-0.018-2.742,0.559-3.311C80.214,25.703,76.527,26.24,76.276,28.327z"/>
		<path d="M88.121,29.776c0.514-0.289,0.742-0.57,0.742-0.57c-0.327-0.588-4.604-4.229-4.873-0.215
			c-0.033,0.502,0.707-0.122,0.954,0.697C84.886,28.515,85.42,26.632,88.121,29.776z"/>
		<path d="M87.397,17.986c1.485,2.436,3.392,1.689,4.835,1.927C90.369,17.808,88.613,19.575,87.397,17.986z"/>
		<path d="M94.741,49.194c-3.397,1.219-3.025,4.141-1.626,5.087c0.042-1.041,1.177-2.082,2.611-2.845
			c1.433-0.763,0.27-1.68,1.562-2.461l-1.45,0.096c0,0-1.177-0.016-2.039,1.825C93.799,50.896,93.688,50.126,94.741,49.194z"/>
		<path d="M93.341,48.597c-3.119-1.605-4.737,1.99-4.205,3.014c0.713-1.2,2.934-0.818,4.1-2.717
			c-1.262-0.169-3.069,0.662-3.382,1.241C90.168,49.556,92.08,48.427,93.341,48.597z"/>
		<path d="M92.043,46.9c-2.229-2.584-4.234-1.087-5.088,0.324c1.728-0.818,3.225,1.219,4.883-0.181c0,0-1.238-0.981-2.918-0.728
			C90.609,45.812,92.043,46.9,92.043,46.9z"/>
		<path d="M86.508,41.259c0.413,0.484,0.304,1.66-0.64,1.963c-0.944,0.303-0.813,0.037-2.174-0.478
			c-1.358-0.515-2.06,0.821-2.837-0.854c-0.777-1.674,0.326-3.911,0.76-3.949c0.434-0.038-1.036,4.962,1.406,3.76
			c0.911-0.401-0.767-4.626,0.313-5.246c1.082-0.618,1.765-0.387,1.133,0.437c-1.494,1.945-0.644,3.438,0.806,2.535
			c0.123-3.08,2.619-2.892,3.653-2.802c-0.948-0.744-2.189-1.435-3.903-1.423c-6.127,0.284-6.458,7.1-2.843,9.629
			c1.073,1.238,2.319,0.45,3.867-0.106C87.6,44.167,87.663,41.888,86.508,41.259z"/>
		<path d="M65.363,5.966c3.832,1.803,5.749-3.321,5.628-5.964h-0.292c-1.298,4.53-3.823,2.489-4.078,1.842
			c-0.756,1.401,0.405,2.341,1.27,2.814c0,0,1.52,0.915-1.369,0.104c-2.686-0.752,0.44-3.572-1.168-4.76h-2.03
			C62.061,1.111,62.157,4.459,65.363,5.966z"/>
		<path d="M67.771,1.784c0.901,0.585,1.696-0.58,1.965-1.782H67.19C67.17,0.765,67.173,1.397,67.771,1.784z"/>
		<path d="M78.313,0.002h-1.824c-0.147,0.167-0.485,0.479-1.164,0.783C76.939,2.145,77.951,1.197,78.313,0.002z"/>
		<path d="M80.111,3.991c4.925,2.153,3.772-1.001,7.441-2.301c-2.5-1.047-3.696,1.511-4.705,1.59
			c0.093-0.711,1.114-1.938,1.825-3.278h-0.771C83.521,1.586,82.03,3.601,80.111,3.991z"/>
		<path d="M75.354,1.646c0.996,1.875,4.847,3.285,6.793-0.1c0.426-0.828,0.7-1.273,0.955-1.544h-1.144
			c-0.332,1.442-0.889,2.667-2.635,2.385c1.02-0.407,1.786-1.471,2.046-2.385h-2.267c-0.024,0.314-0.036,0.688-0.042,1.134
			C78.811,1.959,77.848,2.761,75.354,1.646z"/>
		<path d="M97.506,0.002c-0.56,0.779-0.658,2.13-1.697,2.401c1.562,1.326,2.334-1.285,2.826-0.863
			c0.596,0.722-1.416,1.736,1.304,4.384V0.541c-0.356-0.047-0.628-0.297-0.877-0.539H97.506z"/>
		<path d="M97.286,10.484c1.203,1.518-1.221,3.067,2.653,4.367v-2.48C99.675,12.358,98.544,10.509,97.286,10.484z"/>
		<path d="M99.65,30.568c-0.553,0.592-1.785-1.618-2.99-0.589c0.577,0.672,1.083,2.966,3.279,1.662v-4.607
			C98.598,28.357,99.924,30.295,99.65,30.568z"/>
		<path d="M96.624,32.596c-1.606,0.452-2.264,1.462-2.266,2.915c3.301-2.47,3.535,0.592,5.581,0.592v-3.477v-0.033
			C99.324,35.29,99.099,32.042,96.624,32.596z"/>
		<path d="M97.187,53.4c0.091,1.821,1.699,2.274,2.043,5.415c0.066,0.58,0.094,1.445,0.708,1.445V48.428
			C99.84,50.607,97.228,50.927,97.187,53.4z"/>
		<path d="M98.947,10.052c0,0.405,0.444,0.731,0.992,0.731V9.32C99.391,9.32,98.947,9.648,98.947,10.052z"/>
		<path d="M86.395,7.752c-0.672,0.771-3.511,0.109-4.384,1.85c0,0,1.115-2.496,0.45-3.94c-0.791,0.037-1.475-0.197-1.475-0.197
			s-0.394,2.449-3.255,2.499c1.798,2.596,2.253,0.227,3.889-1.342c0.472,3.992-4.518,4.475-2.788,9.204
			c0.479-2.008,1.312-1.826,1.312-1.826c-0.695,5.267,5.724,5.834,4.823,1.854c-0.59-0.935-0.552,0.928-1.744,0.77
			c-1.712-0.013-3.595-4.121-0.356-6.478c-0.925,1.592-0.172,1.833-0.722,2.761c4.327-1.427,2.371-3.9,3.979-4.187
			c2.486-0.459,1.7-2.063,2.989-3.178c1.289-1.115,2.796-0.63,1.254,1.31c-2.147,3.289-3.972,1.976-4.188,5.231
			c0.663-0.697,1.149-0.061,1.584-0.646c-0.05,0.921-0.488,3.149,2.888,2.453c-3.715-2.585,1.108-6.354,3.624-13.889h-1.871
			C90.483,3.125,88.881,5.378,86.395,7.752z"/>
		<path d="M6.397,102.708c2.439,0.892,2.58-0.736,1.662-1.471c-1.378,1.72-1.561-0.473-1.386-1.032
			C6.673,100.205,4.57,101.844,6.397,102.708z"/>
		<path d="M19.398,105.762c2.595-1.25,3.968-3.1,3.971-6.674c-0.231-5.352-1.753-7.864,1.672-8.224
			c0.603-0.127,2.083-0.087,2.25,1.18c0.954-2.509-2.283-4.32-3.926-2.339c-1.339,1.747-1.667-0.019-1.289-0.401
			c-0.768-0.04-2.564,2.197-0.451,4.871c1.601,2.026-0.601,3.368-1.418,0.426c-0.817-2.94-2.139-2.144-2.139-2.144
			c0.859,0.742-0.294,2.086,1.754,3.194c2.051,1.11,2.669,2.554,2.623,3.274c-0.048,0.721-0.173,2.309-0.986,0.464
			c-0.815-1.847-1.348-1.917-2.401-1.969c-0.444,1.679,2.724,2.975,2.328,4.646c-0.412,3.724-4.654,2.951-2.387-0.064
			c1.167-1.965-1.229-2.455-1.06-4.052c0.17-1.594,0.803-2.861-1.552-2.746c-0.567,0.025-1.388-0.055-1.388-0.055l-0.156,1.687
			c-2.98-0.938-6.512,3.294-2.146,5.001c2.121,0.578,2.853-1.807,2.146-2.474c-1.261-1.263-2.176,0.811-0.809,1.439
			c-1.592,2.355-4.232-3.583,0.954-3.222c4.914,0.825,2.211,8.806-3.703,7.256c-0.557-0.117,0.356,1.618-0.694,2.662
			c0.94,0.639,1.587,1.22,2.938,0.994c1.35-0.228,3.522-0.705,6.249,0.124c-2.928-2.709-7.407-0.973-6.911-2.61
			C13.295,105.664,16.804,107.01,19.398,105.762z"/>
		<path d="M12.894,92.54c0.712,0.702,1.734,1.341,2.165,1.444C14.629,93.881,13.607,93.242,12.894,92.54z"/>
		<path d="M9.025,89.926c-0.566-0.837-1.221-1.143-1.787-1.112C7.803,88.783,8.459,89.091,9.025,89.926z"/>
		<path d="M9.113,95.244c1.184-0.245,2.435-1.13,3.015-2.319C11.548,94.114,10.297,94.999,9.113,95.244z"/>
		<path d="M8.754,90.187c-0.704,1.737,0.707,2.787,2.007,2.774C9.461,92.974,8.051,91.924,8.754,90.187z"/>
		<path d="M12.732,89.077c-0.042-0.825,0.366-1.154,0.862-1.156C13.099,87.923,12.689,88.252,12.732,89.077
			c0.073,1.442-0.271,1.574-0.473,1.77C12.461,90.651,12.806,90.52,12.732,89.077z"/>
		<path d="M7.426,92.847c-0.544-0.021-0.972,0.103-0.95,0.74C6.455,92.949,6.882,92.826,7.426,92.847z"/>
		<path d="M7.238,88.813c-0.847,0.042-1.491,0.843-1.317,1.744C5.748,89.656,6.391,88.855,7.238,88.813z"/>
		<path d="M6.009,90.861c0.45,1.144,2.004,0.854,2.994,1.606C8.014,91.715,6.461,92.005,6.009,90.861z"/>
		<path d="M9.113,95.244c1.184-0.245,2.435-1.13,3.015-2.319c0.792,0.633,2.931,1.06,2.931,1.06
			c-0.431-0.104-1.452-0.742-2.165-1.444c2.192-1.128,2.026-2.041,2.231-2.639c0.109-0.319,0.091-0.624-0.013-0.897
			c-0.241-0.636-0.939-1.083-1.518-1.083c-0.496,0.002-0.905,0.331-0.862,1.156c0.073,1.442-0.271,1.574-0.473,1.77
			c-0.066,0.066-0.116,0.138-0.13,0.269c-0.007,0.075-0.003,0.168,0.018,0.29c-1.052-6.136-4.423-4.97-3.122-1.479
			c-0.566-0.835-1.222-1.143-1.787-1.112c-0.847,0.042-1.49,0.843-1.317,1.744c0.018,0.1,0.048,0.201,0.088,0.304
			c0.452,1.144,2.005,0.854,2.994,1.606c0.066,0.05,0.129,0.105,0.19,0.166c0.064,0.064,0.126,0.133,0.183,0.213
			c-0.041,0.03-0.087,0.057-0.14,0.075c-0.104,0.039-0.231,0.056-0.372,0.057c-0.422,0.007-0.972-0.116-1.438-0.132
			c-0.544-0.021-0.972,0.103-0.95,0.74c0.033,0.183,0.08,0.348,0.137,0.498c0.349,0.907,1.124,1.265,2,1.223
			C8.778,95.3,8.945,95.278,9.113,95.244z M8.754,90.187c1.527-1.668,3.626,1.114,3.506,2.061c-0.067,0.097-0.145,0.184-0.229,0.26
			c-0.338,0.304-0.796,0.448-1.27,0.454C9.46,92.974,8.05,91.924,8.754,90.187z"/>
		<path d="M15.113,89.004c-0.241-0.636-0.938-1.083-1.518-1.083C14.174,87.921,14.872,88.368,15.113,89.004z"/>
		<path d="M6.039,95.765c0.919,0.116,1.651,0.972,1.651,0.972s0.413-0.482,0.54-0.594C8.229,96.143,7.385,95.871,6.039,95.765z"/>
		<path d="M5.302,84.837c1.496,0.518,2.501,2.003,2.501,2.003c-0.684-5.529-5.897-3.22-6.104-8.385
			c-2.916,4.58,3.151,3.681,3.062,5.166c-4.14-1.069-5.531,3.878-2.055,4.609c2.302,0.504,2.364-2.268,1.425-2.524
			c-0.938-0.255-1.287,1.41-0.602,1.558C0.452,88.102,0.906,82.897,5.302,84.837z"/>
		<path d="M42.359,135.109c0.167,0.365,0.513,2.077,0.45,2.891h1.315c0.086-1.094-0.04-2.276-0.598-3.424
			C42.67,132.783,42.092,134.526,42.359,135.109z"/>
		<path d="M37.592,134.312c2.589-0.198,2.081,1.345,2.956,1.848c0.875,0.504,0.381,1.095,1.048,1.813
			c0.005,0.009,0.009,0.02,0.015,0.026h0.513C41.592,135.783,40.744,132.609,37.592,134.312z"/>
		<path d="M45.52,133.287c-0.887-0.24-1.229-4.983-3.612-6.81c-2.383-1.829-7.386-1.88-8.311-3.472
			c-0.666,2.517,6.301,2.309,5.941,3.355c-0.362,1.048-2.753-0.85-5.646,1.034c7.632-0.583,9.822,2.485,9.237,2.922
			c-0.585,0.434-2.3-1.198-3.899-0.342c2.529,0.238,4.608,1.39,5.762,4.168c0.115,1.413-1.145,3.226,0.759,3.041
			c1.903-0.179,0.701-4.951,1.69-6.653C45.36,130.45,46.409,133.526,45.52,133.287z"/>
		<path d="M28.885,138h0.293c-0.065-0.23-0.129-0.472-0.188-0.735C28.932,137.475,28.896,137.725,28.885,138z"/>
		<path d="M34.977,137.757c-0.182,0.069-0.331,0.152-0.454,0.243h2.029C36.147,137.645,35.605,137.518,34.977,137.757z"/>
		<path d="M35.127,129.134c0,0,0.259,3.048-2.314,4.122c1.298-0.854,2.383-4.104,1.402-5.047c-0.981-0.939-3.483-0.967-4.489-0.473
			c-1.004,0.488-1.993,0.774-3.447,2.527c-0.003-1.612,3.654-3.687,5.275-3.275c-0.514-0.996-2.06-1.011-4.247-0.292
			c-4.497-2.689-4.942,3.656-8.999,2.123c0.302,1.747,2.833,0.909,3.917,0.481c1.085-0.431,1.441-0.978,2.785-1.084
			c-3.469,0.86-6.698,7.104-6.698,7.104c1.706,0.488,1.581-0.995,2.442-2.039c0.37-0.977,3.298-2.58,3.882-1.943
			c1.273,2.618-2.871,3.668-3.175,5.136c-0.091,0.445-0.055,1.009,0.101,1.526h1.824c-0.065-0.074-0.097-0.125-0.097-0.125
			c1.015-0.418,0.918-1.692,2.195-2.289s1.271-1.279,1.271-1.279c-0.475-0.43-0.06-1.547,1.935-2.857
			c0.987-0.632,0.63-1.946,1.738-2.736s2.628-0.635,3.002,0.029c0.375,0.668-0.435,3.362-4.128,2.801
			c-1.084,0.56-3.041,1.892-2.322,2.764c0.462,0.174,1.259,0.117,2.232-0.215c0,0-1.956,1.4-2.349,1.668
			c-1.412,0.114-0.571,1.076-2.232,2.01c4.465,0.839,4.336-2.289,6.367-4.201c0.463,0.797-0.145,1.59-0.778,2.747
			c-0.22,0.4-0.222,1.048-0.08,1.685h2.546c-0.026-1.001-0.094-2.229,1.083-3.441C35.844,132.425,36.377,130.104,35.127,129.134z"/>
		<path d="M19.11,136.503c-0.68,0.058-0.824,0.723-0.604,1.497h2.267C20.666,136.604,20.32,136.4,19.11,136.503z"/>
		<path d="M16.532,133.199c-2.63,1.229-2.23,3.104-1.329,4.801h0.771c-0.041-0.173-0.073-0.342-0.087-0.5
			c0.378,0.13,0.624,0.225,0.885,0.5h1.144c-0.12-0.521-0.21-1.068-0.317-1.584C17.2,134.469,16.012,135.198,16.532,133.199z"/>
		<path d="M34.653,125.58c-2.543,0.194-4.97-1.412-5.474-1.989c-0.505-0.575-0.697-0.408-0.421,0.056
			C30.612,126.331,35.123,126.185,34.653,125.58z"/>
		<path d="M30.206,121.097c-0.139-1.054-1.827-1.4-2.064-2.656c-0.048,1.792-1.628,0.646-0.482,3.922
			C27.973,123.108,30.345,122.15,30.206,121.097z"/>
		<path d="M25.392,118.162c0.352-0.046,0.864,0.6,0.86,1.101c0.809-0.893,0.287-2.683-1.279-2.116
			c-1.568,0.565-1.162,2.011,0.095,2.345C24.274,118.882,25.042,118.209,25.392,118.162z"/>
		<path d="M24.802,123.957c1.394,0.618,2.549,0.376,2.502-1.046c-0.057-1.776-3.976-3.619-5.665-2.895
			C23.421,121.067,23.438,123.351,24.802,123.957z"/>
		<path d="M6.208,116.607c0.166,0.158,0.369,0.249,0.545,0.289c0.889,0.205,2.497-0.268,3.726-1.55
			c0.526-0.552,0.863-1.113,1.067-1.665l-0.006-0.002c0.007-0.02,0.017-0.038,0.023-0.056c0.166-0.471,0.238-0.933,0.238-1.374
			c0-1.102-0.413-2.047-0.77-2.673c-0.164,0.471-0.628,0.841-1.1,1.189c-0.438,0.327-0.89,0.664-1.054,1.072
			c0.001,0.165-0.007,0.33-0.037,0.487c-0.537,2.489-2.092,3.28-3.26,3.199c-0.223-0.016-0.424-0.066-0.604-0.137
			c0.14,0.332,0.461,0.712,0.951,0.87l0.045-0.015c0.004,0.015,0.013,0.022,0.019,0.038c0.635,0.172,1.993,0.055,3.96-2.64
			C8.949,115.794,7.087,116.701,6.208,116.607z"/>
		<path d="M17.102,112.676c-0.169-0.097-0.369-0.1-0.519-0.003c-0.191,0.121-0.278,0.379-0.242,0.727
			c0.048,0.47,0.465,0.562,0.642,0.579c0.579,0.057,1.338-0.324,1.558-1.042c0.119-0.552,0.204-1.957-1.646-2.854
			c-0.628-0.268-1.297-0.254-1.981,0.042c-1.436,0.619-2.617,2.327-3.106,3.652l-0.006-0.002c-0.212,0.588-0.56,1.187-1.117,1.768
			c-0.717,0.75-1.634,1.295-2.501,1.542h0.005c-0.008,0.069,0.065,0.126,0.126,0.161c0.415,0.231,1.682,0.222,2.742-0.629
			c1.058-0.831,1.65-1.902,2.172-2.848c0.452-0.817,0.844-1.523,1.444-1.959c0.92-0.909,2.67-0.904,3.341-0.226
			c0.223,0.228,0.637,0.865-0.365,1.858l-0.264,0.262l0.022-0.37C17.423,113.039,17.312,112.799,17.102,112.676z"/>
		<path d="M1.459,114.517c0.513,0.394,1.679,0.45,2.743-0.136c0.817-0.448,1.986-1.385,2.092-4.396
			c0.241,2.755-0.909,4.005-1.79,4.549c0.072,0.375,0.516,0.669,1.097,0.709c1.054,0.072,2.465-0.663,2.964-2.973
			c0.172-0.898-0.288-1.99-0.775-3.148c-0.537-1.275-1.093-2.595-0.775-3.729c0.19-0.681,0.678-1.091,1.336-1.121
			c0.695-0.031,1.447,0.376,1.642,0.89c0.116,0.307,0.021,0.604-0.266,0.836l-0.119,0.098l-0.086-0.13
			c-0.151-0.221-0.331-0.312-0.508-0.253c-0.198,0.066-0.349,0.302-0.338,0.526c0.011,0.243,0.209,0.42,0.553,0.498
			c0.552,0.122,0.949-0.372,1.093-0.921c0.219-0.821-0.066-1.81-1.032-2.11c-0.589-0.184-1.434-0.286-2.111,0.262
			c-0.919,0.745-1.284,2.486-1.055,5.036c-1.033-1.841-2.216-2.271-2.649-2.418c0.116,0.233,0.179,0.443,0.179,0.635
			c0,0.133-0.016,0.259-0.033,0.395c-0.019,0.152-0.04,0.312-0.04,0.501c0,0.511,0.151,1.22,0.887,2.475
			c0.161,0.307,0.23,0.643,0.23,0.985c0,1.131-0.755,2.341-1.525,2.757c-0.614,0.332-1.187,0.155-1.534-0.472l-0.025-0.044
			l0.01-0.05c0.133-0.757,0.511-1.038,0.875-1.312c0.338-0.252,0.657-0.49,0.802-1.133c0.038-0.167,0.054-0.33,0.054-0.484
			c0-0.761-0.393-1.346-0.614-1.616c-0.084,0.191-0.21,0.355-0.37,0.511c-0.378,0.367-0.844,0.819-0.844,2.089
			c0,0.073,0.002,0.148,0.005,0.228c0.005,0.069,0.008,0.137,0.008,0.201c0,0.854-0.503,1.292-1.006,1.337
			c-0.395,0.034-0.563-0.232-0.594-0.579v2.361l1.442-0.912L1.459,114.517z"/>
		<path d="M-0.061,106.307v5.032C1.805,106.017,0.204,107.772-0.061,106.307z"/>
		<path d="M1.353,102.602c2.552,0.947,3.804-5.768,6.484-2.764C8.141,96.188,4.462,97.246,4,99.417
			c-0.845,3.327-3.832,2.866-2.114,0.209c1.874-2.034,3.187-3.425,1.905-5.29c-1.932,0.221-1.34,3.357-2.828,3.161
			c-0.538-0.286,1.466-3.432-1.025-5.816v7.651C1.023,99.973-0.319,101.822,1.353,102.602z"/>
		<path d="M1.758,137.517c-0.355-0.112-0.632,0.182-0.943,0.483H2.37C2.212,137.783,2.021,137.607,1.758,137.517z"/>
		<path d="M0.976,104.248c0-0.574-0.465-1.04-1.037-1.04v2.079C0.511,105.287,0.976,104.82,0.976,104.248z"/>
		<path d="M-0.038,135.228c-0.008,0-0.017,0.004-0.023,0.004v2.023c0.007,0,0.015,0.004,0.023,0.004c0.56,0,1.013-0.455,1.013-1.017
			C0.976,135.682,0.522,135.228-0.038,135.228z"/>
		<path d="M5.488,118.229c-0.933-1.902-1.96-2.557-2.885-2.572c2.317,1.336,1.741,5.796,3.371,7.867
			c-1.63-2.071-1.36-6.512-3.677-7.848c-0.159,0.021-0.314,0.061-0.465,0.113c1.551,0.939,1.375,8.958,3.003,10.457
			c1.199,0.151,2.053,0.334,2.642,0.653c0,0,1.261-1.069-0.717-2.617c0.348-0.069,0.833-0.175,1.153-0.178
			C5.851,120.723,6.356,120.062,5.488,118.229z"/>
		<path d="M7.146,130.23c-0.306,0.716-0.213,1.565-0.419,2.705C7.993,132.14,7.709,130.902,7.146,130.23z"/>
		<path d="M12.019,129.296c0.083-3.155-1.647-5.304-4.735-4.895c1.865,1.679,0.594,2.728,0.594,2.728
			c0.496,0.409,0.68,1.133,0.47,1.917c-0.093-1.596-0.749-2.117-3.176-2.466c0.005,0.069,0.034,0.129,0.034,0.199
			c0,0.2-0.021,0.411-0.042,0.615c-0.021,0.2-0.04,0.398-0.04,0.582c0,0.298-0.107,0.439,0.087,0.608
			c1.042-0.229,2.215,0.599,2.622,0.775c-0.241,0.19-0.414,0.387-0.542,0.596c0.602,0.621,1.073,2.42-0.611,3.22
			c-0.049,0.229-0.11,0.466-0.19,0.719c2.054-0.13,3.891-0.81,4.688-3.417c-0.267,0.68,0.059,2.066,0.059,2.066
			c0.993-1.133,1.305-0.389,2.916-2.246c1.003-1.311,0.137-2.732,0.919-3.837C13.663,127.147,12.404,127.887,12.019,129.296z"/>
		<path d="M4.843,126.456c-1.948-1.718-1.665-9.644-3.216-10.584c-0.121,0.057-0.236,0.121-0.348,0.191
			c0.825,3.647,0.43,5.962,0.968,7.88c-0.541-1.929-0.357-4.044-1.2-7.72c-0.485,0.365-0.686,1.003-0.92,1.429v7.652
			c0,0,1.699,1.57,1.674,3.004c0.165-0.448,0.404-0.355,0.868-0.632c0.304,0.782,0.58,1.385,0.629,1.985
			c0.606-0.514,1.127-0.82,1.588-0.982C4.614,128.085,5.039,127.341,4.843,126.456z"/>
		<path d="M1.737,128.946l0.695-0.682C2.007,128.519,1.87,128.47,1.737,128.946z"/>
		<path d="M6.334,132.908c0.027-3.031,1.031-3.542,1.031-3.542c-1.175-0.441-2.204-1.188-4.096,0.685
			c-0.017,1.264-0.607,2.236-1.153,2.63c0.887-1.231,1.217-2.836,0.315-4.416l-0.695,0.682c-0.242-2.029-1.798-3.176-1.798-3.176
			v7.314C0.017,135.122,6.354,136.286,6.334,132.908z"/>
		<path d="M6.453,134.002c-0.274,0.674-0.871,1.089-1.602,1.298c0.209,0.952,0.465,1.848,0.75,2.7h1.872
			c-0.413-0.67-0.84-1.38-1.294-2.143c1.005-0.491,2.901,1.974,4.348,0.495C7.141,136.597,7.717,134.678,6.453,134.002z"/>
		<path d="M91.817,101.237c-0.918,0.734-0.777,2.362,1.661,1.471c1.828-0.864-0.275-2.503-0.275-2.503
			C93.379,100.765,93.195,102.957,91.817,101.237z"/>
		<path d="M88.593,104.837c-5.915,1.55-8.618-6.431-3.705-7.256c5.188-0.361,2.547,5.577,0.956,3.222
			c1.367-0.629,0.452-2.702-0.811-1.439c-0.706,0.667,0.026,3.052,2.147,2.474c4.366-1.707,0.834-5.938-2.146-5.001l-0.156-1.687
			c0,0-0.821,0.08-1.388,0.055c-2.356-0.115-1.722,1.152-1.554,2.746c0.17,1.597-2.227,2.087-1.059,4.052
			c2.266,3.016-1.975,3.788-2.387,0.064c-0.397-1.671,2.771-2.967,2.327-4.646c-1.052,0.052-1.586,0.122-2.401,1.969
			c-0.814,1.845-0.939,0.257-0.985-0.464c-0.049-0.721,0.571-2.164,2.622-3.274c2.05-1.108,0.896-2.452,1.754-3.194
			c0,0-1.322-0.797-2.139,2.144c-0.817,2.942-3.019,1.601-1.418-0.426c2.114-2.674,0.316-4.911-0.451-4.871
			c0.378,0.383,0.05,2.148-1.289,0.401c-1.642-1.981-4.878-0.17-3.926,2.339c0.167-1.267,1.647-1.307,2.25-1.18
			c3.425,0.359,1.903,2.872,1.672,8.224c0.003,3.574,1.376,5.424,3.97,6.674c2.595,1.248,6.105-0.098,6.534,0.245
			c0.497,1.638-3.983-0.099-6.911,2.61c2.726-0.829,4.899-0.352,6.249-0.124c1.351,0.226,1.998-0.355,2.939-0.994
			C88.236,106.455,89.147,104.72,88.593,104.837z"/>
		<path d="M84.817,93.984c0.43-0.104,1.452-0.742,2.165-1.444C86.269,93.242,85.247,93.881,84.817,93.984z"/>
		<path d="M92.638,88.813c-0.565-0.03-1.222,0.275-1.788,1.112C91.417,89.091,92.072,88.783,92.638,88.813z"/>
		<path d="M87.749,92.925c0.662,1.359,2.201,2.32,3.514,2.383C89.95,95.245,88.411,94.284,87.749,92.925z"/>
		<path d="M89.115,92.961c1.3,0.013,2.711-1.037,2.007-2.774C91.826,91.924,90.415,92.974,89.115,92.961z"/>
		<path d="M90.873,92.468c0.99-0.753,2.544-0.463,2.995-1.606C93.416,92.005,91.862,91.715,90.873,92.468z"/>
		<path d="M87.144,89.077c-0.072,1.442,0.272,1.574,0.473,1.77C87.417,90.651,87.071,90.52,87.144,89.077
			c0.043-0.825-0.366-1.154-0.862-1.156C86.777,87.923,87.186,88.252,87.144,89.077z"/>
		<path d="M93.957,90.558c0.15-0.788-0.323-1.5-1.012-1.694C93.633,89.058,94.106,89.77,93.957,90.558z"/>
		<path d="M93.4,93.587c0.021-0.638-0.406-0.762-0.95-0.74C92.994,92.826,93.421,92.949,93.4,93.587z"/>
		<path d="M93.867,90.861c0.041-0.103,0.07-0.204,0.089-0.304c0.15-0.788-0.323-1.5-1.012-1.694
			c-0.098-0.027-0.201-0.045-0.307-0.05c-0.565-0.03-1.221,0.277-1.788,1.112c1.302-3.49-2.069-4.656-3.121,1.479
			c0.02-0.122,0.024-0.215,0.017-0.29c-0.007-0.074-0.028-0.131-0.055-0.178c-0.021-0.033-0.046-0.062-0.075-0.091
			c-0.2-0.195-0.545-0.327-0.473-1.77c0.042-0.825-0.366-1.154-0.862-1.156c-0.496,0-1.08,0.329-1.389,0.824
			c-0.205,0.328-0.288,0.731-0.141,1.156c0.204,0.598,0.039,1.511,2.23,2.639c-0.712,0.702-1.734,1.341-2.165,1.444
			c0,0,2.138-0.427,2.932-1.06c0.662,1.359,2.201,2.32,3.514,2.383c0.875,0.042,1.651-0.315,1.999-1.223
			c0.058-0.15,0.105-0.315,0.138-0.498c0.021-0.638-0.406-0.761-0.95-0.74c-0.465,0.016-1.015,0.139-1.438,0.132
			c-0.141-0.001-0.268-0.018-0.372-0.057c-0.053-0.019-0.099-0.045-0.14-0.075c0.057-0.08,0.118-0.148,0.183-0.213
			c0.061-0.061,0.124-0.116,0.19-0.166C91.862,91.715,93.416,92.005,93.867,90.861z M89.115,92.961
			c-0.474-0.006-0.932-0.15-1.27-0.454c-0.084-0.076-0.161-0.163-0.229-0.26c-0.12-0.946,1.979-3.729,3.506-2.061
			C91.826,91.924,90.416,92.974,89.115,92.961z"/>
		<path d="M93.837,95.765c-1.347,0.106-2.191,0.378-2.191,0.378c0.128,0.111,0.54,0.594,0.54,0.594S92.917,95.881,93.837,95.765z"/>
		<path d="M98.176,78.455c-0.206,5.165-5.42,2.855-6.104,8.385c0,0,1.005-1.485,2.501-2.003c4.397-1.939,4.85,3.265,1.771,2.427
			c0.687-0.147,0.336-1.812-0.601-1.558c-0.938,0.257-0.877,3.028,1.425,2.524c3.477-0.731,2.084-5.679-2.054-4.609
			C95.026,82.136,101.092,83.035,98.176,78.455z"/>
		<path d="M56.35,134.576c-0.558,1.147-0.683,2.33-0.597,3.424h1.314c-0.062-0.813,0.283-2.525,0.449-2.891
			C57.784,134.526,57.205,132.783,56.35,134.576z"/>
		<path d="M57.752,138h0.513c0.006-0.007,0.01-0.018,0.016-0.026c0.667-0.719,0.173-1.31,1.048-1.813
			c0.875-0.503,0.366-2.046,2.957-1.848C59.132,132.609,58.284,135.783,57.752,138z"/>
		<path d="M54.883,134.144c1.153-2.778,3.233-3.93,5.762-4.168c-1.599-0.856-3.313,0.775-3.899,0.342
			c-0.585-0.437,1.605-3.505,9.237-2.922c-2.892-1.884-5.283,0.014-5.645-1.034c-0.361-1.047,6.605-0.839,5.939-3.355
			c-0.924,1.592-5.926,1.643-8.31,3.472c-2.383,1.826-2.724,6.569-3.611,6.81c-0.889,0.239,0.16-2.837-1.92-2.756
			c0.988,1.702-0.213,6.475,1.688,6.653C56.028,137.369,54.769,135.557,54.883,134.144z"/>
		<path d="M63.323,138h2.03c-0.123-0.091-0.272-0.174-0.455-0.243C64.271,137.518,63.729,137.645,63.323,138z"/>
		<path d="M70.698,138h0.292c-0.013-0.275-0.046-0.525-0.104-0.735C70.828,137.528,70.764,137.77,70.698,138z"/>
		<path d="M81.567,128.819c-4.056,1.533-4.501-4.812-8.998-2.123c-2.188-0.719-3.733-0.704-4.247,0.292
			c1.62-0.411,5.278,1.663,5.274,3.275c-1.456-1.753-2.443-2.039-3.448-2.527c-1.006-0.494-3.508-0.467-4.488,0.473
			c-0.981,0.943,0.103,4.193,1.403,5.047c-2.576-1.074-2.315-4.122-2.315-4.122c-1.25,0.971-0.717,3.291,1.356,5.425
			c1.177,1.212,1.109,2.44,1.084,3.441h2.545c0.143-0.637,0.141-1.284-0.079-1.685c-0.633-1.157-1.24-1.95-0.778-2.747
			c2.031,1.912,1.902,5.04,6.366,4.201c-1.659-0.934-0.819-1.896-2.232-2.01c-0.393-0.268-2.348-1.668-2.348-1.668
			c0.975,0.332,1.772,0.389,2.233,0.215c0.719-0.872-1.237-2.204-2.321-2.764c-3.696,0.562-4.502-2.133-4.128-2.801
			c0.374-0.664,1.893-0.819,3.001-0.029s0.751,2.104,1.739,2.736c1.994,1.311,2.408,2.428,1.935,2.857c0,0-0.008,0.683,1.27,1.279
			c1.278,0.597,1.18,1.871,2.195,2.289c0,0-0.032,0.051-0.098,0.125h1.824c0.157-0.518,0.194-1.081,0.102-1.526
			c-0.306-1.468-4.45-2.518-3.175-5.136c0.583-0.637,3.512,0.967,3.882,1.943c0.861,1.044,0.737,2.527,2.442,2.039
			c0,0-3.229-6.243-6.697-7.104c1.342,0.106,1.698,0.653,2.784,1.084C78.735,129.729,81.266,130.566,81.567,128.819z"/>
		<path d="M83.344,133.199c0.52,1.999-0.667,1.27-1.068,3.217c-0.105,0.516-0.196,1.063-0.316,1.584h1.144
			c0.262-0.275,0.507-0.37,0.885-0.5c-0.014,0.158-0.046,0.327-0.087,0.5h0.771C85.574,136.303,85.975,134.428,83.344,133.199z"/>
		<path d="M80.767,136.503c-1.211-0.103-1.558,0.101-1.663,1.497h2.267C81.591,137.226,81.447,136.561,80.767,136.503z"/>
		<path d="M65.223,125.58c-0.47,0.604,4.041,0.751,5.895-1.934c0.274-0.464,0.083-0.631-0.421-0.056
			C70.192,124.168,67.767,125.774,65.223,125.58z"/>
		<path d="M72.215,122.362c1.147-3.276-0.433-2.13-0.48-3.922c-0.238,1.256-1.925,1.603-2.064,2.656
			C69.531,122.15,71.903,123.108,72.215,122.362z"/>
		<path d="M74.808,119.491c1.258-0.334,1.664-1.779,0.096-2.345c-1.567-0.566-2.088,1.224-1.279,2.116
			c-0.005-0.501,0.508-1.146,0.859-1.101C74.835,118.209,75.602,118.882,74.808,119.491z"/>
		<path d="M75.074,123.957c1.364-0.606,1.381-2.89,3.162-3.94c-1.688-0.725-5.607,1.118-5.664,2.895
			C72.525,124.333,73.68,124.575,75.074,123.957z"/>
		<path d="M91.037,112.326c-0.032-0.157-0.039-0.322-0.039-0.487c-0.165-0.408-0.616-0.745-1.055-1.072
			c-0.47-0.349-0.936-0.719-1.099-1.189c-0.357,0.626-0.77,1.571-0.77,2.673c0,0.441,0.072,0.903,0.238,1.374
			c0.006,0.018,0.017,0.036,0.023,0.056l-0.005,0.002c0.203,0.552,0.539,1.113,1.067,1.665c1.229,1.282,2.836,1.755,3.726,1.55
			c0.177-0.04,0.38-0.131,0.545-0.289c-0.88,0.094-2.741-0.813-3.746-2.965c1.967,2.694,3.324,2.812,3.96,2.64
			c0.006-0.016,0.015-0.023,0.02-0.038l0.045,0.015c0.49-0.158,0.811-0.538,0.951-0.87c-0.18,0.07-0.381,0.121-0.604,0.137
			C93.128,115.606,91.572,114.815,91.037,112.326z"/>
		<path d="M85.204,111.811c0.601,0.436,0.992,1.142,1.444,1.959c0.523,0.945,1.115,2.017,2.173,2.848
			c1.059,0.851,2.327,0.86,2.741,0.629c0.062-0.035,0.134-0.092,0.126-0.161h0.006c-0.867-0.247-1.784-0.792-2.501-1.542
			c-0.557-0.581-0.905-1.18-1.118-1.768l-0.005,0.002c-0.49-1.325-1.671-3.033-3.107-3.652c-0.684-0.296-1.353-0.31-1.981-0.042
			c-1.85,0.896-1.766,2.302-1.647,2.854c0.221,0.718,0.979,1.099,1.559,1.042c0.177-0.017,0.594-0.109,0.641-0.579
			c0.037-0.348-0.05-0.605-0.241-0.727c-0.151-0.097-0.349-0.094-0.519,0.003c-0.209,0.123-0.322,0.363-0.304,0.659l0.022,0.37
			l-0.264-0.262c-1.003-0.993-0.589-1.631-0.364-1.858C82.537,110.906,84.285,110.901,85.204,111.811z"/>
		<path d="M99.343,113.587c-0.502-0.045-1.006-0.483-1.006-1.337c0-0.064,0.003-0.132,0.009-0.201
			c0.002-0.079,0.006-0.154,0.006-0.228c0-1.27-0.467-1.722-0.846-2.089c-0.159-0.155-0.286-0.319-0.37-0.511
			c-0.22,0.271-0.614,0.855-0.614,1.616c0,0.154,0.016,0.317,0.055,0.484c0.145,0.643,0.463,0.881,0.801,1.133
			c0.365,0.273,0.743,0.555,0.876,1.312l0.008,0.05l-0.024,0.044c-0.347,0.627-0.92,0.804-1.535,0.472
			c-0.77-0.416-1.524-1.626-1.524-2.757c0-0.343,0.068-0.679,0.23-0.985c0.736-1.255,0.887-1.964,0.887-2.475
			c0-0.188-0.021-0.349-0.04-0.501c-0.015-0.136-0.033-0.262-0.033-0.395c0-0.191,0.064-0.401,0.179-0.635
			c-0.433,0.146-1.617,0.577-2.65,2.418c0.229-2.55-0.136-4.291-1.055-5.036c-0.677-0.548-1.522-0.445-2.111-0.262
			c-0.964,0.301-1.251,1.289-1.032,2.11c0.146,0.549,0.541,1.043,1.094,0.921c0.346-0.078,0.542-0.255,0.553-0.498
			c0.011-0.225-0.14-0.46-0.338-0.526c-0.177-0.059-0.357,0.032-0.509,0.253l-0.086,0.13l-0.119-0.098
			c-0.287-0.231-0.381-0.529-0.265-0.836c0.195-0.514,0.947-0.921,1.641-0.89c0.659,0.03,1.145,0.44,1.337,1.121
			c0.316,1.134-0.239,2.453-0.776,3.729c-0.487,1.158-0.947,2.25-0.774,3.148c0.5,2.31,1.909,3.045,2.964,2.973
			c0.581-0.04,1.025-0.334,1.095-0.709c-0.88-0.544-2.029-1.794-1.79-4.549c0.107,3.012,1.275,3.948,2.092,4.396
			c1.064,0.586,2.231,0.529,2.745,0.136l0.077-0.06l1.444,0.912v-2.361C99.907,113.354,99.738,113.621,99.343,113.587z"/>
		<path d="M99.939,111.339v-5.032C99.672,107.772,98.071,106.017,99.939,111.339z"/>
		<path d="M98.914,97.497c-1.488,0.196-0.896-2.94-2.83-3.161c-1.281,1.865,0.034,3.256,1.906,5.29
			c1.717,2.657-1.269,3.118-2.113-0.209c-0.463-2.171-4.141-3.229-3.837,0.421c2.68-3.004,3.931,3.711,6.483,2.764
			c1.672-0.779,0.331-2.629,1.417-3.27v-7.651C97.445,94.065,99.452,97.211,98.914,97.497z"/>
		<path d="M98.118,137.517c-0.262,0.091-0.454,0.267-0.612,0.483h1.556C98.75,137.698,98.473,137.404,98.118,137.517z"/>
		<path d="M98.899,104.248c0,0.572,0.465,1.039,1.04,1.039v-2.079C99.365,103.208,98.899,103.674,98.899,104.248z"/>
		<path d="M98.901,136.242c0,0.562,0.453,1.017,1.013,1.017c0.008,0,0.015-0.004,0.025-0.004v-2.023
			c-0.01,0-0.017-0.004-0.025-0.004C99.354,135.228,98.901,135.682,98.901,136.242z"/>
		<path d="M97.272,115.656c-0.925,0.016-1.951,0.67-2.884,2.572c-0.868,1.834-0.363,2.494-2.425,5.876
			c0.318,0.003,0.803,0.108,1.153,0.178c-1.978,1.548-0.718,2.617-0.718,2.617c0.59-0.319,1.442-0.502,2.642-0.653
			c1.625-1.499,1.451-9.518,3.002-10.457c-0.15-0.053-0.305-0.093-0.463-0.113c-2.318,1.336-2.047,5.776-3.678,7.848
			C95.532,121.452,94.955,116.992,97.272,115.656z"/>
		<path d="M93.15,132.936c-0.208-1.14-0.115-1.989-0.419-2.705C92.167,130.902,91.884,132.14,93.15,132.936z"/>
		<path d="M93.387,133.895c-0.08-0.253-0.142-0.489-0.19-0.719c-1.684-0.8-1.212-2.599-0.611-3.22
			c-0.129-0.209-0.303-0.405-0.543-0.596c0.407-0.177,1.58-1.005,2.622-0.775c0.194-0.169,0.089-0.311,0.089-0.608
			c0-0.184-0.021-0.382-0.042-0.582c-0.021-0.204-0.042-0.415-0.042-0.615c0-0.07,0.027-0.13,0.034-0.199
			c-2.427,0.349-3.082,0.87-3.176,2.466c-0.211-0.784-0.026-1.508,0.468-1.917c0,0-1.271-1.049,0.595-2.728
			c-3.088-0.409-4.817,1.739-4.735,4.895c-0.384-1.409-1.643-2.148-3.052-2.835c0.783,1.104-0.083,2.526,0.921,3.837
			c1.61,1.857,1.922,1.113,2.915,2.246c0,0,0.326-1.387,0.059-2.066C89.496,133.085,91.333,133.765,93.387,133.895z"/>
		<path d="M98.249,115.872c-1.551,0.94-1.269,8.866-3.215,10.584c-0.194,0.885,0.229,1.629-0.043,2.224
			c0.462,0.162,0.981,0.469,1.588,0.982c0.049-0.601,0.325-1.203,0.63-1.985c0.464,0.276,0.702,0.184,0.868,0.632
			c-0.025-1.434,1.674-3.004,1.674-3.004v-7.652c-0.235-0.426-0.436-1.063-0.92-1.429c-0.843,3.676-0.66,5.791-1.2,7.72
			c0.538-1.918,0.142-4.232,0.968-7.88C98.486,115.993,98.369,115.929,98.249,115.872z"/>
		<path d="M97.445,128.265l0.693,0.682C98.006,128.47,97.87,128.519,97.445,128.265z"/>
		<path d="M98.139,128.946l-0.693-0.682c-0.903,1.58-0.574,3.185,0.313,4.416c-0.545-0.394-1.136-1.366-1.152-2.63
			c-1.892-1.872-2.919-1.126-4.094-0.685c0,0,1.002,0.511,1.03,3.542c-0.019,3.378,6.317,2.214,6.397,0.177v-7.314
			C99.939,125.771,98.381,126.917,98.139,128.946z"/>
		<path d="M93.423,134.002c-1.265,0.676-0.688,2.595-4.073,2.351c1.446,1.479,3.343-0.986,4.348-0.495
			c-0.454,0.763-0.881,1.473-1.293,2.143h1.871c0.285-0.853,0.541-1.748,0.751-2.7C94.293,135.091,93.698,134.676,93.423,134.002z"
			/>
	</g>
</g>
</svg>
