<?xml version="1.0" encoding="utf-8"?>
<!-- Generator: Adobe Illustrator 16.0.4, SVG Export Plug-In . SVG Version: 6.00 Build 0)  -->
<!DOCTYPE svg PUBLIC "-//W3C//DTD SVG 1.1//EN" "http://www.w3.org/Graphics/SVG/1.1/DTD/svg11.dtd">
<svg version="1.1" id="Layer_1" xmlns="http://www.w3.org/2000/svg" xmlns:xlink="http://www.w3.org/1999/xlink" x="0px" y="0px"
	 width="432.317px" height="446.756px" viewBox="0 0 432.317 446.756" enable-background="new 0 0 432.317 446.756"
	 xml:space="preserve">
<g id="Blottartuban">
	<g>
		<path id="Ytterkontur_6_" d="M10.98,224.014c-0.57-6.158-1.219-12.523-1.96-19.061c-0.204-1.803,0.052-2.889-1.405-4.134
			c-1.781-1.523-2.663-3.19,0.178-5.292c1.464-1.084,1.799-0.238,1.302-4.711c-1.151-10.377-3.714-26.013-4.597-29.946
			c-0.884-3.933,1.002-1.866-1.576-3.3c-3.65-2.033-3.563-5.917-1.482-7.517c0.935-0.72,4.042,0.235,1.838-3.066
			c-2.525-3.786-2.783-13.484,0.853-14.525c2.322-0.665,0.125-0.013-0.63-5.214s0.444-7.075,4.378-7.959
			c3.933-0.883,1.693-0.666,2.472-3.002c0.778-2.336,1.123-5.258,5.795-3.701c4.672,1.556,7.391-1.389,14.833-2.441
			c7.495-1.062,37.321,2.67,70.586-1.386l0,0c4.114-0.502,8.291-1.125,12.484-1.892c23.032-4.21,18.537-3.335,26.16-4.795
			c5.302-1.016,4.318-0.795,3.949-5.908c-0.414-5.735-1.436-5.792-4.409-14.392c-2.268-6.562,1.653-3.677,7.152-3.958
			c7.99-0.41,35.679-2.452,42.67-2.879c6.992-0.426,7.681-0.079,5.29-5.033c-5.5-11.397-22.839-41.49-39.031-39.921
			c-4.106,0.396-4.937-0.401-6.486,1.758c-1.549,2.16-6.321,0.864-6.611-2.122c-0.289-2.986-1.482-12.023,11.096-16.396
			c7.318-2.544,23.772-6.218,44.742-9.05c37.794-5.104,90.253-7.463,130.013,4.552c23.286,7.037,13.237,17.825,6.206,19.994
			c-17.803,5.493-34.102,14.893-44.473,38.719c-4.109,9.439-3.164,6.909,4.216,12.401c8.662,6.444,5.411,3.996,9.151,8.908
			c3.741,4.913,10.765,10.009,23.4,10.794c12.634,0.785,54.134,6.561,65.588,10.725c11.455,4.165,12.158,2.34,15.253-0.724
			c2.274-2.253,5.256-2.77,7.159,1.315c0.859,1.845,1.696,2.599,3.845,3.396c4.102,1.519,6.115,6.363,4.36,10.001
			c-1.621,3.358,0.059,3.195,1.58,3.99c4.432,2.314,4.069,5.696,0.825,8.522c-3.659,3.188-2.903,1.789-4.968,3.81
			c-1.512,1.48-1.716,3.947-1.448,5.792c5.285,36.409,0.43,26.419,6.146,55.667c1.853,9.479,2.786,16.439,3.145,21.98H10.98z
			 M10.98,224.014c4.755,51.515,3.94,89.327,4.242,99.393c0.338,11.269,8.582,8.209,11.367,8.443
			c2.786,0.23,55.796,8.156,69.747,9.566c13.952,1.412,19.458-1.381,22.228,3.875c1.775,3.369,0.436,2.238,3.34,5.957
			c2.007,2.566-0.859,4.102-3.652,6.381c-28.603,23.347-30.183,59.191-13.272,69.101c3.861,2.263,5.108,0.887,1.602,4.868
			c-4.674,5.307-11.631,4.393-18.822,5.342c-7.192,0.947-3.838,4.088,1.173,6.918c6.643,3.753,10.584,4.25,17.627-0.829
			c2.451-1.767,3.68-3.495,10.724-4.681c7.154-1.203,16.037-5.572,7.351-12.266c-16.873-13.004-6.698-30.245-6.698-30.245l0,0
			c3.695-6.641,6.991-11.571,9.974-15.174c12.064-14.558,18.996-7.555,26.033-4.64c28.949,11.984,55.54,12.002,81.064,4.209
			c3.085-0.943,6.153-1.998,9.207-3.161c11.458-4.359,12.618-9.761,15.805-2.786c13.095,28.871,5.435,44.432,3.505,49.141
			c-1.83,4.466-6.422,10.221,3.397,9.781c7.253-0.326,5.919-0.311,16.111,4.905c15.062,7.708,12.988,7.765,21.194-0.294
			c4.186-4.111,4.505-6.654-2.506-5.787c-2.048,0.254-7.748,1.693-10.625-1.419c-1.358-1.471-4.031-3.377-6.721-4.56
			c-7.578-3.337-1.586-9.893,2.266-16.797c3.852-6.904,7.379-13.272,4.428-28.184c-1.169-5.906-3.534-11.839-8.033-16.803
			c-3.832-4.229-9.397-6.249-5.801-10.616c3.023-3.671,6.356-6.603,8.09-13.718c1.348-5.531,9.306-5.048,16.959-6.416
			c16.851-3.016,53.137-8.916,61.406-11.727c17.687-6.012,47.133-6.072,60.104-9.59c8.941-2.425,10.033-2.172,7.006-13.238
			c-6.224-22.756-6.071-31.562-4.533-46.779c1.062-10.5,3.104-15.834,2.305-28.172H10.98z"/>
		<g id="Gult_6_">
			<path id="Ben_vänster_6_" fill="#FFF271" d="M134.106,370.912c-14.263,11.251-10.9,9.344-18.275,21.361
				c-7.376,12.018-2.228,28.85,3.006,33.617c5.234,4.766,9.328,8.138,0.715,9.976c-8.613,1.841-8.581,1.271-13.224,4.798
				c-3.977,3.023-5.498,4.176-9.7,3.577c-5.987-0.851-11.64-4.774-2.858-4.872c8.781-0.096,8.388-1.565,13.027-5.531
				c4.639-3.967,9.961-3.477,1.243-7.906c-14.069-7.15-16.892-35.891,6.857-61.447c10.046-10.811,8.58-7.361,15.675-1.52
				C136.032,367.461,137.373,368.336,134.106,370.912z"/>
			<path id="Ben_höger_6_" fill="#FFF271" d="M278.478,365.213c14.033,15.217,11.685,30.051,4.139,45.311
				c-6.195,12.531-6.881,13.227,1.487,17.941c6.351,3.577,4.745,2.302,7.474,4.551c2.729,2.246,2.457,2.021,5.94,1.684
				c3.484-0.337,6.044,0.168,3.075,3.219s-4.888,3.99-9.086,2.136c-4.199-1.854-6.334-3.153-13.165-6.259
				c-6.832-3.105-6.238-2.158-10.267-2.271c-4.03-0.111-5.346-0.738-3.067-5.73c2.279-4.993,10.141-22.852-0.327-47.439
				c-3.902-9.166-6.168-7.941-1.157-11.943C270.679,360.697,270.479,356.537,278.478,365.213z"/>
			<path fill="#FFF271" d="M421.012,194.808c0.209,1.565,0.424,3.093,0.641,4.575c2.949,20.062,3.689,38.071,0.231,54.23
				c-3.458,16.16,1.665,32.742,2.693,38.17c1.028,5.425,7.844,13.557-4.726,16.029c-12.57,2.473-38.498,4.483-58.812,9.967
				c-17.513,4.729-59.174,11.375-64.391,12.017c-9.681,1.188-7.409,1.144-6.029-5.192c1.564-7.186,1.941-16.264,1.282-20.47
				c-0.659-4.206-4.054-10.397-3.435,4.729c1.198,29.288-17.602,57.388-54.669,68.94l0,0c-5.511,1.719-11.435,3.072-17.758,4.008
				c-34.419,5.093-82.389-10.35-93.896-35.861c-6.078-13.477-5.454-30.366-4.066-36.778c1.388-6.413-1.349-6.149-2.585-0.755
				c-1.235,5.395-1.538,12.405-0.799,25.446c0.353,6.245-0.361,4.079-5.386,4.038c-9.552-0.08-36.731-3.225-44.888-4.443
				c-8.156-1.219-27.18-3.143-32.229-3.408c-5.049-0.264-12.712-2.324-4.304-8.121c4.238-2.924,6.827-1.467,9.585-2.186
				c6.124-1.598,10.973-1.567,5.833-12.369c-3.312-6.965-16.639-58.654-20.461-76.383c-1.18-5.477-4.708-21.289-8.031-36.183
				H421.012z M282.04,148.057c-0.12,4.729-0.65,3.881-1.627,0h-69.101c-0.124,3.731-0.357,7.541-0.744,11.372
				c-0.407,4.028-2.035,2.333-2.14-0.044c-0.104-2.376-0.176,0.771-0.747-7.714c-0.1-1.479-0.179-2.667-0.264-3.614h-49.973
				c-0.38,1.049-0.721,2.199-1.02,3.432c-1.145,4.725-1.617,4.05-1.954,0.565c-0.118-1.21-0.053-2.575,0.183-3.997h-27.368
				c-0.012,1.98,0.285,5.048,0.652,8.83c0.289,2.986-1.537,6.176-2.509-1.264c-0.847-6.485-0.182-4.248,0.115-7.566H16.623
				c-1.542,1.191-4.34,1.776-7.096,1.213c-4.776-0.979-3.969,0.51-2.877,1.409c1.475,1.213,2.141,3.938,0.615,6.345
				c-1.485,2.346-0.844-0.523,0.859,7.577c0.675,3.207,3.593,16.306,6.689,30.207h406.198c-2.53-18.864-4.359-42.228-4.716-46.751
				H282.04z M280.413,148.057c-0.062-0.242-0.127-0.503-0.193-0.775c-1.253-5.153-0.979,2.856-1.911-9.359
				c-0.615-8.056,0.252-23.352,1.411-36.617h-72.039c0.233,1.406,0.449,2.724,0.653,3.963c1.683,10.223,3.413,24.957,3.029,40.98
				c-0.015,0.596-0.032,1.196-0.051,1.809H280.413z M279.72,101.305c0.599-6.873,1.276-13.195,1.866-17.702
				c2.386-18.22,8.287-41.491,47.842-58.385c9.822-4.195,7.208-5.973,0.007-10.298c-7.2-4.326-19.361-5.409-32.839-7.117
				c-19.663-2.492-60.366-1.77-98.396,2.582c-15.509,1.773-30.563,4.148-43.575,7.154c-8.745,2.02-12.313,7.723,2.361,8.813
				c14.674,1.09,25.816,9.806,35.788,27.176c7.303,12.721,11.09,27.602,13.459,39.75c0.556,2.854,1.03,5.56,1.45,8.026H279.72z
				 M154.654,148.057c0.443-2.657,1.489-5.506,3.062-7.87c11.651-17.509,39.143-3.398,41.712-2.409
				c1.565,0.603,1.601,0.976,4.435,1.706c2.833,0.73,2.946,0.593,3.202-1.942c0.257-2.537-1.535-18.438-1.816-20.044
				c-0.281-1.605,0.128-1.269-1.798-1.709c-13.678-3.134-21.164-5.862-33.73-4.644c-8.336,0.807-6.312,0.362-9.094,0.755
				c-2.85,0.401-10.624,3.392-12.614,4.612c-4.86,2.983-4.334,5.82-7.319,17.789c-1.589,6.374-2.597,9.05-8.584,8.617
				c-5.944-0.429-4.11,1.654-4.599,3.083c-0.152,0.443-0.219,1.129-0.225,2.056H154.654z M416.296,148.057
				c-0.012-0.153-0.022-0.286-0.031-0.394c-0.286-3.614,0.357-4.745-2.469-6.041c-1.523-0.698-3.067-2.015-3.042-3.535
				c0.045-2.768-1.111-2.404-3.106-2.901c-1.307-0.326-4.803-1.42-4.898-5.176c-0.044-1.754,0.341-3.251-0.849-4.879
				c-0.94-1.291-2.565-3.144-5.838-2.574c-3.383,0.586-4.235,1.639-9.184,3.088c-5.129,1.501-24.648,7.411-44.395,13.594
				s-21.395-16.011-23.755-24.824c-2.267-8.466-5.86-3.451-9.648-1.074c-3.788,2.376-8.146,4.054-7.65-3.779
				c0.227-3.573,0.49-5.322-3.516-5.186c-4.005,0.137-7.866,1.767-11.502,3.124c-3.637,1.355-2.264-0.032-3.355,6.854
				c-1.29,8.145-0.993,23.455-0.992,31.24c0,0.949-0.008,1.769-0.026,2.463H416.296z M125.544,148.057
				c0.043-0.486,0.079-1.096,0.101-1.874c0.168-6.045-0.382-5.238-6.174-6.687c-15.271-3.818-20.381-5.561-34.717-10.952
				c-14.337-5.394-26.944-7.186-43.169-4.86c-6.683,0.957-3.175,0.937-9.553-0.079c-2.471-0.393,0.498-0.048-3.604-0.906
				c-4.102-0.858-1.372,1.389-2.496,2.754c-1.124,1.364-1.452,3.154-3.965,3.146c-2.512-0.008-2.344,1.734-0.61,4.078
				c1.735,2.344,1.465,6.047-2.11,6.734c-3.945,0.76-4.43,1.65-2.042,4.845c1.1,1.47,0.674,2.836-0.582,3.801H125.544z
				 M207.417,148.057c-0.404-4.569-0.953-4.071-4.521-5.591c-16.998-7.242-38.279-14.627-45.452,5.591H207.417z"/>
			<path fill="#FFF271" d="M14.447,251.898c-0.436-5.799-0.771-7.963,1.667-6.129c3.478,2.618,3.791,0.641,5.808,0.317
				c0.989-0.158,1.56,2.485,2.84,8.579c1.856,8.828,7.283,27.387,9.762,37.23c4.693,18.635,10.092,22.507,0.893,24.781
				c-10.613,2.621-11.6,3.025-14.198,6.397c-3.347,4.343-4.422,6.206-4.921-1.533c-0.498-7.737-0.165-43.183-0.608-52.937
				C15.247,258.854,14.58,253.646,14.447,251.898z"/>
			<path fill="#FFF271" d="M10.425,209.086c0.019-6.281-1.716-6.706,0.326-7.002c2.601-0.377,1.731,1.025,2.716,4.699
				c0.543,2.023,2.178,7.888,2.851,11.275c0.98,4.93,3.78,14.391,4.393,19.418c0.35,2.864-1.776,1.113-3.718,1.803
				c-1.943,0.691-3.389,3.908-3.795-1.578C12.737,231.463,10.421,210.854,10.425,209.086z"/>
			<path fill="#FFF271" d="M199.656,96.062c3.342-0.469,3.006-2.679,3.982,3.507c0.976,6.185,1.132,7.802,0.815,9.717
				c-0.316,1.914,0.575,3.335-3.487,1.593c-4.062-1.741-30.781-5.306-40.765-2.078c-11.406,3.688-13.085,4.282-12.263,1.753
				c1.2-3.687,0.532-2.939,5.107-4.325c5.035-1.524,13.384-4.436,26.388-6.323C192.437,98.017,193.833,96.877,199.656,96.062z"/>
			<path fill="#FFF271" d="M23.531,113.628c4.41-2.437,29.25-2.021,38.537-1.473c16.926,0.998,47.841-1.37,61.085-4.662
				c13.244-3.293,12.723-3.494,16.656-4.377c3.933-0.883,8.412-1.317,5.274,7.778c-3.137,9.095-6.195,16.423-7.278,20.798
				c-1.083,4.374,0.563,8.538-15.909,4.304c-36.19-9.304-50.323-20.366-74.5-17.146c-12.413,1.654-12.049,2.675-15.155,1.721
				c-3.106-0.955-3.5-2.425-6.213-1.91c-2.713,0.514-1.846,1.686-3.604-0.907C20.665,115.162,19.305,115.963,23.531,113.628z"/>
			<path fill="#FFF271" d="M393.412,112.704c8.039,2.612,10.151,3.663-1.066,7.136c-8.807,2.726-32.346,10.671-39.739,12.391
				c-10.195,2.369-22.656,10.686-27.173-5.655c-4.834-17.491-4.982-23.535-13.8-18.004c-6.867,4.308-7.801,2.264-7.887-3.631
				c-0.134-9.155-1.828-16.275,6.08-7.245c4.597,5.247,12.277,3.583,18.619,4.224C334.786,102.561,381.013,108.675,393.412,112.704z
				"/>
			<path fill="#FFF271" d="M284.573,91.1c1.969-9.484,1.635-14.225,6.227-10.901s5.933,4.197,7.715,7.039
				c1.782,2.841,3.85,6.032-0.337,4.302c-1.363-0.563-8.659-0.361-9.837-0.428c-2.271-0.128,0.197,0.734,2.858,0.979
				c0.848,0.077,4.665,0.529,6.105,0.789c2.508,0.451,4.001,1.119,4.186,5.622c0.176,4.245,1.056,4.419-6.457,4.645
				c-8.381,0.252-12.625,6.934-11.606-3.145C283.682,97.465,283.959,94.057,284.573,91.1z"/>
			<path fill="#FFF271" d="M190.207,78.894c8.946-0.993,7.609-3.124,9.721,5.714c2.055,8.596,2.55,8.167-2.218,9.508
				c-5.782,1.626-25.164,4.699-31.152,6.409c-5.988,1.711-12.847,3.506-15.075,3.847c-2.227,0.341-3.335,0.574-3.849-2.139
				c-0.514-2.713-1.458-11.161-3.445-16.118c-1.988-4.956-1.514-5.253,1.881-5.206c3.396,0.049,7.177,0.185,15.436-0.113
				C169.766,80.496,184.982,79.473,190.207,78.894z"/>
			<g id="Hand_vänster_6_">
				<path fill="#FFF271" d="M5.96,134.481c-3.126,1.204-3.056,1.996-2.263,7.755c0.846,6.135,2.811,4.496,5.14,5.092
					c4.636,1.182,9.059-2.78,5.983-4.349c-3.104-1.583-2.335-0.778-4.274-1.344c-1.939-0.565-2.868-0.642-1.379-2.567
					c0.893-1.152,0.592-0.371-1.006-2.602C6.564,134.235,7.049,134.062,5.96,134.481z"/>
				<path fill="#FFF271" d="M10.173,135.832c1.065,1.277,1.758,2.593,2.951,2.603c1.443,0.012,9.286-0.083,6.255-5.44
					c-3.031-5.358-2.415-3.664-3.938-5.647c-2.156-2.805-3.713-5.919-7.06-5.469c-3.348,0.45-3.159,3.697-2.247,6.622
					C7.045,131.426,8.972,134.392,10.173,135.832z"/>
				<path fill="#FFF271" d="M22.861,120.977c0.773,0.971,2.043,2.942,0.236,4.373c-1.808,1.431-4.343,2.492-7.889-1.057
					c-3.547-3.55-4.278-8.502-0.445-9.125S21.145,118.82,22.861,120.977z"/>
			</g>
			<g id="Hand_höger_6_">
				<path fill="#FFF271" d="M422.641,136.999c-5.052,4.885-15.218,2.354-7.785-3.893c4.276-3.595,6.484-5.651,9.213-3.404
					C426.799,131.948,424.564,135.139,422.641,136.999z"/>
				<path fill="#FFF271" d="M417.282,128.35c-7.26,6.732-18.269,3.277-9.601-4.47c9.676-8.646,14.982-8.661,14.123-1.996
					C421.231,126.335,420.257,125.592,417.282,128.35z"/>
				<path fill="#FFF271" d="M410.458,118.839c-11.393,8.137-12.255,0.09-7.59-3.158c6.706-4.668,9.014-6.775,11.366-3.235
					S411.785,117.892,410.458,118.839z"/>
			</g>
		</g>
		<g id="Detaljer_6_">
			<g id="Knappar_6_">
				<path fill="#FFFFFF" d="M13.202,198.204c0.031,1.062-0.927,2.1-2.24,2.165c-1.312,0.063-2.531-0.195-2.707-1.371
					c-0.177-1.177,0.536-2.25,2.215-2.412C12.15,196.422,13.173,197.267,13.202,198.204z"/>
				<path fill="#FFFFFF" d="M4.198,151.292c-1.232,0.245-2.778,1.149-2.21,3.104c0.383,1.32,0.946,1.353,2.079,1.367
					c1.132,0.016,2.322-0.663,2.084-2.462C5.922,151.564,5.43,151.049,4.198,151.292z"/>
				<path fill="#FFFFFF" d="M18.996,245.053c4.467-0.559,3.931-4.149,0.286-4.172C15.265,240.854,15.026,245.549,18.996,245.053z"/>
			</g>
			<g id="Vänster_öga_6_">
				<path d="M216.715,37.519c6.098-0.591,9.728,1.147,15.87,4.365c3.44,1.802,3.248,2.483,5.912,2.693
					c4.303,0.336,3.347,3.482,2.834,4.623c-0.827,1.838-0.08,1.766-0.036,3.52c0.092,3.625,2.977,19.052-6.058,20.429
					c-11.262,1.717-16.102-1.579-17.251-12.143c-1.149-10.563,1.712-14.734,3.008-15.613c1.296-0.879,4.772-2.597,1.717-4.31
					c-2.268-1.274-1.316-0.626-3.568-0.534C216.892,40.642,213.853,37.796,216.715,37.519z"/>
				<path fill="#FFFFFF" d="M232.461,45.789c5.316,2.647,7.435,1.297,7.855,9.789c0.527,10.622-0.692,14.886-7.884,15.834
					c-7.193,0.947-12.402-3.571-13.078-10.538c-0.655-6.762-0.41-10.672,2.13-13.016C224.827,44.771,225.071,42.11,232.461,45.789z"
					/>
				<path d="M235.681,58.287c0.659,3.693-2.207,5.739-3.836,5.771c-1.63,0.032-4.849-0.786-5.074-4.405
					c-0.225-3.62,1.051-6.005,3.788-6.271C233.296,53.118,235.131,55.201,235.681,58.287z"/>
				<path fill="#FFFFFF" d="M234.003,57.821c0.205,2.115,0.165,2.999-1.316,3.268s-2.696-1.125-3.038-2.845
					c-0.245-1.232,1.087-1.738,1.834-1.812C233.12,56.274,233.943,57.2,234.003,57.821z"/>
			</g>
			<g id="Höger_öga_6_">
				<path d="M276.674,54.943c0.567,9.74-2.932,15.104-11.044,15.637c-8.111,0.535-11.363-5.806-11.732-10.918
					c-0.37-5.113,0.105-11.466,2.494-14.433c5.045-6.266,12.827-4.951,16.504,0.536C274.951,48.831,276.5,51.945,276.674,54.943z"/>
				<path fill="#FFFFFF" d="M263.275,43.683c6.41-1.249,10.575,4.754,11.496,11.068c1.121,7.678-2.153,12.767-8.45,13.88
					c-7.034,1.242-10.135-4.795-10.356-9.672C255.744,54.083,255.17,45.262,263.275,43.683z"/>
				<path d="M266.777,57.786c0.603,2.167-1.605,4.174-3.62,4.117c-2.015-0.056-4.471-2.078-4.427-4.217
					c0.044-2.14,0.806-3.344,3.17-3.573C264.264,53.885,266.199,55.707,266.777,57.786z"/>
				<path fill="#FFFFFF" d="M264.028,57.927c-0.052,1.13-0.925,1.471-1.497,1.401c-1-0.124-1.556-0.297-1.714-0.84
					c-0.283-0.977-0.032-1.629,1.2-1.873C262.875,56.443,264.068,57.044,264.028,57.927z"/>
				<path d="M265.036,23.606c2.292-0.329,6.95,0.894,7.959,4.378c0.283,0.978-0.22,2.91-1.03,2.989
					c-0.808,0.078-0.75-0.618-0.81-1.24c-0.193-1.991-2.788-3.498-5.208-3.201c-2.421,0.298-3.241,2.198-4.673,4.912
					c-1.433,2.713-3.153,1.812-2.499-0.512C259.43,28.608,261.01,24.186,265.036,23.606z"/>
			</g>
			<path d="M227.035,300.875c7.143,20.826-1.086,51.086-37.086,55.333c-23.84,2.812-47.398-10.2-47.772-29.028
				c-0.129-6.518,1.067-7.137,2.568-9.793c2.559-4.529,2.928-3.829,1.509,2.617c-4.011,18.221,10.935,32.379,37.41,33.549
				c28.504,1.256,45.996-20.469,40.779-50.92C222.707,292.504,223.534,290.664,227.035,300.875z"/>
			<path d="M107.629,117.724c-1.224,2.763-0.473,1.601-1.922,4.144c-1.932,3.389-1.372,5.281,1.778,4.098
				c3.151-1.186,5.389-6.195,2.974-4.307c-2.568,2.007-5.504,4.578-2.2-0.666C112.179,114.771,109.433,113.656,107.629,117.724z"/>
			<g id="Knapp_höger_6_">
				<path d="M346.697,124.389c2.038,2.594,1.101,6.172-1.725,6.823c-2.826,0.649-3.994,0.562-5.15-0.003
					c-1.714-0.839-3.889-7.432-0.571-8.485C340.957,122.182,344.405,121.471,346.697,124.389z"/>
				<path fill="#FFF271" d="M342.51,123.287c3.314-0.134,4.219,2.065,3.256,4.457c-0.657,1.633-1.872,2.064-3.937,2.14
					c-2.124,0.076-3.737-2.361-2.902-4.68C339.372,123.968,340.495,123.368,342.51,123.287z"/>
			</g>
			<path id="Skäggstubb_6_" d="M256.152,77.748c0.292-0.028,0.552,0.185,0.58,0.477c0.028,0.291-0.186,0.551-0.477,0.579
				s-0.551-0.187-0.579-0.478C255.648,78.035,255.862,77.775,256.152,77.748z M249.576,77.85c0.033,0.341,0.336,0.59,0.676,0.557
				c0.341-0.033,0.59-0.335,0.557-0.676c-0.033-0.34-0.336-0.589-0.676-0.556C249.792,77.208,249.542,77.51,249.576,77.85z
				 M246.912,81.971c0.031,0.314,0.312,0.546,0.627,0.516c0.316-0.031,0.548-0.312,0.517-0.627
				c-0.031-0.316-0.312-0.548-0.628-0.517C247.112,81.373,246.882,81.654,246.912,81.971z M237.915,82.968
				c0.04,0.412,0.406,0.715,0.819,0.675c0.414-0.04,0.717-0.407,0.677-0.82s-0.408-0.716-0.821-0.676
				C238.176,82.187,237.875,82.555,237.915,82.968z M240.839,79.701c0.033,0.34,0.336,0.59,0.676,0.557
				c0.34-0.033,0.589-0.336,0.556-0.676c-0.033-0.341-0.335-0.59-0.675-0.557C241.055,79.059,240.806,79.36,240.839,79.701z
				 M239.298,78.563c0.031,0.315,0.311,0.547,0.627,0.516c0.316-0.03,0.548-0.311,0.517-0.627c-0.031-0.314-0.312-0.547-0.628-0.517
				C239.499,77.967,239.268,78.248,239.298,78.563z M227.663,79.534c0.028,0.29,0.288,0.504,0.578,0.477
				c0.292-0.028,0.506-0.288,0.478-0.579c-0.029-0.291-0.288-0.505-0.58-0.478C227.848,78.982,227.634,79.242,227.663,79.534z
				 M233.315,82.91c0.03,0.316,0.311,0.547,0.626,0.516c0.316-0.029,0.548-0.311,0.517-0.626c-0.03-0.315-0.312-0.548-0.627-0.517
				C233.515,82.313,233.284,82.596,233.315,82.91z M263.001,79.532c0.031,0.315,0.312,0.546,0.627,0.517
				c0.316-0.031,0.548-0.312,0.517-0.628c-0.031-0.315-0.312-0.548-0.628-0.517C263.202,78.936,262.971,79.217,263.001,79.532z
				 M252.122,83.38c0.033,0.341,0.335,0.59,0.675,0.557c0.341-0.033,0.59-0.335,0.557-0.677c-0.033-0.339-0.335-0.589-0.676-0.556
				C252.337,82.737,252.088,83.039,252.122,83.38z M245.672,80.834c0.031,0.315,0.311,0.546,0.627,0.517
				c0.315-0.031,0.547-0.312,0.517-0.627c-0.031-0.315-0.313-0.547-0.628-0.517C245.872,80.237,245.641,80.519,245.672,80.834z
				 M211.835,94.536c0.031,0.315,0.312,0.546,0.627,0.517c0.316-0.031,0.548-0.312,0.517-0.628c-0.03-0.314-0.312-0.547-0.628-0.517
				C212.036,93.939,211.805,94.221,211.835,94.536z M221.083,103.656c0.028,0.29,0.288,0.504,0.579,0.476
				c0.291-0.027,0.505-0.288,0.477-0.578c-0.028-0.292-0.288-0.506-0.58-0.478C221.269,103.104,221.055,103.364,221.083,103.656z
				 M217.793,106.768c0.03,0.316,0.311,0.548,0.627,0.517c0.315-0.03,0.547-0.312,0.517-0.626c-0.031-0.316-0.313-0.548-0.628-0.517
				C217.993,106.171,217.762,106.453,217.793,106.768z M226.17,118.295c0.023,0.243,0.239,0.421,0.482,0.397
				c0.243-0.023,0.421-0.239,0.397-0.482c-0.023-0.243-0.239-0.421-0.482-0.397S226.146,118.053,226.17,118.295z M227.598,116.462
				c0.029,0.291,0.288,0.505,0.579,0.477c0.292-0.028,0.506-0.289,0.478-0.579c-0.029-0.291-0.289-0.506-0.58-0.478
				C227.784,115.911,227.57,116.17,227.598,116.462z M227.739,118.426c0.026,0.267,0.263,0.463,0.531,0.438
				c0.267-0.026,0.463-0.264,0.437-0.531c-0.026-0.267-0.264-0.463-0.531-0.438C227.909,117.921,227.714,118.159,227.739,118.426z
				 M233.379,116.247c0.035,0.364,0.359,0.631,0.724,0.596c0.364-0.036,0.631-0.36,0.596-0.724c-0.036-0.364-0.36-0.631-0.724-0.596
				C233.61,115.558,233.343,115.882,233.379,116.247z M240.466,117.569c0.026,0.268,0.263,0.463,0.531,0.437
				c0.267-0.026,0.463-0.263,0.437-0.53c-0.026-0.267-0.264-0.463-0.531-0.437C240.635,117.065,240.439,117.303,240.466,117.569z
				 M235.456,121.069c0.017,0.17,0.169,0.294,0.339,0.278c0.17-0.017,0.294-0.169,0.278-0.339c-0.017-0.17-0.168-0.294-0.338-0.278
				C235.565,120.748,235.44,120.898,235.456,121.069z M234.583,123.226c0.031,0.316,0.312,0.547,0.627,0.517
				c0.316-0.03,0.548-0.312,0.517-0.627c-0.031-0.315-0.312-0.548-0.628-0.518C234.784,122.629,234.553,122.911,234.583,123.226z
				 M240.166,123.814c0.031,0.316,0.311,0.547,0.627,0.517c0.315-0.03,0.547-0.312,0.517-0.626
				c-0.031-0.316-0.312-0.548-0.628-0.518C240.367,123.218,240.136,123.5,240.166,123.814z M244.593,128.002
				c0.018,0.193,0.191,0.336,0.385,0.316c0.195-0.018,0.337-0.19,0.318-0.385c-0.019-0.195-0.191-0.337-0.386-0.318
				C244.716,127.635,244.574,127.807,244.593,128.002z M246.146,128.542c0.042,0.437,0.432,0.758,0.869,0.715
				c0.437-0.042,0.757-0.432,0.715-0.869c-0.043-0.438-0.431-0.757-0.868-0.714C246.426,127.716,246.104,128.104,246.146,128.542z
				 M247.159,115.1c0.022,0.219,0.217,0.379,0.435,0.358c0.219-0.021,0.379-0.216,0.358-0.434c-0.021-0.22-0.216-0.379-0.435-0.358
				C247.299,114.688,247.138,114.881,247.159,115.1z M250.761,119.618c0.028,0.291,0.288,0.505,0.579,0.477
				c0.291-0.029,0.505-0.288,0.477-0.579c-0.028-0.292-0.288-0.506-0.58-0.477C250.947,119.066,250.732,119.327,250.761,119.618z
				 M244.877,120.596c0.03,0.316,0.311,0.547,0.626,0.516c0.316-0.029,0.548-0.311,0.517-0.627c-0.03-0.314-0.312-0.547-0.627-0.517
				C245.078,119.999,244.847,120.281,244.877,120.596z M256.371,115.307c0.029,0.291,0.288,0.505,0.579,0.477
				c0.292-0.028,0.506-0.288,0.477-0.578c-0.028-0.292-0.288-0.506-0.579-0.479C256.557,114.756,256.342,115.015,256.371,115.307z
				 M261.223,114.837c0.028,0.291,0.288,0.505,0.578,0.476c0.292-0.027,0.506-0.288,0.478-0.577
				c-0.028-0.292-0.288-0.507-0.58-0.479C261.408,114.285,261.194,114.545,261.223,114.837z M271.999,108.612
				c0.026,0.267,0.263,0.463,0.53,0.437c0.267-0.025,0.463-0.263,0.437-0.531c-0.026-0.267-0.264-0.463-0.53-0.437
				C272.168,108.107,271.973,108.345,271.999,108.612z M262.408,118.771c0.03,0.316,0.311,0.548,0.626,0.517
				c0.316-0.031,0.548-0.312,0.517-0.627c-0.03-0.315-0.312-0.547-0.627-0.518C262.608,118.175,262.377,118.456,262.408,118.771z
				 M261.441,121.001c0.04,0.413,0.407,0.715,0.82,0.675s0.716-0.407,0.676-0.82s-0.408-0.716-0.821-0.676
				C261.704,120.22,261.401,120.588,261.441,121.001z M255.689,120.992c0.036,0.364,0.36,0.632,0.724,0.596
				c0.365-0.035,0.632-0.359,0.596-0.724c-0.035-0.364-0.359-0.632-0.724-0.597C255.921,120.304,255.654,120.628,255.689,120.992z
				 M262.38,125.995c0.026,0.268,0.263,0.463,0.531,0.437c0.267-0.026,0.463-0.263,0.438-0.53c-0.026-0.267-0.264-0.463-0.531-0.437
				C262.549,125.491,262.354,125.729,262.38,125.995z M256.924,128.565c0.047,0.485,0.478,0.84,0.964,0.793
				c0.486-0.047,0.841-0.478,0.794-0.964c-0.047-0.486-0.478-0.842-0.965-0.794C257.231,127.647,256.876,128.079,256.924,128.565z
				 M270.884,115.25c0.026,0.268,0.262,0.463,0.53,0.437c0.267-0.025,0.463-0.263,0.437-0.53c-0.026-0.267-0.264-0.462-0.53-0.437
				C271.053,114.746,270.858,114.983,270.884,115.25z M265.578,112.122c0.045,0.462,0.455,0.8,0.917,0.755
				c0.461-0.044,0.799-0.455,0.754-0.917c-0.044-0.461-0.455-0.799-0.916-0.754S265.534,111.661,265.578,112.122z M259.244,82.722
				c0.017,0.17,0.169,0.295,0.339,0.278s0.294-0.168,0.277-0.339c-0.016-0.17-0.167-0.294-0.337-0.278
				C259.353,82.4,259.228,82.552,259.244,82.722z M263.867,76.779c0.019,0.194,0.191,0.336,0.385,0.318
				c0.195-0.019,0.337-0.192,0.319-0.386c-0.019-0.195-0.192-0.337-0.387-0.318C263.99,76.412,263.848,76.584,263.867,76.779z
				 M221.085,78.255c0.026,0.269,0.262,0.464,0.53,0.438c0.267-0.026,0.463-0.263,0.437-0.531c-0.026-0.267-0.264-0.462-0.531-0.437
				S221.059,77.988,221.085,78.255z M245.396,77.471c0.021,0.218,0.217,0.379,0.435,0.356c0.219-0.021,0.379-0.216,0.358-0.434
				c-0.022-0.219-0.216-0.379-0.435-0.358C245.537,77.057,245.375,77.252,245.396,77.471z M241.943,83.801
				c0.019,0.194,0.191,0.338,0.385,0.318c0.195-0.019,0.337-0.191,0.319-0.386c-0.019-0.195-0.192-0.337-0.387-0.317
				C242.065,83.435,241.924,83.606,241.943,83.801z M259.38,77.402c0.024,0.243,0.24,0.421,0.483,0.397
				c0.242-0.023,0.42-0.239,0.397-0.482c-0.024-0.243-0.24-0.421-0.483-0.397C259.536,76.943,259.357,77.159,259.38,77.402z
				 M251.135,131.261c0.029,0.291,0.288,0.505,0.579,0.477c0.292-0.027,0.506-0.288,0.478-0.579
				c-0.029-0.292-0.289-0.505-0.58-0.477S251.106,130.97,251.135,131.261z M252.631,126.721c0.018,0.194,0.191,0.336,0.385,0.317
				c0.195-0.02,0.337-0.191,0.318-0.386s-0.191-0.337-0.386-0.317C252.754,126.353,252.612,126.525,252.631,126.721z"/>
			<g id="Mun_6_">
				<path d="M208.121,69.371c2.296,0.704,2.963,3.355,4.123,6.257s3.035,4.102,4.933,5.55c1.899,1.448,6.041,5.317,13.253,5.875
					c7.212,0.557,4.596,1.418,8.54,1.307c14.654-0.415,30.704,1.923,33.812-10.057c1.605-6.182,1.009-6.731,3.078-9.718
					c0.606-0.875,1.162-1.619,3.551-2.228c3.847-0.979,2.385,1.276,0.43,1.842c-1.954,0.566-3.527,0.296-4.827,8.505
					c-0.546,3.444-1.129,3.249-0.748,6.54c0.096,0.828,0.163,1.681,0.672,1.756c0.451,0.067,0.782,0.93,0.779,1.558
					c-0.006,2.249,0.707,4.704-1.5,6.55c-2.207,1.847-2.706,1.883-2.44,4.632c0.169,1.742-1.238,3.725-2.998,4.058
					c-4.069,0.771-3.796,0.996-4.414,3.693c-0.459,2.009-0.758,3.841-4.378,4.065c-3.62,0.227-5.013,0.109-7.213-0.557
					c-2.199-0.666-0.943-0.662-2.239,0.217c-1.297,0.879-10.503,1.771-12.551,0.086c-2.047-1.685-3.491-1.043-5.382-1.11
					c-1.89-0.068-4.973-0.774-5.607-4.732c-0.635-3.957-1.879-3.836-3.481-4.811c-1.601-0.975-3.529-2.007-3.267-5.21
					c0.259-3.164,1.667-6.127-2.237-8.825c-3.859-2.668-5.459-4.495-6.398-6.413s-2.372-5.045-3.986-6.144
					C206.014,70.957,201.908,67.462,208.121,69.371z"/>
				<path d="M232.604,108.191c-2.574,0-4.973-0.774-5.607-4.732"/>
				<path fill="#FFFFFF" d="M249.078,90.27c6.504-0.081,8.958-0.868,12.654-1.604c3.697-0.734,4.307-0.92,5.8-1.064
					c1.493-0.145,2.115-0.204,2.625,3.765s1.418,8.15-2.03,8.862c-3.447,0.711-2.962,0.538-3.243-1.067
					c-0.281-1.606-1.405-4.134-1.056-0.526c0.35,3.608,0.808,8.336-4.915,8.892c-3.982,0.385-6.237,1.733-7.149-5.085
					c-1.044-7.808-2.533-7.16-1.81-1.834c0.876,6.445-0.084,6.916-5.072,7.272c-4.989,0.358-7.839,0.761-8.763-6.183
					c-0.924-6.944-1.376-1.249-1.356,0.257c0.02,1.505,0.562,3.21-2.585,3.138c-3.146-0.071-4.362-0.958-4.656-6.58
					c-0.294-5.624-1.01-6.162-1.369-3.762c-0.076,0.51-0.052,0.759-1.284,1.004c-1.232,0.245-2.501,0.116-2.766-2.621
					c-0.265-2.736-0.52-2.041-0.42-3.036c0.129-1.269,1.455-1.835,3.569-1.412c1.965,0.393,4.825-0.091,8.815,0.903
					C238.057,90.583,240.172,90.378,249.078,90.27z"/>
				<path fill="#FFFFFF" d="M274.41,87.312c0.497,1.811,0.381,3.144-1.517,3.789c-2.067,0.702-2.3-0.405-2.38-2.533
					c-0.053-3.134,0.469-2.935,1.89-3.825C273.679,83.943,273.438,83.765,274.41,87.312z"/>
			</g>
		</g>
		<g id="Text_6_">
			<path fill="#005CA9" d="M61.776,234.17c13.065-4.332,19.379,1.233,21.527,3.176l3.472-3.092l1.321,1.195l-8.185,8.138
				c-11.279-9.879-23.111-5.004-32.33-0.032l-1.007-1.211c2.909-2.003,14.279-11.637,7.917-16.64
				c-1.93-1.519-3.552-1.265-4.31-1.046c-1.322,0.383-1.821-0.146-1.07-0.892c0.316-0.315,3.224-3.316,7.125-0.989
				c0.942-5.566-4.82-7.023-7.701-5.764c-1.118,0.49-2.214,0.664-1.368-0.561c1.489-2.16,3.766-3.754,8.293-2.862
				c-0.108-4.991,0.799-11.6,4.987-15.31c-4.829,1.188-7.126,0.989-9.47-0.155c-2.344-1.143-5.289-0.128-5.934,1.165
				c-0.644,1.295-0.272,3.719-0.521,3.732c-0.708,0.034-1.262-0.016-1.262-0.016c-1.268-6.4,3.717-12.329,9.793-10.662
				c5.124,1.404,7.744,3.475,14.26-0.244l0.385,1.399c-6.904,3.817-6.435,10.853-5.324,18.008
				c1.165,7.511,0.959,15.958-5.568,24.171c11.203-8.057,10.008-16.006,9.473-21.764c-0.82-8.826-3.536-21.416,12.867-21.699
				l0.472,1.554c-6.895,0.867-7.623,3.646-7.273,10.614c0.209,4.169,2.516,13.988-1.003,19.29
				C67.823,228.977,63.317,233.461,61.776,234.17z M94.93,212.95c0,0,0.311,18.749,0.307,20.247
				c-0.003,1.498-0.904,3.199-2.846,3.771l7.546,6.598l7.427-5.971l-0.846-1.139l-2.17,1.527l-2.008-1.516l-0.139-23.174
				l2.725-2.267l-6.332-5.2l-5.823,4.942L94.93,212.95z M100.805,193.337l-1.678,7.417l1.337-0.066l5.87-7.154L100.805,193.337z
				 M116.952,213.421c-2.85,8.783-1.114,18.239,6.659,24.267c12.799,9.922,32.896,5.05,38.063-12.95l-0.967-0.425
				c-3.212,5.129-7.419,9.859-14.029,11.112l-0.424-33.566c6.165,0.202,13.45-1.084,15.094-10.3l-0.975-0.58
				c-1.667,3.506-5.526,4.461-10.916,4.017c-7.126-0.589-11.401-2.504-20.595-1.883c-11.177,0.753-16.938,8.251-17.685,15.237
				l0.795,0.117c3.835-6.134,5.713-9.404,16.577-9.031C126.532,200.087,118.59,208.371,116.952,213.421z M207.155,237.041
				c-2.123,2.744-5.477,5.891-6.353,10.096c-0.73,3.505,3.61,5.928,6.049,4.268c2.257-1.535,0.564-3.879-0.983-3.893
				c-1.341-0.012-1.025,0.801-2.431,0.279c-2.146-0.795,1.69-4.025,4.336-6.287c8.799-7.521,10.803-9.05,10.196-23.062
				c-0.478-11.055-5.71-14.314-9.996-16.925l-11.948,10.142c-0.63-12.542-1.939-13.479,9.005-18.508l-0.464-1.396
				c-17.719,5.148-15.772,9.388-15.505,25.695c0.115,6.992,1.72,12.788-7.971,18.692c2.552-3.093,3.521-6.831,3.36-10.025
				l0.094-21.688c0.078-6.341,4.229-8.656,9.803-11.254l-0.704-1.462c-3.527,1.989-8.778,3.261-13.926,1.368
				c-8.851-3.251-12.944,5.24-13.755,8.733l1.345,0.09c1.569-3.312,3.531-5.065,8.333-3.651c2.027,0.598,3.429,0.775,7.739,0.243
				c-4.42,3.06-6.113,8.585-6.041,14.731c-6.717-0.294-9.677,3.562-10.115,5.83c-0.221,1.146,0.303,1.574,1.286,0.488
				c0.635-0.703,1.228-1.441,2.982-1.846c3.308-0.762,7.642,1.129,6.844,7.541c-4.789-0.44-6.161,4.488-6.312,6.191
				c-0.044,0.496,0.525,1.039,0.916,0.191c0.646-1.398,3.198-3.896,5.264-1.173c2.533,3.343-4.178,8.808-6.53,11.288
				c-2.436,2.57-3.687,8.436,0.356,8.656c1.502,0.082,1.934-2.305,1.171-3.371c-0.756-1.055-1.819-2.074-0.421-3.684
				c5.167-5.955,19.984-4,25.233,0.072l7.265-10.771l-1.533-0.713c-1.379,2.311-2.467,3.297-6.469,3.085
				c-2.292-0.121-5.077-0.612-10.598-0.65c6.892-7.206,15.079-10.612,24.097-6.888C210.878,231.098,209.846,233.561,207.155,237.041
				z M235.435,243.582l10.379-7.616l-0.837-0.982l-5.033,3.405l-6.383-3.068l-0.261-6.768l13.128-11.777l-9.028-11.768
				l-13.974,7.482c-0.409,0.23-0.215,0.957,0.362,0.928c2.464-0.123,2.194,1.309,2.257,2.568l0.552,15.701
				c0.188,3.732-0.844,5.479-2.026,5.975c-0.424,0.18-0.463,0.971,0.052,1.023C226.736,238.903,233.209,241.645,235.435,243.582z
				 M314.989,234.744l0.26-15.211c0.011-1.551,0.193-2.41,1.437-3.213l-0.154-0.854l-8.606-4.326l7.712-5.883l-10.041-13.826
				c-12.224,4.818-19.63,4.701-18.732,22.617c0.462,9.236,1.136,18.52-8.967,21.387c6.141-4.561,5.064-17.037,4.792-22.893
				c-0.632-13.581,3.845-15.086,11.885-19.473l-1.117-1.518c-7.695,3.518-9.866,1.133-16.752,0.104
				c-8.676-1.298-12.266,4.507-12.333,9.919l1.135,0.166c1.238-4.292,3.244-5.316,7.708-4.134c5.651,1.496,9.066,0.996,10.2,0.219
				c-7.785,5.336-8.062,10.379-8.173,14.287c-7.188-2.055-9.442,2.461-10.629,7.228l1.155,0.321
				c3.559-6.039,10.482-2.996,10.079,4.05c-6.005,0.25-8.38,4.463-7.882,7.575l1.238-0.246c0.555-2.379,3.377-3.969,5.113-2.752
				c4.473,3.132-0.549,8.336-4.184,11.445c-5.323,4.557-3.785,7.778-2.994,9.064c1.442,2.342,4.795-0.512,2.985-2.627
				c-1.037-1.211-1.256-1.658-0.102-3.721c2.045-3.656,17.859-6.053,24.704,1.132C298.849,238.837,309.319,235.697,314.989,234.744z
				 M321.74,193.314c-1.264-0.214-1.14,0.391,0.235,1.16c1.374,0.77,2.771,2.887,2.85,4.066c0,0-0.182,32.362-0.269,34.68
				c-0.086,2.314-0.559,2.936-2.432,4.379l0.25,0.682c1.608-0.456,7.024,3.188,8.946,5.074l6.973-5.464l-0.782-1.088l-2.434,0.805
				l-2.932-2.309l0.109-37.042c-0.151-1.727,2.192-4.385,3.288-4.811c1.273-0.494,1.017-1.885-0.931-1.306
				c-3.687,1.097-5.789,3.638-7.036,4.999C325.801,195.153,324.098,193.712,321.74,193.314z M343.346,209.244l6.188,11.166
				c-10.712,13.118-5.825,19.932-0.373,23.252l9.297-7.686c0.562,3.58,2.975,7.944,5.06,7.506c0,0,5.699-4.896,6.417-5.471
				c0.717-0.572,0.717-1.766-0.402-1.217c-1.229,0.602-3.193,1.064-3.795-1.637c-0.174-0.783-0.521-17.488-0.217-20.549
				c0.304-3.061,1.821-5.264,2.299-5.951c0.733-1.051-0.543-1.467-1.062-0.811c-2.309,2.932-8.414,0.654-12.538-1.652
				C351.635,208.846,346.197,209.178,343.346,209.244z M364.826,201.75c0,0-0.458-10.505-0.56-13.035
				c-1.356-0.418-4.961-2.033-7.076-3.578c-1.002,1.405-5.011,4.09-6.875,4.421l0.279,11.841c1.302,0.222,5.666,1.66,7.997,3.931
				C360.305,203.822,363.644,202.18,364.826,201.75z M377.787,212.484l0.445,13.369l6.395,3.828c0,0-8.219,11.869-8.793,12.622
				c-0.878,1.15,0.174,1.884,1.094,1.046c3.518-3.207,11.07-2.759,14.967,0.215c1.965-1.932,7.604-4.914,10.225-5.506l-0.321-14.814
				l-7.158-4.203l7.945-11.238c1.954-3.201,1.062-3.636,1.354-4.711c0.425-1.564-2.288-3.426-3.453-2.634
				c-2.243,1.525-1.151,3.253,0.26,4.892c0.586,0.68,0.033,2.616-2.286,3.088c-2.321,0.471-6.183,0.115-10.729-2.373
				C385.918,208.533,381.581,211.737,377.787,212.484z"/>
			<path fill="#FFF271" d="M210.43,215.903c-5.398,2.399-11.022,1.104-14.621,0.103l0.016-2.052l8.166-6.954
				C208.309,208.787,210.633,212.549,210.43,215.903z M210.904,225.34l-0.469-7.783c-3.654,2.404-10.684,1.523-14.645,0.42
				l0.057,7.41C200.269,223.562,205.684,223.812,210.904,225.34z M233.314,225.674l7.169-6.393l-7.338-9.527L233.314,225.674z
				 M144.959,235.746l-0.298-34.203c-2.3-0.279-2.702-0.417-4.77-0.785l0.146,20.178c0.3,5.977-5.417,9.89-9.385,12.535
				C134.074,235.662,140.623,236.763,144.959,235.746z M132.44,226.678l-0.481-26.861c-11.537,5.781-12.555,24.758-2.727,32.068
				C131.01,231.166,132.547,228.801,132.44,226.678z M345.85,210.736l5.678,9.725l6.746,2.908l-0.325-8.936L345.85,210.736z
				 M354.145,237.59l4.362-3.605l-0.18-9.034l-7.59-3.271C348.352,224.623,347.674,234.962,354.145,237.59z M358.345,200.237
				l1.766-1.351l-0.23-7.039c-0.971-0.427-1.607-0.737-2.932-1.711l-1.954,1.413l0.245,7.158
				C356.223,198.934,357.666,199.613,358.345,200.237z M385.021,211.91l0.317,10.049l3.213,2.031l7.67-10.326
				C393.892,215.248,387.4,213.656,385.021,211.91z M394.573,237.484l-0.271-10.295l-3.968-2.327l-7.935,11.315
				C385.781,234.135,392.109,235.112,394.573,237.484z M298.545,220.723c1.922,0.939,6.858,1.08,9.322,0.039l-0.055-1.582
				l-6.5-3.139l-2.857,2.092L298.545,220.723z M307.815,227.781l0.05-5.252c-2.319,0.77-5.824,1.024-9.324,0.082l-0.08,4.876
				C302.011,226.416,304.42,226.449,307.815,227.781z M307.768,234.521l-0.08-5.034c-3.456-1.743-6.597-1.269-9.339-0.017
				l0.079,5.908c-0.004,0,2.203,0.996,2.822,1.487C302.99,235.918,305.453,235.031,307.768,234.521z M296.746,234.691l0.212-27.858
				l1.758-0.077l-0.085,9.128l10.479-8.042l-8.999-12.575c-5.493,1.172-5.868,5.729-5.97,9.382
				c-0.048,1.715,0.264,11.066,0.165,15.432c-0.177,7.852-3.91,10.814-10.623,14.378
				C288.981,233.071,295.63,234.363,296.746,234.691z"/>
		</g>
	</g>
</g>
</svg>
