<?xml version="1.0" encoding="utf-8"?>
<!-- Generator: Adobe Illustrator 16.0.4, SVG Export Plug-In . SVG Version: 6.00 Build 0)  -->
<!DOCTYPE svg PUBLIC "-//W3C//DTD SVG 1.1//EN" "http://www.w3.org/Graphics/SVG/1.1/DTD/svg11.dtd">
<svg version="1.1" id="Layer_2" xmlns="http://www.w3.org/2000/svg" xmlns:xlink="http://www.w3.org/1999/xlink" x="0px" y="0px"
	 width="391.804px" height="69.203px" viewBox="0 0 391.804 69.203" enable-background="new 0 0 391.804 69.203"
	 xml:space="preserve">
<g>
	<path fill="#1C4387" d="M39.421,59.882c-4.951-3.739-9.98-5.609-15.089-5.609c-6.584,0-13.299,1.87-20.145,5.609l-0.948-1.501
		c0.421-0.21,0.881-0.486,1.383-0.83c0.5-0.342,1.066-0.75,1.698-1.225c4.897-3.527,7.426-7.109,7.584-10.743v-0.396
		c-0.106-1.422-0.593-2.659-1.462-3.713c-0.869-1.053-1.988-1.58-3.357-1.58c-0.738,0-1.449,0.158-2.133,0.474l-0.79-0.947
		c1.422-1.58,2.87-2.37,4.345-2.37c1.369,0,2.659,0.448,3.871,1.343c-0.158-4.74-2.106-7.11-5.846-7.11
		c-1.212,0-2.344,0.369-3.397,1.106L4.188,31.6c1.947-2.37,4.028-3.581,6.24-3.634c0.79,0,1.475,0.079,2.055,0.236
		c0.21,0,0.553,0.079,1.026,0.237c0-0.315-0.026-0.79-0.079-1.422s-0.078-1.106-0.078-1.422c0-5.003,1.843-9.348,5.529-13.035
		l0.711-0.711c-3.213,0.738-5.45,1.106-6.715,1.106c-0.896,0-2.16-0.289-3.792-0.869H8.849c-0.054-0.052-0.133-0.079-0.237-0.079
		c-1.212-0.475-2.318-0.711-3.318-0.711c-1.001,0-1.83,0.383-2.488,1.146c-0.659,0.764-0.987,1.672-0.987,2.726
		c0,0.211,0.052,0.526,0.158,0.947v0.237c0.052,0.053,0.078,0.132,0.078,0.237l-1.422,0.474C0.21,15.694,0,14.642,0,13.903
		c0-2.212,0.816-4.134,2.449-5.767c1.632-1.632,3.555-2.501,5.767-2.607c1.265,0,3.054,0.396,5.372,1.186
		c2.37,0.79,4.188,1.185,5.451,1.185c1.896,0,4.266-0.711,7.11-2.133l0.711,1.106c-0.106,0.105-0.251,0.236-0.435,0.395
		C26.24,7.426,26.017,7.61,25.754,7.82c-1.949,1.634-3.317,3.135-4.107,4.503c-1.001,1.634-1.501,3.608-1.501,5.926
		c0,0.843,0.039,1.909,0.118,3.199c0.079,1.291,0.224,2.778,0.435,4.463c0.21,1.687,0.355,3.16,0.435,4.425
		c0.079,1.264,0.118,2.344,0.118,3.238c0,6.32-2.212,12.324-6.636,18.013c7.215-4.898,10.823-11.402,10.823-19.514
		c0-0.736-0.04-1.646-0.119-2.726c-0.079-1.078-0.225-2.356-0.435-3.831c-0.315-2.896-0.474-5.082-0.474-6.557
		c0-4.425,1.369-7.769,4.108-10.033c2.579-2.106,6.108-3.16,10.586-3.16l0.869,1.738c-5.584,0.685-8.374,3.266-8.374,7.742
		c0,1.579,0.157,3.897,0.474,6.951c0.21,1.528,0.355,2.871,0.435,4.029c0.079,1.159,0.118,2.107,0.118,2.844
		c0,4.53-1.291,8.585-3.871,12.166c-0.896,1.317-2.093,2.739-3.594,4.267c-1.501,1.528-3.358,3.134-5.57,4.818
		c2.106-0.736,4.477-1.264,7.11-1.58c0.579-0.052,1.172-0.091,1.777-0.118c0.605-0.025,1.197-0.039,1.777-0.039
		c4.846,0,9.216,1.658,13.114,4.977l3.555-3.318l1.344,1.423L39.421,59.882z"/>
	<path fill="#1C4387" d="M60.182,59.882c-1.37-1.422-2.674-2.659-3.91-3.713c-1.238-1.054-2.437-1.922-3.595-2.607v-0.79
		c1.685-0.579,2.528-2.291,2.528-5.135V27.412l-2.766-2.369l6.558-5.136l6.557,5.372l-2.686,2.449V52.14l2.212,1.975l2.37-1.975
		l0.947,1.343L60.182,59.882z M61.604,4.107l6.558,0.237l-6.558,8.927l-1.896-0.158L61.604,4.107z"/>
	<path fill="#1C4387" d="M120.979,40.29l1.265,0.236c-1.37,5.637-4.372,10.219-9.006,13.746c-4.688,3.477-9.929,5.214-15.722,5.214
		c-6.584,0-12.219-2.185-16.905-6.557c-4.636-4.424-6.952-9.954-6.952-16.59c0-9.111,4.87-17.064,14.614-23.858
		c-0.264,0-0.54-0.012-0.829-0.039c-0.29-0.026-0.566-0.065-0.829-0.119c-0.316,0-0.606-0.025-0.869-0.079h-0.869
		c-6.742,0-11.587,3.371-14.536,10.112l-1.264-0.553c1.264-5.214,3.594-9.229,6.991-12.048c3.397-2.816,7.729-4.227,12.995-4.227
		c1.369,0,3.028,0.119,4.978,0.355c1.947,0.237,4.238,0.62,6.873,1.146c5.214,0.948,9.164,1.422,11.85,1.422
		c3.844,0,6.583-1.447,8.216-4.345l1.265,0.396c-0.316,3.476-1.673,6.162-4.068,8.058c-2.397,1.896-5.36,2.844-8.888,2.844
		c-0.316,0-0.817-0.025-1.501-0.079c-0.686-0.052-1.186-0.078-1.501-0.078V52.14C112.5,50.666,117.397,46.716,120.979,40.29z
		 M83.376,20.855c-1.791,3.529-2.687,7.347-2.687,11.455c0,6.162,2.422,11.429,7.269,15.8c2.316-1.685,3.476-4.634,3.476-8.848
		V12.481C88.01,14.168,85.323,16.959,83.376,20.855z M103.402,14.693c-0.448-0.104-0.936-0.21-1.462-0.315s-1.015-0.198-1.461-0.276
		c-0.448-0.079-0.83-0.119-1.146-0.119v19.829c0,4.847-1.422,8.56-4.267,11.139c-0.053,0.054-0.526,0.435-1.422,1.146
		s-2.239,1.805-4.028,3.279c3.581,2.317,7.347,3.476,11.297,3.476h0.948c0.315,0,0.632-0.013,0.947-0.039
		c0.316-0.026,0.605-0.065,0.869-0.119c0.105-0.052,0.237-0.079,0.396-0.079c0.157,0,0.315-0.025,0.474-0.079V14.931
		C104.231,14.879,103.85,14.8,103.402,14.693z"/>
	<path fill="#1C4387" d="M158.062,59.882c-5.636-2.528-10.744-3.792-15.326-3.792c-3.845,0-7.163,0.764-9.954,2.291
		c-1.316,0.684-2.027,1.737-2.133,3.16c0,0.632,0.184,1.236,0.553,1.816l0.079,0.079c0,0.052,0.026,0.105,0.079,0.158l0.396,0.711
		c0.052,0.158,0.131,0.446,0.236,0.869c0,1.526-0.632,2.291-1.896,2.291c-1.528,0-2.397-0.948-2.607-2.844v-0.554
		c0-1.58,0.526-3.055,1.58-4.424c0.263-0.369,0.684-0.829,1.265-1.383c0.578-0.553,1.289-1.225,2.133-2.014
		c3.265-3.003,4.897-5.688,4.897-8.059c0-2.105-0.869-3.16-2.606-3.16c-1.212,0-2.291,0.976-3.239,2.923l-1.185-0.315
		c0.525-4.634,2.869-7.004,7.03-7.11c0-2.159-0.422-3.923-1.264-5.293c-1.054-1.738-2.502-2.606-4.345-2.606
		c-2.16,0-3.898,0.947-5.214,2.844l-1.186-0.553c0.842-2.528,2.185-4.318,4.029-5.372c1.685-0.896,3.95-1.344,6.794-1.344
		c0.052-3.634,0.579-6.636,1.58-9.006c1.157-2.686,3.081-5.003,5.767-6.952c-1.686,0.475-3.239,0.712-4.661,0.712
		c-0.79,0-2.081-0.21-3.871-0.633c-0.843-0.21-1.567-0.367-2.172-0.474c-0.606-0.104-1.12-0.158-1.541-0.158
		c-2.686,0-4.503,1.58-5.45,4.74l-1.423-0.474c0.579-2.791,1.659-5.057,3.239-6.794c1.79-2.001,4.002-3.055,6.636-3.16
		c1.158-0.052,2.924,0.236,5.293,0.869c2.265,0.632,4.029,0.947,5.293,0.947c2.476,0,5.478-0.842,9.007-2.527l0.632,1.58
		c-0.369,0.264-1.37,0.816-3.002,1.658c-2.792,1.528-4.74,3.081-5.847,4.661c-1.212,1.845-1.816,4.267-1.816,7.269v18.723
		c0,3.267-0.316,5.715-0.948,7.347c-0.316,0.632-0.711,1.422-1.185,2.37c-0.475,0.948-1.027,2.081-1.659,3.397
		c0.158-0.105,0.355-0.224,0.593-0.355c0.236-0.131,0.486-0.303,0.75-0.514c2.633-1.738,4.489-3.595,5.569-5.569
		c1.079-1.976,1.62-4.516,1.62-7.624V24.174c0-4.002,0.263-6.767,0.79-8.295c0.789-2.476,2.554-4.529,5.293-6.162
		c3.476-2.001,7.03-3.477,10.665-4.424l0.553,1.58c-1.317,0.58-2.37,1.04-3.16,1.382c-0.79,0.344-1.343,0.593-1.659,0.751
		c-1.687,0.947-3.029,2.027-4.029,3.238c-0.526,0.686-0.868,1.87-1.026,3.556c-0.054,0.264-0.079,0.58-0.079,0.948V26.78
		l13.114-10.98c0.367,0.264,0.842,0.619,1.422,1.066c0.579,0.448,1.236,0.962,1.975,1.54c2.949,2.477,4.924,5.268,5.925,8.374
		c0.737,2.477,1.106,5.926,1.106,10.35c0,3.476-0.211,6.188-0.632,8.137c-0.527,2.739-1.766,5.109-3.713,7.11
		c-0.844,0.947-3.635,3.317-8.374,7.109c-0.212,0.21-0.738,0.658-1.58,1.344c-0.527,0.525-0.976,1.053-1.344,1.579
		s-0.553,0.975-0.553,1.344c0,0.79,0.368,1.236,1.106,1.343c0.579,0,1.157-0.158,1.737-0.474h0.237c0.052,0,0.105-0.027,0.158-0.079
		c1.369,0,2.054,0.684,2.054,2.054c0,1.474-0.869,2.316-2.606,2.528c-0.106,0.052-0.237,0.078-0.396,0.078h-0.315
		c-1.159,0-2.16-0.434-3.002-1.303c-0.844-0.869-1.265-1.884-1.265-3.042c0-2.106,1.186-4.582,3.556-7.426
		c1.211-1.474,2.237-2.751,3.08-3.831c0.843-1.079,1.475-1.988,1.896-2.726c1.58-2.58,2.37-5.136,2.37-7.663
		c-2.95-1.106-5.583-1.659-7.9-1.659c-5.952,0-12.035,3.108-18.249,9.322c0.737,0,1.659,0.039,2.766,0.118
		c1.105,0.079,2.396,0.172,3.871,0.276c1.526,0.106,2.844,0.186,3.949,0.237c1.106,0.053,2.027,0.079,2.766,0.079
		c1.843,0,3.634-1.211,5.372-3.635l1.422,1.027L158.062,59.882z M164.066,32.706c3.107,0,5.793-0.658,8.059-1.976
		c-0.423-3.37-2.793-6.451-7.11-9.243l-9.085,7.427v1.975C158.458,32.101,161.17,32.706,164.066,32.706z M156.324,41.475
		c0.052-0.052,0.158-0.079,0.316-0.079c3.002-0.895,5.477-1.343,7.426-1.343c2.264,0,4.871,0.501,7.821,1.501
		c0-0.105,0-0.237,0-0.396c0-0.209,0.025-0.446,0.079-0.711v-1.105v-4.345V33.97c-0.054-0.263-0.079-0.475-0.079-0.632
		c0-0.21,0-0.368,0-0.475c-2.266,1.055-4.925,1.58-7.979,1.58c-2.476,0-5.135-0.525-7.979-1.58v8.611H156.324z"/>
	<path fill="#1C4387" d="M198.96,59.882c-4.53-2.633-8.585-4.267-12.166-4.898v-0.869c1.632-0.79,2.501-2.579,2.607-5.372v-0.868
		V31.6c0-2.001-0.869-3.002-2.607-3.002l-0.315-0.869c3.159-1.369,6.004-2.698,8.531-3.989c2.528-1.29,4.792-2.54,6.794-3.753
		l9.639,12.324l-14.299,11.85v7.269c2.844,1.422,5.135,2.606,6.872,3.555l5.609-3.95l0.79,1.106L198.96,59.882z M205.201,34.997
		l-8.058-10.35v16.906L205.201,34.997z"/>
	<path fill="#1C4387" d="M299.842,19.75l-8.453,6.24l9.559,4.582v1.106c-0.948,0.58-1.422,1.712-1.422,3.396v15.722
		c-8.796,1.37-15.932,4.424-21.409,9.164c-4.951-3.054-9.77-4.582-14.457-4.582c-2.792,0-5.32,0.343-7.584,1.026
		c-3.424,1.055-5.135,2.58-5.135,4.582c0,0.475,0.224,1.079,0.672,1.817c0.446,0.737,0.671,1.315,0.671,1.738
		c0,1.526-0.711,2.291-2.133,2.291c-1.58,0-2.477-0.948-2.686-2.845v-0.553c0-1.58,0.553-3.081,1.658-4.503
		c0.633-0.79,1.817-1.948,3.556-3.476c3.423-3.002,5.135-5.661,5.135-7.979c0-0.948-0.343-1.75-1.027-2.409
		c-0.685-0.658-1.501-0.987-2.448-0.987c-1.792,0-3.056,1.158-3.792,3.476l-1.423-0.079c0.21-4.897,3.055-7.584,8.532-8.058
		c0-4.95-1.923-7.427-5.767-7.427c-2.16,0-3.713,1.08-4.661,3.239l-1.501-0.395V34.76v-0.079c0.842-4.95,3.186-7.531,7.031-7.742
		c0.632-0.052,2.079,0.106,4.345,0.474c0.158-3.738,1.027-6.846,2.606-9.321c1.423-2.212,3.818-4.371,7.189-6.479
		c-2.844,0.896-5.293,1.344-7.347,1.344c-1.213,0-2.556-0.237-4.029-0.712c-0.106,0-0.369-0.052-0.79-0.157l-1.58-0.316
		c-0.264-0.052-0.527-0.091-0.79-0.118c-0.264-0.026-0.527-0.04-0.79-0.04c-2.528,0-3.977,1.58-4.345,4.74l-1.817-0.079
		c0.421-3.16,1.396-5.661,2.923-7.505c1.738-2.105,4.108-3.16,7.11-3.16c1.474,0,3.606,0.316,6.399,0.948
		c1.474,0.369,2.737,0.632,3.792,0.79c1.053,0.158,1.896,0.237,2.527,0.237c2.687,0,5.503-0.711,8.453-2.134l1.265,1.738
		c-0.106,0.106-0.738,0.422-1.896,0.948c-4.108,2.002-6.926,4.107-8.453,6.32c-1.738,2.476-2.606,5.846-2.606,10.111v13.746
		c0,3.267-0.369,5.846-1.106,7.742c-0.685,1.687-2.212,3.713-4.582,6.083c1.896-0.684,3.488-1.474,4.779-2.37
		c1.29-0.895,2.331-1.922,3.121-3.081c0.79-1.158,1.355-2.501,1.698-4.029c0.342-1.526,0.514-3.317,0.514-5.372V25.754
		c0-4.318,0.421-7.427,1.264-9.322c1.106-2.422,3.318-4.555,6.636-6.399c4.16-2.264,8.11-3.844,11.851-4.739V5.214L299.842,19.75z
		 M281.908,21.487v9.48l11.218-8.374l-9.717-13.272c-2.476,0.896-4.161,2.134-5.056,3.713c-0.79,1.37-1.186,3.45-1.186,6.241v14.378
		c0,3.529-0.474,6.348-1.422,8.453c-1.001,2.266-2.923,4.345-5.767,6.241c-0.58,0.422-1.225,0.829-1.936,1.225
		c-0.711,0.395-1.462,0.804-2.252,1.225c2.896-0.632,5.319-0.948,7.269-0.948c2.264,0,4.634,0.395,7.11,1.185V21.487H281.908z
		 M286.807,36.972c1.843,0,3.476-0.342,4.897-1.027v-1.58l-6.952-3.476l-2.844,2.133v3.002
		C283.488,36.655,285.12,36.972,286.807,36.972z M284.674,42.817c0.79-0.104,1.474-0.158,2.054-0.158
		c1.79,0,3.448,0.237,4.977,0.711v-5.608c-1.896,0.58-3.555,0.869-4.977,0.869c-1.317,0-2.923-0.264-4.819-0.79v5.451
		C282.961,43.082,283.884,42.924,284.674,42.817z M282.738,51.902c0.288,0.158,0.565,0.29,0.829,0.396l1.58,0.79
		c1.527-0.526,2.37-0.869,2.528-1.027h0.079c1.211-0.525,2.527-1,3.949-1.422v-5.451c-1.896-0.525-3.555-0.79-4.977-0.79
		c-1.37,0-2.977,0.29-4.819,0.869v6.241C282.171,51.613,282.448,51.744,282.738,51.902z"/>
	<path fill="#1C4387" d="M316.976,59.882c-2.686-2.738-5.873-4.582-9.559-5.53v-1.264c1.79-0.842,2.686-2.712,2.686-5.609V16.432
		c0-2.422-0.185-4.108-0.553-5.056c-0.58-1.58-1.687-2.791-3.318-3.635l0.396-1.264c2.528,1.106,4.582,2.397,6.162,3.871
		c2.159-2.422,5.082-4.108,8.769-5.056l0.396,1.185c-0.158,0.158-0.355,0.355-0.593,0.593c-0.237,0.236-0.541,0.487-0.908,0.75
		c-1.106,0.948-1.87,2.239-2.291,3.871c-0.211,0.844-0.316,2.37-0.316,4.582v34.839l3.871,2.687l1.659-1.265l1.105,1.265
		L316.976,59.882z"/>
	<path fill="#1C4387" d="M350.021,59.882c-0.211-0.211-0.462-0.435-0.751-0.672c-0.29-0.237-0.619-0.539-0.987-0.908
		c-1.633-1.79-2.607-4.055-2.923-6.794l-10.428,8.374c-4.057-3.107-6.083-6.372-6.083-9.796c0-4.318,2.105-8.821,6.319-13.51
		l1.106-1.264l-6.794-12.166c0,0.053,0.079,0.079,0.236,0.079h0.396c0.052,0.053,0.104,0.079,0.158,0.079h0.869
		c3.792,0,7.003-1.106,9.638-3.318c0.104,0.054,0.21,0.106,0.315,0.158c0.105,0.053,0.264,0.132,0.475,0.237
		c3.95,2.054,7.24,3.081,9.875,3.081c1.157,0,2.343-0.579,3.555-1.738l1.027,0.632c-1.791,2.739-2.713,5.347-2.766,7.821
		c-0.053,0.58-0.078,1.185-0.078,1.816c0,0.633,0,1.317,0,2.055V49.69v0.632c0.052,1.896,0.711,2.923,1.975,3.081
		c0.316,0,0.948-0.21,1.896-0.632l0.158-0.158l0.079-0.079c0.105,0,0.21-0.052,0.316-0.157l0.79,0.947L350.021,59.882z
		 M332.009,24.568l5.847,10.586l7.505,3.239v-9.401L332.009,24.568z M337.145,36.419c-0.158,0-0.423,0.79-0.79,2.37
		c-0.632,2.634-0.948,4.739-0.948,6.319c0,2.739,1.632,5.609,4.897,8.611l5.057-4.188v-9.559l-4.267-1.817L337.145,36.419z
		 M337.618,9.164c0-3.635,2.343-6.637,7.031-9.007L344.965,0c4.898,1.527,7.348,4.293,7.348,8.295c0,1.58-0.869,3.503-2.607,5.767
		c-1.738,2.318-3.318,3.476-4.74,3.476v-0.078C340.067,15.984,337.618,13.22,337.618,9.164z M349.311,10.27
		c0-1.58-0.765-3.133-2.291-4.661c-1.528-1.526-3.056-2.291-4.582-2.291c-0.844,0.844-1.422,1.924-1.738,3.239
		c-0.106,0.422-0.158,0.764-0.158,1.027c0,2.634,1.817,4.688,5.451,6.161c0.21,0.158,0.658,0.316,1.343,0.475v-0.079
		C348.651,13.141,349.311,11.85,349.311,10.27z"/>
	<path fill="#1C4387" d="M371.264,44.872l-7.348-4.029V26.859c2.476-0.736,4.425-1.605,5.847-2.606
		c0.684-0.526,2.185-1.948,4.503-4.267c3.792,1.896,7.215,2.845,10.27,2.845c0.948,0,1.765-0.185,2.449-0.554
		c0.948-0.474,1.422-1.132,1.422-1.975c0-0.684-0.264-1.29-0.79-1.817c-0.053,0-0.079-0.025-0.079-0.079
		c-0.58-0.578-0.869-1.29-0.869-2.133c0-1.526,0.764-2.291,2.291-2.291c1.896,0,2.845,1.106,2.845,3.318v0.711
		c-0.265,1.58-1.396,3.766-3.397,6.557l-6.636,9.164l8.058,4.661v15.405c-3.897,1.159-7.532,3.187-10.901,6.083
		c-3.214-1.948-6.137-2.923-8.77-2.923c-2.792,0-5.425,0.975-7.899,2.923l-1.027-0.869L371.264,44.872z M377.268,40.053
		l-8.374,11.85l1.975-0.553c0.264-0.052,0.5-0.104,0.711-0.158c0.21-0.052,0.447-0.104,0.711-0.158c0.105,0,0.237,0,0.396,0
		s0.368-0.025,0.632-0.078h1.027h0.474c0.21,0,0.368,0.026,0.474,0.078c1.686,0.054,3.871,0.817,6.558,2.291V42.581L377.268,40.053z
		 M375.529,38.867l7.505-10.507c-0.685,0.211-1.449,0.316-2.291,0.316h-0.869c-0.58,0-1.119-0.04-1.619-0.119
		c-0.501-0.078-1.015-0.17-1.54-0.276c-1.949-0.525-3.635-1.236-5.057-2.133v10.507L375.529,38.867z"/>
</g>
<g>
</g>
<g>
</g>
<g>
</g>
<g>
</g>
<g>
</g>
</svg>
