<?xml version="1.0" encoding="utf-8"?>
<!-- Generator: Adobe Illustrator 16.0.4, SVG Export Plug-In . SVG Version: 6.00 Build 0)  -->
<!DOCTYPE svg PUBLIC "-//W3C//DTD SVG 1.1//EN" "http://www.w3.org/Graphics/SVG/1.1/DTD/svg11.dtd">
<svg version="1.1" id="Layer_1" xmlns="http://www.w3.org/2000/svg" xmlns:xlink="http://www.w3.org/1999/xlink" x="0px" y="0px"
	 width="432.312px" height="158.74px" viewBox="0 0 432.312 158.74" enable-background="new 0 0 432.312 158.74"
	 xml:space="preserve">
<g id="Blottartuban_1_">
	<path d="M430.797,298.964c-6.224-22.756-6.071-31.561-4.533-46.779c1.062-10.5,3.104-15.834,2.305-28.172
		c-0.358-5.541-1.292-12.502-3.145-21.98c-5.717-29.248-0.861-19.258-6.146-55.666c-0.268-1.846-0.063-4.312,1.448-5.793
		c2.064-2.02,1.309-0.621,4.968-3.809c3.244-2.826,3.606-6.209-0.825-8.523c-1.521-0.795-3.201-0.631-1.58-3.99
		c1.755-3.637-0.259-8.482-4.36-10c-2.148-0.797-2.985-1.551-3.845-3.396c-1.903-4.084-4.885-3.568-7.159-1.314
		c-3.095,3.062-3.798,4.889-15.253,0.723c-11.454-4.164-52.954-9.939-65.588-10.725c-12.636-0.785-19.659-5.881-23.4-10.793
		s-0.489-2.465-9.151-8.908c-7.381-5.492-8.325-2.963-4.217-12.402c10.371-23.826,26.671-33.227,44.474-38.719
		c7.031-2.17,17.08-12.957-6.206-19.994c-39.76-12.014-92.219-9.656-130.013-4.551c-20.97,2.832-37.424,6.506-44.742,9.049
		c-12.578,4.373-11.385,13.41-11.096,16.396c0.29,2.986,5.062,4.283,6.611,2.123c1.549-2.16,2.379-1.361,6.485-1.758
		c16.192-1.57,33.531,28.523,39.031,39.92c2.392,4.955,1.702,4.607-5.29,5.033c-6.99,0.428-34.68,2.469-42.67,2.879
		c-5.499,0.281-9.42-2.604-7.152,3.959c2.973,8.6,3.995,8.656,4.409,14.391c0.369,5.113,1.353,4.893-3.948,5.908
		c-7.623,1.461-3.129,0.586-26.16,4.795c-4.193,0.768-8.371,1.391-12.484,1.893c-33.266,4.055-63.092,0.322-70.586,1.385
		c-7.442,1.053-10.162,3.998-14.834,2.441s-5.016,1.365-5.795,3.701c-0.778,2.336,1.461,2.119-2.471,3.002
		c-3.935,0.885-5.133,2.758-4.379,7.959c0.756,5.201,2.953,4.549,0.631,5.215c-3.637,1.041-3.379,10.738-0.854,14.525
		c2.204,3.301-0.902,2.346-1.838,3.066c-2.081,1.6-2.168,5.482,1.482,7.516c2.578,1.434,0.691-0.633,1.576,3.301
		c0.883,3.934,3.445,19.568,4.596,29.945c0.498,4.473,0.162,3.627-1.301,4.711c-2.842,2.102-1.959,3.77-0.179,5.293
		c1.457,1.244,1.2,2.33,1.405,4.133c0.74,6.537,1.39,12.902,1.959,19.061c4.756,51.516,3.941,89.328,4.242,99.393
		c0.338,11.27,8.582,8.209,11.367,8.443c2.786,0.23,55.797,8.156,69.747,9.566c13.952,1.412,19.458-1.381,22.228,3.875
		c1.775,3.369,0.436,2.238,3.34,5.957c2.008,2.566-0.859,4.102-3.652,6.381c-28.602,23.348-30.182,59.191-13.271,69.102
		c3.86,2.262,5.107,0.887,1.602,4.867c-4.674,5.307-11.631,4.393-18.822,5.342c-7.193,0.947-3.838,4.088,1.172,6.918
		c6.643,3.754,10.584,4.25,17.627-0.828c2.451-1.768,3.68-3.496,10.725-4.682c7.153-1.203,16.036-5.572,7.35-12.266
		c-16.872-13.004-6.697-30.244-6.697-30.244c3.695-6.641,6.99-11.572,9.975-15.174c12.064-14.559,18.995-7.555,26.033-4.641
		c28.948,11.984,55.539,12.002,81.063,4.209c3.085-0.943,6.152-1.998,9.207-3.16c11.459-4.359,12.617-9.762,15.805-2.787
		c13.095,28.871,5.435,44.432,3.505,49.141c-1.83,4.467-6.422,10.221,3.397,9.781c7.252-0.326,5.918-0.311,16.11,4.906
		c15.062,7.707,12.987,7.764,21.194-0.295c4.186-4.111,4.505-6.654-2.506-5.787c-2.048,0.254-7.748,1.693-10.625-1.418
		c-1.357-1.471-4.031-3.377-6.721-4.561c-7.578-3.336-1.586-9.893,2.266-16.797s7.379-13.271,4.428-28.184
		c-1.168-5.906-3.533-11.838-8.032-16.803c-3.832-4.229-9.397-6.248-5.801-10.615c3.022-3.672,6.356-6.604,8.09-13.719
		c1.348-5.531,9.306-5.047,16.96-6.416c16.851-3.016,53.137-8.916,61.405-11.727c17.687-6.012,47.133-6.072,60.104-9.59
		C432.732,309.779,433.824,310.031,430.797,298.964z"/>
	<g id="Gult_1_">
		<path fill="#FFF26E" d="M424.575,291.783c-1.028-5.428-6.151-22.01-2.693-38.17c3.458-16.158,2.718-34.168-0.231-54.23
			c-0.217-1.482-0.432-3.01-0.641-4.574c-2.53-18.865-4.359-42.229-4.716-46.752c-0.012-0.152-0.022-0.285-0.031-0.393
			c-0.286-3.615,0.357-4.746-2.469-6.041c-1.523-0.699-3.067-2.016-3.042-3.535c0.045-2.768-1.111-2.404-3.106-2.902
			c-1.307-0.326-4.803-1.42-4.898-5.176c-0.044-1.754,0.341-3.25-0.849-4.879c-0.94-1.291-2.565-3.143-5.838-2.574
			c-3.383,0.586-4.235,1.639-9.184,3.088c-5.129,1.502-24.648,7.412-44.395,13.594c-19.746,6.184-21.395-16.01-23.755-24.824
			c-2.267-8.465-5.86-3.451-9.648-1.074s-8.146,4.055-7.65-3.779c0.228-3.572,0.49-5.322-3.516-5.186
			c-4.005,0.137-7.866,1.768-11.502,3.125c-3.638,1.355-2.265-0.033-3.354,6.854c-1.291,8.145-0.994,23.455-0.992,31.24
			c0,0.949-0.008,1.77-0.026,2.463c-0.12,4.729-0.649,3.881-1.627,0c-0.062-0.242-0.127-0.502-0.192-0.775
			c-1.254-5.152-0.979,2.857-1.912-9.359c-0.614-8.055,0.252-23.352,1.412-36.617c0.599-6.873,1.275-13.195,1.865-17.701
			c2.387-18.221,8.287-41.492,47.842-58.387c9.822-4.193,7.208-5.973,0.007-10.297c-7.2-4.326-19.361-5.408-32.839-7.117
			c-19.662-2.492-60.365-1.77-98.396,2.582c-15.509,1.773-30.563,4.148-43.575,7.154c-8.744,2.02-12.312,7.723,2.361,8.814
			c14.674,1.09,25.815,9.805,35.787,27.176c7.303,12.721,11.09,27.602,13.459,39.75c0.556,2.854,1.03,5.559,1.45,8.025
			c0.232,1.406,0.449,2.725,0.652,3.963c1.684,10.223,3.413,24.957,3.029,40.98c-0.016,0.596-0.032,1.197-0.051,1.809
			c-0.125,3.732-0.357,7.541-0.744,11.373c-0.407,4.027-2.035,2.332-2.141-0.045c-0.104-2.375-0.176,0.771-0.746-7.713
			c-0.101-1.48-0.18-2.668-0.264-3.615c-0.404-4.568-0.953-4.07-4.521-5.59c-16.998-7.242-38.278-14.627-45.452,5.59
			c-0.379,1.049-0.721,2.199-1.02,3.432c-1.145,4.725-1.617,4.051-1.953,0.566c-0.119-1.211-0.054-2.576,0.183-3.998
			c0.442-2.656,1.489-5.506,3.062-7.869c11.65-17.51,39.143-3.398,41.713-2.41c1.564,0.604,1.601,0.977,4.435,1.707
			c2.833,0.73,2.945,0.592,3.202-1.943c0.257-2.537-1.535-18.438-1.816-20.043c-0.28-1.605,0.128-1.27-1.798-1.709
			c-13.678-3.135-21.163-5.863-33.73-4.645c-8.336,0.807-6.312,0.363-9.094,0.756c-2.851,0.4-10.624,3.391-12.614,4.611
			c-4.859,2.984-4.334,5.82-7.318,17.789c-1.589,6.375-2.598,9.051-8.584,8.617c-5.943-0.428-4.109,1.654-4.6,3.084
			c-0.151,0.443-0.219,1.129-0.225,2.055c-0.012,1.98,0.285,5.049,0.652,8.83c0.289,2.986-1.537,6.176-2.509-1.264
			c-0.847-6.484-0.183-4.248,0.114-7.566c0.043-0.486,0.08-1.096,0.102-1.873c0.168-6.045-0.382-5.238-6.174-6.688
			c-15.271-3.818-20.381-5.561-34.717-10.951c-14.338-5.395-26.944-7.186-43.17-4.861c-6.684,0.957-3.176,0.938-9.553-0.078
			c-2.471-0.393,0.498-0.049-3.604-0.906c-4.103-0.859-1.373,1.389-2.496,2.754c-1.125,1.363-1.453,3.154-3.965,3.146
			c-2.513-0.008-2.345,1.734-0.611,4.078c1.736,2.344,1.465,6.047-2.109,6.734c-3.945,0.76-4.43,1.65-2.042,4.844
			c1.101,1.471,0.675,2.836-0.582,3.801c-1.542,1.191-4.34,1.777-7.096,1.213c-4.776-0.979-3.97,0.51-2.878,1.41
			c1.475,1.213,2.141,3.938,0.615,6.344c-1.484,2.346-0.844-0.523,0.859,7.578c0.676,3.207,3.594,16.305,6.689,30.207
			c3.324,14.893,6.852,30.705,8.031,36.182c3.823,17.729,17.15,69.418,20.462,76.383c5.14,10.803,0.29,10.771-5.833,12.369
			c-2.759,0.719-5.348-0.738-9.586,2.186c-8.408,5.797-0.744,7.857,4.305,8.121c5.049,0.266,24.072,2.189,32.229,3.408
			s35.335,4.363,44.887,4.443c5.025,0.041,5.738,2.207,5.387-4.037c-0.74-13.041-0.438-20.053,0.799-25.447
			c1.235-5.395,3.973-5.658,2.584,0.756c-1.388,6.412-2.012,23.301,4.066,36.777c11.507,25.512,59.477,40.955,93.896,35.861
			c6.323-0.936,12.247-2.289,17.758-4.008c37.067-11.553,55.867-39.652,54.669-68.939c-0.618-15.127,2.776-8.936,3.435-4.729
			c0.66,4.205,0.283,13.283-1.281,20.469c-1.381,6.336-3.652,6.381,6.029,5.193c5.217-0.643,46.878-7.289,64.391-12.018
			c20.314-5.482,46.242-7.494,58.812-9.967C432.419,305.339,425.604,297.208,424.575,291.783z M189.946,356.208
			c-23.84,2.811-47.398-10.201-47.771-29.029c-0.129-6.518,1.066-7.137,2.567-9.793c2.56-4.529,2.929-3.828,1.509,2.617
			c-4.011,18.221,10.936,32.379,37.41,33.549c28.504,1.256,45.995-20.469,40.778-50.92c-1.734-10.129-0.907-11.969,2.594-1.758
			C234.176,321.701,225.947,351.96,189.946,356.208z"/>
		<path fill="#FFF26E" d="M199.654,96.062c3.342-0.469,3.006-2.678,3.982,3.508c0.976,6.184,1.131,7.801,0.814,9.717
			c-0.316,1.914,0.575,3.334-3.487,1.592c-4.062-1.74-30.78-5.305-40.765-2.078c-11.406,3.688-13.085,4.283-12.263,1.754
			c1.199-3.688,0.531-2.939,5.106-4.326c5.035-1.523,13.384-4.436,26.388-6.322C192.435,98.017,193.831,96.876,199.654,96.062z"/>
		<path fill="#FFF26E" d="M23.528,113.628c4.41-2.438,29.25-2.021,38.537-1.473c16.926,0.998,47.842-1.371,61.085-4.662
			c13.244-3.293,12.724-3.494,16.655-4.377c3.934-0.883,8.412-1.318,5.274,7.777c-3.137,9.096-6.194,16.424-7.278,20.799
			c-1.082,4.373,0.563,8.537-15.908,4.303c-36.19-9.303-50.323-20.365-74.5-17.145c-12.412,1.654-12.049,2.674-15.154,1.721
			c-3.107-0.955-3.5-2.426-6.213-1.91c-2.713,0.514-1.846,1.686-3.605-0.908C20.663,115.162,19.304,115.962,23.528,113.628z"/>
		<path fill="#FFF26E" d="M393.41,112.705c8.039,2.611,10.151,3.662-1.066,7.135c-8.807,2.727-32.346,10.672-39.739,12.391
			c-10.195,2.369-22.656,10.686-27.173-5.654c-4.834-17.492-4.982-23.535-13.8-18.004c-6.867,4.307-7.801,2.264-7.888-3.631
			c-0.133-9.156-1.827-16.275,6.08-7.246c4.597,5.248,12.277,3.584,18.619,4.225C334.784,102.56,381.011,108.675,393.41,112.705z"/>
		<path fill="#FFF26E" d="M284.571,91.099c1.969-9.484,1.635-14.225,6.227-10.9c4.592,3.322,5.933,4.197,7.715,7.039
			c1.782,2.84,3.851,6.031-0.337,4.301c-1.363-0.562-8.658-0.361-9.837-0.428c-2.271-0.127,0.197,0.734,2.858,0.98
			c0.848,0.076,4.664,0.529,6.104,0.789c2.508,0.451,4.001,1.119,4.187,5.621c0.176,4.246,1.056,4.42-6.457,4.645
			c-8.381,0.252-12.626,6.934-11.607-3.145C283.68,97.464,283.957,94.056,284.571,91.099z"/>
		<path fill="#FFF26E" d="M190.204,78.894c8.946-0.994,7.609-3.125,9.721,5.713c2.056,8.596,2.55,8.168-2.217,9.508
			c-5.783,1.627-25.164,4.699-31.152,6.41s-12.847,3.506-15.074,3.846c-2.227,0.342-3.336,0.574-3.85-2.139
			s-1.457-11.16-3.445-16.117c-1.987-4.957-1.514-5.254,1.882-5.207c3.396,0.049,7.177,0.186,15.436-0.113
			C169.764,80.496,184.98,79.472,190.204,78.894z"/>
		<g id="Hand_vänster_1_">
			<path fill="#FFF26E" d="M5.958,134.482c-3.125,1.203-3.056,1.996-2.263,7.754c0.847,6.135,2.812,4.496,5.14,5.092
				c4.637,1.182,9.059-2.779,5.984-4.348c-3.105-1.584-2.336-0.779-4.275-1.344c-1.939-0.566-2.867-0.643-1.379-2.568
				c0.893-1.152,0.592-0.371-1.006-2.602S7.048,134.062,5.958,134.482z"/>
			<path fill="#FFF26E" d="M10.171,135.832c1.065,1.277,1.758,2.594,2.951,2.604c1.443,0.012,9.286-0.084,6.256-5.441
				c-3.031-5.357-2.416-3.664-3.939-5.646c-2.155-2.805-3.713-5.92-7.059-5.469c-3.348,0.449-3.16,3.697-2.248,6.621
				C7.044,131.425,8.97,134.392,10.171,135.832z"/>
			<path fill="#FFF26E" d="M22.858,120.976c0.773,0.971,2.043,2.943,0.236,4.373c-1.808,1.432-4.342,2.492-7.889-1.057
				s-4.277-8.502-0.445-9.125C18.595,114.544,21.144,118.82,22.858,120.976z"/>
		</g>
		<g id="Hand_höger_1_">
			<path fill="#FFF26E" d="M422.639,137c-5.052,4.885-15.218,2.354-7.785-3.893c4.276-3.596,6.484-5.652,9.213-3.404
				C426.797,131.949,424.562,135.138,422.639,137z"/>
			<path fill="#FFF26E" d="M417.28,128.349c-7.26,6.732-18.269,3.277-9.601-4.469c9.676-8.646,14.982-8.662,14.123-1.996
				C421.229,126.335,420.255,125.591,417.28,128.349z"/>
			<path fill="#FFF26E" d="M410.456,118.839c-11.393,8.137-12.255,0.09-7.59-3.158c6.706-4.668,9.014-6.775,11.366-3.236
				C416.585,115.986,411.783,117.892,410.456,118.839z"/>
		</g>
	</g>
	<g id="Detaljer_1_">
		<g id="Knappar_1_">
			<path fill="#FFFFFF" d="M4.196,151.292c-1.232,0.244-2.777,1.148-2.211,3.104c0.383,1.32,0.947,1.352,2.079,1.367
				s2.321-0.664,2.084-2.463C5.921,151.564,5.429,151.048,4.196,151.292z"/>
		</g>
		<g id="Vänster_öga_1_">
			<path d="M216.713,37.519c6.098-0.592,9.729,1.146,15.87,4.365c3.44,1.801,3.247,2.482,5.911,2.693
				c4.304,0.336,3.348,3.48,2.834,4.623c-0.826,1.838-0.079,1.766-0.035,3.52c0.092,3.625,2.977,19.051-6.059,20.428
				c-11.262,1.717-16.102-1.578-17.25-12.143c-1.149-10.562,1.712-14.734,3.008-15.613s4.771-2.596,1.717-4.309
				c-2.268-1.275-1.316-0.627-3.568-0.535C216.891,40.642,213.852,37.796,216.713,37.519z"/>
			<path fill="#FFFFFF" d="M232.459,45.789c5.316,2.646,7.435,1.297,7.855,9.789c0.526,10.623-0.693,14.887-7.885,15.834
				c-7.193,0.947-12.402-3.57-13.078-10.537c-0.654-6.762-0.41-10.672,2.131-13.018C224.825,44.771,225.068,42.111,232.459,45.789z"
				/>
			<path d="M235.679,58.287c0.659,3.693-2.207,5.74-3.836,5.771c-1.63,0.033-4.849-0.785-5.073-4.404
				c-0.226-3.621,1.051-6.006,3.787-6.271C233.294,53.119,235.129,55.201,235.679,58.287z"/>
			<path fill="#FFFFFF" d="M234.001,57.822c0.205,2.115,0.165,2.998-1.315,3.268c-1.481,0.268-2.697-1.125-3.039-2.846
				c-0.244-1.232,1.088-1.738,1.834-1.811C233.117,56.275,233.941,57.201,234.001,57.822z"/>
		</g>
		<g id="Höger_öga_1_">
			<path d="M276.672,54.943c0.567,9.74-2.932,15.104-11.043,15.637c-8.111,0.535-11.363-5.805-11.732-10.918
				c-0.37-5.113,0.105-11.465,2.494-14.434c5.045-6.266,12.826-4.949,16.504,0.537C274.949,48.832,276.498,51.945,276.672,54.943z"
				/>
			<path fill="#FFFFFF" d="M263.273,43.683c6.41-1.25,10.574,4.754,11.496,11.068c1.121,7.678-2.153,12.766-8.45,13.879
				c-7.034,1.242-10.135-4.795-10.356-9.672C255.742,54.083,255.168,45.261,263.273,43.683z"/>
			<path d="M266.775,57.787c0.604,2.166-1.605,4.174-3.62,4.117s-4.471-2.078-4.427-4.217c0.044-2.141,0.807-3.344,3.17-3.574
				C264.262,53.884,266.197,55.707,266.775,57.787z"/>
			<path fill="#FFFFFF" d="M264.026,57.927c-0.052,1.129-0.925,1.471-1.497,1.4c-1-0.123-1.556-0.297-1.714-0.84
				c-0.282-0.977-0.032-1.629,1.2-1.873C262.873,56.443,264.066,57.044,264.026,57.927z"/>
			<path d="M265.034,23.607c2.292-0.33,6.95,0.893,7.959,4.377c0.283,0.979-0.22,2.91-1.03,2.99c-0.808,0.076-0.75-0.619-0.81-1.24
				c-0.192-1.992-2.788-3.498-5.208-3.201c-2.421,0.297-3.24,2.197-4.673,4.912c-1.433,2.713-3.153,1.811-2.499-0.514
				C259.428,28.609,261.008,24.185,265.034,23.607z"/>
		</g>
		<path d="M107.628,117.724c-1.225,2.762-0.473,1.6-1.922,4.143c-1.932,3.389-1.372,5.281,1.777,4.098
			c3.151-1.186,5.389-6.195,2.975-4.307c-2.568,2.008-5.504,4.578-2.2-0.666C112.177,114.771,109.431,113.656,107.628,117.724z"/>
		<g id="Knapp_höger_1_">
			<path d="M346.695,124.388c2.038,2.594,1.101,6.172-1.725,6.824c-2.826,0.648-3.994,0.561-5.15-0.004
				c-1.714-0.838-3.889-7.432-0.571-8.484C340.955,122.181,344.403,121.47,346.695,124.388z"/>
			<path fill="#FFF26E" d="M342.508,123.287c3.314-0.133,4.219,2.066,3.256,4.457c-0.657,1.633-1.872,2.064-3.937,2.141
				c-2.124,0.076-3.737-2.361-2.902-4.68C339.37,123.968,340.493,123.369,342.508,123.287z"/>
		</g>
		<path id="Skäggstubb_1_" d="M256.15,77.748c0.292-0.027,0.553,0.186,0.58,0.477s-0.186,0.551-0.477,0.58
			c-0.291,0.027-0.551-0.188-0.579-0.479S255.86,77.775,256.15,77.748z M249.574,77.849c0.033,0.342,0.336,0.59,0.676,0.557
			c0.341-0.033,0.59-0.334,0.557-0.676c-0.033-0.34-0.336-0.588-0.676-0.555S249.541,77.509,249.574,77.849z M246.91,81.97
			c0.031,0.314,0.312,0.547,0.627,0.516s0.547-0.311,0.517-0.627c-0.031-0.316-0.312-0.547-0.628-0.516
			C247.11,81.373,246.88,81.654,246.91,81.97z M237.912,82.968c0.041,0.412,0.406,0.715,0.82,0.674
			c0.414-0.039,0.717-0.406,0.676-0.82c-0.039-0.412-0.407-0.715-0.82-0.676C238.174,82.187,237.873,82.554,237.912,82.968z
			 M240.837,79.701c0.032,0.34,0.336,0.59,0.676,0.557c0.341-0.033,0.589-0.336,0.556-0.676s-0.334-0.59-0.675-0.557
			S240.804,79.361,240.837,79.701z M239.296,78.564c0.03,0.314,0.312,0.547,0.627,0.516s0.548-0.311,0.517-0.627
			c-0.031-0.314-0.312-0.547-0.627-0.518C239.496,77.966,239.266,78.248,239.296,78.564z M227.661,79.535
			c0.028,0.289,0.288,0.504,0.577,0.477c0.293-0.029,0.507-0.289,0.479-0.58c-0.029-0.291-0.288-0.504-0.58-0.477
			C227.846,78.982,227.632,79.242,227.661,79.535z M233.312,82.91c0.03,0.316,0.312,0.547,0.627,0.516
			c0.315-0.029,0.547-0.311,0.516-0.625c-0.029-0.316-0.311-0.549-0.627-0.518C233.513,82.314,233.281,82.595,233.312,82.91z
			 M263,79.533c0.03,0.314,0.312,0.545,0.627,0.516c0.315-0.031,0.547-0.312,0.517-0.627c-0.031-0.316-0.312-0.549-0.628-0.518
			C263.2,78.935,262.969,79.216,263,79.533z M252.119,83.38c0.033,0.34,0.336,0.59,0.676,0.557c0.341-0.033,0.59-0.336,0.557-0.678
			c-0.033-0.338-0.335-0.588-0.676-0.555C252.336,82.738,252.086,83.039,252.119,83.38z M245.67,80.833
			c0.031,0.316,0.311,0.547,0.627,0.518c0.314-0.031,0.547-0.312,0.517-0.627c-0.03-0.316-0.313-0.547-0.628-0.518
			C245.869,80.238,245.639,80.519,245.67,80.833z M211.833,94.537c0.031,0.314,0.312,0.545,0.627,0.516
			c0.316-0.031,0.548-0.311,0.517-0.627c-0.029-0.314-0.312-0.547-0.627-0.518C212.034,93.939,211.803,94.22,211.833,94.537z
			 M221.081,103.656c0.028,0.291,0.288,0.504,0.579,0.477s0.505-0.289,0.477-0.578c-0.027-0.293-0.287-0.506-0.58-0.479
			C221.268,103.105,221.053,103.365,221.081,103.656z M217.791,106.767c0.03,0.316,0.311,0.549,0.627,0.518
			c0.314-0.031,0.547-0.312,0.518-0.627c-0.031-0.316-0.313-0.547-0.629-0.516C217.991,106.171,217.76,106.453,217.791,106.767z
			 M226.168,118.294c0.023,0.244,0.239,0.422,0.482,0.398c0.242-0.023,0.42-0.24,0.396-0.482c-0.023-0.244-0.238-0.422-0.482-0.398
			C226.322,117.835,226.145,118.052,226.168,118.294z M227.596,116.462c0.029,0.291,0.288,0.504,0.579,0.477
			c0.292-0.029,0.506-0.289,0.478-0.58s-0.289-0.506-0.58-0.477C227.782,115.912,227.568,116.169,227.596,116.462z M227.736,118.425
			c0.027,0.268,0.264,0.463,0.531,0.438s0.463-0.264,0.438-0.531c-0.026-0.266-0.264-0.463-0.531-0.438
			C227.907,117.921,227.712,118.16,227.736,118.425z M233.377,116.248c0.035,0.363,0.359,0.631,0.725,0.596
			c0.363-0.037,0.631-0.361,0.596-0.725c-0.037-0.363-0.36-0.631-0.725-0.596C233.607,115.558,233.341,115.882,233.377,116.248z
			 M240.464,117.57c0.026,0.268,0.263,0.463,0.53,0.436c0.268-0.025,0.464-0.262,0.438-0.529c-0.025-0.268-0.264-0.463-0.531-0.438
			C240.633,117.066,240.438,117.302,240.464,117.57z M235.453,121.07c0.018,0.17,0.17,0.293,0.34,0.277s0.294-0.168,0.277-0.338
			s-0.168-0.295-0.338-0.279C235.562,120.748,235.438,120.898,235.453,121.07z M234.581,123.226c0.03,0.316,0.312,0.547,0.627,0.516
			c0.315-0.029,0.548-0.311,0.517-0.627c-0.031-0.314-0.312-0.547-0.628-0.518C234.781,122.628,234.551,122.912,234.581,123.226z
			 M240.164,123.814c0.031,0.316,0.311,0.547,0.627,0.518c0.314-0.031,0.547-0.312,0.517-0.627c-0.03-0.316-0.312-0.547-0.628-0.518
			C240.365,123.218,240.134,123.5,240.164,123.814z M244.591,128.001c0.019,0.193,0.19,0.336,0.385,0.316
			c0.195-0.018,0.337-0.189,0.318-0.385s-0.191-0.336-0.386-0.318C244.714,127.634,244.572,127.806,244.591,128.001z
			 M246.145,128.542c0.042,0.436,0.432,0.758,0.869,0.715s0.757-0.432,0.715-0.869c-0.043-0.438-0.431-0.758-0.867-0.715
			C246.424,127.716,246.103,128.105,246.145,128.542z M247.156,115.099c0.022,0.219,0.217,0.379,0.436,0.359
			c0.219-0.021,0.379-0.217,0.357-0.434c-0.021-0.221-0.215-0.379-0.435-0.359C247.297,114.687,247.136,114.88,247.156,115.099z
			 M250.759,119.619c0.028,0.291,0.288,0.504,0.579,0.477c0.291-0.029,0.505-0.289,0.477-0.58c-0.027-0.291-0.288-0.506-0.58-0.477
			C250.945,119.066,250.73,119.328,250.759,119.619z M244.875,120.595c0.031,0.316,0.312,0.547,0.627,0.516
			c0.316-0.029,0.548-0.311,0.517-0.627c-0.03-0.314-0.312-0.547-0.627-0.516S244.845,120.281,244.875,120.595z M256.369,115.306
			c0.028,0.291,0.287,0.506,0.578,0.477c0.292-0.027,0.506-0.287,0.477-0.578c-0.027-0.291-0.287-0.506-0.578-0.479
			C256.555,114.755,256.34,115.015,256.369,115.306z M261.221,114.837c0.029,0.291,0.289,0.504,0.578,0.475
			c0.293-0.027,0.507-0.287,0.479-0.576c-0.027-0.293-0.288-0.508-0.58-0.479C261.406,114.285,261.192,114.544,261.221,114.837z
			 M271.997,108.613c0.026,0.266,0.263,0.463,0.53,0.436c0.268-0.025,0.463-0.262,0.438-0.531c-0.026-0.266-0.265-0.463-0.531-0.436
			C272.166,108.107,271.971,108.345,271.997,108.613z M262.406,118.771c0.03,0.316,0.311,0.549,0.626,0.518
			c0.316-0.031,0.548-0.312,0.517-0.627c-0.029-0.316-0.312-0.547-0.627-0.518C262.606,118.175,262.375,118.457,262.406,118.771z
			 M261.439,121.001c0.04,0.412,0.406,0.715,0.82,0.674c0.412-0.039,0.716-0.406,0.676-0.82c-0.04-0.412-0.408-0.715-0.821-0.676
			C261.701,120.22,261.399,120.587,261.439,121.001z M255.688,120.992c0.036,0.365,0.36,0.633,0.725,0.596
			c0.364-0.035,0.631-0.359,0.596-0.723c-0.035-0.365-0.359-0.633-0.725-0.598C255.92,120.304,255.652,120.628,255.688,120.992z
			 M262.379,125.996c0.025,0.268,0.263,0.463,0.53,0.436c0.267-0.025,0.464-0.262,0.438-0.529s-0.265-0.463-0.531-0.438
			C262.547,125.492,262.353,125.728,262.379,125.996z M256.922,128.566c0.048,0.484,0.479,0.84,0.965,0.793s0.841-0.479,0.794-0.965
			c-0.048-0.486-0.478-0.842-0.966-0.793C257.229,127.648,256.875,128.08,256.922,128.566z M270.883,115.25
			c0.025,0.268,0.262,0.463,0.529,0.438s0.463-0.264,0.438-0.531c-0.026-0.266-0.264-0.461-0.53-0.436
			C271.051,114.746,270.856,114.984,270.883,115.25z M265.576,112.123c0.045,0.461,0.455,0.799,0.918,0.754
			c0.461-0.043,0.799-0.455,0.754-0.916s-0.455-0.799-0.916-0.754S265.532,111.662,265.576,112.123z M259.242,82.722
			c0.016,0.17,0.168,0.295,0.338,0.277c0.17-0.016,0.295-0.168,0.277-0.338c-0.016-0.17-0.167-0.295-0.337-0.279
			C259.351,82.4,259.226,82.552,259.242,82.722z M263.865,76.779c0.02,0.195,0.191,0.336,0.385,0.318
			c0.195-0.018,0.338-0.191,0.319-0.385c-0.019-0.195-0.192-0.338-0.387-0.318C263.988,76.412,263.846,76.583,263.865,76.779z
			 M221.083,78.255c0.026,0.268,0.263,0.463,0.53,0.438c0.267-0.027,0.463-0.264,0.438-0.531c-0.027-0.268-0.265-0.463-0.531-0.438
			C221.252,77.75,221.057,77.988,221.083,78.255z M245.395,77.47c0.021,0.219,0.217,0.379,0.436,0.357s0.379-0.217,0.357-0.434
			c-0.021-0.219-0.216-0.379-0.435-0.359C245.535,77.056,245.373,77.251,245.395,77.47z M241.941,83.8
			c0.018,0.195,0.19,0.338,0.385,0.318c0.194-0.018,0.336-0.191,0.318-0.385c-0.02-0.195-0.191-0.338-0.387-0.318
			C242.063,83.435,241.922,83.607,241.941,83.8z M259.379,77.402c0.023,0.244,0.24,0.422,0.482,0.398s0.42-0.24,0.396-0.482
			c-0.023-0.244-0.239-0.422-0.482-0.398C259.533,76.943,259.355,77.16,259.379,77.402z M251.133,131.261
			c0.029,0.291,0.287,0.504,0.578,0.477c0.293-0.027,0.507-0.289,0.479-0.58c-0.029-0.291-0.289-0.504-0.58-0.477
			C251.318,130.71,251.104,130.97,251.133,131.261z M252.629,126.72c0.019,0.195,0.191,0.336,0.386,0.318
			c0.194-0.02,0.337-0.191,0.317-0.387c-0.019-0.193-0.19-0.336-0.385-0.316C252.752,126.353,252.61,126.525,252.629,126.72z"/>
		<g id="Mun_1_">
			<path d="M208.119,69.371c2.296,0.705,2.963,3.355,4.123,6.258c1.16,2.9,3.035,4.102,4.934,5.549
				c1.898,1.449,6.041,5.318,13.253,5.875s4.597,1.418,8.54,1.307c14.654-0.414,30.703,1.924,33.812-10.057
				c1.605-6.182,1.01-6.73,3.078-9.717c0.605-0.875,1.162-1.619,3.551-2.229c3.848-0.979,2.385,1.277,0.43,1.842
				c-1.953,0.566-3.527,0.297-4.826,8.506c-0.547,3.443-1.129,3.248-0.748,6.539c0.096,0.828,0.162,1.682,0.672,1.756
				c0.451,0.068,0.781,0.93,0.779,1.559c-0.006,2.248,0.707,4.703-1.5,6.549c-2.207,1.848-2.707,1.883-2.44,4.633
				c0.169,1.742-1.238,3.725-2.998,4.057c-4.069,0.771-3.796,0.996-4.414,3.693c-0.459,2.01-0.758,3.842-4.378,4.066
				c-3.619,0.227-5.013,0.109-7.213-0.557c-2.199-0.666-0.943-0.662-2.238,0.217c-1.297,0.879-10.504,1.771-12.551,0.086
				s-3.492-1.043-5.383-1.111c-1.89-0.068-4.973-0.773-5.606-4.732c-0.636-3.957-1.879-3.836-3.481-4.811
				c-1.601-0.975-3.528-2.006-3.267-5.209c0.259-3.164,1.667-6.127-2.237-8.826c-3.858-2.668-5.459-4.494-6.397-6.412
				s-2.372-5.045-3.986-6.145S201.906,67.462,208.119,69.371z"/>
			<path d="M232.602,108.191c-2.573,0-4.973-0.773-5.606-4.732"/>
			<path fill="#FFFFFF" d="M249.076,90.269c6.504-0.08,8.957-0.867,12.653-1.604c3.696-0.734,4.308-0.92,5.8-1.064
				c1.493-0.145,2.115-0.203,2.625,3.766s1.418,8.15-2.029,8.861s-2.963,0.539-3.244-1.066c-0.28-1.607-1.404-4.135-1.056-0.527
				c0.351,3.609,0.808,8.336-4.915,8.893c-3.981,0.385-6.236,1.732-7.148-5.086c-1.044-7.807-2.533-7.16-1.811-1.834
				c0.877,6.445-0.084,6.916-5.071,7.273c-4.989,0.357-7.839,0.76-8.763-6.184s-1.377-1.248-1.356,0.258
				c0.021,1.504,0.562,3.209-2.585,3.137c-3.146-0.07-4.361-0.957-4.656-6.58c-0.293-5.623-1.01-6.162-1.369-3.762
				c-0.075,0.51-0.051,0.76-1.283,1.004c-1.232,0.246-2.501,0.117-2.766-2.621c-0.266-2.736-0.521-2.041-0.42-3.035
				c0.129-1.27,1.455-1.836,3.568-1.412c1.965,0.393,4.825-0.092,8.814,0.902C238.055,90.583,240.17,90.378,249.076,90.269z"/>
			<path fill="#FFFFFF" d="M274.408,87.312c0.497,1.811,0.381,3.145-1.518,3.789c-2.066,0.703-2.299-0.404-2.379-2.533
				c-0.053-3.133,0.469-2.934,1.89-3.824C273.678,83.943,273.437,83.765,274.408,87.312z"/>
		</g>
	</g>
</g>
</svg>
