<?xml version="1.0" encoding="utf-8"?>
<!-- Generator: Adobe Illustrator 16.0.4, SVG Export Plug-In . SVG Version: 6.00 Build 0)  -->
<!DOCTYPE svg PUBLIC "-//W3C//DTD SVG 1.1//EN" "http://www.w3.org/Graphics/SVG/1.1/DTD/svg11.dtd">
<svg version="1.1" id="Layer_1" xmlns="http://www.w3.org/2000/svg" xmlns:xlink="http://www.w3.org/1999/xlink" x="0px" y="0px"
	 width="428.164px" height="158.759px" viewBox="0 0 428.164 158.759" enable-background="new 0 0 428.164 158.759"
	 xml:space="preserve">
<g id="Överkropp">
	<path d="M7.266,157.022c1.525-2.406,0.859-5.131-0.615-6.344c-1.092-0.9-1.898-2.389,2.877-1.41
		c2.756,0.564,5.553-0.021,7.096-1.213c1.256-0.965,1.682-2.33,0.582-3.801c-2.389-3.193-1.902-4.084,2.042-4.844
		c3.575-0.688,3.845-4.391,2.11-6.734s-1.902-4.086,0.609-4.078c2.514,0.008,2.842-1.783,3.965-3.146
		c1.125-1.365-1.605-3.613,2.496-2.754c4.102,0.857,1.133,0.514,3.604,0.906c6.379,1.016,2.871,1.035,9.554,0.078
		c16.226-2.324,28.833-0.533,43.169,4.861c14.337,5.391,19.447,7.133,34.718,10.951c5.792,1.449,6.342,0.643,6.174,6.688
		c-0.022,0.777-0.058,1.387-0.101,1.873c-0.297,3.318-0.963,1.082-0.115,7.566c0.182,1.391,0.393,2.408,0.615,3.127h1.812
		c0.106-0.557,0.144-1.215,0.081-1.863c-0.367-3.781-0.664-6.85-0.651-8.83c0.006-0.926,0.072-1.611,0.225-2.055
		c0.488-1.43-1.346-3.512,4.599-3.084c5.987,0.434,6.995-2.242,8.584-8.617c2.985-11.969,2.459-14.805,7.319-17.789
		c1.989-1.221,9.764-4.211,12.613-4.611c2.782-0.393,0.758,0.051,9.094-0.756c12.566-1.219,20.053,1.51,33.73,4.645
		c1.926,0.439,1.518,0.104,1.798,1.709c0.281,1.605,2.073,17.506,1.816,20.043c-0.257,2.535-0.369,2.674-3.202,1.943
		c-2.834-0.73-2.87-1.104-4.436-1.707c-2.569-0.988-30.061-15.1-41.712,2.41c-1.573,2.363-2.618,5.213-3.062,7.869
		c-0.236,1.422-0.301,2.787-0.184,3.998c0.338,3.484,0.81,4.158,1.955-0.566c0.299-1.232,0.639-2.383,1.02-3.432
		c7.172-20.217,28.453-12.832,45.451-5.59c3.568,1.52,4.117,1.021,4.521,5.59c0.084,0.947,0.163,2.135,0.264,3.615
		c0.502,7.475,0.618,5.924,0.71,7.072h2.239c0.347-3.6,0.564-7.178,0.682-10.688c0.019-0.611,0.035-1.213,0.051-1.809
		c0.384-16.023-1.346-30.758-3.029-40.98c-0.203-1.238-0.42-2.557-0.652-3.963c-0.42-2.467-0.895-5.172-1.45-8.025
		c-2.369-12.148-6.156-27.03-13.459-39.75c-9.972-17.37-21.114-26.086-35.788-27.176c-14.674-1.091-11.105-6.794-2.36-8.813
		c13.012-3.006,28.066-5.381,43.575-7.154c38.031-4.352,78.734-5.074,98.396-2.582c13.478,1.708,25.639,2.791,32.839,7.117
		c7.201,4.324,9.815,6.103-0.007,10.297c-39.555,16.895-45.455,40.166-47.842,58.386c-0.59,4.506-1.267,10.828-1.865,17.701
		c-1.16,13.266-2.026,28.562-1.412,36.617c0.933,12.217,0.658,4.207,1.912,9.359c0.065,0.273,0.131,0.533,0.192,0.775
		c0.978,3.881,1.507,4.729,1.627,0c0.019-0.693,0.026-1.514,0.026-2.463c-0.002-7.785-0.299-23.096,0.992-31.24
		c1.09-6.887-0.283-5.498,3.354-6.854c3.636-1.357,7.497-2.988,11.502-3.125c4.006-0.137,3.743,1.613,3.516,5.186
		c-0.496,7.834,3.862,6.156,7.65,3.779s7.382-7.391,9.648,1.074c2.36,8.814,4.009,31.008,23.755,24.824
		c19.746-6.182,39.266-12.092,44.395-13.594c4.948-1.449,5.801-2.502,9.184-3.088c3.272-0.568,4.897,1.283,5.838,2.574
		c1.189,1.629,0.805,3.125,0.849,4.879c0.096,3.756,3.592,4.85,4.898,5.176c1.995,0.498,3.151,0.135,3.106,2.902
		c-0.025,1.52,1.519,2.836,3.042,3.535c2.826,1.295,2.183,2.426,2.469,6.041c0.009,0.107,0.02,0.24,0.031,0.393
		c0.125,1.584,0.431,5.477,0.883,10.672h3.73c-0.395-3.424-0.92-7.471-1.63-12.361c-0.268-1.846-0.063-4.312,1.448-5.793
		c2.064-2.02,1.309-0.621,4.968-3.809c3.244-2.826,3.606-6.209-0.825-8.523c-1.521-0.795-3.201-0.631-1.58-3.99
		c1.755-3.637-0.259-8.482-4.36-10c-2.148-0.797-2.985-1.551-3.845-3.396c-1.903-4.084-4.885-3.568-7.159-1.314
		c-3.095,3.062-3.798,4.889-15.253,0.723c-11.454-4.164-52.954-9.939-65.588-10.725c-12.636-0.785-19.659-5.881-23.4-10.793
		s-0.489-2.465-9.151-8.908c-7.381-5.493-8.325-2.962-4.217-12.402c10.371-23.826,26.671-33.227,44.474-38.719
		c7.031-2.17,17.08-12.957-6.206-19.994c-39.76-12.015-92.219-9.656-130.013-4.552c-20.97,2.832-37.425,6.506-44.742,9.05
		c-12.577,4.373-11.385,13.41-11.096,16.396c0.29,2.986,5.062,4.282,6.61,2.122c1.549-2.159,2.381-1.361,6.486-1.758
		c16.191-1.569,33.531,28.523,39.031,39.921c2.391,4.954,1.702,4.607-5.29,5.033c-6.991,0.427-34.681,2.469-42.67,2.879
		c-5.499,0.281-9.42-2.604-7.152,3.958c2.974,8.6,3.995,8.656,4.409,14.391c0.369,5.113,1.354,4.893-3.949,5.908
		c-7.623,1.461-3.127,0.586-26.16,4.795c-4.193,0.768-8.369,1.391-12.484,1.893c-33.264,4.055-63.09,0.322-70.586,1.385
		c-7.441,1.053-10.16,3.998-14.832,2.441s-5.018,1.365-5.795,3.701c-0.779,2.336,1.461,2.119-2.473,3.002
		c-3.934,0.885-5.133,2.758-4.377,7.959c0.754,5.201,2.951,4.549,0.629,5.215c-3.635,1.041-3.377,10.738-0.853,14.525
		c2.204,3.301-0.903,2.346-1.838,3.066c-2.081,1.6-2.168,5.482,1.481,7.516c1.844,1.025,1.406,0.271,1.33,1.189h2.283
		C6.291,158.048,6.482,158.261,7.266,157.022z"/>
	<g id="Gult_1_">
		<path fill="#FFF6A5" d="M199.656,96.062c3.342-0.469,3.006-2.678,3.982,3.508c0.976,6.184,1.131,7.801,0.814,9.717
			c-0.316,1.914,0.575,3.334-3.486,1.592c-4.062-1.74-30.781-5.305-40.766-2.078c-11.406,3.688-13.085,4.283-12.264,1.754
			c1.201-3.688,0.533-2.939,5.107-4.326c5.035-1.523,13.384-4.436,26.388-6.322C192.437,98.017,193.832,96.876,199.656,96.062z"/>
		<path fill="#FFF6A5" d="M23.531,113.628c4.41-2.438,29.25-2.021,38.536-1.473c16.926,0.998,47.841-1.371,61.085-4.662
			c13.244-3.293,12.723-3.494,16.656-4.377c3.933-0.883,8.412-1.318,5.273,7.777c-3.137,9.096-6.195,16.424-7.277,20.799
			c-1.084,4.373,0.562,8.537-15.909,4.303c-36.19-9.303-50.323-20.365-74.499-17.145c-12.414,1.654-12.049,2.674-15.156,1.721
			c-3.105-0.955-3.5-2.426-6.213-1.91c-2.713,0.514-1.846,1.686-3.604-0.908C20.665,115.161,19.305,115.962,23.531,113.628z"/>
		<path fill="#FFF6A5" d="M393.412,112.704c8.039,2.611,10.151,3.662-1.066,7.135c-8.807,2.727-32.346,10.672-39.739,12.391
			c-10.195,2.369-22.656,10.686-27.173-5.654c-4.834-17.492-4.982-23.535-13.8-18.004c-6.867,4.307-7.801,2.264-7.888-3.631
			c-0.133-9.156-1.827-16.275,6.08-7.246c4.597,5.248,12.277,3.584,18.619,4.225C334.786,102.56,381.013,108.675,393.412,112.704z"
			/>
		<path fill="#FFF6A5" d="M284.573,91.099c1.969-9.484,1.635-14.224,6.227-10.9c4.592,3.322,5.933,4.197,7.715,7.039
			c1.782,2.84,3.851,6.031-0.337,4.301c-1.363-0.562-8.658-0.361-9.837-0.428c-2.271-0.127,0.197,0.734,2.858,0.98
			c0.848,0.076,4.664,0.529,6.104,0.789c2.508,0.451,4.001,1.119,4.187,5.621c0.176,4.246,1.056,4.42-6.457,4.645
			c-8.381,0.252-12.626,6.934-11.607-3.145C283.682,97.464,283.959,94.056,284.573,91.099z"/>
		<path fill="#FFF6A5" d="M190.207,78.893c8.945-0.993,7.608-3.124,9.721,5.713c2.055,8.596,2.549,8.168-2.219,9.508
			c-5.781,1.627-25.163,4.699-31.151,6.41c-5.987,1.711-12.847,3.506-15.075,3.846c-2.227,0.342-3.334,0.574-3.848-2.139
			c-0.515-2.713-1.459-11.16-3.445-16.117c-1.988-4.957-1.514-5.254,1.881-5.207c3.396,0.049,7.177,0.186,15.436-0.113
			C169.766,80.495,184.982,79.472,190.207,78.893z"/>
		<g id="Hand_vänster_1_">
			<path fill="#FFF6A5" d="M5.961,134.481c-3.127,1.203-3.057,1.996-2.264,7.754c0.846,6.135,2.811,4.496,5.141,5.092
				c4.635,1.182,9.059-2.779,5.982-4.348c-3.104-1.584-2.335-0.779-4.273-1.344c-1.939-0.566-2.869-0.643-1.379-2.568
				c0.893-1.152,0.592-0.371-1.006-2.602S7.049,134.062,5.961,134.481z"/>
			<path fill="#FFF6A5" d="M10.174,135.831c1.064,1.277,1.758,2.594,2.951,2.604c1.442,0.012,9.285-0.084,6.254-5.441
				s-2.414-3.664-3.938-5.646c-2.156-2.805-3.713-5.92-7.061-5.469c-3.348,0.449-3.158,3.697-2.246,6.621
				C7.045,131.425,8.973,134.392,10.174,135.831z"/>
			<path fill="#FFF6A5" d="M22.861,120.976c0.773,0.971,2.043,2.943,0.236,4.373c-1.809,1.432-4.344,2.492-7.889-1.057
				c-3.547-3.549-4.279-8.502-0.445-9.125C18.596,114.544,21.145,118.819,22.861,120.976z"/>
		</g>
		<g id="Hand_höger_1_">
			<path fill="#FFF6A5" d="M422.641,136.999c-5.052,4.885-15.218,2.354-7.785-3.893c4.276-3.596,6.484-5.652,9.213-3.404
				C426.799,131.948,424.564,135.138,422.641,136.999z"/>
			<path fill="#FFF6A5" d="M417.282,128.349c-7.26,6.732-18.269,3.277-9.601-4.469c9.676-8.646,14.982-8.662,14.123-1.996
				C421.231,126.335,420.257,125.591,417.282,128.349z"/>
			<path fill="#FFF6A5" d="M410.458,118.839c-11.393,8.137-12.255,0.09-7.59-3.158c6.706-4.668,9.014-6.775,11.366-3.236
				C416.587,115.985,411.785,117.892,410.458,118.839z"/>
		</g>
		<path fill="#FFF6A5" d="M125.43,155.622c-0.848-6.484-0.182-4.248,0.115-7.566c0.043-0.486,0.078-1.096,0.101-1.873
			c0.168-6.045-0.382-5.238-6.174-6.688c-15.271-3.818-20.381-5.561-34.718-10.951c-14.336-5.395-26.943-7.186-43.169-4.861
			c-6.683,0.957-3.175,0.938-9.554-0.078c-2.471-0.393,0.498-0.049-3.604-0.906c-4.102-0.859-1.371,1.389-2.496,2.754
			c-1.123,1.363-1.451,3.154-3.965,3.146c-2.512-0.008-2.344,1.734-0.609,4.078s1.465,6.047-2.11,6.734
			c-3.944,0.76-4.431,1.65-2.042,4.844c1.1,1.471,0.674,2.836-0.582,3.801c-1.543,1.191-4.34,1.777-7.096,1.213
			c-4.775-0.979-3.969,0.51-2.877,1.41c1.475,1.213,2.141,3.938,0.615,6.344c-0.783,1.238-0.975,1.025-0.73,1.736l119.51-0.01
			C125.822,158.03,125.611,157.013,125.43,155.622z"/>
		<path fill="#FFF6A5" d="M207.682,151.671c-0.101-1.48-0.18-2.668-0.264-3.615c-0.404-4.568-0.953-4.07-4.521-5.59
			c-16.998-7.242-38.279-14.627-45.451,5.59c-0.381,1.049-0.721,2.199-1.02,3.432c-1.146,4.725-1.617,4.051-1.955,0.566
			c-0.117-1.211-0.053-2.576,0.184-3.998c0.443-2.656,1.488-5.506,3.062-7.869c11.651-17.51,39.143-3.398,41.712-2.41
			c1.565,0.604,1.602,0.977,4.436,1.707c2.833,0.73,2.945,0.592,3.202-1.943c0.257-2.537-1.535-18.438-1.816-20.043
			c-0.28-1.605,0.128-1.27-1.798-1.709c-13.678-3.135-21.164-5.863-33.73-4.645c-8.336,0.807-6.312,0.363-9.094,0.756
			c-2.85,0.4-10.624,3.391-12.613,4.611c-4.86,2.984-4.334,5.82-7.319,17.789c-1.589,6.375-2.597,9.051-8.584,8.617
			c-5.944-0.428-4.11,1.654-4.599,3.084c-0.152,0.443-0.219,1.129-0.225,2.055c-0.013,1.98,0.284,5.049,0.651,8.83
			c0.062,0.648,0.025,1.307-0.081,1.863l80.534-0.006C208.3,157.595,208.184,159.146,207.682,151.671z"/>
		<path fill="#FFF6A5" d="M416.265,147.663c-0.286-3.615,0.357-4.746-2.469-6.041c-1.523-0.699-3.067-2.016-3.042-3.535
			c0.045-2.768-1.111-2.404-3.106-2.902c-1.307-0.326-4.803-1.42-4.898-5.176c-0.044-1.754,0.341-3.25-0.849-4.879
			c-0.94-1.291-2.565-3.143-5.838-2.574c-3.383,0.586-4.235,1.639-9.184,3.088c-5.129,1.502-24.648,7.412-44.395,13.594
			c-19.746,6.184-21.395-16.01-23.755-24.824c-2.267-8.465-5.86-3.451-9.648-1.074s-8.146,4.055-7.65-3.779
			c0.228-3.572,0.49-5.322-3.516-5.186c-4.005,0.137-7.866,1.768-11.502,3.125c-3.638,1.355-2.265-0.033-3.354,6.854
			c-1.291,8.145-0.994,23.455-0.992,31.24c0,0.949-0.008,1.77-0.026,2.463c-0.12,4.729-0.649,3.881-1.627,0
			c-0.062-0.242-0.127-0.502-0.192-0.775c-1.254-5.152-0.979,2.857-1.912-9.359c-0.614-8.055,0.252-23.352,1.412-36.617
			c0.599-6.873,1.275-13.195,1.865-17.701c2.387-18.22,8.287-41.492,47.842-58.386c9.822-4.194,7.208-5.973,0.007-10.297
			c-7.2-4.326-19.361-5.409-32.839-7.117c-19.662-2.492-60.365-1.77-98.396,2.582c-15.509,1.773-30.563,4.148-43.575,7.154
			c-8.745,2.02-12.313,7.723,2.36,8.813c14.674,1.09,25.816,9.806,35.788,27.176c7.303,12.721,11.09,27.602,13.459,39.75
			c0.556,2.854,1.03,5.559,1.45,8.025c0.232,1.406,0.449,2.725,0.652,3.963c1.684,10.223,3.413,24.957,3.029,40.98
			c-0.016,0.596-0.032,1.197-0.051,1.809c-0.117,3.51-0.335,7.088-0.682,10.688l206.548-0.016
			c-0.452-5.195-0.758-9.088-0.883-10.672C416.284,147.903,416.273,147.771,416.265,147.663z"/>
	</g>
	<g id="Knappar_1_">
		<path fill="#FFFFFF" d="M4.198,151.292c-1.231,0.244-2.778,1.148-2.21,3.104c0.383,1.32,0.945,1.352,2.078,1.367
			c1.132,0.016,2.322-0.664,2.084-2.463C5.922,151.563,5.43,151.048,4.198,151.292z"/>
		<path d="M107.629,117.724c-1.223,2.762-0.473,1.6-1.922,4.143c-1.932,3.389-1.371,5.281,1.779,4.098
			c3.15-1.186,5.389-6.195,2.973-4.307c-2.568,2.008-5.504,4.578-2.199-0.666C112.179,114.771,109.433,113.655,107.629,117.724z"/>
		<path d="M346.697,124.388c-2.292-2.918-5.74-2.207-7.446-1.664c-3.317,1.053-1.143,7.646,0.571,8.484
			c1.156,0.564,2.324,0.652,5.15,0.004C347.798,130.56,348.735,126.981,346.697,124.388z M345.766,127.743
			c-0.657,1.633-1.872,2.064-3.937,2.141c-2.124,0.076-3.737-2.361-2.902-4.68c0.445-1.236,1.568-1.836,3.583-1.918
			C345.824,123.153,346.729,125.353,345.766,127.743z"/>
	</g>
	<g id="Ansikte">
		<g id="Vänster_öga_1_">
			<path d="M216.715,37.519c6.098-0.592,9.729,1.146,15.87,4.364c3.44,1.802,3.247,2.483,5.911,2.693
				c4.304,0.336,3.348,3.481,2.834,4.623c-0.826,1.838-0.079,1.766-0.035,3.52c0.092,3.625,2.977,19.052-6.059,20.429
				c-11.262,1.717-16.102-1.579-17.25-12.143c-1.149-10.562,1.712-14.734,3.008-15.613s4.771-2.597,1.717-4.31
				c-2.268-1.274-1.316-0.626-3.568-0.534C216.893,40.642,213.854,37.795,216.715,37.519z"/>
			<path fill="#FFFFFF" d="M232.461,45.789c5.316,2.646,7.435,1.297,7.855,9.789c0.526,10.622-0.693,14.886-7.885,15.834
				c-7.193,0.947-12.402-3.571-13.078-10.538c-0.654-6.762-0.41-10.672,2.131-13.017C224.827,44.771,225.07,42.11,232.461,45.789z"
				/>
			<path d="M235.681,58.287c0.659,3.693-2.207,5.739-3.836,5.771c-1.63,0.032-4.849-0.786-5.073-4.405
				c-0.226-3.62,1.051-6.005,3.787-6.271C233.296,53.118,235.131,55.201,235.681,58.287z"/>
			<path fill="#FFFFFF" d="M234.003,57.821c0.205,2.115,0.165,2.999-1.315,3.268c-1.481,0.269-2.697-1.125-3.039-2.845
				c-0.244-1.232,1.088-1.738,1.834-1.812C233.119,56.274,233.943,57.2,234.003,57.821z"/>
		</g>
		<g id="Höger_öga_1_">
			<path d="M276.674,54.943c0.567,9.74-2.932,15.104-11.043,15.637c-8.111,0.535-11.363-5.806-11.732-10.918
				c-0.37-5.113,0.105-11.466,2.494-14.434c5.045-6.266,12.826-4.95,16.504,0.536C274.951,48.831,276.5,51.945,276.674,54.943z"/>
			<path fill="#FFFFFF" d="M263.275,43.683c6.41-1.25,10.574,4.754,11.496,11.067c1.121,7.678-2.153,12.767-8.45,13.88
				c-7.034,1.242-10.135-4.795-10.356-9.672C255.744,54.083,255.17,45.261,263.275,43.683z"/>
			<path d="M266.777,57.786c0.604,2.167-1.605,4.174-3.62,4.117c-2.015-0.056-4.471-2.078-4.427-4.217
				c0.044-2.14,0.807-3.344,3.17-3.573C264.264,53.884,266.199,55.707,266.777,57.786z"/>
			<path fill="#FFFFFF" d="M264.028,57.926c-0.052,1.13-0.925,1.471-1.497,1.401c-1-0.124-1.556-0.297-1.714-0.84
				c-0.282-0.977-0.032-1.629,1.2-1.873C262.875,56.443,264.068,57.043,264.028,57.926z"/>
			<path d="M265.036,23.606c2.292-0.329,6.95,0.894,7.959,4.378c0.283,0.978-0.22,2.91-1.03,2.989
				c-0.808,0.077-0.75-0.618-0.81-1.24c-0.192-1.991-2.788-3.498-5.208-3.201c-2.421,0.298-3.24,2.198-4.673,4.912
				c-1.433,2.713-3.153,1.812-2.499-0.513C259.43,28.608,261.01,24.185,265.036,23.606z"/>
		</g>
		<path id="Skäggstubb_1_" d="M256.152,77.748c0.292-0.028,0.553,0.185,0.58,0.477c0.027,0.291-0.186,0.551-0.477,0.579
			s-0.551-0.187-0.579-0.478S255.862,77.775,256.152,77.748z M249.576,77.849c0.033,0.341,0.336,0.59,0.676,0.557
			c0.341-0.033,0.59-0.335,0.557-0.676c-0.033-0.34-0.336-0.589-0.676-0.556S249.543,77.509,249.576,77.849z M246.912,81.97
			c0.031,0.314,0.312,0.547,0.627,0.516s0.547-0.311,0.517-0.627c-0.031-0.316-0.312-0.547-0.628-0.516
			C247.112,81.372,246.882,81.653,246.912,81.97z M237.914,82.968c0.041,0.412,0.406,0.715,0.82,0.674
			c0.414-0.039,0.717-0.406,0.676-0.82c-0.039-0.412-0.407-0.715-0.82-0.676C238.176,82.187,237.875,82.554,237.914,82.968z
			 M240.839,79.7c0.032,0.34,0.336,0.59,0.676,0.557c0.341-0.033,0.589-0.336,0.556-0.676s-0.334-0.589-0.675-0.557
			C241.055,79.058,240.806,79.36,240.839,79.7z M239.298,78.563c0.03,0.315,0.312,0.547,0.627,0.516s0.548-0.311,0.517-0.627
			c-0.031-0.314-0.312-0.547-0.627-0.517C239.498,77.966,239.268,78.248,239.298,78.563z M227.663,79.534
			c0.028,0.289,0.288,0.504,0.577,0.477c0.293-0.029,0.507-0.289,0.479-0.58c-0.029-0.291-0.288-0.504-0.58-0.477
			C227.848,78.982,227.634,79.241,227.663,79.534z M233.314,82.909c0.03,0.316,0.312,0.547,0.627,0.516
			c0.315-0.029,0.547-0.311,0.516-0.625c-0.029-0.316-0.311-0.549-0.627-0.518C233.515,82.313,233.283,82.595,233.314,82.909z
			 M263.002,79.532c0.03,0.314,0.312,0.545,0.627,0.516c0.315-0.031,0.547-0.312,0.517-0.627c-0.031-0.316-0.312-0.548-0.628-0.517
			C263.202,78.935,262.971,79.216,263.002,79.532z M252.121,83.38c0.033,0.34,0.336,0.59,0.676,0.557
			c0.341-0.033,0.59-0.336,0.557-0.678c-0.033-0.338-0.335-0.588-0.676-0.555C252.338,82.737,252.088,83.038,252.121,83.38z
			 M245.672,80.833c0.031,0.316,0.311,0.547,0.627,0.518c0.314-0.031,0.547-0.312,0.517-0.627c-0.03-0.316-0.313-0.547-0.628-0.518
			C245.871,80.237,245.641,80.519,245.672,80.833z M211.835,94.536c0.031,0.314,0.312,0.545,0.627,0.516
			c0.316-0.031,0.548-0.311,0.517-0.627c-0.029-0.314-0.312-0.547-0.627-0.518C212.036,93.938,211.805,94.22,211.835,94.536z
			 M221.083,103.655c0.028,0.291,0.288,0.504,0.579,0.477s0.505-0.289,0.477-0.578c-0.027-0.293-0.287-0.506-0.58-0.479
			C221.27,103.104,221.055,103.364,221.083,103.655z M217.793,106.767c0.03,0.316,0.311,0.549,0.627,0.518
			c0.314-0.031,0.547-0.312,0.518-0.627c-0.031-0.316-0.313-0.547-0.629-0.516C217.993,106.171,217.762,106.452,217.793,106.767z
			 M226.17,118.294c0.023,0.244,0.239,0.422,0.482,0.398c0.242-0.023,0.42-0.24,0.396-0.482c-0.023-0.244-0.238-0.422-0.482-0.398
			C226.324,117.835,226.146,118.052,226.17,118.294z M227.598,116.462c0.029,0.291,0.288,0.504,0.579,0.477
			c0.292-0.029,0.506-0.289,0.478-0.58s-0.289-0.506-0.58-0.477C227.784,115.911,227.57,116.169,227.598,116.462z M227.738,118.425
			c0.027,0.268,0.264,0.463,0.531,0.438s0.463-0.264,0.438-0.531c-0.026-0.266-0.264-0.463-0.531-0.438
			C227.909,117.921,227.714,118.159,227.738,118.425z M233.379,116.247c0.035,0.363,0.359,0.631,0.725,0.596
			c0.363-0.037,0.631-0.361,0.596-0.725c-0.037-0.363-0.36-0.631-0.725-0.596C233.609,115.558,233.343,115.882,233.379,116.247z
			 M240.466,117.569c0.026,0.268,0.263,0.463,0.53,0.436c0.268-0.025,0.464-0.262,0.438-0.529c-0.025-0.268-0.264-0.463-0.531-0.438
			C240.635,117.065,240.439,117.302,240.466,117.569z M235.455,121.069c0.018,0.17,0.17,0.293,0.34,0.277s0.294-0.168,0.277-0.338
			s-0.168-0.295-0.338-0.279C235.564,120.747,235.439,120.897,235.455,121.069z M234.583,123.226
			c0.03,0.316,0.312,0.547,0.627,0.516c0.315-0.029,0.548-0.311,0.517-0.627c-0.031-0.314-0.312-0.547-0.628-0.518
			C234.783,122.628,234.553,122.911,234.583,123.226z M240.166,123.813c0.031,0.316,0.311,0.547,0.627,0.518
			c0.314-0.031,0.547-0.312,0.517-0.627c-0.03-0.316-0.312-0.547-0.628-0.518C240.367,123.218,240.136,123.499,240.166,123.813z
			 M244.593,128.001c0.019,0.193,0.19,0.336,0.385,0.316c0.195-0.018,0.337-0.189,0.318-0.385s-0.191-0.336-0.386-0.318
			C244.716,127.634,244.574,127.806,244.593,128.001z M246.146,128.542c0.042,0.436,0.432,0.758,0.869,0.715
			s0.757-0.432,0.715-0.869c-0.043-0.438-0.431-0.758-0.867-0.715C246.426,127.716,246.104,128.104,246.146,128.542z
			 M247.158,115.099c0.022,0.219,0.217,0.379,0.436,0.359c0.219-0.021,0.379-0.217,0.357-0.434
			c-0.021-0.221-0.215-0.379-0.435-0.359C247.299,114.687,247.138,114.88,247.158,115.099z M250.761,119.618
			c0.028,0.291,0.288,0.504,0.579,0.477c0.291-0.029,0.505-0.289,0.477-0.58c-0.027-0.291-0.288-0.506-0.58-0.477
			C250.947,119.065,250.732,119.327,250.761,119.618z M244.877,120.595c0.031,0.316,0.312,0.547,0.627,0.516
			c0.316-0.029,0.548-0.311,0.517-0.627c-0.03-0.314-0.312-0.547-0.627-0.516S244.847,120.28,244.877,120.595z M256.371,115.306
			c0.028,0.291,0.287,0.506,0.578,0.477c0.292-0.027,0.506-0.287,0.477-0.578c-0.027-0.291-0.287-0.506-0.578-0.479
			C256.557,114.755,256.342,115.015,256.371,115.306z M261.223,114.837c0.029,0.291,0.289,0.504,0.578,0.475
			c0.293-0.027,0.507-0.287,0.479-0.576c-0.027-0.293-0.288-0.508-0.58-0.479C261.408,114.284,261.194,114.544,261.223,114.837z
			 M271.999,108.612c0.026,0.266,0.263,0.463,0.53,0.436c0.268-0.025,0.463-0.262,0.438-0.531c-0.026-0.266-0.265-0.463-0.531-0.436
			C272.168,108.106,271.973,108.345,271.999,108.612z M262.408,118.771c0.03,0.316,0.311,0.549,0.626,0.518
			c0.316-0.031,0.548-0.312,0.517-0.627c-0.029-0.316-0.312-0.547-0.627-0.518C262.608,118.175,262.377,118.456,262.408,118.771z
			 M261.441,121.001c0.04,0.412,0.406,0.715,0.82,0.674c0.412-0.039,0.716-0.406,0.676-0.82c-0.04-0.412-0.408-0.715-0.821-0.676
			C261.703,120.22,261.401,120.587,261.441,121.001z M255.689,120.991c0.036,0.365,0.36,0.633,0.725,0.596
			c0.364-0.035,0.631-0.359,0.596-0.723c-0.035-0.365-0.359-0.633-0.725-0.598C255.922,120.304,255.654,120.628,255.689,120.991z
			 M262.381,125.995c0.025,0.268,0.263,0.463,0.53,0.436c0.267-0.025,0.464-0.262,0.438-0.529s-0.265-0.463-0.531-0.438
			C262.549,125.491,262.354,125.728,262.381,125.995z M256.924,128.565c0.048,0.484,0.479,0.84,0.965,0.793s0.841-0.479,0.794-0.965
			c-0.048-0.486-0.478-0.842-0.966-0.793C257.231,127.647,256.877,128.079,256.924,128.565z M270.885,115.249
			c0.025,0.268,0.262,0.463,0.529,0.438s0.463-0.264,0.438-0.531c-0.026-0.266-0.264-0.461-0.53-0.436
			C271.053,114.745,270.858,114.983,270.885,115.249z M265.578,112.122c0.045,0.461,0.455,0.799,0.918,0.754
			c0.461-0.043,0.799-0.455,0.754-0.916s-0.455-0.799-0.916-0.754S265.534,111.661,265.578,112.122z M259.244,82.722
			c0.016,0.17,0.168,0.295,0.338,0.277c0.17-0.016,0.295-0.168,0.277-0.338c-0.016-0.17-0.167-0.295-0.337-0.279
			C259.353,82.399,259.228,82.552,259.244,82.722z M263.867,76.779c0.02,0.194,0.191,0.336,0.385,0.318
			c0.195-0.019,0.338-0.192,0.319-0.386c-0.019-0.195-0.192-0.337-0.387-0.318S263.848,76.583,263.867,76.779z M221.085,78.254
			c0.026,0.269,0.263,0.464,0.53,0.438c0.267-0.026,0.463-0.263,0.438-0.531c-0.027-0.267-0.265-0.462-0.531-0.437
			C221.254,77.75,221.059,77.988,221.085,78.254z M245.396,77.47c0.021,0.218,0.217,0.379,0.436,0.356
			c0.219-0.021,0.379-0.216,0.357-0.434c-0.021-0.219-0.216-0.379-0.435-0.358C245.537,77.056,245.375,77.251,245.396,77.47z
			 M241.943,83.8c0.018,0.195,0.19,0.338,0.385,0.318c0.194-0.018,0.336-0.191,0.318-0.385c-0.02-0.195-0.191-0.338-0.387-0.318
			C242.065,83.435,241.924,83.606,241.943,83.8z M259.381,77.402c0.023,0.243,0.24,0.421,0.482,0.397s0.42-0.239,0.396-0.482
			s-0.239-0.421-0.482-0.397C259.535,76.943,259.357,77.159,259.381,77.402z M251.135,131.261c0.029,0.291,0.287,0.504,0.578,0.477
			c0.293-0.027,0.507-0.289,0.479-0.58c-0.029-0.291-0.289-0.504-0.58-0.477C251.32,130.71,251.106,130.97,251.135,131.261z
			 M252.631,126.72c0.019,0.195,0.191,0.336,0.386,0.318c0.194-0.02,0.337-0.191,0.317-0.387c-0.019-0.193-0.19-0.336-0.385-0.316
			C252.754,126.353,252.612,126.524,252.631,126.72z"/>
		<g id="Mun_1_">
			<path d="M279.412,66.357c-2.389,0.608-2.945,1.353-3.551,2.228c-2.068,2.986-1.473,3.536-3.078,9.718
				c-3.109,11.98-19.158,9.642-33.812,10.056c-3.943,0.111-1.328-0.75-8.54-1.307s-11.354-4.426-13.253-5.875
				c-1.898-1.447-3.773-2.648-4.934-5.549s-1.827-5.553-4.123-6.257c-6.213-1.909-2.107,1.586-0.493,2.686
				c1.614,1.099,3.048,4.226,3.986,6.144c0.938,1.918,2.539,3.745,6.397,6.413c3.904,2.699,2.496,5.662,2.237,8.826
				c-0.262,3.203,1.666,4.234,3.267,5.209c1.603,0.975,2.846,0.854,3.481,4.811c0.634,3.959,3.033,4.732,5.606,4.732
				c1.891,0.068,3.336-0.574,5.383,1.111s11.254,0.793,12.551-0.086c1.295-0.879,0.039-0.883,2.238-0.217
				c2.2,0.666,3.594,0.783,7.213,0.557c3.62-0.225,3.919-2.057,4.378-4.066c0.618-2.697,0.345-2.922,4.414-3.693
				c1.76-0.332,3.167-2.314,2.998-4.057c-0.267-2.75,0.233-2.785,2.44-4.633c2.207-1.846,1.494-4.301,1.5-6.549
				c0.002-0.629-0.328-1.49-0.779-1.559c-0.51-0.074-0.576-0.928-0.672-1.756c-0.381-3.291,0.201-3.096,0.748-6.54
				c1.299-8.209,2.873-7.938,4.826-8.505C281.797,67.633,283.26,65.377,279.412,66.357z"/>
			<g>
				<path fill="#FFFFFF" d="M249.078,90.269c6.504-0.08,8.957-0.867,12.653-1.604c3.696-0.734,4.308-0.92,5.8-1.064
					c1.493-0.145,2.115-0.203,2.625,3.766s1.418,8.15-2.029,8.861s-2.963,0.539-3.244-1.066c-0.28-1.607-1.404-4.135-1.056-0.527
					c0.351,3.609,0.808,8.336-4.915,8.893c-3.981,0.385-6.236,1.732-7.148-5.086c-1.044-7.807-2.533-7.16-1.811-1.834
					c0.877,6.445-0.084,6.916-5.071,7.273c-4.989,0.357-7.839,0.76-8.763-6.184s-1.377-1.248-1.356,0.258
					c0.021,1.504,0.562,3.209-2.585,3.137c-3.146-0.07-4.361-0.957-4.656-6.58c-0.293-5.623-1.01-6.162-1.369-3.762
					c-0.075,0.51-0.051,0.76-1.283,1.004c-1.232,0.246-2.501,0.117-2.766-2.621c-0.266-2.736-0.521-2.041-0.42-3.035
					c0.129-1.27,1.455-1.836,3.568-1.412c1.965,0.393,4.825-0.092,8.814,0.902C238.057,90.583,240.172,90.378,249.078,90.269z"/>
				<path fill="#FFFFFF" d="M274.41,87.312c0.497,1.811,0.381,3.145-1.518,3.789c-2.066,0.703-2.299-0.404-2.379-2.533
					c-0.053-3.133,0.469-2.934,1.89-3.824C273.68,83.942,273.438,83.765,274.41,87.312z"/>
			</g>
		</g>
	</g>
</g>
<g>
</g>
<g>
</g>
<g>
</g>
<g>
</g>
<g>
</g>
<g>
</g>
</svg>
